<?xml version="1.0" standalone="no"?>
<!DOCTYPE svg PUBLIC "-//W3C//DTD SVG 20010904//EN"
 "http://www.w3.org/TR/2001/REC-SVG-20010904/DTD/svg10.dtd">
<svg version="1.0" xmlns="http://www.w3.org/2000/svg"
 width="576.000000pt" height="576.000000pt" viewBox="0 0 576.000000 576.000000"
 preserveAspectRatio="xMidYMid meet">
<metadata>
Created by potrace 1.14, written by Peter Selinger 2001-2017
</metadata>
<g transform="translate(0.000000,576.000000) scale(0.100000,-0.100000)"
fill="#000000" stroke="none">
<path d="M2639 5239 c-30 -25 -135 -119 -170 -151 -42 -37 -179 -161 -203
-183 -65 -58 -174 -156 -197 -176 -14 -13 -63 -58 -109 -99 -46 -41 -93 -84
-106 -95 -12 -11 -35 -31 -50 -45 -163 -145 -242 -216 -255 -229 -9 -9 -49
-45 -89 -81 -90 -79 -100 -88 -192 -171 -40 -36 -120 -108 -178 -160 -58 -52
-122 -110 -144 -129 -51 -46 -69 -63 -156 -140 -40 -36 -82 -74 -94 -85 -13
-11 -55 -49 -95 -85 -40 -36 -83 -74 -95 -85 -12 -11 -57 -51 -101 -90 -43
-38 -90 -81 -105 -95 -15 -14 -58 -53 -96 -86 -38 -34 -87 -78 -108 -97 l-39
-36 1 -1058 c0 -582 1 -1066 1 -1075 1 -17 144 -18 2849 -18 l2848 0 -1 398 0
397 -2447 3 c-2322 2 -2448 3 -2449 20 0 9 -1 233 -1 496 l-1 480 50 45 c50
46 201 183 233 211 10 8 50 44 90 80 41 36 91 81 113 100 22 19 56 51 76 70
31 29 115 105 201 180 34 30 174 156 206 185 18 17 56 50 84 75 28 25 68 61
89 80 20 19 68 63 107 96 38 34 81 73 95 85 14 13 56 51 93 84 37 33 88 79
112 101 25 23 69 62 98 87 29 25 71 63 94 85 89 84 126 113 139 108 21 -9 138
-89 141 -98 2 -4 8 -8 13 -8 6 0 74 -44 152 -98 78 -54 198 -136 267 -182 69
-46 127 -87 128 -92 2 -4 9 -8 15 -8 6 0 20 -9 31 -19 12 -11 35 -27 53 -38
28 -16 102 -66 353 -238 41 -28 97 -66 124 -85 l49 -33 831 1 c457 0 839 1
849 1 16 1 17 27 17 400 l0 398 -726 0 -725 0 -60 41 c-33 23 -65 42 -70 42
-5 0 -9 5 -9 10 0 6 -10 15 -22 21 -21 9 -78 46 -104 67 -5 5 -21 15 -35 22
-13 7 -26 16 -29 20 -3 3 -75 53 -160 111 -85 57 -156 107 -158 112 -2 4 -10
7 -18 7 -8 0 -14 3 -14 8 0 4 -9 12 -20 17 -33 17 -325 218 -328 227 -2 4 -8
8 -14 8 -8 0 -93 55 -108 70 -3 3 -45 32 -95 65 -49 33 -96 65 -103 72 -6 6
-21 15 -32 18 -11 3 -20 11 -20 16 0 5 -4 9 -10 9 -11 0 -113 71 -118 82 -2 5
-8 8 -13 8 -5 0 -31 16 -58 35 l-48 35 -24 -21z"/>
</g>
</svg>
