<svg id="Layer_1" enable-background="new 0 0 512.048 512.048" height="512" viewBox="0 0 512.048 512.048" width="512" xmlns="http://www.w3.org/2000/svg"><g><g><g><g><g><g><path d="m278.599 364.483c-45.462 16.324-95.577-7.374-111.935-52.929l-45.403-126.818c-16.358-45.556 7.236-95.719 52.698-112.043 45.462-16.324 95.577 7.374 111.935 52.929l45.403 126.818c16.358 45.556-7.236 95.72-52.698 112.043z" fill="#fed23a"/><path d="m331.297 252.44-45.403-126.818c-15.223-42.396-59.682-65.853-102.419-55.748 27.884 6.587 52 26.731 62.419 55.748l45.403 126.818c16.358 45.556-7.235 95.719-52.698 112.043-3.154 1.132-6.33 2.065-9.516 2.819 15.894 3.755 33.011 3.108 49.516-2.819 45.462-16.323 69.056-66.487 52.698-112.043z" fill="#f7c000"/><g><path d="m285.894 125.623c-16.358-45.556-66.473-69.253-111.935-52.93-45.462 16.324-69.056 66.487-52.698 112.043l13.722 38.588 164.489-59.513z" fill="#fed23a"/><g><path d="m245.894 125.623 20.759 50.063 32.819-11.874-13.578-38.189c-15.223-42.396-59.682-65.853-102.419-55.748 27.885 6.587 52 26.731 62.419 55.748z" fill="#f7c000"/></g><path d="m278.599 364.483c36.24-13.013 58.557-47.531 57.845-84.075l-155.696 56.332c22.736 28.415 61.751 40.705 97.851 27.743z" fill="#6d788a"/><path d="m295.452 295.24c-4.677 30.751-25.57 58.011-56.852 69.243-3.143 1.129-6.31 2.054-9.484 2.806 15.884 3.753 32.986 3.118 49.484-2.806 36.24-13.012 58.557-47.531 57.845-84.074z" fill="#636d7d"/><path d="m299.472 163.811-164.489 59.514 20.652 57.515 164.49-59.514z" fill="#6d788a"/></g></g><path d="m218.813 192.928s69.278-106.426 109.092-120.721 83.701 6.457 98.027 46.353-6.336 83.826-46.15 98.121-160.969-23.753-160.969-23.753z" fill="#73e3f0"/><path d="m425.931 118.559c-13.626-37.948-53.998-58.552-92.171-48.172 23.355 6.352 43.359 23.632 52.171 48.172 14.325 39.896-6.336 83.826-46.15 98.121-2.079.746-4.391 1.342-6.884 1.816 18.956 2.083 35.976 2.101 46.884-1.816 39.814-14.295 60.476-58.225 46.15-98.121z" fill="#57d7e6"/><g><path d="m219.177 193.963s-69.278 106.426-109.092 120.721-83.701-6.457-98.027-46.353 6.336-83.826 46.15-98.121 160.969 23.753 160.969 23.753z" fill="#73e3f0"/></g><path d="m65.093 168.395c50.229 5.519 114.084 25.569 114.084 25.569s-69.278 106.425-109.091 120.721c-1.943.698-3.898 1.287-5.856 1.82 14.612 3.974 30.533 3.682 45.856-1.82 39.813-14.296 109.092-120.721 109.092-120.721s-108.823-34.171-154.085-25.569z" fill="#57d7e6"/></g></g></g></g><g fill="#060606"><path d="m294.662 387.02-6.574-18.304c12.353-5.576 23.425-13.745 32.325-23.926 6.383-7.301-4.912-17.172-11.294-9.871-8.864 10.141-20.293 17.923-33.053 22.505-29.321 8.378-58.509 5.042-82.179-17.463l134.544-48.678c-.465 4.021-1.236 8.008-2.309 11.932-2.557 9.354 11.913 13.309 14.469 3.955 2.332-8.528 3.452-17.315 3.352-26.13.021-.256.03-.516.025-.778-.202-10.331-2.09-20.544-5.611-30.35l-8.679-24.242c16.874 1.974 36.335 3.924 52.637-1.93 21.144-7.592 38.059-22.979 47.629-43.327 9.568-20.343 10.649-43.209 3.044-64.387-15.7-43.726-63.98-66.55-107.62-50.878-11.934 4.285-26.841 15.956-44.509 34.801-17.339-24.412-44.786-38.751-73.719-39.846l-4.693-12.971c-4.156-11.488 1.902-24.554 13.409-28.716l10.544-3.815c9.119-3.299 4.015-17.401-5.104-14.105l-10.544 3.815c-19.025 6.884-29.304 28.874-22.411 47.925l3.101 8.572c-12.817 1.658-25.231 5.939-36.351 12.518l-2.899-8.011c-7.023-19.413-28.505-29.502-47.888-22.49l-10.544 3.815c-9.119 3.299-4.015 17.403 5.104 14.105l10.544-3.815c11.602-4.197 24.469 1.852 28.679 13.488l4.302 11.891c-13.596 11.428-23.671 26.432-29.148 43.182-3.764 11.512-5.269 23.706-4.46 35.783-23.914-2.835-41.706-2.219-53.111 1.877-8.553 3.071-16.513 7.488-23.657 13.129-7.61 6.01 1.683 17.78 9.295 11.773 5.869-4.634 12.407-8.263 19.431-10.785 28.1-10.089 107.949 9.587 146.599 20.944-22.597 33.348-71.691 99.323-99.791 109.413-35.856 12.875-75.528-5.89-88.434-41.828-5.719-15.928-5.42-33.353.841-49.065 3.59-9.009-10.344-14.561-13.935-5.553-7.617 19.115-7.98 40.313-1.023 59.687 12.34 34.367 44.806 55.822 79.329 55.821 28.199-.003 48.487-14.894 67.526-34.248 6.124 17.104 11.421 34.449 22.97 48.892 22.871 29.481 63.399 42.203 99.147 32.456l6.574 18.303c3.22 8.953 17.397 4.055 14.12-5.07zm-111.234-59.225c-3.959-5.677-7.254-11.95-9.703-18.769l-8.48-23.687 150.384-54.41 8.609 24.046c2.364 6.586 3.84 13.383 4.437 20.269zm147.011-248.53c35.858-12.875 75.528 5.89 88.433 41.829 6.252 17.413 5.364 36.212-2.501 52.935-7.862 16.717-21.757 29.357-39.125 35.594-28.098 10.088-107.95-9.587-146.599-20.944 22.598-33.349 71.692-99.324 99.792-109.414zm-175.211 90.135c-11.202-2.454-21.6-4.445-31.202-5.985-3.878-36.464 17.569-71.133 52.468-83.664 35.128-12.611 73.92.704 94.033 31.676-5.745 6.621-11.743 13.905-17.997 21.869-17.254 21.972-31.697 43.103-37.394 51.608-10.777-3.198-34.133-9.858-59.908-15.504zm67.626 32.587c10.777 3.198 34.133 9.858 59.908 15.505 5.717 1.252 11.224 2.384 16.525 3.398l-123.448 44.664c3.139-3.806 6.343-7.784 9.62-11.958 17.255-21.973 31.698-43.104 37.395-51.609z"/><path d="m338.865 121.729c7.555-2.733 15.716-2.358 22.982 1.057 7.272 3.417 12.787 9.473 15.528 17.051 3.236 8.945 17.403 4.013 14.105-5.104-4.103-11.341-12.362-20.405-23.254-25.523-10.898-5.12-23.139-5.686-34.465-1.586-9.119 3.299-4.014 17.401 5.104 14.105z"/><path d="m502.713 443.849c-9.194 2.466-19.461 3.873-29.821 3.9 5.121-16.733 6.271-34.816 3.644-51.763-4.145-26.738-19.947-53.282-47.069-61.439-18.948-5.698-41.981.124-51.315 18.833-12.794 25.644 2.096 57.838 19.401 77.449 14.135 16.019 32.723 26.119 53.698 29.721-9.225 16.257-24.154 28.753-42.561 33.967-23.774 6.734-55.182 1.18-72.476-17.434-6.083-6.548-9.407-15.157-9.982-23.883 5.202.807 10.559.634 15.756-.531 17.959-4.026 35.418-24.74 22.151-42.614-8.401-11.319-24.121-7.818-33.769-.192-7.217 5.705-12.532 13.263-15.767 21.685-1.249-1.137-2.415-2.371-3.484-3.701-3.306-4.115-5.658-9.03-7.415-13.975-3.209-9.033-17.707-5.141-14.464 3.988 4.205 11.836 10.96 23.01 21.834 29.747-2.218 33.172 26.509 55.535 56.038 62.129 30.363 6.78 63.028-1.344 84.567-24.408 6.386-6.838 11.566-14.667 15.591-23.094 13.177.571 26.666-.498 39.43-3.92 9.315-2.499 5.363-16.973-3.987-14.465zm-162.549-22.716c12.991-9.402 18.434 5.638 6.948 13.211-5.21 3.435-12.842 5.307-19.131 4.02 2.163-6.803 6.221-12.915 12.183-17.231zm88.507 16.111c-20.796-12.17-38.796-35.928-40.13-60.663-2.134-39.56 45.973-32.417 61.927-8.352 15.091 22.763 15.502 53.178 6.937 78.482-10.324-1.457-20.241-4.497-28.734-9.467z"/></g></g></svg>