<?xml version="1.0" encoding="utf-8"?>
<svg viewBox="148.613 805.774 128.109 154.332" xmlns="http://www.w3.org/2000/svg">
  <path id="path20" style="fill-opacity:1;fill-rule:nonzero;stroke:none" d="m 1114.6,1085.35 c 0,0 47.87,33.14 150.98,42.34 0,0 102.18,75.49 237.51,-13.81 0,0 73.63,-49.71 79.18,-132.56 0,0 -7.37,-58.91 16.57,-112.308 0,0 14.72,-68.11 120.58,-141.762 0,0 62.61,-62.598 96.66,-122.441 0,0 135.34,-167.547 146.41,-279.848 0,0 -17.51,-4.609 -30.41,-1.852 0,0 1.84,-28.527 28.54,-60.738 0,0 104.01,-151.902 109.55,-182.3007 0,0 16.58,-42.3203 -9.21,-15.6289 0,0 -34.98,20.25 -46.02,29.4609 0,0 -28.56,21.1677 -12.9,0.9063 0,0 10.11,-20.2578 -11.04,-5.5273 0,0 -28.51,-0.8907 -49.73,17.4887 0,0 -84.68,133.5 -100.32,169.378 0,0 -8.28,-25.769 -29.47,-33.136 0,0 -73.64,-71.801 -78.25,-110.461 0,0 -21.18,-37.7424 -36.81,-41.4221 0,0 32.24,-29.4687 58.02,-41.418 0,0 32.17,-20.2617 18.38,-49.7109 0,0 0.93,15.6484 -17.48,25.7695 0,0 -54.33,45.1094 -71.83,45.1094 0,0 -20.23,0 -35.9,12.8906 0,0 -65.34,17.4805 -42.32,-41.4492 0,0 -14.75,0.9414 -21.22,12.8985 0,0 -7.35,20.2812 1.88,34.9921 0,0 -46.04,27.6211 -70.89,-18.4101 0,0 -9.21,18.4101 10.11,34.0582 0,0 -41.4,4.61 -36.8,-39.5895 0,0 -25.78,38.6715 34.07,61.6915 0,0 23,11.027 43.26,-1.859 0,0 74.56,-37.7114 110.44,7.371 0,0 55.25,46.047 101.28,121.519 0,0 -13.8,9.188 -3.67,39.59 0,0 -118.76,0.898 -145.46,28.527 0,0 11.05,-43.257 -39.58,-69.949 0,0 -117.84,-76.418 -130.72,-116.91 0,0 33.13,-11.07 39.58,-19.34 0,0 12.89,-11.969 12.89,-23.9491 0,0 -14.73,23.0311 -43.27,13.8091 0,0 -17.47,-20.2505 -55.22,-22.0786 0,0 -47.86,9.2109 -32.24,-17.5 l 7.37,-18.4023 c 0,0 -10.15,2.7617 -14.72,11.9531 0,0 -11.98,8.2891 -8.27,22.1094 0,0 -24.86,19.3204 -38.67,-11.9727 0,0 -9.24,-11.0586 -8.32,-20.25 0,0 -6.42,18.4024 -4.59,26.6914 0,0 -1.83,10.1211 11.99,17.4883 0,0 -18.43,6.4414 -32.22,-17.4883 0,0 -8.31,-16.5781 -0.95,-26.6914 0,0 -21.17,42.332 3.7,59.8401 0,0 -17.5,9.191 43.27,4.594 0,0 46.03,-13.813 83.77,23.019 0,0 119.67,98.488 138.99,138.066 0,0 4.62,45.133 -31.29,93.922 0,0 -183.19,101.25 -230.12,255.903 0,0 -44.22,103.117 -46.95,146.379 0,0 -19.36,58 38.63,112.32 l 4.61,57.988 c 0,0 -34.98,6.442 -63.54,65.36 0,0 -15.63,51.55 -117.82,77.33" transform="matrix(0.133333, 0, 0, -0.133333, 0, 960.106575)"/>
</svg>
