<?xml version="1.0" encoding="utf-8"?>
<svg viewBox="0 -400 4000 1400" xmlns="http://www.w3.org/2000/svg">
  <path d="M 1830 -357 C 1853 -372 1885 -373 1913 -378 C 1881 -370 1850 -363 1822 -346 L 1818 -338 C 1796 -330 1771 -329 1749 -320 C 1782 -318 1814 -335 1847 -334 C 1715 -305 1582 -274 1450 -248 C 1488 -280 1544 -273 1580 -308 C 1610 -313 1637 -329 1668 -328 C 1688 -322 1705 -333 1724 -334 C 1731 -356 1758 -365 1778 -356 C 1795 -348 1812 -360 1830 -357 Z M 2406 -329 C 2490 -330 2574 -330 2657 -313 C 2667 -311 2678 -309 2684 -300 C 2646 -277 2600 -271 2557 -261 L 2556 -256 C 2566 -254 2576 -253 2585 -249 C 2540 -248 2495 -251 2451 -242 C 2476 -234 2505 -234 2530 -225 C 2466 -226 2401 -225 2338 -236 L 2338 -244 C 2421 -264 2506 -276 2589 -296 C 2586 -300 2582 -302 2576 -302 C 2519 -308 2462 -319 2406 -329 Z M 2015 -254 C 2116 -264 2218 -277 2319 -286 L 2319 -280 C 2269 -271 2218 -265 2169 -252 L 2168 -246 C 2180 -246 2191 -248 2203 -247 C 2158 -232 2109 -231 2063 -223 C 2052 -228 2022 -222 2039 -241 L 2038 -250 C 2030 -250 2019 -244 2015 -254 Z M 2051 -239 C 2074 -221 2106 -245 2133 -243 L 2133 -251 C 2106 -250 2078 -246 2051 -239 Z M 2732 -272 C 2795 -281 2857 -260 2920 -264 C 2875 -252 2825 -251 2781 -236 C 2809 -236 2837 -239 2865 -237 C 2775 -228 2686 -216 2597 -199 C 2526 -189 2453 -184 2382 -174 C 2372 -174 2358 -165 2354 -178 C 2433 -202 2519 -208 2601 -227 C 2617 -242 2637 -251 2660 -252 C 2680 -270 2709 -263 2732 -272 Z M 2930 -212 C 2948 -213 2967 -218 2985 -216 C 2945 -203 2895 -204 2860 -186 C 2877 -181 2894 -184 2911 -183 L 2899 -176 C 2928 -176 2957 -180 2987 -177 C 2954 -168 2914 -154 2882 -168 C 2839 -166 2795 -171 2752 -163 C 2744 -166 2749 -175 2754 -178 C 2688 -171 2623 -158 2557 -153 L 2557 -162 C 2680 -185 2806 -195 2930 -212 Z" style="fill: var(--c0);"/>
</svg>