<?xml version="1.0" encoding="iso-8859-1"?>
<!-- Generator: Adobe Illustrator 19.0.0, SVG Export Plug-In . SVG Version: 6.00 Build 0)  -->
<svg version="1.1" id="Capa_1" xmlns="http://www.w3.org/2000/svg" xmlns:xlink="http://www.w3.org/1999/xlink" x="0px" y="0px"
	 viewBox="0 0 512 512" style="enable-background:new 0 0 512 512;" xml:space="preserve">
<g>
	<path style="fill:#154884;" d="M137.256,423.037h34.564v-86.081l-35.721-5.413c0.733,1.389,1.156,2.963,1.156,4.635
		L137.256,423.037L137.256,423.037z"/>
	<path style="fill:#154884;" d="M102.82,326.5c-0.41-0.095-0.823-0.205-1.237-0.322h-4.501c-5.5,0-12.264,3.891-15.029,8.643
		l-24.218,41.614l-39.323,0.001v32.25c0,11.699,9.484,21.186,21.184,21.186h60.177c1.333-3.959,5.081-6.834,9.475-6.834h27.909
		v-86.859c0-1.671-0.42-3.246-1.152-4.635L102.82,326.5z"/>
</g>
<path style="fill:#89C947;" d="M311.432,360.547c0.332,0.492,0.793,0.898,1.348,1.162c7.839,3.726,17.172,3.035,24.358-1.807
	c7.186-4.844,11.333-13.236,10.819-21.9c-0.039-0.615-0.24-1.193-0.571-1.686c-0.333-0.492-0.792-0.897-1.348-1.16
	c-7.84-3.729-17.173-3.037-24.359,1.805c-7.187,4.846-11.332,13.236-10.817,21.9C310.898,359.477,311.101,360.055,311.432,360.547z"
	/>
<path style="fill:#FF6A76;" d="M384.292,279.623c0-2.218,0.165-4.355,0.463-6.423c-0.435,0.505-0.837,1.047-1.188,1.64
	l-33.565,56.773l19.689,11.641l14.601-24.697L384.292,279.623L384.292,279.623z"/>
<g>
	<path style="fill:#FCDB80;" d="M177.935,304.994h7.301l-2.72-16.162c-0.296-1.758,0.398-3.297,1.664-4.171l-25.625-3.883
		l-3.259,23.079l18.895,2.863C175.109,305.672,176.44,304.994,177.935,304.994z"/>
	<path style="fill:#FCDB80;" d="M82.132,312.902l-24.425-33.145c-4.971-6.746-3.533-16.242,3.215-21.217
		c6.746-4.971,16.244-3.533,21.214,3.215l24.367,33.068c0.62,0.691,2.366,1.836,3.247,2.133l45.546,6.9l10.564-74.818
		c0.845-5.201-0.425-10.246-3.48-13.836c-2.779-3.268-6.752-5.066-11.184-5.066h-10.883c-8.737,5.586-19.081,8.832-30.18,8.832
		c-11.1,0-21.445-3.243-30.18-8.832H60c-9.356,0-17.959,7.85-19.57,17.791L13.205,372.621c-0.178,0.941,0.074,1.914,0.686,2.65
		c0.611,0.738,1.52,1.164,2.478,1.164l41.467-0.001l24.218-41.614c2.766-4.752,9.529-8.643,15.029-8.643h4.501
		C94.338,324.139,86.491,318.82,82.132,312.902z"/>
</g>
<g style="opacity:0.1;">
	<path style="fill:#37005E;" d="M34.775,375.272c-0.611-0.736-0.863-1.709-0.686-2.65L61.314,227.93
		c1.611-9.941,10.214-17.791,19.57-17.791H60c-9.356,0-17.959,7.85-19.57,17.791L13.205,372.621
		c-0.178,0.941,0.074,1.914,0.686,2.65c0.611,0.738,1.52,1.164,2.478,1.164H37.25C36.293,376.435,35.386,376.01,34.775,375.272z"/>
</g>
<path style="fill:#FFB98A;" d="M110.133,218.969c-8.457,0-16.474-1.888-23.678-5.254v5.557c0,11.391,9.235,20.627,20.627,20.627
	c11.391,0,20.627-9.236,20.627-20.627v-3.133C122.175,217.967,116.271,218.969,110.133,218.969z"/>
<path style="fill:#FFD5B3;" d="M53.531,136.823h-3.357c-6.055,0-11.008,4.953-11.008,11.008v12.736
	c0,6.055,4.953,11.01,11.008,11.01h4.215c4.634,26.922,27.82,47.393,55.744,47.393c31.26,0,56.6-25.646,56.6-57.287v-46.365H53.531
	V136.823z"/>
<g>
	<path style="fill:#A75436;" d="M188.579,423.037h-38.337c5.5,0,10,4.5,10,10v10.248c0,5.5-4.5,10-10,10h38.337c5.5,0,10-4.5,10-10
		v-10.248C198.579,427.537,194.079,423.037,188.579,423.037z"/>
	<path style="fill:#A75436;" d="M99.347,443.285c0,5.5,4.5,10,10,10h40.896c5.5,0,10-4.5,10-10v-10.248c0-5.5-4.5-10-10-10h-40.896
		c-5.5,0-10,4.5-10,10V443.285z"/>
</g>
<g style="opacity:0.1;">
	<path style="fill:#37005E;" d="M120.104,443.285v-10.248c0-5.5,4.5-10,10-10h-20.758c-5.5,0-10,4.5-10,10v10.248
		c0,5.5,4.5,10,10,10h20.758C124.604,453.285,120.104,448.785,120.104,443.285z"/>
</g>
<path style="fill:#FCDB80;" d="M172.935,336.787v-26.793c0-1.256,0.484-2.394,1.256-3.273l-64.44-9.764
	c-0.881-0.297-2.627-1.441-3.247-2.133l-24.367-33.068c-4.97-6.748-14.468-8.186-21.214-3.215
	c-6.748,4.975-8.186,14.471-3.215,21.217l24.425,33.145c4.608,6.256,13.116,11.848,20.688,13.598l70.149,10.63
	C172.961,337.016,172.935,336.904,172.935,336.787z"/>
<path style="fill:#0481BF;" d="M53.531,115.316c0-31.26,25.342-56.602,56.6-56.602c31.261,0,56.601,25.342,56.601,56.602H53.531z"/>
<g style="opacity:0.1;">
	<path style="fill:#37005E;" d="M120.12,59.613c-3.244-0.578-6.578-0.898-9.988-0.898c-31.259,0-56.6,25.342-56.6,56.602h19.976
		C73.508,87.469,93.629,64.333,120.12,59.613z"/>
</g>
<path style="fill:#D48748;" d="M246.624,283.9h-59.938c-2.75,0-4.627,2.219-4.17,4.932l2.72,16.162h12.804c2.75,0,5,2.25,5,5v26.793
	c0,2.75-2.25,5-5,5h-6.611l0.312,1.852c0.457,2.711,3.08,4.93,5.83,4.93h38.172c2.75,0,5.373-2.219,5.83-4.93l9.223-54.807
	C251.251,286.119,249.374,283.9,246.624,283.9z"/>
<g style="opacity:0.1;">
	<path style="fill:#37005E;" d="M212.292,343.639l-9.224-54.807c-0.457-2.713,1.42-4.932,4.17-4.932h-20.553
		c-2.75,0-4.627,2.219-4.17,4.932l2.72,16.162h12.804c2.75,0,5,2.25,5,5v26.793c0,2.75-2.25,5-5,5h-6.611l0.312,1.852
		c0.457,2.711,3.08,4.93,5.83,4.93h20.553C215.372,348.568,212.749,346.35,212.292,343.639z"/>
</g>
<path style="fill:#FFD5B3;" d="M203.039,336.787c0,2.75-2.25,5-5,5h-20.104c-2.75,0-5-2.25-5-5v-26.793c0-2.75,2.25-5,5-5h20.104
	c2.75,0,5,2.25,5,5V336.787z"/>
<g>
	<path style="fill:#368C0E;" d="M214.198,255.833c-0.332,0.492-0.792,0.896-1.348,1.162c-7.839,3.727-17.173,3.035-24.359-1.809
		c-7.186-4.844-11.331-13.234-10.817-21.9c0.037-0.613,0.24-1.193,0.571-1.686c0.331-0.492,0.792-0.896,1.348-1.16
		c7.839-3.729,17.173-3.035,24.359,1.807c7.186,4.844,11.33,13.234,10.817,21.9C214.732,254.76,214.529,255.34,214.198,255.833z"/>
	<path style="fill:#368C0E;" d="M219.111,255.833c0.332,0.492,0.793,0.896,1.348,1.162c7.839,3.727,17.172,3.035,24.358-1.809
		c7.187-4.844,11.333-13.234,10.819-21.9c-0.039-0.613-0.24-1.193-0.57-1.686c-0.334-0.492-0.793-0.896-1.349-1.16
		c-7.84-3.729-17.173-3.035-24.359,1.807c-7.186,4.844-11.331,13.234-10.817,21.9C218.577,254.76,218.78,255.34,219.111,255.833z"/>
</g>
<path style="fill:#D48748;" d="M328.061,453.285c2.75,0,5.373-2.219,5.83-4.932l9.223-54.807c0.457-2.711-1.42-4.93-4.17-4.93
	h-59.938c-2.75,0-4.627,2.219-4.17,4.93l9.224,54.807c0.457,2.713,3.08,4.932,5.83,4.932H328.061z"/>
<g style="opacity:0.1;">
	<path style="fill:#37005E;" d="M304.857,448.353l-9.224-54.807c-0.457-2.711,1.42-4.93,4.17-4.93h-20.798
		c-2.75,0-4.627,2.219-4.17,4.93l9.224,54.807c0.457,2.713,3.08,4.932,5.83,4.932h20.798
		C307.938,453.285,305.315,451.066,304.857,448.353z"/>
</g>
<path style="fill:#89C947;" d="M306.519,360.547c-0.332,0.492-0.792,0.898-1.348,1.162c-7.839,3.726-17.172,3.035-24.359-1.807
	c-7.186-4.844-11.331-13.236-10.816-21.9c0.036-0.615,0.239-1.193,0.57-1.686c0.331-0.492,0.793-0.897,1.348-1.16
	c7.838-3.729,17.173-3.037,24.359,1.805c7.186,4.846,11.331,13.236,10.816,21.9C307.053,359.477,306.85,360.055,306.519,360.547z"/>
<g>
	<path style="fill:#FFD5B3;" d="M350.288,331.783c-0.343,0.318-0.659,0.671-0.909,1.093l-2.018,3.413
		c0.007,0.011,0.018,0.018,0.024,0.028c0.331,0.492,0.532,1.07,0.571,1.686c0.302,5.084-1.012,10.068-3.593,14.304l10.408,6.153
		c2.367,1.398,5.448,0.607,6.848-1.76l7.267-12.293c0.249-0.422,0.405-0.868,0.519-1.321L350.288,331.783z"/>
	<path style="fill:#FFD5B3;" d="M403.342,370.391v61.268h17.413c1.435,0,2.724,0.621,3.638,1.598
		c0.39-0.417,0.852-0.757,1.362-1.021v-61.844h-22.413V370.391z"/>
	<path style="fill:#FFD5B3;" d="M441.902,370.391v61.268h17.412c2.75,0,5,2.25,5,5v-66.268H441.902z"/>
</g>
<g>
	<path style="fill:#C0272D;" d="M423.03,448.285v-11.627c0-1.315,0.524-2.508,1.362-3.402c-0.914-0.977-2.203-1.598-3.638-1.598
		H389.47c-2.75,0-5,2.25-5,5v11.627c0,2.75,2.25,5,5,5h31.285c1.435,0,2.724-0.621,3.638-1.598
		C423.555,450.793,423.03,449.602,423.03,448.285z"/>
	<path style="fill:#C0272D;" d="M459.315,431.658c2.75,0,5,2.25,5,5v11.627c0,2.75-2.25,5-5,5H428.03c-2.75,0-5-2.25-5-5v-11.627
		c0-2.75,2.25-5,5-5H459.315z"/>
</g>
<path style="fill:#A75436;" d="M433.164,100.048h-7.494c-37.934,0-68.686,30.857-68.686,68.922v33.834
	c0,24.377,12.624,45.782,31.658,58.035c3.409-6.664,8.648-12.05,15.148-15.932c7.575,4.359,16.325,6.863,25.647,6.863
	c10.095,0,19.521-2.932,27.506-7.981c6.756,3.586,12.301,8.71,16.072,15.132c17.447-12.498,28.835-32.967,28.835-56.117v-33.834
	C501.851,130.905,471.098,100.048,433.164,100.048z"/>
<g style="opacity:0.1;">
	<path style="fill:#37005E;" d="M396.793,250.144C385.151,237.796,378,221.143,378,202.803v-33.834
		c0-35.775,27.166-65.178,61.926-68.586c-2.226-0.219-4.48-0.336-6.762-0.336h-7.494c-37.934,0-68.686,30.857-68.686,68.922v33.834
		c0,24.377,12.624,45.782,31.658,58.035C390.719,256.777,393.482,253.201,396.793,250.144z"/>
</g>
<g>
	<path style="fill:#FF6A76;" d="M457.155,274.84c3.213-5.438,10.227-7.238,15.664-4.025c3.673,2.174,5.679,6.081,5.607,10.063
		v-1.254c0-16.531-8.558-28.974-21.483-35.835c-7.985,5.05-17.411,7.981-27.506,7.981c-9.322,0-18.072-2.504-25.647-6.863
		c-11.81,7.053-19.498,19.047-19.498,34.717v45.998c0.714-0.742,1.712-1.232,2.715-1.232h40.855L457.155,274.84z"/>
	<path style="fill:#FF6A76;" d="M476.844,286.478l-22.412,37.91h20.711c1.301,0,2.6,0.82,3.284,1.951v-45.226
		C478.355,282.947,477.843,284.789,476.844,286.478z"/>
</g>
<g style="opacity:0.1;">
	<path style="fill:#37005E;" d="M403.79,244.907c-11.81,7.053-19.498,19.047-19.498,34.717v45.998
		c0.714-0.742,1.712-1.232,2.715-1.232H405v-44.766c0-12.199,4.664-22.167,12.301-29.313
		C412.506,249.146,407.969,247.312,403.79,244.907z"/>
</g>
<path style="fill:#FFB98A;" d="M429.438,251.771c-4.066,0-8.02-0.489-11.82-1.386v10.44c0,6.133,4.974,11.107,11.106,11.107
	c6.136,0,11.108-4.975,11.108-11.107v-10.111C436.473,251.405,432.996,251.771,429.438,251.771z"/>
<path style="fill:#FFD5B3;" d="M429.438,251.771c28.679,0,52.013-23.58,52.013-52.564l0.002-28.951c0-1.119-0.477-2.193-1.313-2.945
	c-0.736-0.662-1.686-1.027-2.668-1.027c-0.135,0-0.268,0.008-0.404,0.023c-2.753,0.281-5.558,0.422-8.341,0.422
	c-17.457,0-34.703-5.832-48.573-16.422c-0.712-0.545-1.568-0.816-2.42-0.816c-0.79,0-1.578,0.232-2.263,0.701
	c-10.246,7.072-22.227,11.711-34.64,13.4c-1.971,0.27-3.438,1.945-3.443,3.93c-0.021,6.332,0.007,20.865,0.036,31.686
	C377.424,228.187,400.757,251.771,429.438,251.771z"/>
<g style="opacity:0.1;">
	<path style="fill:#37005E;" d="M394.043,199.206c-0.015-5.521-0.029-22.459-0.037-38.568c-4.296,1.35-8.706,2.346-13.175,2.953
		c-1.971,0.27-3.438,1.945-3.443,3.93c-0.021,6.332,0.007,20.865,0.036,31.686c0,28.98,23.333,52.564,52.014,52.564
		c2.828,0,5.603-0.238,8.31-0.68C413.004,247.058,394.043,225.327,394.043,199.206z"/>
</g>
<path style="fill:#154884;" d="M488.459,367.473l-9.618-40.168c-0.384-1.603-2.048-2.916-3.698-2.916h-20.711l-11.152,18.865
	l-19.689-11.641l4.272-7.225h-40.855c-1.65,0-3.299,1.316-3.664,2.926l-9.118,40.15c-0.365,1.609,0.686,2.926,2.336,2.926h109.597
	C487.808,370.391,488.843,369.078,488.459,367.473z"/>
<g style="opacity:0.1;">
	<path style="fill:#37005E;" d="M395.072,367.465l9.118-40.15c0.365-1.609,2.014-2.926,3.664-2.926h-20.848
		c-1.65,0-3.299,1.316-3.664,2.926l-9.118,40.15c-0.365,1.609,0.686,2.926,2.336,2.926h20.848
		C395.758,370.391,394.707,369.074,395.072,367.465z"/>
</g>
<path style="fill:#FFD5B3;" d="M423.876,331.783c-0.343,0.318-0.659,0.671-0.909,1.093l-7.267,12.291
	c-1.399,2.367-0.608,5.449,1.759,6.848l10.901,6.445c2.367,1.398,5.448,0.607,6.848-1.76l7.267-12.293
	c0.249-0.422,0.405-0.868,0.519-1.321L423.876,331.783z"/>
<path style="fill:#FF6A76;" d="M443.279,343.254l33.565-56.775c3.214-5.435,1.411-12.447-4.025-15.664
	c-5.438-3.213-12.451-1.412-15.664,4.025l-33.565,56.773L443.279,343.254z"/>
<path d="M107.653,170.191h4.338c5.886,0,10.675-4.805,10.675-10.711v-9.973c0-4.143-3.357-7.5-7.5-7.5s-7.5,3.357-7.5,7.5v5.684
	h-0.013c-4.143,0-7.5,3.357-7.5,7.5S103.511,170.191,107.653,170.191z"/>
<path d="M140.322,161.469c4.143,0,7.5-3.357,7.5-7.5v-7.492c0-4.143-3.357-7.5-7.5-7.5s-7.5,3.357-7.5,7.5v7.492
	C132.822,158.111,136.18,161.469,140.322,161.469z"/>
<path d="M87.682,161.469c4.143,0,7.5-3.357,7.5-7.5v-7.492c0-4.143-3.357-7.5-7.5-7.5s-7.5,3.357-7.5,7.5v7.492
	C80.182,158.111,83.539,161.469,87.682,161.469z"/>
<path d="M91.567,173.687c-3.845,1.54-5.714,5.906-4.173,9.751c4.272,10.665,14.436,17.557,25.892,17.557
	c11.459,0,21.624-6.892,25.895-17.558c1.539-3.845-0.329-8.211-4.175-9.751c-3.843-1.54-8.211,0.329-9.751,4.175
	c-1.979,4.941-6.677,8.134-11.97,8.134c-5.29,0-9.988-3.193-11.968-8.135C99.778,174.015,95.409,172.148,91.567,173.687z"/>
<path d="M504.5,445.785h-32.685v-67.895h14.343c3.097,0,5.94-1.353,7.801-3.711c1.861-2.357,2.516-5.438,1.795-8.453l-9.618-40.168
	c-0.059-0.245-0.133-0.484-0.208-0.723v-45.213c0-6.661-1.254-12.892-3.566-18.537c16.495-14.027,26.99-34.942,26.99-58.283
	c0-4.143-3.357-7.5-7.5-7.5s-7.5,3.357-7.5,7.5c0,17.957-7.726,34.126-20.007,45.364c-1.459-1.663-3.045-3.225-4.74-4.685
	c11.882-10.988,19.347-26.768,19.347-44.276l0.002-28.952c0-3.245-1.384-6.351-3.798-8.523c-2.116-1.902-4.845-2.95-7.683-2.95
	c-0.416,0-0.838,0.024-1.167,0.063c-2.487,0.254-5.037,0.383-7.578,0.383c-15.817,0-31.451-5.285-44.015-14.878
	c-1.989-1.521-4.468-2.36-6.979-2.36c-2.329,0-4.577,0.696-6.523,2.028c-9.29,6.413-20.145,10.611-31.395,12.143
	c-5.645,0.771-9.913,5.647-9.927,11.336c-0.02,6.177,0.006,20.44,0.036,31.71c0,18.446,8.288,34.969,21.295,45.996
	c-1.611,1.544-3.116,3.182-4.483,4.924c-13.578-11.271-22.252-28.294-22.252-47.322V168.97c0-33.868,27.448-61.422,61.186-61.422
	h7.494c33.738,0,61.186,27.554,61.186,61.422c0,4.143,3.357,7.5,7.5,7.5s7.5-3.357,7.5-7.5c0-42.14-34.177-76.422-76.186-76.422
	h-7.494c-42.01,0-76.186,34.282-76.186,76.422v33.834c0,24.721,11.771,46.728,29.977,60.704c-0.741,2.144-1.344,4.359-1.778,6.65
	c-0.192,0.287-0.394,0.567-0.57,0.867l-32.809,55.494c-2.871-0.817-5.863-1.241-8.85-1.241c-6.447,0-12.659,1.89-17.968,5.466
	c-3.393,2.288-6.257,5.188-8.511,8.484c-2.254-3.297-5.118-6.197-8.512-8.485c-5.306-3.575-11.519-5.465-17.966-5.465
	c-4.759,0-9.533,1.074-13.804,3.106c-1.76,0.836-3.265,2.133-4.352,3.748c-1.086,1.614-1.72,3.493-1.833,5.427
	c-0.672,11.3,4.735,22.245,14.112,28.565c5.307,3.574,11.52,5.464,17.967,5.464c2.313,0,4.627-0.259,6.887-0.752v10.282h-22.469
	c-3.522,0-6.809,1.497-9.016,4.106c-2.206,2.609-3.136,6.098-2.55,9.568l8.582,50.993h-70.136c0.119-0.817,0.192-1.649,0.192-2.5
	v-10.248c0-9.649-7.851-17.5-17.5-17.5h-9.259v-66.25h6.648c2.379,4.021,6.836,6.781,11.602,6.781h38.172
	c6.359,0,12.169-4.912,13.227-11.186l1.559-9.262c0.687-4.084-2.067-7.953-6.151-8.64c-4.095-0.69-7.953,2.066-8.642,6.15
	l-1.335,7.937h-24.631c0.49-1.338,0.771-2.775,0.771-4.281v-26.793c0-6.893-5.607-12.5-12.5-12.5h-6.46l-1.025-6.094h52.203
	l-1.807,10.732c-0.686,4.084,2.067,7.953,6.152,8.641c4.086,0.682,7.952-2.067,8.641-6.152l2.446-14.543
	c0.586-3.474-0.345-6.963-2.551-9.572c-2.207-2.609-5.492-4.105-9.015-4.105h-22.469v-10.28c2.259,0.493,4.573,0.752,6.885,0.752
	c0.001,0,0.001,0,0.001,0c6.448,0,12.662-1.891,17.968-5.468c9.376-6.319,14.784-17.264,14.112-28.596
	c-0.122-1.925-0.754-3.787-1.849-5.42c-1.091-1.607-2.591-2.896-4.334-3.723c-4.271-2.031-9.045-3.105-13.803-3.105
	c-6.448,0-12.661,1.89-17.969,5.467c-3.394,2.287-6.259,5.187-8.513,8.483c-2.253-3.297-5.118-6.196-8.512-8.484
	c-5.307-3.576-11.52-5.466-17.968-5.466c-4.759,0-9.531,1.074-13.797,3.103c-1.026,0.487-1.952,1.146-2.772,1.919
	c-0.069-5.704-1.982-11.088-5.514-15.238c-2.561-3.01-5.773-5.195-9.39-6.455c9.667-11.348,15.53-26.094,15.53-42.207v-37.621
	h44.416c4.143,0,7.5-3.357,7.5-7.5c0-4.143-3.357-7.5-7.5-7.5h-44.726c-3.155-32.42-30.558-57.846-63.791-57.846
	s-60.636,25.426-63.791,57.846H10.148c-4.143,0-7.5,3.357-7.5,7.5c0,4.143,3.357,7.5,7.5,7.5h35.883v5.729
	c-8.217,1.886-14.365,9.259-14.365,18.04v12.736c0,9.594,7.335,17.506,16.69,18.421c2.402,8.834,6.567,16.835,12.059,23.649H60
	c-12.903,0-24.725,10.53-26.957,23.991L5.835,371.229c-0.594,3.148,0.239,6.368,2.279,8.825c0.823,0.995,1.81,1.809,2.897,2.438
	v26.193c0,15.817,12.867,28.686,28.684,28.686h52.151v5.914c0,0.851,0.073,1.683,0.192,2.5H7.5c-4.143,0-7.5,3.357-7.5,7.5
	s3.357,7.5,7.5,7.5h497c4.143,0,7.5-3.357,7.5-7.5C512,449.143,508.643,445.785,504.5,445.785z M294.588,356.587
	c-3.45,0-6.765-1.005-9.585-2.903c-4.283-2.888-7.013-7.589-7.479-12.674c1.605-0.482,3.29-0.733,4.974-0.733
	c3.45,0,6.765,1.005,9.582,2.902c4.284,2.89,7.015,7.592,7.481,12.676C297.955,356.337,296.272,356.587,294.588,356.587z
	 M233.549,238.467c2.821-1.9,6.137-2.905,9.587-2.905c1.683,0,3.366,0.25,4.973,0.733c-0.468,5.082-3.198,9.784-7.482,12.673
	c-2.821,1.9-6.135,2.905-9.584,2.905h-0.001c-1.686,0-3.371-0.251-4.972-0.732C226.536,246.059,229.266,241.355,233.549,238.467z
	 M195.539,334.287h-15.104v-21.793h15.104V334.287z M190.175,235.562c3.45,0,6.766,1.005,9.585,2.904
	c4.285,2.889,7.016,7.595,7.481,12.675c-1.604,0.482-3.289,0.732-4.973,0.732c-3.45,0-6.766-1.005-9.586-2.905
	c-4.285-2.889-7.016-7.594-7.481-12.674C186.807,235.812,188.491,235.562,190.175,235.562z M171.385,243.555
	c2.058,7.185,6.574,13.577,12.915,17.851c5.307,3.577,11.52,5.468,17.969,5.468c2.311,0,4.626-0.258,6.887-0.753v10.28h-22.47
	c-1.208,0-2.385,0.189-3.503,0.525l-16.164-2.449L171.385,243.555z M164.922,289.328l10.336,1.566l1.127,6.7
	c-1.451,0.184-2.826,0.617-4.081,1.255l-8.543-1.295L164.922,289.328z M110.133,226.469c2.798,0,5.548-0.202,8.252-0.555
	c-2.285,3.873-6.489,6.484-11.303,6.484c-5.31,0-9.882-3.174-11.947-7.72C99.958,225.844,104.979,226.469,110.133,226.469z
	 M54.389,164.077h-4.215c-1.901,0-3.508-1.607-3.508-3.51v-12.736c0-1.901,1.606-3.508,3.508-3.508h3.357c4.143,0,7.5-3.357,7.5-7.5
	c0,0,0.004-11.408,0.077-12.762H115c4.143,0,7.5-3.357,7.5-7.5c0-4.143-3.357-7.5-7.5-7.5H61.443
	c0.285-2.228,0.714-4.408,1.288-6.533h39.391c4.143,0,7.5-3.357,7.5-7.5c0-4.142-3.357-7.5-7.5-7.5H69.681
	c1.282-1.859,2.683-3.63,4.202-5.293h20.764c4.143,0,7.5-3.357,7.5-7.5c0-3.093-1.872-5.746-4.544-6.894
	c4.002-1.057,8.2-1.626,12.529-1.626c24.954,0,45.604,18.717,48.688,42.846H151c-4.143,0-7.5,3.357-7.5,7.5
	c0,4.143,3.357,7.5,7.5,7.5h8.155c0.073,1.354,0.077,2.557,0.077,3.523v34.098c0,27.453-22.026,49.787-49.1,49.787
	c-23.912,0-44.247-17.313-48.352-41.165C61.161,166.706,58.04,164.077,54.389,164.077z M47.801,229.314
	c0.012-0.063,0.022-0.124,0.032-0.187c1.027-6.336,6.485-11.491,12.167-11.491h17.749c0.397,0.235,0.803,0.459,1.206,0.686v0.949
	c0,15.509,12.618,28.127,28.127,28.127c14.813,0,26.979-11.513,28.043-26.059c2.507-1.077,4.925-2.324,7.257-3.703h8.813
	c2.23,0,4.121,0.839,5.473,2.428c1.628,1.913,2.28,4.746,1.788,7.772c-0.008,0.051-0.016,0.103-0.023,0.153l-9.504,67.317
	l-36.852-5.584c-0.011-0.007-0.021-0.014-0.032-0.022l-23.87-32.393c-4.255-5.777-11.083-9.227-18.264-9.227
	c-4.866,0-9.513,1.528-13.439,4.422c-10.063,7.418-12.217,21.64-4.803,31.703l24.425,33.144c1.699,2.307,3.799,4.513,6.15,6.534
	c-2.749,1.994-5.094,4.448-6.674,7.163l-22.049,37.887l-31.991,0.001L47.801,229.314z M100.462,377.797c-4.143,0-7.5,3.357-7.5,7.5
	v37.074H39.695c-7.545,0-13.684-6.14-13.684-13.686v-24.75h18.78l-4.331,7.442c-2.083,3.58-0.87,8.171,2.71,10.255
	c3.581,2.082,8.171,0.869,10.255-2.71l35.109-60.33c1.417-2.435,5.73-4.915,8.547-4.915h3.549c0.167,0.041,0.335,0.092,0.501,0.13
	c0.187,0.043,0.375,0.079,0.564,0.107l28.06,4.252v77.37c0,0-21.336,0.034-21.794,0.07v-30.31
	C107.962,381.154,104.604,377.797,100.462,377.797z M152.742,443.285c0,1.355-1.145,2.5-2.5,2.5h-40.896c-1.355,0-2.5-1.145-2.5-2.5
	v-10.248c0-1.355,1.145-2.5,2.5-2.5h40.896c1.355,0,2.5,1.145,2.5,2.5V443.285z M164.32,415.537h-19.564V340.44l19.564,2.965
	V415.537z M165.435,328.402l-61.182-9.271c-5.74-1.413-12.61-5.965-16.083-10.679l-24.425-33.145
	c-2.51-3.405-1.779-8.22,1.626-10.729c1.329-0.979,2.898-1.497,4.54-1.497c2.47,0,4.725,1.138,6.187,3.123l24.367,33.068
	c0.143,0.193,0.295,0.38,0.455,0.559c1.487,1.658,4.313,3.518,6.435,4.233c0.414,0.14,0.84,0.242,1.272,0.308l56.808,8.607V328.402z
	 M191.079,443.285c0,1.355-1.145,2.5-2.5,2.5h-21.036c0.117-0.818,0.199-1.649,0.199-2.5v-10.248c0-0.851-0.082-1.682-0.199-2.5
	h21.036c1.355,0,2.5,1.145,2.5,2.5V443.285z M439.818,362.891c0.7-0.711,1.328-1.5,1.846-2.375l16.974-28.627h13.589l7.423,31.002
	H439.818z M382.954,362.891l7.041-31.002h24.826l-5.577,9.461c-1.696,2.869-2.173,6.231-1.342,9.469
	c0.832,3.239,2.871,5.957,5.739,7.651l7.478,4.421L382.954,362.891L382.954,362.891z M470.927,316.889h-3.395l3.395-5.726V316.889z
	 M469,277.27c1.869,1.106,2.492,3.525,1.388,5.394L440.64,332.98l-6.776-4.006l29.749-50.319c0.716-1.211,1.985-1.934,3.397-1.934
	C467.716,276.722,468.387,276.906,469,277.27z M430.024,350.729l-6.596-3.899l2.892-4.891l6.595,3.9L430.024,350.729z
	 M355.236,343.421l4.091,2.419l-2.891,4.891l-2.497-1.476C354.548,347.361,354.986,345.41,355.236,343.421z M433.255,377.891h1.147
	v46.268h-1.147V377.891z M384.924,199.186c-0.026-9.696-0.049-21.586-0.042-28.632c11.654-2.01,22.879-6.393,32.748-12.785
	c14.807,10.631,32.85,16.459,51.097,16.459c1.736,0,3.479-0.051,5.225-0.152l-0.002,25.131c0,24.849-19.969,45.064-44.513,45.064
	C404.893,244.271,384.924,224.055,384.924,199.186z M425.117,259.094c1.429,0.104,2.866,0.176,4.32,0.176
	c0.971,0,1.935-0.027,2.895-0.074v1.629c0,1.989-1.619,3.607-3.608,3.607c-1.988,0-3.606-1.618-3.606-3.607v-1.731H425.117z
	 M410.117,256.003v4.821c0,10.26,8.347,18.607,18.606,18.607c10.261,0,18.608-8.348,18.608-18.607v-4.334
	c3.281-1.046,6.434-2.382,9.443-3.96c3.623,2.434,6.765,5.505,9.167,9.227c-6.265,0.358-12.035,3.837-15.243,9.267l-27.036,45.865
	h-31.871v-37.266c0-11.764,5.1-20.327,12.572-25.963C406.231,254.54,408.151,255.32,410.117,256.003z M376.792,301.037v15.468
	l-9.74,16.476l-6.776-4.006L376.792,301.037z M325.869,343.181c2.82-1.899,6.134-2.904,9.584-2.904c1.684,0,3.368,0.251,4.976,0.734
	c-0.468,5.082-3.197,9.784-7.481,12.672c-2.821,1.9-6.136,2.904-9.585,2.904c-1.684,0-3.367-0.25-4.973-0.732
	C318.855,350.772,321.586,346.069,325.869,343.181z M282.874,396.117h52.202l-8.357,49.668h-35.486L282.874,396.117z
	 M376.97,436.658v9.127h-35.04l8.58-50.991c0.586-3.473-0.344-6.961-2.55-9.57c-2.207-2.609-5.493-4.106-9.016-4.106h-22.47v-10.282
	c2.26,0.493,4.574,0.752,6.887,0.752h0.001c6.447,0,12.66-1.89,17.967-5.466c1.763-1.189,3.386-2.541,4.854-4.027l4.774,2.822
	c1.92,1.135,4.114,1.734,6.345,1.734c4.408,0,8.537-2.351,10.773-6.135l0.057-0.097l-1.223,5.386
	c-0.682,3.004-0.001,6.068,1.866,8.406c1.867,2.339,4.704,3.68,7.784,3.68h19.281v46.268h-6.372
	C382.577,424.158,376.97,429.766,376.97,436.658z M415.53,445.785h-23.56v-6.627h23.561v6.627H415.53z M410.842,424.158V377.89
	h7.413v46.268H410.842z M456.815,445.785H430.53v-6.627h26.284v6.627H456.815z M449.402,424.158V377.89h7.412v46.268H449.402z"/>
<path d="M426.327,210.657h2.003c4.143,0,7.5-3.357,7.5-7.5c0-3.279-2.105-6.067-5.038-7.087v-0.771c0-4.143-3.357-7.5-7.5-7.5
	s-7.5,3.357-7.5,7.5v4.789C415.792,205.915,420.518,210.657,426.327,210.657z"/>
<path d="M408.139,194.939v-3.676c0-4.143-3.357-7.5-7.5-7.5s-7.5,3.357-7.5,7.5v3.676c0,4.143,3.357,7.5,7.5,7.5
	S408.139,199.081,408.139,194.939z"/>
<path d="M450.979,202.439c4.143,0,7.5-3.357,7.5-7.5v-3.676c0-4.143-3.357-7.5-7.5-7.5s-7.5,3.357-7.5,7.5v3.676
	C443.479,199.081,446.837,202.439,450.979,202.439z"/>
<path d="M403.46,221.426c3.684,9.23,12.457,15.194,22.35,15.194c9.891,0,18.663-5.964,22.35-15.192
	c1.536-3.847-0.336-8.211-4.183-9.747c-3.846-1.535-8.21,0.337-9.747,4.183c-1.396,3.497-4.702,5.757-8.42,5.757
	c-3.719,0-7.023-2.259-8.419-5.755c-1.536-3.849-5.901-5.722-9.746-4.186C403.799,213.215,401.925,217.577,403.46,221.426z"/>
<g>
</g>
<g>
</g>
<g>
</g>
<g>
</g>
<g>
</g>
<g>
</g>
<g>
</g>
<g>
</g>
<g>
</g>
<g>
</g>
<g>
</g>
<g>
</g>
<g>
</g>
<g>
</g>
<g>
</g>
</svg>
