<?xml version="1.0" encoding="utf-8"?>
<svg viewBox="47.447 484.947 579.807 71.025" xmlns="http://www.w3.org/2000/svg">
  <path id="path18" style="fill-opacity:1;fill-rule:nonzero;stroke:none" d="m 4533.99,937.789 c -2.4,13.199 -4.8,26.391 -7.22,39.602 0.88,0.058 1.76,0.109 2.64,0.168 2.29,-13.278 4.57,-26.547 6.87,-39.829 -0.77,0.02 -1.53,0.04 -2.29,0.059 z m -25.74,-24.559 c 0.39,4.891 0.74,9.168 1.08,13.442 0.73,0.008 1.45,0.027 2.17,0.047 4.11,-10.93 4.09,-11.168 -3.25,-13.489 z m -245.67,13.079 c -1.54,0.543 -3.22,2.07 -3.13,3.089 1.61,17.411 3.48,34.801 5.29,52.211 0.72,0.02 1.42,0.039 2.12,0.063 3.09,-19.57 6.17,-39.141 9.33,-59.223 -4.96,1.371 -9.47,2.41 -13.61,3.86 z m -146.72,99.521 c -0.11,9.56 1.85,19.11 3.66,28.68 1.74,-21.12 3.48,-42.23 5.23,-63.338 -11.85,10.808 -8.77,22.958 -8.89,34.658 z m -94.85,-125.67 c -0.44,-0.019 -0.88,-0.039 -1.32,-0.058 0,15.41 0,30.828 0,46.25 0.44,0 0.88,0.007 1.32,0.019 0,-15.402 0,-30.812 0,-46.211 z m -142.18,88.289 c -1.84,-5.789 -1.49,-11.84 -2.14,-18.097 -11.55,-1.352 -15.96,-4.262 -15.53,-12.25 0.57,-10.52 2.28,-21.032 3.91,-31.512 1.26,-8.301 3.22,-16.57 4.63,-24.86 0.25,-1.421 -0.7,-2.921 -1.09,-4.378 -0.98,0.039 -1.94,0.089 -2.91,0.136 -0.72,3.524 -1.49,7.051 -2.15,10.582 -3.62,19.692 -7.85,39.352 -10.55,59.071 -1.26,9.359 0.04,18.871 0.83,28.289 3.77,45.73 7.93,91.44 11.57,137.17 0.82,10.36 0.11,20.76 0.11,26.62 9.3,-52.49 19.38,-109.47 29.38,-166.021 -8.91,3.981 -13.56,3.082 -16.06,-4.75 z M 3714.66,943.09 c -1.04,0.101 -2.08,0.199 -3.12,0.289 1.55,5.68 3.11,11.351 4.66,17.019 7.33,-6.589 -0.87,-11.589 -1.54,-17.308 z m -42.03,20.859 c -3.86,13.762 -6.97,27.012 -11.48,40.071 -3.06,8.88 -0.96,17.4 1.89,26.08 5.46,-21.72 16.85,-43.061 9.59,-66.151 z m -1.04,-57.617 c -6.96,4.488 -11.06,8.52 -10.67,14.699 0.9,14.41 0.25,28.867 0.23,43.309 0,1.48 0,2.969 0,4.461 5.09,-20.531 14.56,-40.762 10.44,-62.469 z m -265,38.137 c -1.12,0.07 -2.25,0.133 -3.37,0.203 3.08,12.84 6.14,25.687 9.21,38.527 0.5,-0.039 0.99,-0.078 1.49,-0.117 -2.44,-12.871 -4.88,-25.742 -7.33,-38.613 z M 3373.4,1094.6 c -8.75,10.88 -2.4,21.73 0,32.36 0,-10.78 0,-21.57 0,-32.36 z m -6.22,-124.518 c -0.77,-3.023 -1.27,-6.07 -1.81,-8.711 -20.19,30.961 -15.5,62.729 -4.99,94.639 3.91,-22.47 8.39,-44.91 11.37,-67.428 0.8,-6.051 -2.99,-12.32 -4.57,-18.5 z m -7.35,-32.781 c -4.83,17.429 -9.68,34.859 -14.52,52.289 0.99,0.082 1.96,0.16 2.95,0.25 4.36,-17.461 8.74,-34.918 13.11,-52.379 -0.51,-0.063 -1.02,-0.109 -1.54,-0.16 z m -38.32,44 c -9.5,25.749 -14.66,51.059 -13.14,76.789 6.38,-19.69 13.2,-39.34 18.85,-59.102 1.62,-5.668 1.14,-11.886 -5.71,-17.687 z m -42.83,-65.039 c -4.51,0.218 -6.14,1.687 -6.13,4.269 0.02,11.418 0.01,22.84 0.01,34.258 0.9,0.07 1.81,0.152 2.72,0.211 4.89,-13.148 9.78,-26.309 14.84,-39.949 -4.17,0.461 -7.78,1.039 -11.44,1.211 z m -25.38,86.918 c -15.11,-13.02 -7.44,-28.282 -11.42,-42.371 -3.8,-13.457 0.6,-26.649 -1.06,-39.911 -0.25,-2 -0.42,-4.007 -0.68,-6.457 -4.12,0.2 -7.54,0.379 -12.34,0.61 2.04,38.738 16.41,76.121 23.46,114.069 0.68,-0.06 1.36,-0.13 2.04,-0.19 0,-8.58 0,-17.17 0,-25.75 z m -124.99,-95.34 c -6.41,6.269 -6.35,11.289 0,23.75 0,-8.352 0,-15.602 0,-23.75 z m -48.89,-5.031 c 1.66,8.242 3.26,16.25 4.87,24.25 1.03,0.062 2.05,0.132 3.08,0.191 1.46,-6.711 3.64,-13.391 4.14,-20.129 0.31,-4.16 -5.83,-4.312 -12.09,-4.312 z M 2013.22,1030.1 c 5.47,-21.72 16.85,-43.061 9.6,-66.151 -3.87,13.762 -6.98,27.012 -11.49,40.071 -3.06,8.88 -0.95,17.4 1.89,26.08 z m 49.97,4.88 c -0.5,-1.27 -0.97,-2.5 -1.48,-3.77 -0.15,3.58 -0.26,7.11 -0.38,10.64 0.62,-2.28 1.24,-4.6 1.86,-6.87 z m 1.85,-91.109 c -0.86,0.711 -1.73,1.438 -2.59,2.149 1.31,4.8 2.62,9.589 3.92,14.378 7.01,-6.277 -0.07,-11.136 -1.33,-16.527 z m -53.72,20.469 c 0,1.48 0,2.969 0,4.461 5.09,-20.531 14.58,-40.762 10.45,-62.469 -6.96,4.488 -11.05,8.52 -10.67,14.699 0.9,14.41 0.25,28.867 0.22,43.309 z m 196.03,15.219 c 1.56,-10.368 3.26,-20.688 4.93,-31.028 0.65,-5.871 1.41,-11.73 2.32,-17.582 -2.83,5.922 -5.67,11.871 -8.49,17.801 -1.07,6.129 -2.09,12.262 -2.92,18.391 -1.28,9.359 0.04,18.871 0.82,28.289 0.11,1.351 0.23,2.699 0.34,4.05 1,-6.64 2,-13.281 3,-19.921 z m 8.35,179.661 c 6.99,-39.51 14.43,-81.58 21.95,-124.09 -1.8,-6.14 -3.27,-12.32 -4.9,-18.48 -1.37,0.87 -1.53,1.65 -1.66,2.42 -5.52,33.44 -10.82,66.9 -16.61,100.32 0.35,4.4 0.75,8.81 1.1,13.21 0.82,10.36 0.12,20.76 0.12,26.62 z m 218.6,-138.4 c 0.72,-3.51 1.42,-7.01 2.12,-10.51 -0.36,-0.88 -0.66,-1.77 -1.07,-2.64 -0.29,-0.61 -0.44,-1.25 -0.7,-1.87 -0.42,4.98 -1.12,9.94 -2.61,14.88 0.76,0.05 1.51,0.09 2.26,0.14 z m 87.28,-29.191 c 0.48,-0.039 0.97,-0.09 1.45,-0.141 0.49,-2.597 0.99,-5.226 1.48,-7.828 -1.31,2.461 -2.32,4.891 -3.01,7.281 0.03,0.231 0.05,0.457 0.08,0.688 z m 140.46,148.241 c 1.06,-2.21 2.43,-4.53 2.26,-6.77 -0.27,-3.97 -0.61,-7.95 -0.92,-11.92 -1.91,6.87 -3.73,13.75 -5.25,20.66 -0.78,3.53 -1.43,7.07 -2.1,10.61 1.98,-4.2 3.99,-8.4 6.01,-12.58 z m 83.5,-120.89 c -3.68,-11.53 -0.81,-23.082 0.99,-34.648 -0.37,-1.012 -0.71,-2 -1.05,-3.012 -0.31,0.551 -0.6,1.102 -0.91,1.641 -0.89,12.961 -1.78,25.949 -2.7,39.479 1.42,-1.16 2.6,-2.31 3.67,-3.46 z m 209.72,36.1 c 1.03,-2.95 2.16,-5.88 3.2,-8.82 -5.33,-11.14 -10.72,-22.41 -16.09,-33.64 -3.71,22.44 0.55,45.08 -1.76,67.55 -0.1,0.97 -0.02,1.94 -0.07,2.92 0.37,4.86 0.65,9.73 0.68,14.6 4.66,-14.21 9.13,-28.44 14.04,-42.61 z m 16.69,-45.99 c 1.41,-3.74 0.61,-6.63 -1.88,-10.43 -2.56,-3.898 -4.58,-7.969 -6.22,-12.109 0.87,6.289 1.8,12.578 2.88,18.849 0.68,3.96 1.47,7.92 2.25,11.87 1.02,-2.72 1.95,-5.46 2.97,-8.18 z M 1756.77,944.469 c -1.12,0.07 -2.24,0.133 -3.37,0.203 3.07,12.84 6.14,25.687 9.2,38.527 0.5,-0.039 1.01,-0.078 1.51,-0.117 -2.44,-12.871 -4.89,-25.742 -7.34,-38.613 z m -33.2,150.131 c -8.75,10.88 -2.39,21.73 0,32.36 0,-10.78 0,-21.57 0,-32.36 z m -6.21,-124.518 c -0.77,-3.023 -1.27,-6.07 -1.82,-8.711 -20.18,30.961 -15.48,62.729 -4.98,94.639 3.92,-22.47 8.39,-44.91 11.37,-67.428 0.8,-6.051 -3,-12.32 -4.57,-18.5 z m -7.34,-32.781 c -4.85,17.429 -9.69,34.859 -14.53,52.289 0.98,0.082 1.97,0.16 2.94,0.25 4.38,-17.461 8.75,-34.918 13.13,-52.379 -0.52,-0.063 -1.04,-0.109 -1.54,-0.16 z m -38.32,44 c -9.51,25.749 -14.66,51.059 -13.15,76.789 6.38,-19.69 13.2,-39.34 18.86,-59.102 1.62,-5.668 1.12,-11.886 -5.71,-17.687 z m -42.84,-65.039 c -4.51,0.218 -6.14,1.687 -6.14,4.269 0.02,11.418 0.01,22.84 0.01,34.258 0.91,0.07 1.83,0.152 2.74,0.211 4.88,-13.148 9.77,-26.309 14.84,-39.949 -4.18,0.461 -7.79,1.039 -11.45,1.211 z m -25.38,86.918 c -15.11,-13.02 -7.44,-28.282 -11.41,-42.371 -3.8,-13.457 0.58,-26.649 -1.07,-39.911 -0.25,-2 -0.42,-4.007 -0.67,-6.457 -4.12,0.2 -7.54,0.379 -12.35,0.61 2.04,38.738 16.4,76.121 23.46,114.069 0.69,-0.06 1.36,-0.13 2.04,-0.19 0,-8.58 0,-17.17 0,-25.75 z m -124.99,-95.34 c -6.4,6.269 -6.34,11.289 0,23.75 0,-8.352 0,-15.602 0,-23.75 z m -48.88,-5.031 c 1.65,8.242 3.26,16.25 4.87,24.25 1.02,0.062 2.04,0.132 3.07,0.191 1.47,-6.711 3.64,-13.391 4.15,-20.129 0.3,-4.16 -5.83,-4.312 -12.09,-4.312 z m -109.37,95.851 c -5.09,-7.762 -8.02,-16.199 -10.14,-24.519 -5.25,-20.672 -9.54,-41.422 -14.25,-62.141 -0.35,-1.508 -1.03,-2.98 -1.55,-4.48 -0.81,0.019 -1.62,0.039 -2.43,0.05 -0.18,1.77 -0.65,3.532 -0.5,5.282 1.92,21.519 4.02,43.039 5.83,64.57 0.51,5.957 2.19,12.25 -0.05,17.879 -11.17,28.079 -3.45,56.609 -6.36,84.869 -0.61,5.94 -0.09,11.93 0.47,17.97 4.7,-14.36 9.23,-28.73 14.19,-43.06 5.32,-15.36 10.94,-30.68 16.69,-45.99 1.4,-3.74 0.59,-6.63 -1.9,-10.43 z m -86.89,-97.84 c -5.74,4.602 -5.56,6.981 1.14,29.539 0.84,-0.089 1.67,-0.179 2.51,-0.269 -1.18,-9.508 -2.37,-19.008 -3.65,-29.27 z m -77.6,78.571 c -3.36,4.898 -5.68,9.089 -9,12.961 -9.62,11.258 -12.02,22.688 -7.82,35.408 5.23,15.83 7.68,32.02 11.37,48.05 0.2,0.88 0.74,1.73 1.12,2.6 8.25,-45.88 9.73,-83.351 4.33,-99.019 z m -32.06,-37.43 c -2.24,-9.891 -5.52,-19.699 -8.55,-29.52 -0.37,-1.211 -2.02,-2.269 -3.07,-3.39 -0.91,0.347 -1.82,0.687 -2.73,1.031 5.06,18.816 10.12,37.629 15.17,56.438 0.86,-0.04 1.72,-0.09 2.57,-0.129 -1.08,-8.153 -1.57,-16.352 -3.39,-24.43 z M 1095,979.25 c -0.97,14.18 -1.94,28.37 -2.95,43.19 17.66,-14.32 7.21,-28.831 2.95,-43.19 z m -36.61,12.16 c -0.33,-18.398 -0.06,-36.82 -0.06,-55.219 -1.22,0.02 -2.45,0.039 -3.67,0.047 -1.88,48.004 -1.66,96.012 -1.67,144.022 0.91,0.12 1.84,0.22 2.76,0.33 1.56,-4.24 4.51,-8.49 4.46,-12.71 -0.24,-25.49 -1.37,-50.98 -1.82,-76.47 z m -1.42,-86.012 c 0,5.614 0,11.223 0,16.821 0.3,0 0.6,0.011 0.9,0.011 0.44,-5.589 0.88,-11.199 1.33,-16.808 -0.75,-0.012 -1.49,-0.012 -2.23,-0.024 z m -46.59,18.672 c 0,7.789 0,15.59 0,23.391 0.35,0.008 0.69,0.027 1.04,0.039 0.58,-7.781 1.15,-15.559 1.73,-23.352 -0.92,-0.019 -1.84,-0.046 -2.77,-0.078 z m -38.958,-18.05 c -0.723,0.101 -1.445,0.199 -2.168,0.3 1.289,5.442 2.57,10.891 3.859,16.328 4.93,-6.007 4.258,-11.539 -1.691,-16.628 z m -12.293,55.312 c -1.223,8.777 -2.441,17.559 -3.652,26.34 0.554,0.066 1.121,0.137 1.687,0.207 1.789,-8.77 3.574,-17.539 5.363,-26.309 -1.132,-0.082 -2.265,-0.16 -3.398,-0.238 z M 926.922,922.07 c -0.117,4.09 -0.859,8.168 -1.75,12.211 -0.684,3.11 -0.645,6.758 -3.34,9.09 -7.254,6.289 -4.375,12.848 -3.359,19.43 1.66,10.781 3.496,21.551 6.113,32.308 3.809,-26.058 7.629,-52.14 11.465,-78.328 -6.309,0.207 -9.024,1.688 -9.129,5.289 z m -61.106,13.801 c 2.063,19.418 4.004,37.59 5.938,55.758 0.488,-0.039 0.976,-0.09 1.457,-0.141 2.852,-15.097 5.703,-30.207 8.652,-45.828 -12.511,1.899 -12.394,-4.269 -16.047,-9.789 z m -70.664,-24.172 c 0,2.531 0.168,4.66 -0.027,6.781 -1.535,16.45 0.039,33.309 -5.578,49.211 -6.277,17.758 -2.059,35.489 -7.324,52.989 0.754,0.05 1.515,0.09 2.265,0.14 3.516,-17.41 7.082,-34.808 10.528,-52.218 3.183,-16.071 5.793,-32.172 9.609,-48.18 1.203,-5.051 -1.504,-7.152 -9.473,-8.723 z m -92.41,77.781 c -1.015,-1.058 -1.992,-2.07 -4.258,-4.441 -1.945,4.699 -4.589,8.242 -4.64,11.77 -0.098,8.171 1.152,16.331 1.691,24.491 0.82,12.4 1.512,24.79 3.113,37.2 2.832,-23.46 5.676,-46.91 8.594,-71.059 -2.031,0.911 -3.113,1.411 -4.5,2.039 z m -38.996,10.62 c -9.141,7.28 -3.633,15.99 -6.152,23.91 1.027,0.11 2.043,0.21 3.066,0.33 2.258,-7.92 4.504,-15.84 6.758,-23.76 -1.219,-0.16 -2.449,-0.32 -3.672,-0.48 z m -31.375,-39.952 c -1.328,-7.578 0.567,-15.046 -3.488,-22.867 -4.188,-8.09 -1.942,-17.422 -2.91,-26.179 -0.196,-1.704 -2.266,-3.321 -3.465,-4.981 -0.957,0.277 -1.926,0.559 -2.883,0.848 -7.41,21.992 8.047,42.41 10.578,63.722 0.762,-0.011 1.512,-0.031 2.266,-0.05 0,-3.5 0.496,-7.032 -0.098,-10.493 z m -30.91,9.622 c -1.66,6.769 1.32,14.05 3.059,21.031 6.785,27.159 13.914,54.289 20.906,81.439 0.742,-0.07 1.476,-0.14 2.219,-0.19 0.468,-6.42 0.996,-12.84 1.406,-19.25 1.035,-16.19 1.746,-32.39 3.113,-48.57 1.289,-15.21 -6.512,-29.531 -10.488,-44.23 -1.922,-7.102 -4.531,-14.129 -6.856,-21.281 -4.707,10.511 -10.789,20.621 -13.359,31.051 z M 4702.4,895.68 c -7.99,-3.211 -17.4,-5.629 -23.64,-9.84 -10.94,-7.36 -19.81,-15.879 -29.82,-23.789 -2.23,-1.77 -5.59,-2.992 -8.44,-4.469 -0.52,0.328 -1.04,0.668 -1.57,0.988 11.93,12.121 25.08,23.918 27.5,39.7 -5.02,-2.36 -8.73,-4.098 -13.11,-6.161 1.97,8.911 3.82,17.2 5.65,25.493 -24.35,-19.661 -35.1,-43.082 -51.41,-64.93 0.24,2.199 1.05,4.277 2.17,6.289 11.65,20.801 23.82,41.5 34.9,62.418 9.73,18.391 19.29,36.891 17.74,56.672 -0.12,1.437 -0.23,2.871 -0.44,5.519 -2.95,-2.429 -4.56,-3.761 -6.38,-5.261 0,9.043 0,17.742 0,26.441 -21.57,-25.551 -33.2,-53.199 -49.16,-79.891 -0.12,4.039 0.61,7.942 1.12,11.84 2.97,22.903 5.11,45.86 9.03,68.701 3.84,22.35 9.59,44.57 14.2,66.86 1.3,6.25 1.55,12.59 2.27,18.9 -1.01,0.13 -2.04,0.27 -3.05,0.41 -17.03,-35.61 -34.06,-71.2 -51.5,-107.64 0.17,2.109 0.2,3.359 0.37,4.601 2.78,21.819 5.69,43.619 8.36,65.439 2.85,23.22 6.17,46.44 1.61,69.74 -1.29,6.55 -2.3,13.12 -3.44,19.68 -0.67,-0.01 -1.33,-0.03 -1.99,-0.04 -19.37,-57.72 -19.13,-116.77 -29.73,-175.389 -0.65,0.508 -1.07,0.687 -1.15,0.91 -3.89,10.859 -5.68,22.141 -17.39,31.379 -0.98,0.78 -0.59,2.42 -0.27,3.6 8.58,31.93 12.63,64.04 10.22,96.41 -0.22,2.91 -0.03,5.84 -0.03,8.76 -0.72,0.04 -1.44,0.07 -2.15,0.11 -7.95,-28.24 -15.9,-56.48 -24.02,-85.33 -0.5,2.4 -0.96,4.24 -1.28,6.09 -2.46,14.25 -4.99,28.48 -7.28,42.73 -2.08,12.99 -5.61,26 -5.41,38.98 0.29,18.59 0.48,37.11 -3.27,55.58 -1.2,5.93 -2.03,11.9 -3.03,17.83 -23.87,-63.89 -19.91,-128.84 -22.43,-193.569 -1.09,1.789 -1.9,3.579 -1.99,5.411 -0.45,8.018 -0.36,16.048 -1.06,24.068 -3.16,36.29 -6.51,72.58 -9.83,108.88 -1.37,14.89 -2.42,29.81 -4.44,44.68 -1.41,10.29 -4.22,20.51 -6.4,30.77 -2.07,-5.36 -2.33,-10.88 -4.27,-16.15 -9,-24.52 -11.83,-49.47 -14.89,-74.43 -0.77,-6.28 -3.8,-12.45 -5.79,-18.67 -0.56,0.03 -1.12,0.06 -1.67,0.1 -4.46,7.31 -8.9,14.64 -13.34,21.95 -1.2,-9.72 -2.01,-19.13 -1.05,-28.48 2.89,-27.92 8.23,-55.8 3.72,-83.85 -0.22,-1.45 -0.36,-2.9 -0.61,-4.94 -5.42,7.96 -10.4,15.25 -15.37,22.54 -0.82,-0.17 -1.63,-0.35 -2.44,-0.52 -6.79,-14.91 -0.97,-29.831 0.45,-44.831 -3.98,7.453 -9.14,14.883 -10.22,22.511 -2.56,18.18 -3.27,36.46 -4.6,54.69 -2.79,38.35 -3.62,76.78 -12.03,114.9 -1.65,7.47 -3.29,14.94 -4.94,22.42 -2.13,-1.7 -2.63,-3.35 -2.74,-5.02 -1.85,-28.62 -3.6,-57.24 -5.51,-85.86 -0.38,-5.41 -1.37,-10.82 -2.07,-16.23 -0.75,0.02 -1.48,0.05 -2.22,0.08 -0.17,1.7 -0.33,3.39 -0.5,5.09 -4.33,44.63 -7.14,89.33 -13.44,133.85 -5.35,37.88 -14.4,75.58 -22.55,113.3 -1.86,8.65 -6.7,17.05 -10.02,25.2 6.6,-92.51 13.21,-185.22 19.82,-277.91 -0.85,-0.08 -1.69,-0.16 -2.53,-0.24 -5.3,19.02 -11.45,37.97 -15.66,57.09 -4.23,19.12 -6.54,38.41 -9.68,57.63 -0.81,-0.05 -1.62,-0.1 -2.43,-0.15 -0.15,-1.88 -0.44,-3.76 -0.41,-5.63 0.56,-31.33 1.14,-62.65 1.8,-93.97 0.25,-11.48 1.6,-22.99 0.96,-34.45 -1.64,-29.42 -4.11,-58.81 -6.27,-88.211 -0.11,-1.457 -0.44,-2.911 -0.85,-5.579 -2.72,6.129 -4.52,11.02 -7.18,15.731 -1.2,2.129 -3.52,4.418 -6.42,5.68 -2.85,1.25 -7.08,1.289 -11.4,1.98 4,29.989 0.84,60.289 -5.51,90.579 -0.66,-2.72 -1.32,-5.46 -2.26,-9.4 -1.35,4.54 -2.3,7.74 -3.24,10.96 -0.62,-0.01 -1.24,-0.02 -1.85,-0.03 -1.84,-5.78 -3.67,-11.56 -5.5,-17.33 -1.2,1.24 -1.52,2.42 -1.58,3.62 -0.57,12.43 -1.1,24.86 -1.62,37.29 -1.52,36.18 -2.41,72.38 -10.3,108.33 -1.24,5.64 -3.5,11.19 -5.29,16.79 -1.03,-0.07 -2.08,-0.13 -3.12,-0.2 -5.49,-65.32 -4.58,-130.67 -0.06,-196.58 -5.44,9.61 -10.48,18.53 -15.52,27.43 -0.47,-0.07 -0.94,-0.12 -1.4,-0.19 -2.37,-6.65 -4.73,-13.3 -7.4,-20.81 -1.42,13.02 -2.75,25.14 -4.07,37.26 -0.88,0 -1.75,0 -2.62,0 -1.32,-28.76 -2.63,-57.53 -3.95,-86.289 -0.31,-0.063 -0.63,-0.11 -0.94,-0.16 -2.34,4.239 -4.69,8.479 -7.04,12.729 -0.64,-0.06 -1.28,-0.12 -1.91,-0.18 -1.97,-8.29 -3.93,-16.6 -6.14,-25.909 -6.56,11.571 -5.33,22.369 -3.27,32.909 7.09,36.25 15.19,72.41 22.7,108.62 6.19,29.84 12.05,59.68 6.55,89.84 -0.63,3.42 -1.56,6.83 -2.35,10.25 -0.87,0.01 -1.73,0.01 -2.6,0.01 -13.44,-51.6 -26.89,-103.2 -40.27,-154.54 -0.78,20.12 -1.58,40.5 -2.37,60.87 -0.34,0.04 -0.69,0.08 -1.03,0.12 -3.82,-11.9 -7.64,-23.8 -11.46,-35.71 -3.91,4.87 -5.48,9.69 -8.24,14.21 -6.26,10.22 -10.97,20.43 -10.34,31.64 0.43,7.98 -2.23,16.02 -3.51,24.03 -0.8,0.02 -1.61,0.04 -2.41,0.06 -3.2,-10.09 -6.41,-20.17 -9.94,-31.34 -1.49,9.93 -2.64,18.83 -4.17,27.71 -1.57,9.06 -3.39,18.11 -5.33,27.15 -1.87,8.66 -4.03,17.29 -6.06,25.94 -1.64,-0.9 -1.83,-1.67 -1.86,-2.45 -2.18,-52.25 -2.6,-104.51 2.09,-156.72 1.44,-16.13 1.63,-32.03 -5.73,-47.71 -2.32,-4.98 -3.43,-10.17 -5.2,-15.24 -0.99,-2.84 -2.17,-5.649 -3.26,-8.469 -0.26,0.039 -0.51,0.078 -0.77,0.117 -0.91,11.613 -1.82,23.212 -2.8,35.532 -1.19,-2.08 -1.95,-3.42 -2.72,-4.76 -5.73,19.52 -11.11,38.93 -13.52,58.47 -3.67,29.81 -2.5,59.83 -10.39,89.43 -2.16,8.08 -6.33,15.96 -9.57,23.92 -0.84,-0.03 -1.68,-0.06 -2.52,-0.1 -0.99,-3.62 -2.48,-7.2 -2.85,-10.84 -1.71,-16.8 -3.59,-33.61 -4.49,-50.42 -1.04,-19.35 -0.64,-38.72 -1.82,-58.07 -0.53,-8.51 -3.41,-16.98 -5.21,-25.48 -0.77,0.07 -1.54,0.14 -2.3,0.21 -1.68,21.09 -3.36,42.18 -5.04,63.28 -0.6,0.03 -1.2,0.06 -1.8,0.09 -1.93,-6.83 -3.85,-13.65 -5.47,-19.4 -5.21,23.52 -10.6,47.89 -16,72.26 -1.15,-0.05 -2.31,-0.1 -3.47,-0.15 -1.1,-33.91 -2.19,-67.83 -3.29,-101.58 -1.77,4.22 -3.65,8.65 -6.1,14.47 -1.48,-2.62 -2.15,-3.81 -2.8,-4.96 -6.8,24.84 -13.6,49.66 -20.38,74.49 -0.63,-0.06 -1.24,-0.1 -1.86,-0.15 1.46,-22.42 2.92,-44.83 4.38,-67.24 -0.27,-0.03 -0.53,-0.07 -0.81,-0.11 -2.28,6.92 -4.57,13.83 -6.85,20.75 -0.46,-0.04 -0.93,-0.07 -1.4,-0.1 0,-3.12 0,-6.22 0,-9.34 -4.62,10.91 -8.57,21.9 -15.66,32.03 -5.53,7.91 -9.87,15.76 -11.68,24.22 -0.6,2.8 -1.49,5.58 -2.32,8.36 -0.81,2.75 -1.7,5.48 -2.55,8.21 -12.22,-27.49 -11.43,-55.51 -13.76,-83.39 -12.12,53.7 -18.32,107.93 -40.98,160.61 1.15,-17.04 2.31,-34.08 3.48,-51.13 -0.24,0 -0.47,0 -0.71,0 -3.46,7.79 -6.94,15.58 -10.41,23.38 -0.95,-0.1 -1.92,-0.21 -2.88,-0.32 -14.58,-51.28 -12.54,-103.47 -21.06,-155.13 -0.91,1.47 -1.4,2.97 -1.82,4.47 -7.9,28.08 -16.36,56.08 -35.42,82.3 -4.26,5.85 -10.24,11.23 -15.43,16.82 -0.99,-0.21 -1.97,-0.43 -2.97,-0.64 0.79,-5.71 0.99,-11.46 2.46,-17.09 10.1,-38.52 20.59,-76.99 30.67,-115.51 2.85,-10.92 4.77,-21.911 7.13,-32.88 -3.84,4.289 -5.95,8.789 -8.7,13.13 -2.2,3.5 -6.31,5.8 -12.98,5.1 -6.42,-0.68 -8.73,-3.8 -9.14,-7.211 -0.52,-4.371 -0.81,-8.847 0.18,-13.168 4.56,-19.632 9.48,-39.222 14.54,-58.793 1.88,-7.218 4.51,-14.359 6.8,-21.539 -16.78,-1.82 -16.73,-1.82 -17.57,7.68 -1.73,19.652 -3.17,39.313 -5.48,58.93 -0.63,5.383 -3.85,10.652 -5.94,15.98 -0.88,2.223 -2.64,4.422 -2.73,6.653 -0.61,15.258 -0.32,30.538 -1.45,45.788 -0.83,11.13 -3.33,22.21 -5.35,33.31 -0.15,0.9 -2.25,1.67 -3.44,2.5 -0.91,-0.13 -1.81,-0.26 -2.71,-0.38 4.63,29.33 9.27,58.68 13.91,88.01 -0.81,0.08 -1.62,0.15 -2.43,0.23 -10.59,-21.97 -21.82,-43.83 -31.58,-65.94 -9.77,-22.16 -18.07,-44.57 -27.34,-67.66 -1,23.75 -1.13,46.69 -3.16,69.57 -2.03,22.76 -5.96,45.46 -9.06,68.2 -10.4,-38.61 -14.72,-77.41 -16.11,-116.35 -11.08,27.57 -15.19,55.43 -10.29,83.77 -0.93,-0.02 -1.85,-0.04 -2.78,-0.06 -1.91,-6.11 -3.82,-12.22 -6.18,-19.72 -4.15,6.65 -8.75,11.66 -7.22,17.86 1.34,5.44 1.6,10.97 2.77,16.43 8.08,37.99 10.09,76.2 11.07,113.61 -7.14,-21.33 -15.42,-43.4 -21.74,-65.69 -6.34,-22.35 -10.74,-44.92 -15.01,-63.21 -2.36,19.84 -5.21,43.8 -8.06,67.76 -0.79,-0.02 -1.58,-0.03 -2.38,-0.05 -0.31,-0.75 -0.74,-1.48 -0.9,-2.24 -5.72,-26.5 -11.91,-52.97 -16.88,-79.52 -2.51,-13.42 -1.95,-27.06 -4.3,-40.5 -3.35,-19.07 -8.44,-38.03 -12.18,-57.08 -4.34,-22.09 -8.03,-44.24 -11.99,-66.361 -0.03,12.941 0.97,25.812 1.38,38.703 0.17,5.258 1.13,10.748 -4.84,15.418 -0.85,0.66 -0.36,2.12 -0.08,3.17 5.07,18.76 10.05,37.54 15.34,56.29 10.45,36.96 16.4,74.19 17.56,111.7 0.05,1.58 0,3.15 0,4.72 -37.33,-59.3 -49.94,-121.8 -67.99,-183.47 -4.6,0.84 -8.4,1.54 -12.87,2.35 0.72,4.58 1.54,9.24 2.19,13.89 4.65,33.88 9.68,67.73 13.63,101.64 1.09,9.33 -1.05,18.81 -1.72,28.23 -1.05,0.03 -2.12,0.06 -3.17,0.09 -24.22,-44.11 -30.3,-90.32 -40.02,-136.16 -0.85,9.46 -0.54,18.88 -0.9,28.3 -1.78,45.93 -3.46,91.87 -5.87,137.8 -0.44,8.46 -4.08,16.86 -6.25,25.3 -0.88,-0.01 -1.77,-0.02 -2.64,-0.03 -0.87,-1.91 -2.15,-3.79 -2.54,-5.74 -2.6,-12.94 -6.76,-25.88 -7.15,-38.86 -1.51,-49.56 -2.24,-99.14 -2.16,-148.72 0.02,-11.37 -5.16,-21.91 -7.93,-32.828 -1.14,-4.461 -3.42,-8.832 -5.18,-13.231 -1.37,8.207 -2.23,16.36 -1.23,24.43 5.37,43.049 7.21,86.119 3.26,129.259 -0.08,0.89 -0.66,1.76 -1,2.63 -0.52,-0.01 -1.03,-0.02 -1.53,-0.03 -2.79,-9.79 -5.56,-19.58 -8.33,-29.37 -0.89,0.08 -1.77,0.16 -2.66,0.24 13.24,48.4 30.6,96.5 30.8,145.91 -11.58,-27.44 -23.16,-54.88 -35.15,-83.28 -3.99,14.53 -7.74,28.15 -11.48,41.76 -0.79,-0.05 -1.58,-0.09 -2.37,-0.14 -0.73,-2.74 -1.54,-5.49 -2.16,-8.25 -7.72,-33.77 -8.19,-67.76 -8.29,-101.78 -0.01,-4.37 -0.7,-8.81 -1.89,-13.12 -4.55,-16.44 -9.43,-32.84 -14.22,-49.26 -1.01,-3.49 -2.12,-6.96 -3.19,-10.44 -1.62,1.99 -1.62,3.86 -1.62,5.72 0.07,34.16 0.69,68.32 -0.06,102.47 -0.32,14.42 -1.49,29.05 -10.05,42.77 -4.24,6.79 -3.32,13.44 -2.32,20.36 1.64,11.39 2.58,22.82 3.81,34.24 -0.92,0.09 -1.84,0.19 -2.75,0.29 -9.64,-29.33 -19.28,-58.65 -28.92,-87.98 -0.39,-0.4 -0.77,-0.8 -1.16,-1.2 -0.42,1.17 -0.83,2.34 -1.25,3.52 -0.54,-34.94 -14.61,-68.04 -18.7,-101.91 -9.27,26.88 -13.73,54.32 -29.51,80.23 -5.71,-25.41 -0.49,-50.87 -3.21,-76.43 -3.82,7.5 -7.64,15.01 -11.46,22.52 -1.06,-1.02 -1.08,-1.9 -1.05,-2.8 0.29,-11.01 0.95,-22.02 0.69,-33.03 -0.09,-3.8 -2.46,-7.59 -3.79,-11.38 -1.19,0.09 -2.38,0.17 -3.57,0.25 -0.79,7.17 -1.89,14.32 -2.32,21.49 -1.12,19.18 -1.79,38.37 -3,57.55 -0.48,7.52 -3.55,15.09 -2.61,22.51 2.4,19.11 6.45,38.15 9.73,57.23 1.41,8.24 2.57,16.49 3.85,24.73 -0.56,0.08 -1.14,0.16 -1.71,0.24 -2.14,-5.04 -4.29,-10.07 -6.44,-15.11 -0.63,0.1 -1.26,0.2 -1.9,0.28 4.19,15.12 8.39,30.24 12.58,45.35 -47.2,-86.36 -66.67,-175.87 -78.83,-266.211 -1.27,0.043 -2.55,0.09 -3.83,0.141 4.3,43.52 4.68,87.02 1.94,130.54 -0.92,-1.21 -1.3,-2.42 -1.51,-3.65 -6.03,-34.74 -12.05,-69.48 -17.99,-104.21 -0.46,-2.688 -0.65,-5.168 -7.53,-4.04 0.99,13.899 1.02,27.91 3.14,41.81 8.94,58.76 18.61,117.48 27.79,176.23 5.77,36.96 12.72,73.91 10.47,111.15 -0.51,8.34 -2.31,16.64 -3.52,24.97 -0.73,0.02 -1.47,0.04 -2.22,0.06 -0.9,-3.02 -2.18,-6.01 -2.64,-9.05 -3.44,-22.56 -6.48,-45.15 -10.08,-67.7 -3.79,-23.64 -4.86,-47.67 -12.86,-70.78 -13.41,-38.73 -23.38,-77.62 -29.47,-116.99 -2.94,-19.09 -6.03,-38.18 -9.05,-57.28 -1.33,40.22 -0.11,80.48 -10.66,120.39 -14.39,-50.34 -13.34,-101.18 -14.05,-152.169 -10.58,-0.09 -11.09,-6.172 -16.56,-10.812 0,3.972 0.12,6.793 -0.02,9.621 -2.34,47.32 1.48,94.8 -8.73,141.93 -1.96,9.07 -5.01,18.06 -7.57,27.08 -0.82,-0.04 -1.64,-0.08 -2.46,-0.12 -10.44,-48.62 -4.91,-97.54 -5.7,-146.34 -7.09,17.4 -14.22,34.76 -20.52,52.23 -2.47,6.85 -4.13,13.94 -4.35,20.94 -0.83,25.33 -0.52,50.68 -1.35,76.02 -0.82,25.07 -5.8,49.88 -15.68,74.24 -0.41,1.03 -1.19,1.99 -1.79,2.99 -0.75,-0.06 -1.5,-0.12 -2.25,-0.17 -2.1,-15.19 -5.76,-30.36 -6.02,-45.55 -0.88,-50.21 -0.52,-100.41 -0.64,-150.62 -0.03,-15.25 4.04,-30.67 -6.15,-45.49 -2.36,-3.429 -2.26,-7.519 -3.28,-11.308 -0.77,-0.012 -1.54,-0.012 -2.33,-0.012 -0.64,4.449 -1.53,8.891 -1.87,13.359 -0.66,8.621 -0.24,17.301 -1.73,25.861 -1.27,7.26 -4.59,8.67 -15.72,9.71 -4.27,9.98 -8.96,19.94 -12.71,30.04 -2.19,5.92 -3.88,12.03 -4.12,18.09 -0.57,15.09 -0.18,30.19 -0.18,45.29 -1.09,0 -2.16,0 -3.25,0 0,-13.88 0,-27.75 0,-42.38 -1.76,0.95 -2.29,1.1 -2.43,1.33 0.77,5.1 1.17,10.24 1.77,15.36 -1.03,0.13 -2.04,0.27 -3.07,0.41 -1.12,-2.35 -2.24,-4.7 -3.36,-7.03 -9.12,18.11 -19.06,36 -37.5,51.6 -1.14,0.95 -1.87,2.26 -2.11,3.46 -2.31,11.68 -4.48,23.37 -6.87,36.07 -9.61,-35.02 -11.08,-69.6 -12.61,-103.12 -0.48,-3.31 -0.93,-6.62 -1.36,-9.93 -5.04,21.58 -10.34,44.23 -15.64,66.95 -0.88,-0.01 -1.75,-0.04 -2.63,-0.07 -0.85,-11.43 -1.71,-22.96 -2.56,-34.4 -0.09,1.72 -0.13,3.43 -0.26,5.16 -0.22,2.91 -0.03,5.84 -0.03,8.76 -0.72,0.04 -1.43,0.07 -2.16,0.11 -3.44,-12.26 -6.9,-24.54 -10.37,-36.85 -1.14,6.66 -2.32,13.4 -3.45,20.05 -4.45,26.21 -14.45,57.67 -21.12,64.04 -1.04,-8.04 -2.04,-15.71 -3.03,-23.45 -0.23,11.45 -0.97,22.87 -3.29,34.26 -1.2,5.93 -2.02,11.9 -3.01,17.83 -4.94,-13.22 -8.65,-26.49 -11.51,-39.79 -0.94,4.27 -1.82,8.54 -2.78,12.82 -0.41,-0.03 -0.81,-0.05 -1.21,-0.07 -2.82,-11.23 -5.65,-22.46 -8.47,-33.69 -0.3,0.05 -0.59,0.1 -0.89,0.15 -4.8,15.4 -9.63,30.88 -14.52,46.58 -0.15,1.15 -0.22,2.31 -0.39,3.47 -1.4,10.29 -4.21,20.51 -6.39,30.77 -2.08,-5.36 -2.32,-10.88 -4.26,-16.15 -8.83,-24.04 -11.71,-48.48 -14.72,-72.94 -2.31,-6.7 -4.63,-13.41 -6.93,-20.1 -0.24,0.01 -0.47,0.02 -0.72,0.04 -0.59,0.97 -1.19,1.96 -1.78,2.95 -1.41,10.41 -2.83,20.82 -4.23,31.24 -0.79,-7.9 -0.63,-15.83 -0.32,-23.77 -2.33,3.84 -4.67,7.68 -7.01,11.53 -1.19,-9.72 -2.01,-19.13 -1.03,-28.48 1.2,-11.64 2.8,-23.28 3.96,-34.92 -0.98,-2.86 -2.03,-5.72 -3.46,-8.58 -5.28,7.79 -9.69,15 -14.98,21.94 -4.29,5.61 -5.21,11.24 -4.79,17.37 2.78,39.91 9.25,79.81 1.98,119.78 -1.59,8.77 -3.87,17.49 -5.84,26.23 -0.84,0.01 -1.68,0.02 -2.51,0.03 -1.85,-6.16 -3.71,-12.33 -5.56,-18.5 -8.94,34.83 -12.22,70.06 -28.26,104.04 -6.24,-64.74 2.92,-129.33 3.81,-194.09 -2.14,2.48 -3.87,5.06 -4.18,7.71 -1.3,11.46 -1.65,22.97 -3.38,34.4 -0.88,5.78 -2.6,11.51 -4.3,17.24 -1.45,14.07 -3.03,28.14 -5.01,42.18 -5.36,37.88 -14.42,75.58 -22.55,113.3 -1.88,8.65 -6.71,17.05 -10.03,25.2 4.84,-67.93 9.7,-136.01 14.55,-204.07 -0.5,-0.93 -0.94,-1.76 -1.46,-2.74 -5.85,4.6 -11.2,8.8 -16.44,12.93 -1.6,10.14 -3.04,20.3 -4.71,30.45 -0.81,-0.05 -1.62,-0.1 -2.43,-0.15 -0.13,-1.88 -0.44,-3.76 -0.4,-5.63 0.57,-31.33 1.13,-62.65 1.8,-93.97 0.09,-3.76 0.28,-7.53 0.5,-11.29 -7.15,-21.12 -14.29,-42.21 -21.5,-63.51 -0.29,1.55 -0.64,3.01 -0.86,4.48 -6.25,43.31 -8.01,86.73 -8.34,130.18 -0.36,49.57 0.9,99.17 -8.71,148.54 -1.09,5.61 -2.19,11.22 -3.27,16.84 -0.63,-0.03 -1.27,-0.05 -1.9,-0.07 -11.93,-51.2 -12.04,-102.71 -11.91,-154.49 -1.4,16.21 -3.49,32.37 -7.04,48.49 -1.24,5.64 -3.49,11.19 -5.27,16.79 -1.05,-0.07 -2.08,-0.13 -3.13,-0.2 -1.93,-23.02 -3.03,-46.06 -3.5,-69.13 -0.59,-1.52 -1.08,-2.79 -1.15,-3.91 -1.34,-20.75 -2.79,-41.48 -3.75,-62.22 -0.49,-10.83 1.42,-21.78 -0.39,-32.51 -0.56,-3.35 -1.24,-6.7 -1.88,-10.05 -1.64,2.89 -3.28,5.8 -4.91,8.67 -0.47,-0.07 -0.93,-0.12 -1.4,-0.19 -2.36,-6.65 -4.73,-13.3 -7.39,-20.81 -1.43,13.02 -2.76,25.14 -4.08,37.26 -0.87,0 -1.74,0 -2.62,0 -0.64,-13.87 -1.27,-27.76 -1.91,-41.64 -1.54,7.57 -3.07,15.13 -4.6,22.7 -1.12,5.51 -2.39,11.01 -3.39,16.53 3.13,14.71 6.3,29.41 9.35,44.13 6.19,29.84 12.05,59.68 6.55,89.84 -0.62,3.42 -1.56,6.83 -2.35,10.25 -0.87,0.01 -1.73,0.01 -2.6,0.01 -3.14,-12.06 -6.27,-24.06 -9.41,-36.12 -0.34,1.26 -0.68,2.52 -1.13,3.78 -2.54,7.12 -2.64,14.58 -3.9,21.89 -0.25,1.49 -0.79,2.98 -1.19,4.47 -0.81,-0.01 -1.62,-0.02 -2.43,-0.02 -0.34,-1.42 -1.08,-2.86 -0.93,-4.26 0.83,-7.83 -2.07,-15.22 -5.43,-22.71 -3.05,-6.78 -4.53,-13.84 -6.44,-20.8 -1.09,-3.99 -1.64,-8.03 -2.42,-11.96 -9.99,19.11 -19.9,38.08 -29.81,57.05 3.98,-26.13 9.89,-51.84 14.68,-77.62 0.85,-4.67 1.73,-9.35 2.56,-14.03 -3.09,-9.64 -6.19,-19.29 -9.28,-28.93 -3.91,4.87 -5.47,9.69 -8.25,14.21 -6.25,10.22 -10.95,20.43 -10.34,31.64 0.44,7.98 -2.22,16.02 -3.5,24.03 -0.8,0.02 -1.6,0.04 -2.42,0.06 -3.19,-10.09 -6.39,-20.17 -9.94,-31.34 -1.47,9.93 -2.62,18.83 -4.17,27.71 -1.56,9.06 -3.38,18.11 -5.32,27.15 -1.86,8.66 -4.02,17.29 -6.05,25.94 -1.65,-0.9 -1.84,-1.67 -1.87,-2.45 -1.37,-32.82 -1.86,-65.64 -1.01,-98.45 -8.2,22.38 -17.01,44.61 -34.07,65.48 -0.3,-18.6 -0.6,-37.18 -0.91,-55.78 -1.15,13.18 -2.83,26.33 -6.31,39.4 -2.16,8.08 -6.32,15.96 -9.56,23.92 -0.84,-0.03 -1.69,-0.06 -2.53,-0.1 -0.98,-3.62 -2.48,-7.2 -2.85,-10.84 -1.71,-16.8 -3.59,-33.61 -4.5,-50.42 -0.36,-6.73 -0.52,-13.46 -0.67,-20.2 -3.46,7.47 -7.14,14.91 -11.21,22.3 -0.97,-0.07 -1.94,-0.14 -2.9,-0.21 2.89,-27.2 5.78,-54.39 8.67,-81.59 -0.31,-1.28 -0.64,-2.57 -0.91,-3.85 -0.77,0.07 -1.53,0.14 -2.3,0.21 -1.68,21.09 -3.36,42.18 -5.03,63.28 -0.61,0.03 -1.21,0.06 -1.81,0.09 -1.92,-6.83 -3.85,-13.65 -5.48,-19.4 -5.2,23.52 -10.59,47.89 -15.98,72.26 -1.17,-0.05 -2.32,-0.1 -3.48,-0.15 -0.23,-6.81 -0.44,-13.58 -0.66,-20.38 -7.24,-21.78 -10.32,-43.84 -13.1,-65.95 -6.28,22.92 -12.55,45.83 -18.82,68.75 -0.61,-0.06 -1.23,-0.1 -1.85,-0.15 1.46,-22.42 2.92,-44.83 4.38,-67.24 -0.26,-0.03 -0.54,-0.07 -0.8,-0.11 -0.78,2.36 -1.55,4.71 -2.33,7.06 -2.08,16.29 -4.22,32.57 -5.99,48.88 -0.52,4.81 -0.05,9.75 1.1,14.52 4.82,19.77 10.24,39.48 9.13,59.59 -0.06,1.25 -0.39,2.5 -0.58,3.75 -0.65,0.06 -1.28,0.12 -1.93,0.18 -5.61,-8.89 -11.23,-17.78 -17.57,-27.8 -4.02,14.58 -7.68,27.85 -11.33,41.12 -0.66,-0.05 -1.3,-0.1 -1.96,-0.15 0,-2.35 0,-4.7 0,-7.05 0,-19.82 0.08,-39.66 -0.07,-59.49 -0.02,-3.43 -0.62,-6.92 -1.69,-10.28 -0.55,-1.74 -1.12,-3.48 -1.66,-5.23 -0.23,0.83 -0.54,1.63 -0.72,2.46 -0.59,2.8 -1.49,5.58 -2.31,8.36 -0.81,2.75 -1.71,5.48 -2.56,8.21 -11.51,-25.89 -11.5,-52.28 -13.42,-78.56 -0.27,-0.86 -0.54,-1.73 -0.82,-2.6 -11.79,52.97 -18.16,106.42 -40.51,158.38 1.17,-17.04 2.33,-34.08 3.48,-51.13 -0.23,0 -0.47,0 -0.69,0 -3.48,7.79 -6.95,15.58 -10.41,23.38 -0.97,-0.1 -1.93,-0.21 -2.89,-0.32 -1.5,-5.25 -2.71,-10.51 -3.89,-15.79 -2.64,7 -5.49,13.96 -8.56,20.89 -2.26,5.11 -5.8,9.99 -8.75,14.98 -0.72,-0.13 -1.43,-0.26 -2.14,-0.4 -0.29,-1.53 -0.81,-3.07 -0.81,-4.61 0,-10.06 -1.08,-20.18 0.37,-30.17 3.37,-23.29 6.85,-46.58 10.32,-69.87 -2.04,-23.4 -3.75,-46.84 -7.61,-70.16 -0.9,1.47 -1.39,2.97 -1.81,4.47 -7.9,28.08 -16.36,56.08 -35.41,82.3 -4.26,5.85 -10.25,11.23 -15.43,16.82 -1,-0.21 -1.99,-0.43 -2.97,-0.64 0.72,-5.26 1.03,-10.55 2.22,-15.75 -0.1,0.14 -0.2,0.3 -0.31,0.44 -0.29,0.42 -1.14,0.69 -2.67,1.58 1.26,-11.17 1.47,-21.58 3.75,-31.82 7.59,-34.21 15.53,-68.38 23.36,-102.57 -2.08,0.82 -4.63,1.2 -7.79,0.87 -6.4,-0.68 -8.73,-3.8 -9.13,-7.211 -0.52,-4.371 -0.82,-8.847 0.19,-13.168 3.5,-15.121 7.36,-30.203 11.2,-45.281 -3.05,9.371 -6,18.762 -8.59,28.172 -3.25,11.828 -7.77,23.406 -13.21,34.818 -0.27,12.34 -0.33,24.67 -1.25,36.99 -0.83,11.13 -3.33,22.21 -5.33,33.31 -0.17,0.9 -2.26,1.67 -3.46,2.5 -0.9,-0.13 -1.8,-0.26 -2.7,-0.38 4.64,29.33 9.27,58.68 13.91,88.01 -0.82,0.08 -1.63,0.15 -2.44,0.23 -10.58,-21.97 -21.8,-43.83 -31.56,-65.94 -6.52,-14.78 -12.44,-29.77 -18.38,-44.91 -3.21,5.6 -6.7,11.13 -10.35,16.64 -0.39,10.11 -0.89,20.16 -1.78,30.18 -2.02,22.76 -5.96,45.46 -9.05,68.2 -10.41,-38.61 -14.73,-77.41 -16.12,-116.35 -11.09,27.57 -15.19,55.43 -10.3,83.77 -0.92,-0.02 -1.84,-0.04 -2.76,-0.06 -1.92,-6.11 -3.83,-12.22 -6.18,-19.72 -4.16,6.65 -8.76,11.66 -7.23,17.86 1.34,5.44 1.6,10.97 2.76,16.43 8.09,37.99 10.1,76.2 11.09,113.61 -7.15,-21.33 -15.42,-43.4 -21.75,-65.69 -6.35,-22.35 -10.74,-44.92 -15.01,-63.21 -2.36,19.84 -5.21,43.8 -8.06,67.76 -0.8,-0.02 -1.59,-0.03 -2.38,-0.05 -0.3,-0.75 -0.73,-1.48 -0.9,-2.24 -5.71,-26.5 -11.9,-52.97 -16.87,-79.52 -2.52,-13.42 -1.96,-27.06 -4.32,-40.5 -3.34,-19.07 -8.43,-38.03 -12.17,-57.08 -4.34,-22.09 -8.02,-44.24 -12,-66.361 -0.03,12.941 0.99,25.812 1.4,38.703 0.16,5.258 1.11,10.748 -4.86,15.418 -0.84,0.66 -0.36,2.12 -0.07,3.17 5.06,18.76 10.05,37.54 15.35,56.29 10.44,36.96 16.38,74.19 17.55,111.7 0.05,1.58 0.01,3.15 0.01,4.72 -37.35,-59.3 -49.95,-121.8 -67.99,-183.47 -4.6,0.84 -8.41,1.54 -12.87,2.35 0.72,4.58 1.54,9.24 2.17,13.89 4.66,33.88 9.68,67.73 13.64,101.64 1.09,9.33 -1.06,18.81 -1.71,28.23 -1.07,0.03 -2.12,0.06 -3.18,0.09 -24.21,-44.11 -30.3,-90.32 -40.02,-136.16 -0.84,9.46 -0.53,18.88 -0.89,28.3 -1.78,45.93 -3.47,91.87 -5.87,137.8 -0.45,8.46 -4.09,16.86 -6.26,25.3 -0.88,-0.01 -1.76,-0.02 -2.64,-0.03 -0.87,-1.91 -2.16,-3.79 -2.55,-5.74 -2.59,-12.94 -6.75,-25.88 -7.15,-38.86 -1.5,-49.56 -2.22,-99.14 -2.14,-148.72 0.01,-11.37 -5.16,-21.91 -7.94,-32.828 -1.14,-4.461 -3.41,-8.832 -5.18,-13.231 -1.37,8.207 -2.23,16.36 -1.22,24.43 5.36,43.049 7.2,86.119 3.25,129.259 -0.09,0.89 -0.65,1.76 -1,2.63 -0.51,-0.01 -1.02,-0.02 -1.54,-0.03 -2.77,-9.79 -5.54,-19.58 -8.33,-29.37 -0.88,0.08 -1.77,0.16 -2.64,0.24 13.24,48.4 30.58,96.5 30.79,145.91 -11.59,-27.44 -23.17,-54.88 -35.15,-83.28 -3.99,14.53 -7.73,28.15 -11.47,41.76 -0.8,-0.05 -1.6,-0.09 -2.39,-0.14 -0.72,-2.74 -1.52,-5.49 -2.16,-8.25 -7.71,-33.77 -8.19,-67.76 -8.29,-101.78 -0.01,-4.37 -0.68,-8.81 -1.88,-13.12 -4.55,-16.44 -9.42,-32.84 -14.21,-49.26 -1.02,-3.49 -2.13,-6.96 -3.2,-10.44 -1.62,1.99 -1.62,3.86 -1.61,5.72 0.05,34.16 0.69,68.32 -0.07,102.47 -0.33,14.42 -1.5,29.05 -10.04,42.77 -4.24,6.79 -3.33,13.44 -2.33,20.36 1.64,11.39 2.57,22.82 3.8,34.24 -0.91,0.09 -1.82,0.19 -2.73,0.29 -9.65,-29.33 -19.29,-58.65 -28.94,-87.98 -0.38,-0.4 -0.76,-0.8 -1.15,-1.2 -0.42,1.17 -0.83,2.34 -1.25,3.52 -0.55,-34.94 -14.61,-68.04 -18.69,-101.91 -9.29,26.88 -13.73,54.32 -29.51,80.23 -5.72,-25.41 -0.5,-50.87 -3.22,-76.43 -3.81,7.5 -7.63,15.01 -11.45,22.52 -1.07,-1.02 -1.08,-1.9 -1.07,-2.8 0.3,-11.01 0.96,-22.02 0.71,-33.03 -0.1,-3.8 -2.46,-7.59 -3.79,-11.38 -1.19,0.09 -2.38,0.17 -3.58,0.25 -0.79,7.17 -1.89,14.32 -2.31,21.49 -1.13,19.18 -1.8,38.37 -3.02,57.55 -0.47,7.52 -3.54,15.09 -2.6,22.51 2.41,19.11 6.44,38.15 9.73,57.23 1.42,8.24 2.58,16.49 3.86,24.73 -0.58,0.08 -1.14,0.16 -1.72,0.24 -2.14,-5.04 -4.29,-10.07 -6.44,-15.11 -0.63,0.1 -1.26,0.2 -1.9,0.28 4.2,15.12 8.39,30.24 12.59,45.35 -47.22,-86.36 -66.67,-175.87 -78.84,-266.211 -1.28,0.043 -2.55,0.09 -3.83,0.141 4.31,43.52 4.68,87.02 1.94,130.54 -0.91,-1.21 -1.3,-2.42 -1.52,-3.65 -6.01,-34.74 -12.05,-69.48 -17.98,-104.21 -0.46,-2.688 -0.64,-5.168 -7.54,-4.04 1,13.899 1.04,27.91 3.15,41.81 8.94,58.76 18.61,117.48 27.78,176.23 5.77,36.96 12.74,73.91 10.48,111.15 -0.51,8.34 -2.31,16.64 -3.51,24.97 -0.75,0.02 -1.49,0.04 -2.23,0.06 -0.9,-3.02 -2.18,-6.01 -2.65,-9.05 -3.43,-22.56 -6.46,-45.15 -10.08,-67.7 -3.78,-23.64 -4.85,-47.67 -12.85,-70.78 -13.41,-38.73 -23.39,-77.62 -29.46,-116.99 -2.95,-19.09 -6.04,-38.18 -9.06,-57.28 -1.32,40.22 -0.11,80.48 -10.67,120.39 -14.37,-50.34 -13.33,-101.18 -14.04,-152.169 -10.59,-0.09 -11.08,-6.172 -16.55,-10.812 0,3.972 0.11,6.793 -0.02,9.621 -2.35,47.32 1.46,94.8 -8.73,141.93 -1.97,9.07 -5.02,18.06 -7.57,27.08 -0.82,-0.04 -1.64,-0.08 -2.46,-0.12 -10.44,-48.62 -4.91,-97.54 -5.7,-146.34 -7.1,17.4 -14.22,34.76 -20.52,52.23 -2.47,6.85 -4.13,13.94 -4.37,20.94 -0.82,25.33 -0.52,50.68 -1.34,76.02 -0.82,25.07 -5.81,49.88 -15.68,74.24 -0.42,1.03 -1.19,1.99 -1.8,2.99 -0.74,-0.06 -1.49,-0.12 -2.23,-0.17 -2.11,-15.19 -5.77,-30.36 -6.04,-45.55 -0.87,-50.21 -0.52,-100.41 -0.62,-150.62 -0.04,-15.25 4.03,-30.67 -6.15,-45.49 -2.38,-3.429 -2.26,-7.519 -3.29,-11.308 -0.78,-0.012 -1.55,-0.012 -2.32,-0.012 -0.64,4.449 -1.54,8.891 -1.89,13.359 -0.66,8.621 -0.23,17.301 -1.72,25.861 -1.27,7.26 -4.58,8.67 -15.72,9.71 -4.27,9.98 -8.95,19.94 -12.7,30.04 -2.21,5.92 -3.9,12.03 -4.12,18.09 -0.59,15.09 -0.2,30.19 -0.2,45.29 -1.07,0 -2.16,0 -3.23,0 0,-13.88 0,-27.75 0,-42.38 -1.79,0.96 -2.31,1.1 -2.45,1.34 -1.03,1.77 -2.04,3.54 -2.94,5.34 -9.61,19.27 -19.62,38.42 -39.21,54.99 -1.14,0.95 -1.87,2.26 -2.1,3.46 -2.31,11.68 -4.48,23.37 -6.88,36.07 -10.87,-39.62 -11.32,-78.67 -13.23,-116.26 -5.25,22.51 -10.82,46.34 -16.37,70.16 -0.88,-0.01 -1.76,-0.04 -2.64,-0.07 -2.53,-33.95 -5.06,-67.9 -7.62,-102.19 -3.78,21.88 -7.56,43.45 -11.21,65.02 -4.44,26.21 -14.44,57.67 -21.12,64.04 -1.5,-11.55 -2.88,-22.26 -4.36,-33.64 -2.14,3.46 -3.95,6.4 -5.77,9.34 -1.29,-1.05 -1.66,-1.93 -1.58,-2.8 1.42,-17.13 1.42,-34.36 4.65,-51.37 6.06,-32.03 14.01,-63.92 21.05,-95.88 0.61,-2.77 1.16,-5.711 0.27,-8.372 -2.56,-7.527 -6.01,-14.929 -8.85,-22.418 -1.45,-3.8 -2.35,-7.679 -3.65,-12.082 -1.13,0.934 -1.61,1.161 -1.68,1.434 -10.56,33.969 -22.14,67.688 -16.76,102.848 4.74,30.99 6.55,62.21 -2.09,93.22 -1.98,7.09 -3.25,14.26 -4.85,21.39 -0.41,-0.03 -0.81,-0.05 -1.22,-0.07 -2.82,-11.23 -5.64,-22.46 -8.46,-33.69 -0.3,0.05 -0.59,0.1 -0.89,0.15 -5.87,18.82 -11.73,37.63 -17.77,56.98 -10.26,-29.76 -20.32,-58.91 -30.38,-88.05 -0.26,0 -0.52,0 -0.8,0.01 -1.66,12.31 -3.33,24.61 -5,36.92 -2.79,-27.83 6.24,-56.01 -7.85,-84.22 -5.27,7.79 -9.69,15 -14.99,21.94 -4.28,5.61 -5.2,11.24 -4.77,17.37 2.78,39.91 9.24,79.81 1.98,119.78 -1.59,8.77 -3.88,17.49 -5.85,26.23 -0.83,0.01 -1.67,0.02 -2.51,0.03 -1.86,-6.16 -3.7,-12.33 -5.56,-18.5 -8.93,34.83 -12.21,70.06 -28.26,104.04 -6.23,-64.74 2.93,-129.33 3.82,-194.09 -2.15,2.48 -3.89,5.06 -4.19,7.71 -1.29,11.46 -1.64,22.97 -3.38,34.4 -1.24,8.14 -4.15,16.19 -6.31,24.28 -0.85,-0.01 -1.71,-0.02 -2.56,-0.04 -2.34,-8.1 -4.68,-16.21 -7.14,-24.71 -1.08,2.45 -2.02,4.61 -2.96,6.76 -0.54,0.05 -1.09,0.09 -1.62,0.14 -2.56,-4.77 -5.12,-9.55 -8.22,-15.32 -8.23,6.47 -15.54,12.23 -22.86,17.98 4.3,-11.72 9.86,-22.95 15.3,-34.2 1.07,-2.21 2.44,-4.53 2.28,-6.77 -1.24,-17.6 -2.86,-35.19 -4.25,-52.78 -0.46,-5.81 0.06,-11.68 -1,-17.43 -1.04,-5.58 -3.55,-11.05 -5.41,-16.56 2.48,19.8 5.52,39.55 2.77,59.4 -0.86,0.07 -1.72,0.14 -2.58,0.22 -9.11,-26.93 -18.223,-53.87 -27.411,-81.03 -0.304,1.55 -0.656,3.01 -0.859,4.48 -6.25,43.31 -8.027,86.73 -8.34,130.18 -0.363,49.57 0.899,99.17 -8.722,148.54 -1.094,5.61 -2.176,11.22 -3.27,16.84 -0.637,-0.03 -1.27,-0.05 -1.906,-0.07 -15.067,-64.7 -11.278,-129.89 -11.942,-195.48 -5.578,13.09 -6.886,26.35 -18.027,39.33 -0.988,-2.99 -1.914,-4.64 -2.023,-6.3 -1.336,-20.75 -2.782,-41.48 -3.739,-62.22 -0.5,-10.83 1.414,-21.78 -0.402,-32.51 -3.641,-21.58 -9.082,-43.06 -13.797,-64.58 -0.312,-1.42 -0.793,-2.83 -1.191,-4.251 -5.266,21.661 -9.446,43.221 -13.801,64.771 -2.832,14.03 -6.738,27.94 -4.57,42.26 2.335,15.34 3.496,30.78 4.21,46.19 0.614,13.32 2.11,26.67 -2.617,39.97 -2.539,7.12 -2.636,14.58 -3.898,21.89 -0.262,1.49 -0.789,2.98 -1.199,4.47 -0.813,-0.01 -1.621,-0.02 -2.422,-0.02 -0.344,-1.42 -1.086,-2.86 -0.938,-4.26 0.828,-7.83 -2.062,-15.22 -5.429,-22.71 -3.039,-6.78 -4.524,-13.84 -6.426,-20.8 -1.094,-3.99 -1.653,-8.03 -2.434,-11.96 -9.98,19.11 -19.902,38.08 -29.812,57.05 3.984,-26.13 9.902,-51.84 14.675,-77.62 2.872,-15.45 6.243,-31.07 5.372,-46.54 -1.688,-30.19 -6.192,-60.32 -9.532,-90.47 -0.105,-0.94 -0.144,-1.889 -0.379,-2.811 -0.195,-0.758 -0.644,-1.48 -1.476,-3.277 -10.156,45.788 -20.477,90.378 -51.035,132.128 1.191,-10.05 2.383,-20.09 3.574,-30.15 -10.418,27.93 -18.875,56.09 -40.164,82.14 -0.82,-50.2 -1.641,-100.39 -2.461,-150.57 -6.563,33.79 -18.359,66.74 -36.094,98.85 -0.969,-0.07 -1.926,-0.14 -2.89,-0.21 6.843,-64.46 13.691,-128.93 20.535,-193.399 -2.469,0.871 -3.086,1.879 -3.809,2.847 -9.766,13.204 -9.238,27.571 -11.902,41.543 -3.731,19.5 -6.516,39.069 -9.707,58.609 -4.004,24.56 -7.813,49.14 -12.129,73.68 -1.641,9.31 -4.434,18.54 -6.699,27.81 -1.036,-0.02 -2.063,-0.03 -3.098,-0.04 -12.695,-37.75 -12.695,-76.4 -20.43,-114.61 -16.308,18.46 -7.422,37.66 -4.129,56.76 -1.691,-4.27 -3.39,-8.53 -5.078,-12.8 -1.574,1.55 -1.855,2.94 -2.031,4.34 -2.395,18.98 -4.961,37.97 -7.012,56.97 -0.519,4.81 -0.058,9.75 1.102,14.52 4.805,19.77 10.226,39.48 9.121,59.59 -0.066,1.25 -0.379,2.5 -0.586,3.75 -0.633,0.06 -1.277,0.12 -1.914,0.18 -5.613,-8.89 -11.238,-17.78 -17.578,-27.8 -4.024,14.58 -7.676,27.85 -11.336,41.12 -0.645,-0.05 -1.301,-0.1 -1.945,-0.15 0,-2.35 0,-4.7 0,-7.05 0,-19.82 0.078,-39.66 -0.079,-59.49 -0.027,-3.43 -0.625,-6.92 -1.687,-10.28 -11.152,-35.19 -22.52,-70.35 -33.672,-105.53 -2.219,-6.99 -3.781,-14.07 -5.644,-21.12 -1.368,0.87 -1.536,1.65 -1.661,2.42 -6.027,36.48 -11.718,72.99 -18.156,109.43 -4.961,28.03 -13.789,55.65 -25.828,82.85 -2.258,5.11 -5.801,9.99 -8.75,14.98 -0.715,-0.13 -1.426,-0.26 -2.141,-0.4 -0.281,-1.53 -0.808,-3.07 -0.808,-4.61 -0.012,-10.06 -1.086,-20.18 0.359,-30.17 10.227,-70.55 20.949,-141.07 31.582,-211.591 2.52,-16.75 5.313,-33.489 7.969,-50.137 -5.75,12.058 -11.524,24.168 -17.293,36.277 -0.852,-0.097 -1.699,-0.199 -2.551,-0.301 0,-5.976 0,-11.976 0,-17.957 -0.379,-0.019 -0.75,-0.031 -1.121,-0.05 -1.133,1.687 -2.266,3.371 -3.398,5.058 -0.352,-0.039 -0.715,-0.07 -1.067,-0.097 0,-3.473 0,-6.954 0,-10.411 -1.629,2.321 -2.246,4.649 -2.82,6.969 -10.703,43.719 -21.289,87.44 -32.168,131.14 -5.098,20.51 -16.719,39.8 -30.117,58.71 -0.305,0.42 -1.145,0.69 -2.676,1.58 1.25,-11.17 1.465,-21.58 3.738,-31.82 13.235,-59.56 26.828,-119.09 40.684,-178.598 1.476,-6.34 1.515,-12.031 -5.156,-17.301 -8.504,2.688 -10.907,7.938 -12.657,13.16 -4.832,14.481 -9.609,28.981 -13.621,43.551 -6.289,22.898 -17.207,44.948 -30.773,66.538 -0.399,0.64 -1.238,1.16 -1.875,1.73 -0.508,-0.09 -1.024,-0.18 -1.531,-0.27 3.418,-22.67 6.836,-45.318 10.253,-67.978 -17.628,37.418 -31.64,75.598 -57.765,111.348 -0.828,-0.11 -1.668,-0.21 -2.508,-0.3 8.457,-31.25 16.914,-62.5 24.941,-92.13 -3.859,4.742 -9.023,11.109 -14.191,17.48 -0.605,-0.16 -1.219,-0.32 -1.836,-0.46 10.293,-31.931 24.406,-63.188 45.207,-94.509 -17.851,14.77 -34.394,28.461 -50.937,42.149 -0.743,-0.301 -1.485,-0.598 -2.239,-0.899 12.813,-20.793 28.75,-40.699 46.68,-60.039 -1.016,-0.402 -2.031,-0.793 -3.047,-1.191 -16.543,14.179 -33.074,28.347 -49.617,42.531 -0.547,-0.121 -1.086,-0.262 -1.633,-0.391 6.406,-12.562 12.813,-25.132 19.309,-37.871 -3.692,1.809 -7.336,3.602 -12.121,5.942 0.754,-1.953 1.132,-2.91 1.504,-3.883 -0.926,-0.449 -1.844,-0.891 -2.774,-1.34 -7.39,5.32 -14.785,10.641 -22.176,15.961 -0.547,-0.309 -1.105,-0.609 -1.66,-0.93 16.043,-24.55 46.766,-42.761 72.488,-63.269 -2.82,0.679 -5.292,1.64 -7.761,2.601 -19.551,7.61 -39.082,15.239 -58.711,22.758 -1.328,0.52 -3.399,0.301 -5.117,0.41 -0.157,-0.261 -0.305,-0.519 -0.461,-0.789 -6.016,2.778 -12.032,5.551 -18.047,8.309 -1.016,-0.578 -2.02,-1.18 -3.035,-1.758 8.242,-7.73 16.484,-15.453 24.707,-23.16 -2.168,0.379 -4.649,0.82 -7.129,1.258 -0.422,-0.282 -0.84,-0.571 -1.262,-0.871 6.035,-4.907 12.063,-9.829 18.078,-14.727 -9.336,-3.961 -8.965,-6.711 1.446,-10.113 1.277,-0.418 2.558,-0.84 3.835,-1.258 v 15.078 H 2035.51 c 1.52,-1.238 3.04,-2.48 4.56,-3.707 -9.35,-3.961 -8.98,-6.711 1.43,-10.113 1.29,-0.418 2.56,-0.84 3.85,-1.258 v 15.078 h 964.47 1649.82 c 10.28,9.66 20.46,19.352 30.48,29.121 6.36,6.211 9.61,13.629 14.28,20.512 -0.66,0.25 -1.34,0.5 -2,0.758" transform="matrix(0.133333, 0, 0, -0.133333, 0, 666.666589)"/>
</svg>
