<?xml version="1.0" encoding="utf-8"?>
<svg viewBox="0 -5.149 140.951 146.081" xmlns="http://www.w3.org/2000/svg">
  <path d="M 127.182 126.993 C 127.182 126.993 128.451 125.485 128.727 124.933 C 129.099 124.19 128.864 123.114 129.242 122.358 C 129.678 121.486 128.767 119.572 129.414 118.925 C 130.169 118.169 129.388 116.058 129.929 114.977 C 131.085 112.666 130.313 109.533 131.13 107.081 C 131.681 105.428 133.506 103.941 134.22 102.275 C 135.093 100.237 135.626 98.159 136.451 96.096 C 136.511 95.948 137.31 94.551 137.138 94.723 C 137.138 93.848 136.128 91.158 135.421 89.745 C 135.025 88.953 135.576 87.574 135.078 86.827 C 133.003 83.715 132.995 79.228 131.302 75.841 C 130.412 74.061 130.872 71.464 129.757 70.349 C 129.145 69.736 129.778 64.945 129.929 64.341 C 130.819 60.779 128.956 56.275 130.1 52.84 C 130.484 51.689 131.302 49.742 130.959 48.721 C 130.959 46.264 128.583 43.311 127.869 41.168 C 125.369 33.668 120.546 26.867 116.54 18.854 C 114.842 15.458 112.842 14.548 111.219 11.302 C 111.028 10.92 109.331 9.07 109.159 9.242 C 109.159 9.615 109.104 7.985 108.988 7.869 C 108.535 7.416 108.831 5.496 108.473 4.779 C 107.253 2.34 106.096 -0.076 103.151 -1.057 C 94.502 -3.94 85.585 -5.512 76.031 -4.147 C 73.624 -3.803 70.839 -4.222 68.478 -3.632 C 63.793 -2.46 58.228 -1.277 55.433 1.518 C 55.075 1.876 54.15 1.644 53.717 1.861 C 52.454 2.492 49.607 3.224 48.567 4.264 C 47.688 5.143 46.44 6.014 45.134 6.667 C 43.244 7.612 40.803 7.364 38.783 7.869 C 37.991 8.067 36.598 7.502 35.865 7.869 C 33.816 8.893 31.318 9.027 29.171 10.1 C 27.803 10.784 26.783 11.801 25.91 12.675 C 24.421 14.164 21.425 14.584 19.73 16.279 C 17.836 18.174 15.151 19.808 12.864 20.571 C 12.056 20.84 10.999 21.921 10.461 22.459 C 9.85 23.07 8.574 22.973 7.886 23.66 C 6.347 25.2 4.111 26.177 1.364 27.093 C 1.535 30.076 3.348 33.499 2.394 36.362 C 1.173 40.024 0.951 43.852 -0.009 47.691 C -0.572 49.941 -0.196 53.997 0.506 56.102 C 1.211 58.219 0.677 61.325 0.677 63.311 C 1.44 63.826 2.256 66.572 2.565 67.087 C 4.159 69.743 6.031 73.643 7.886 75.498 C 8.313 75.925 8.252 77.386 8.745 77.386 C 8.745 77.215 9.896 77.202 9.946 77.215 C 10.935 77.462 11.835 78.116 12.864 78.244 C 13.76 78.356 15.147 78.527 15.954 78.931 C 16.622 79.265 17.43 79.944 18.185 80.133 C 20.157 80.626 22.827 80.304 24.88 80.304 C 26.26 80.304 27.798 80.372 27.798 80.304 C 28.141 80.991 28.343 82.498 28.313 82.707 C 28.063 84.454 27.626 85.914 27.626 87.685 C 27.626 93.548 28.365 100.058 26.596 105.365 C 26.178 106.621 26.081 108.15 26.081 109.485 C 26.081 109.709 26.253 110.858 26.253 110.858 C 27.224 110.686 28.94 112.687 29.514 113.261 C 30.395 114.142 33.598 117.108 32.947 118.41 C 32.727 118.851 30.029 120.47 30.029 120.47 C 30.029 120.47 31.463 123.62 31.746 123.903" style="fill: rgb(216, 216, 216);"/>
  <path d="M 50.8 1.2 C 50.4 1.9 50.5 2 51.2 1.6 C 52.4 0.9 52.8 0 52 0 C 51.7 0 51.2 0.5 50.8 1.2 Z M 54.9 1 C 54.6 1.5 54.8 2 55.3 2 C 55.9 2 56.4 1.5 56.4 1 C 56.4 0.4 56.2 0 56 0 C 55.7 0 55.2 0.4 54.9 1 Z M 63.4 0.7 C 63.4 1.2 64.8 1.5 66.5 1.6 C 68.5 1.7 69.1 1.4 68.2 0.9 C 66.6 -0.2 63.4 -0.3 63.4 0.7 Z M 73.9 2.4 C 76.1 3 80 4.9 82.5 6.5 C 88.6 10.5 97.2 14.5 98.1 13.7 C 98.8 12.9 93.9 7.4 91.3 6 C 90.4 5.5 88.6 4.9 87.3 4.6 C 86 4.3 82.4 3.4 79.4 2.5 C 76.4 1.7 73 1 71.9 1.1 C 70.8 1.2 71.7 1.7 73.9 2.4 Z M 64.4 4.6 C 65.2 5 66.6 6 67.4 7 C 68.4 8.3 70.9 9 75.4 9.4 L 81.9 10 L 76.9 7.5 C 74.2 6.2 69.9 4.8 67.4 4.5 C 64.9 4.2 63.6 4.3 64.4 4.6 Z M 109.4 8.7 C 109.4 9.4 108.7 9.7 107.7 9.3 C 106.7 9 108.5 11 111.6 13.9 C 114.7 16.8 118.7 21.4 120.4 24.1 L 123.4 29.1 L 125.9 26.2 C 127.3 24.5 128.4 22.3 128.4 21.1 C 128.4 18.9 125.1 15.4 122.2 14.4 C 121.2 14.1 120.4 13.4 120.4 12.9 C 120.4 12.3 119.9 12.2 119.4 12.5 C 118.8 12.9 117.7 12.7 117 12 C 116.2 11.4 114.6 10.7 113.3 10.5 C 112.1 10.2 110.7 9.5 110.2 8.8 C 109.6 7.8 109.4 7.8 109.4 8.7 Z M 99.4 10.4 C 99.4 10.6 100.2 11.4 101.2 12.1 C 102.7 13.4 102.8 13.3 101.5 11.7 C 100.2 10.1 99.4 9.6 99.4 10.4 Z M 12.7 19.6 C 11 20.9 11.2 21 14.3 20.7 C 16.2 20.5 17.9 19.9 18.1 19.4 C 18.6 17.9 14.8 18 12.7 19.6 Z M 54.8 21.9 C 52.5 24.1 50.3 25.6 49.9 25.2 C 49.4 24.8 49.3 25.2 49.7 26.1 C 50.1 27.4 49.8 27.7 48.1 27.2 C 46.3 26.8 46.1 26.9 46.9 28.1 C 47.5 28.9 47.1 28.8 46.2 27.8 C 45.3 26.8 44.3 26.4 44 26.9 C 43.7 27.4 40.8 28.6 37.6 29.5 C 34.5 30.4 29.6 32.3 26.7 33.6 C 23.9 34.9 21 36 20.5 36 C 19.9 36 19.4 36.4 19.4 37 C 19.4 37.5 18.7 38 17.9 38 C 16.9 38 16.4 39 16.4 40.7 C 16.3 43.4 16.3 43.4 15.1 41.4 C 14.2 39.8 13.4 39.5 11.9 40 C 9 41.1 6.2 39.3 6.9 36.9 C 7.3 35.7 7.1 35 6.3 35 C 5.6 35 7.1 32.8 9.7 30.2 C 12.3 27.6 14.4 25.2 14.4 24.9 C 14.4 23.7 8.9 24.1 5.9 25.5 C 4.1 26.4 2.1 27 1.3 26.8 C 0.5 26.6 0.1 27.1 0.3 28 C 0.5 28.8 0.5 31.5 0.3 34 C 0.1 36.5 0 44.2 0 51.2 L 0.1 63.9 L 4 69.9 C 8.1 76.3 8.6 76.5 26.2 81.5 C 27.9 82 28.3 82.6 27.9 84.1 C 27.5 85.2 26.9 91.4 26.5 97.8 C 25.8 108.1 25.9 109.9 27.5 112.5 C 29.1 115.3 29.1 116.1 27.8 123 C 27 127.1 26.4 132.3 26.4 134.4 L 26.4 138.3 L 34.2 137.6 C 38.4 137.3 49.3 136.7 58.4 136.3 L 75 135.7 L 76.6 138.2 C 78.2 140.7 78.5 140.7 92.8 140.9 C 107.1 141 107.3 141 107.6 138.7 C 107.9 136.7 108.6 136.5 114.9 136 C 122.9 135.4 123.8 135 126 130.7 C 127.6 127.8 127.6 127.5 125.5 125.9 C 124.4 125 123.4 123.7 123.4 123.1 C 123.4 122.5 122.8 122 122.2 122 C 121.3 122 121.4 121.6 122.4 121 C 123.4 120.4 123.5 120 122.7 120 C 122 120 121.4 119 121.4 117.7 C 121.4 115 119.8 112.3 118.8 113.3 C 118.4 113.6 118.7 114.6 119.4 115.5 C 120.1 116.4 120.4 117.3 120 117.7 C 119.7 118 119.4 117.8 119.4 117.2 C 119.4 116.6 118.5 116.3 117.4 116.5 C 115.8 116.8 115.4 116.3 115.4 114.4 C 115.4 112.5 114.9 112 112.9 112 C 111.5 112 110.4 112.6 110.4 113.2 C 110.4 114 110.1 114.1 109.6 113.5 C 108.2 111.6 106.4 112 106.3 114.3 L 106.3 116.5 L 105.4 114.2 C 104.3 111.6 103.8 111.5 103 113.5 C 102.7 114.3 103.1 115.6 103.9 116.4 C 105.1 117.6 105.1 117.9 103.4 118.3 C 102.3 118.6 101.6 118.5 101.9 118 C 102.2 117.6 101.7 117 100.9 116.6 C 100.1 116.3 99.4 116.5 99.4 117.1 C 99.4 117.7 98.5 117.2 97.3 115.9 C 96.2 114.6 95.5 114.2 95.9 115 C 96.3 115.8 95.8 115.6 95 114.6 C 93.4 112.6 93.4 112.6 93.4 114.6 C 93.4 115.6 92.3 117 90.9 117.7 C 89.5 118.3 88.4 118.4 88.4 118 C 88.4 117.5 89.3 116.8 90.4 116.5 C 93.3 115.6 92.9 113.7 89.9 114.2 C 88.2 114.6 87.4 114.3 87.4 113.4 C 87.4 112.6 87.9 112 88.6 112 C 89.5 112 89.5 111.7 88.7 110.9 C 88.1 110.3 86.4 109.8 85.1 109.7 C 83.3 109.7 82.7 109.3 83.1 108.4 C 83.6 107 81.4 106.5 77.2 106.9 C 75.2 107.1 74.8 105.5 76.6 104.4 C 77.2 104 80.6 103.7 84.2 103.6 C 88.8 103.5 90.9 103.1 91.2 102.1 C 91.5 101.3 91.2 101 90.6 101.4 C 90 101.7 89.7 101.3 89.8 100.3 C 90 99.2 91.4 98.2 93.5 97.7 C 95.4 97.2 98.5 96.4 100.5 95.8 C 103.6 94.9 104.8 95.1 109.6 97.5 C 112.7 99 115.6 101.2 116.2 102.5 C 117.4 105.1 119.7 105.4 125.1 103.8 C 129.8 102.4 132.7 104.2 131.4 107.6 C 129.3 112.9 130.3 113.5 134.5 109.5 C 136.7 107.3 139.2 104.3 140 102.8 C 141.3 100.3 141.3 99.7 139.8 97.5 C 138.4 95.3 137.6 95 135 95.5 C 133.3 95.9 130.6 96.8 129 97.6 C 126.1 99 123.4 98.1 123.4 95.8 C 123.4 94.3 121.2 92.5 117.7 91.1 C 114.8 89.9 113 87.1 113.3 84.3 C 113.4 83.6 112.6 83.4 111.4 83.7 C 109.1 84.3 109 84.5 110.4 87.1 C 111.2 88.6 111.1 89 109.9 89 C 109.1 89 108.4 88.4 108.4 87.6 C 108.4 86.8 107.9 85.8 107.2 85.4 C 106.6 85 106.4 85.1 106.7 85.6 C 107 86.2 106.4 87.1 105.4 87.8 C 103.3 89.1 103 88.8 102 84.6 C 101.5 82.5 100.8 81.9 99.5 82.3 C 98.4 82.5 97.7 82.2 97.7 81.4 C 97.7 79.6 99.4 79.6 101.9 81.4 C 105.3 83.7 108.4 84.3 108.4 82.7 C 108.4 81.9 109 80.7 109.7 80.1 C 110.8 79.3 111.5 79.5 112.9 81 C 115.3 83.6 116.4 83.5 116.4 80.7 C 116.4 78.2 115.7 77.2 113.1 75.1 C 111.6 73.9 111.4 73.9 112 75.4 C 112.4 76.5 112.1 77 110.6 77 C 109.1 77 108.5 76.2 108.2 73.2 C 107.6 68.8 108.6 67.9 112.8 69.1 C 116.6 70.2 116.6 70.2 115.9 69 C 115.3 68 118.3 64 119.6 64 C 120.1 64 120.4 64.6 120.4 65.4 C 120.4 66.2 121 67.1 121.7 67.3 C 122.6 67.7 122.6 67.9 121.7 67.9 C 121 68 120.7 68.7 121 69.5 C 121.4 70.4 121.1 71 120.3 71 C 119.4 71 119.7 71.7 121.1 73.1 C 122.8 74.8 123.5 75 125.2 74.1 C 126.9 73.2 127.8 73.5 130.3 75.6 C 133.6 78.3 134.1 78.1 132.4 74.9 C 131.8 73.9 130.7 73 129.9 73 C 129.1 73 128.4 72.5 128.4 72 C 128.4 71.4 127.5 71 126.4 71 C 125.3 71 124.1 70.2 123.7 69.2 C 123.4 68.3 122.2 66.3 121.2 64.8 C 119.3 62 118.9 60 120.3 60 C 121.7 60 126.5 65 126 65.9 C 125.2 67.1 129.3 70.5 130.3 69.4 C 130.7 68.9 132.1 65.5 133.4 61.9 L 135.7 55.2 L 133.3 51.9 C 132 50 130.6 48.3 130.2 48.2 C 129.8 48 129.4 47.2 129.4 46.4 C 129.4 45.6 129 45 128.4 45 C 127.9 45 127.7 44.4 128 43.6 C 128.3 42.9 127.7 41.4 126.7 40.4 C 125 38.7 124.9 38.7 124.6 42.2 C 124.4 44.9 123.8 45.9 122.1 46.4 C 120.9 46.7 119.5 46.4 118.9 45.8 C 118.2 45 118.3 44.9 119.1 45.4 C 119.8 45.8 120.8 45.2 121.3 44.1 C 122.7 41.6 122.7 35 121.4 35 C 120.9 35 120.4 34.4 120.4 33.7 C 120.3 33.1 118.8 31.8 117 30.9 C 114.2 29.6 113.3 29.6 111.9 30.6 C 110.9 31.3 110.4 32.6 110.7 33.4 C 111.4 35.3 109.8 36.5 109 34.8 C 108.6 34.1 108.6 34.5 108.8 35.7 C 109 37 108.8 38.3 108.3 38.6 C 107.8 38.9 107.4 38.5 107.3 37.8 C 107.1 35.1 106.3 30.5 105.8 30.1 C 104.2 28.5 102.4 29.4 102.3 31.8 C 102.2 33.9 102.1 34.1 101.7 32.5 C 100.9 29.6 99.8 29.2 94.4 30.3 C 90.3 31.1 89.2 31 87.9 29.6 C 87 28.7 85.4 28 84.3 28 C 83.3 28 82.4 27.3 82.4 26.5 C 82.4 25.5 81.3 25 78.9 25 C 76.5 25 75.4 24.5 75.4 23.5 C 75.4 21.3 72.6 22.8 72.1 25.3 C 71.8 27.1 71.6 26.9 71.5 24.7 C 71.5 23.1 71 22.1 70.4 22.5 C 69.9 22.8 69.4 22.6 69.4 22.1 C 69.4 21.5 68.5 21 67.4 21 C 66 21 64.8 22.1 63.9 24.2 C 63.1 26 62.5 26.7 62.4 25.8 C 62.4 24.9 61.8 23.7 61 23.3 C 60.2 22.9 59.4 21.4 59.2 20.1 C 58.9 17.9 58.7 18 54.8 21.9 Z M 58 33.2 C 57.1 33.7 56.4 34.6 56.4 35.1 C 56.4 35.7 56.9 35.8 57.4 35.5 C 58 35.2 58.4 35.6 58.4 36.5 C 58.4 37.4 58 37.8 57.4 37.5 C 56.9 37.2 56.4 37.6 56.4 38.4 C 56.4 40.3 59.1 40.5 59.6 38.8 C 59.9 38.1 60.1 39.2 60.2 41.3 C 60.4 45.4 60 45.7 57.8 43.5 C 57 42.7 55.7 42.3 54.9 42.6 C 53.8 43 53.4 42.5 53.3 40.9 C 53.2 39.2 53 39 52.7 40.2 C 52.1 42.5 50.4 42.5 50.4 40.3 C 50.4 38.1 57.4 30.9 58.7 31.7 C 59.2 32 58.9 32.7 58 33.2 Z M 45.1 39.7 C 44.7 40 44.4 39.7 44.4 39 C 44.4 38.3 44.7 38 45.1 38.3 C 45.4 38.7 45.4 39.3 45.1 39.7 Z M 31.8 39.8 C 32.1 40.3 31.7 40.7 30.9 40.7 C 30.1 40.7 29.7 40.3 30 39.8 C 30.3 39.4 30.7 39 30.9 39 C 31.1 39 31.5 39.4 31.8 39.8 Z M 49.1 41.7 C 48.7 42 48.4 41.7 48.4 41 C 48.4 40.3 48.7 40 49.1 40.3 C 49.4 40.7 49.4 41.3 49.1 41.7 Z M 112.1 42.7 C 111.7 43 111.4 42.7 111.4 42 C 111.4 41.3 111.7 41 112.1 41.3 C 112.4 41.7 112.4 42.3 112.1 42.7 Z M 116.1 43.7 C 115.7 44 115.1 44 114.7 43.7 C 114.4 43.3 114.7 43 115.4 43 C 116.1 43 116.4 43.3 116.1 43.7 Z M 113.1 44.7 C 112.7 45 112.1 45 111.7 44.7 C 111.4 44.3 111.7 44 112.4 44 C 113.1 44 113.4 44.3 113.1 44.7 Z M 109.3 46.9 C 110.2 48.5 110.1 48.7 108.5 48.3 C 107.3 48 106.8 47.2 107.1 46.4 C 107.8 44.6 108.1 44.6 109.3 46.9 Z M 117.9 47 C 118.2 47.5 118.3 48 118 48 C 117.7 48 117.2 47.5 116.9 47 C 116.6 46.4 116.5 46 116.8 46 C 117.1 46 117.6 46.4 117.9 47 Z M 93.8 50.6 C 94.7 50.9 95.4 51.8 95.4 52.6 C 95.4 54.2 92.8 54.5 91.9 53 C 91.5 52.4 90.7 52.3 90.1 52.7 C 89.4 53.1 89.5 52.7 90.3 51.7 C 91.8 49.8 91.7 49.8 93.8 50.6 Z M 104.1 50.7 C 103.7 51 103.1 51 102.7 50.7 C 102.4 50.3 102.7 50 103.4 50 C 104.1 50 104.4 50.3 104.1 50.7 Z M 109.7 50.7 C 109 50.9 107.8 50.9 107.2 50.7 C 106.5 50.4 107 50.2 108.4 50.2 C 109.8 50.2 110.3 50.4 109.7 50.7 Z M 114.1 50.7 C 113.7 51 113.1 51 112.7 50.7 C 112.4 50.3 112.7 50 113.4 50 C 114.1 50 114.4 50.3 114.1 50.7 Z M 119.4 51 C 119.4 51.5 120.1 52 120.9 52 C 123.5 52 122.5 53.8 119.3 54.9 C 115.3 56.3 113.4 56.3 113.4 55 C 113.4 54.4 114 54 114.8 54 C 115.5 54 116.7 53.4 117.3 52.6 C 118.3 51.5 118.1 51.1 116.7 50.7 C 115.3 50.3 115.4 50.2 117.2 50.1 C 118.4 50.1 119.4 50.4 119.4 51 Z M 105.1 53.7 C 104.7 54 104.4 53.7 104.4 53 C 104.4 52.3 104.7 52 105.1 52.3 C 105.4 52.7 105.4 53.3 105.1 53.7 Z M 56.5 54.2 C 56.5 54.9 56.5 57.6 56.4 60.2 C 56.3 64.3 56.7 65.4 59.4 68.2 C 61.2 70 63.9 74.3 65.5 77.6 C 67 81 69 84.5 69.9 85.4 C 70.9 86.4 71.1 87 70.4 87 C 69.7 87 69.5 87.7 69.8 88.6 C 70.3 89.9 70 90.1 68.4 89.7 C 67.3 89.4 66.4 89.3 66.4 89.5 C 66.4 90.8 67.8 93 68.6 93 C 69.1 93 69.2 92.5 68.9 92 C 68.6 91.4 68.8 91 69.3 91 C 69.9 91 70.4 91.9 70.4 92.9 C 70.4 94 70.7 95.6 71 96.4 C 71.5 97.8 71 98 68.3 97.6 C 62.8 96.9 61.2 96 62.5 94.4 C 64.2 92.4 59.4 90.4 56.5 91.9 C 55.1 92.7 54.4 92.7 54.4 92 C 54.4 91.5 55 91 55.8 91 C 56.5 91 57.4 89.7 57.6 88.2 C 57.9 86 57.6 85.4 56.2 85.3 C 55.2 85.2 54.6 85.5 54.9 86 C 55.2 86.4 54.7 87 53.9 87.4 C 51.8 88.2 52 86.7 54.3 84.6 C 55.3 83.7 56.8 83.2 57.7 83.5 C 58.7 83.9 59.4 83.5 59.7 82.3 C 60 81.3 60.5 79.5 60.9 78.3 C 61.4 76.6 61.1 76.3 59.6 76.7 C 58.5 76.9 57.1 78.3 56.4 79.6 C 55.4 81.4 54.8 81.7 53.8 80.9 C 51.7 79.2 49.4 80.6 49.4 83.5 C 49.4 85 49 85.9 48.5 85.6 C 48 85.3 47.8 82.3 48 78.9 C 48.3 73.8 48.1 73 47 73.9 C 45.9 74.8 45.5 74.8 45.1 73.8 C 44.8 73.1 44.5 73.5 44.5 74.7 C 44.4 75.9 43.9 77.2 43.3 77.5 C 42.7 77.9 42.5 78.8 42.8 79.6 C 43.2 80.5 42.6 81 41.3 81 C 39.6 81 39.5 80.7 40.6 78.7 C 42.1 76 42.9 71.7 41.5 73.9 C 40.4 75.7 38.4 74.4 38.4 71.9 C 38.4 69.7 39.4 69.5 41.3 71.2 C 42.3 72.3 42.4 72 41.9 69.7 C 41.3 67.4 41.4 67.1 43 67.6 C 44.6 68.1 44.7 68 43.4 67.1 C 42.1 66.1 42.1 65.8 43.7 64.6 C 44.6 63.9 45.5 62.4 45.5 61.4 C 45.6 59.7 45.7 59.7 46.1 61.3 C 46.5 62.9 46.7 62.8 48.5 60.8 C 50.2 58.8 50.4 58.8 49.6 60.5 C 48.4 63 49.1 65 51.1 65 C 52.1 65 52.3 64.4 51.9 63.1 C 50.5 58.5 50.6 55 52.2 54 C 54.6 52.7 56.4 52.8 56.5 54.2 Z M 106.7 59.7 C 107.9 61.9 108.3 66 107.4 66 C 105.4 66 102.1 62.1 102.7 60.6 C 103.4 59 106 58.4 106.7 59.7 Z M 74.1 63.7 C 73.7 64 73.4 63.7 73.4 63 C 73.4 62.3 73.7 62 74.1 62.3 C 74.4 62.7 74.4 63.3 74.1 63.7 Z M 40 65.2 C 40.4 65.9 40.3 66 39.6 65.6 C 38.8 65.1 38.4 65.6 38.4 66.9 C 38.4 69.4 36.9 69.7 36 67.3 C 35 64.8 38.6 62.9 40 65.2 Z M 101.2 65.2 C 101 65.8 100 66.4 99 66.6 C 97.6 66.8 97.5 66.6 98.5 65.4 C 99.9 63.7 101.7 63.5 101.2 65.2 Z M 81.1 65.7 C 80.7 66 80.1 66 79.7 65.7 C 79.4 65.3 79.7 65 80.4 65 C 81.1 65 81.4 65.3 81.1 65.7 Z M 34.4 66.8 C 34.4 67.2 33.5 68.1 32.4 68.8 C 30.8 69.8 30.4 69.8 30.6 68.8 C 31.1 66.7 34.4 64.9 34.4 66.8 Z M 90.8 68.4 C 97 67.2 98 68.2 94.7 71.9 C 93.7 73 92.1 74.9 91.2 76.3 C 89.9 78.1 88.9 78.6 87 78.3 C 85.5 78 84.4 77.2 84.4 76.6 C 84.4 76 83.3 73.8 81.9 71.8 C 78.7 67.1 78.8 66.9 82.3 68.3 C 84.4 69 86.9 69.1 90.8 68.4 Z M 85.1 67.7 C 84.7 68 84.1 68 83.7 67.7 C 83.4 67.3 83.7 67 84.4 67 C 85.1 67 85.4 67.3 85.1 67.7 Z M 99.9 73.9 C 99.9 74.7 99.3 75.5 98.7 75.7 C 98 76 97.4 75.7 97.4 75 C 97.4 74.4 98 74.2 98.7 74.5 C 99.3 74.9 99 74.4 97.9 73.5 C 95.9 71.8 95.9 71.8 97.9 72.2 C 99 72.4 99.9 73.2 99.9 73.9 Z M 95.5 80 C 96.7 80 96.3 83.2 95 84.2 C 94.4 84.6 94.6 85.5 95.4 86.5 C 96.4 87.7 96.4 88.4 95.6 89.2 C 94.9 89.9 94.4 90 94.4 89.4 C 94.4 88.9 93.9 89.2 93.4 90 C 92.6 91.2 92.3 91.3 91.2 90.2 C 90.1 89.1 90.3 88.6 91.8 87.4 C 94.1 85.8 93.4 85.6 86.7 86 C 81.3 86.2 81.3 85.1 86.7 82.5 C 89.5 81.1 91.4 79.3 92.4 77 L 93.9 73.6 L 94.2 76.8 C 94.4 78.6 95 80 95.5 80 Z M 42.9 83 C 43.2 83.5 43.3 84 43 84 C 42.7 84 42.2 83.5 41.9 83 C 41.6 82.4 41.5 82 41.8 82 C 42.1 82 42.6 82.4 42.9 83 Z M 99.1 84.7 C 98.7 85 98.1 85 97.7 84.7 C 97.4 84.3 97.7 84 98.4 84 C 99.1 84 99.4 84.3 99.1 84.7 Z M 99.1 87.7 C 98.7 88 98.4 87.7 98.4 87 C 98.4 86.3 98.7 86 99.1 86.3 C 99.4 86.7 99.4 87.3 99.1 87.7 Z M 89.8 90.3 C 90.1 91.5 90.2 92.6 89.9 92.8 C 89.4 93.3 85.4 89.2 85.4 88.1 C 85.4 86.3 89.2 88.2 89.8 90.3 Z M 41.2 88.9 C 42.2 89.5 42.1 90 40.8 91.1 C 39.4 92.2 39.2 92.2 39.8 91.1 C 40.3 90.3 40.1 89.4 39.3 88.9 C 38.5 88.4 38.4 88 38.9 88 C 39.5 88 40.5 88.4 41.2 88.9 Z M 56.4 88.4 C 56.4 88.7 55.9 89.2 55.2 89.6 C 54.5 90 54.4 89.9 54.8 89.2 C 55.5 88 56.4 87.6 56.4 88.4 Z M 52.7 90.3 C 53 91.1 52.6 91.7 51.8 91.7 C 50.3 91.7 50 90.8 51.1 89.7 C 52 88.8 52.1 88.8 52.7 90.3 Z M 42.1 93.7 C 41.7 94 41.1 94 40.7 93.7 C 40.4 93.3 40.7 93 41.4 93 C 42.1 93 42.4 93.3 42.1 93.7 Z M 87.4 102 C 87.4 102.5 86.9 103 86.3 103 C 85.8 103 85.6 102.5 85.9 102 C 86.2 101.4 86.7 101 87 101 C 87.2 101 87.4 101.4 87.4 102 Z M 67.9 103.5 C 69.2 103.5 69.9 104.2 69.9 105.5 C 69.9 106.6 69.3 107.4 68.7 107.2 C 68 107.1 67.4 107.6 67.4 108.4 C 67.4 109.2 66.7 110 65.9 110.4 C 65.1 110.7 64.4 111.3 64.5 111.7 C 64.9 114.4 64.2 114.6 59.4 113.6 C 53.9 112.5 52.3 110 57.7 110.9 C 58.2 111 58.3 110.6 58 110.1 C 57.7 109.6 57.7 108.5 58 107.6 C 58.4 106.5 59.1 106.3 60.9 107 C 62.4 107.6 63.6 107.6 63.9 107 C 64.3 106.4 63.8 106 63 106 C 62 106 61.7 105.4 62.1 104.3 C 62.5 103.2 62.9 103.1 63.2 103.8 C 63.4 104.5 64 105 64.5 105 C 64.9 105 65.1 104.2 64.8 103.2 C 64.4 102.2 64.6 101.9 65.1 102.5 C 65.5 103 66.8 103.5 67.9 103.5 Z M 74.1 105.6 C 73.8 105.9 72.9 106 72.2 105.7 C 71.4 105.4 71.7 105.1 72.8 105.1 C 73.9 105 74.5 105.3 74.1 105.6 Z M 78.1 108.7 C 77.7 109 77.1 109 76.7 108.7 C 76.4 108.3 76.7 108 77.4 108 C 78.1 108 78.4 108.3 78.1 108.7 Z M 73.5 111.7 C 72.3 113.7 72.1 113.1 73 110.5 C 73.4 109.6 73.9 109.1 74.1 109.4 C 74.4 109.6 74.1 110.7 73.5 111.7 Z M 77.3 115 C 77.2 116 77.1 116.1 76.7 115.2 C 76.1 113.6 74.9 113.7 73 115.6 C 71.5 117 71.4 117 71.4 115.6 C 71.4 114.7 72 114 72.8 114 C 73.6 114 74.6 113 75 111.7 C 75.7 109.6 75.7 109.6 76.5 111.5 C 76.9 112.6 77.3 114.2 77.3 115 Z M 82.5 115.3 C 81.5 116.2 81.4 116.1 82 114.7 C 82.3 113.7 82.9 113.2 83.2 113.5 C 83.5 113.8 83.2 114.6 82.5 115.3 Z M 114.9 124.9 C 115.2 125.4 115 126.1 114.5 126.4 C 114 126.7 113.4 126.3 113 125.5 C 112.4 123.9 113.9 123.4 114.9 124.9 Z M 54.4 39 C 54.4 39.7 54.7 40 55.1 39.7 C 55.4 39.3 55.4 38.7 55.1 38.3 C 54.7 38 54.4 38.3 54.4 39 Z M 46.8 65.2 C 46.4 65.9 46.5 66 47.2 65.6 C 47.9 65.2 48.4 64.7 48.4 64.4 C 48.4 63.6 47.5 64 46.8 65.2 Z M 64 94.9 C 63.7 95.4 64.1 96 64.9 96.4 C 65.7 96.7 66.4 96.5 66.4 96 C 66.4 94.7 64.6 93.8 64 94.9 Z M 66.4 105.5 C 65.3 106.8 65.4 106.9 66.8 106.4 C 67.7 106.1 68.4 105.4 68.4 104.9 C 68.4 103.6 67.8 103.8 66.4 105.5 Z M 19.1 21.7 C 18.7 22 18.4 22.8 18.4 23.4 C 18.4 24 18.9 23.9 19.6 23.2 C 20.2 22.6 20.5 21.8 20.3 21.5 C 20 21.2 19.4 21.3 19.1 21.7 Z M 109.6 73 C 109.6 74.9 109.8 75.7 110.1 74.7 C 110.3 73.8 110.3 72.2 110.1 71.2 C 109.8 70.3 109.6 71.1 109.6 73 Z M 124.4 75.5 C 124.4 75.7 125.4 76.5 126.7 77.1 C 128.7 78.2 128.8 78.2 127.5 76.7 C 126.2 75.1 124.4 74.4 124.4 75.5 Z M 120.4 79.8 C 120.4 80.3 121.1 80.7 121.9 80.7 C 122.7 80.7 123.1 80.3 122.8 79.8 C 122.5 79.4 121.9 79 121.3 79 C 120.8 79 120.4 79.4 120.4 79.8 Z M 134.4 93 C 134.4 93.5 134.9 94 135.4 94 C 136 94 136.4 93.5 136.4 93 C 136.4 92.4 136 92 135.4 92 C 134.9 92 134.4 92.4 134.4 93 Z M 101.4 102.1 C 101.4 102.7 100.5 102.9 99.5 102.5 C 96.9 101.7 93.2 106.7 95.5 108 C 96.3 108.6 97.4 108.4 98.4 107.6 C 99.3 106.8 101 106.6 102.9 107.1 C 104.6 107.4 105.5 107.8 104.9 108 C 104.4 108.1 104.8 108.5 105.9 108.9 C 107.1 109.4 108.7 109.3 109.9 108.7 C 111 108.1 112.2 107.7 112.7 107.8 C 113.1 107.9 113.4 107.2 113.4 106.2 C 113.5 104.7 113.6 104.7 115.1 106.5 C 116.5 108.3 116.6 108.3 116 106.7 C 115.7 105.7 115.4 104.6 115.4 104.4 C 115.4 104.2 114.8 104 114 104 C 113.3 104 112.2 103.4 111.6 102.7 C 110.3 101.2 101.4 100.7 101.4 102.1 Z M 92.4 107 C 92.4 107.7 92.7 108 93.1 107.7 C 93.4 107.3 93.4 106.7 93.1 106.3 C 92.7 106 92.4 106.3 92.4 107 Z M 124.4 122 C 124.4 122.7 124.7 123 125.1 122.7 C 125.4 122.3 125.4 121.7 125.1 121.3 C 124.7 121 124.4 121.3 124.4 122 Z"/>
</svg>