<?xml version="1.0" encoding="utf-8"?>
<svg viewBox="0 0 459.466 292.862" xmlns="http://www.w3.org/2000/svg">
  <path d="M 209.043 2.019 C 208.061 -0.432 207.74 -0.61 207.674 1.259 C 207.626 2.602 208.815 6.109 210.317 9.052 C 211.978 12.308 215.717 16.151 219.869 18.869 C 223.621 21.326 226.691 23.842 226.691 24.461 C 226.691 25.08 227.305 25.208 228.056 24.744 C 228.806 24.28 229.42 24.311 229.42 24.812 C 229.42 25.313 228.089 27.107 226.461 28.798 C 224.803 30.521 222.454 31.599 221.118 31.25 C 219.807 30.907 218.378 29.303 217.941 27.685 C 217.504 26.067 215.864 23.209 214.296 21.332 C 212.727 19.456 211.862 18.723 212.373 19.704 C 212.884 20.685 212.951 22.885 212.523 24.594 C 212.094 26.302 210.808 27.7 209.665 27.7 C 208.062 27.7 207.612 26.113 207.695 20.764 C 207.754 16.949 208.112 14.595 208.491 15.533 C 208.869 16.471 209.837 17.238 210.641 17.238 C 211.446 17.238 211.151 16.164 209.986 14.85 C 208.822 13.537 207.518 11.234 207.089 9.733 C 206.66 8.232 206.578 14.294 206.907 23.204 C 207.236 32.115 206.989 40.404 206.358 41.626 C 205.727 42.848 204.796 48.22 204.287 53.565 C 203.427 62.61 203.556 63.332 206.159 64.013 C 207.697 64.415 208.611 64.187 208.191 63.507 C 207.77 62.826 208.005 62.269 208.712 62.269 C 209.419 62.269 210.319 61.041 210.712 59.54 C 211.104 58.039 212.282 56.811 213.33 56.811 C 214.378 56.811 217.659 51.914 220.622 45.928 C 224.669 37.75 226.693 35.036 228.762 35.011 C 230.277 34.993 233.654 36.426 236.268 38.197 C 238.881 39.967 242.336 41.83 243.946 42.337 C 245.881 42.946 247.679 42.452 249.255 40.876 C 250.565 39.565 252.625 38.335 253.833 38.141 C 255.041 37.947 257.776 39.06 259.91 40.613 C 263.005 42.865 264.966 43.261 269.591 42.567 C 275.038 41.75 275.728 42.035 280.927 47.233 C 284.637 50.943 286.244 53.608 285.798 55.313 C 285.432 56.712 286.172 59.866 287.441 62.321 C 288.912 65.165 289.481 68.442 289.009 71.35 C 288.602 73.861 288.767 75.915 289.377 75.915 C 289.986 75.915 290.869 73.996 291.338 71.651 C 291.807 69.306 292.191 65.212 292.191 62.554 C 292.191 59.896 292.589 58.119 293.075 58.605 C 293.561 59.091 293.889 63.645 293.804 68.726 C 293.698 75.038 294.059 77.314 294.946 75.915 C 295.886 74.432 296.248 74.36 296.264 75.655 C 296.275 76.637 296.898 77.061 297.649 76.598 C 298.4 76.134 299.014 76.441 299.014 77.28 C 299.014 78.119 299.628 78.426 300.378 77.962 C 301.129 77.498 301.743 76.505 301.743 75.754 C 301.743 75.004 301.129 74.769 300.378 75.233 C 299.628 75.697 299.014 75.39 299.014 74.551 C 299.014 73.712 298.4 73.405 297.649 73.868 C 296.898 74.332 296.284 73.516 296.284 72.054 C 296.284 70.381 297.15 69.466 298.62 69.585 C 299.983 69.696 301.142 68.638 301.404 67.045 C 301.852 64.316 301.852 64.316 299.666 67.045 C 297.595 69.632 297.515 69.463 298.149 63.811 C 298.6 59.787 300.037 56.575 302.568 53.932 C 304.632 51.779 306.622 50.319 306.991 50.688 C 307.36 51.057 308.791 50.337 310.17 49.089 C 311.549 47.841 314.029 46.146 315.681 45.322 C 317.332 44.499 320.302 41.442 322.281 38.528 C 324.259 35.615 327.524 32.369 329.535 31.315 C 331.547 30.261 333.687 29.704 334.29 30.077 C 334.894 30.45 338.717 31.118 342.786 31.561 C 346.856 32.005 351.156 32.656 352.343 33.009 C 353.529 33.362 355.845 32.485 357.488 31.06 C 359.949 28.925 360.113 28.329 358.417 27.679 C 357.23 27.223 356.496 27.577 356.683 28.513 C 356.862 29.406 355.674 30.342 354.043 30.592 C 351.816 30.933 350.967 30.262 350.632 27.895 C 350.386 26.162 349.681 25.051 349.066 25.426 C 348.45 25.801 347.304 24.961 346.519 23.558 C 345.482 21.706 345.549 20.725 346.761 19.976 C 347.97 19.228 348.008 18.683 346.897 17.997 C 346.054 17.476 345.689 16.524 346.087 15.882 C 346.484 15.239 346.08 13.115 345.19 11.161 C 344.036 8.629 343.264 8.107 342.5 9.342 C 341.911 10.295 341.801 12.559 342.257 14.373 C 343.084 17.671 343.084 17.671 339.514 15.067 C 337.533 13.622 335.924 11.095 335.9 9.392 C 335.876 7.704 335.397 6.341 334.834 6.365 C 334.271 6.389 332.745 7.217 331.443 8.206 C 330.142 9.194 329.528 10.479 330.079 11.061 C 330.63 11.643 329.764 11.715 328.155 11.221 C 326.286 10.648 324.432 11.119 323.025 12.526 C 321.813 13.738 321.186 15.319 321.631 16.039 C 322.118 16.826 321.024 16.992 318.885 16.456 C 315.382 15.576 315.339 15.655 315.945 21.839 C 316.306 25.525 315.951 28.49 315.084 29.025 C 314.273 29.527 312.718 28.768 311.629 27.34 C 309.766 24.898 309.708 24.946 310.653 28.155 C 311.657 31.567 311.657 31.567 308.697 28.922 C 307.068 27.467 304.474 26.184 302.932 26.07 C 301.389 25.957 299.647 25.085 299.059 24.134 C 298.381 23.038 297.678 22.911 297.136 23.788 C 296.666 24.548 295.047 24.847 293.539 24.452 C 292.031 24.058 290.438 22.308 290 20.564 C 289.563 18.82 289.582 16.783 290.044 16.036 C 290.505 15.289 287.555 16.288 283.489 18.257 C 278.791 20.53 276.346 22.49 276.783 23.63 C 277.162 24.618 276.915 25.426 276.235 25.426 C 275.554 25.426 274.299 24.727 273.445 23.874 C 272.323 22.752 270.356 22.712 266.349 23.729 C 263.125 24.547 260.805 24.615 260.805 23.89 C 260.805 23.205 259.259 23.033 257.369 23.507 C 254.086 24.331 253.996 24.196 255.345 20.463 C 256.757 16.556 256.757 16.556 254.346 19.605 C 252.357 22.121 251.22 22.462 247.842 21.554 C 245.59 20.949 243.672 19.73 243.578 18.846 C 243.484 17.962 243.33 16.588 243.237 15.793 C 243.143 14.999 242.452 14.728 241.701 15.192 C 240.951 15.655 240.337 15.129 240.337 14.021 C 240.337 12.914 239.569 11.698 238.631 11.319 C 237.381 10.815 237.43 10.602 238.815 10.523 C 239.958 10.458 239.326 9.331 237.213 7.669 C 234.236 5.327 233.194 5.162 230.153 6.547 C 228.103 7.481 226.88 8.94 227.278 9.976 C 227.659 10.968 227.375 11.78 226.648 11.78 C 225.921 11.78 225.327 12.738 225.327 13.908 C 225.327 15.078 225.941 15.655 226.691 15.192 C 227.442 14.728 228.056 14.896 228.056 15.566 C 228.056 16.236 227.668 17.171 227.194 17.645 C 226.72 18.119 225.031 17.789 223.441 16.912 C 221.851 16.035 219.629 15.289 218.504 15.255 C 217.378 15.22 216.549 14.076 216.661 12.713 C 216.774 11.349 216.539 10.561 216.139 10.961 C 215.739 11.36 214.268 10.233 212.869 8.455 C 211.47 6.676 209.749 3.781 209.043 2.019" stroke="none" stroke-width="1" style="fill: rgb(179, 154, 18);"/>
  <path d="M 402.209 32.249 C 401.078 32.249 399.808 32.807 399.386 33.49 C 398.964 34.173 398.993 35.708 399.451 36.902 C 399.909 38.095 401.103 39.072 402.104 39.072 C 403.106 39.072 404.288 38.484 404.731 37.767 C 405.175 37.049 406.436 36.806 407.533 37.227 C 408.631 37.649 409.189 38.543 408.774 39.215 C 408.358 39.887 408.705 40.436 409.544 40.436 C 410.383 40.436 410.65 41.116 410.136 41.947 C 409.491 42.991 410.465 43.18 413.291 42.559 C 417.104 41.722 417.335 41.896 416.714 45.142 C 416.348 47.057 415.441 48.624 414.697 48.624 C 413.954 48.624 413.699 49.545 414.131 50.671 C 414.563 51.796 414.322 52.717 413.595 52.717 C 412.868 52.717 412.372 55.634 412.492 59.199 C 412.638 63.55 412.883 64.335 413.236 61.587 C 413.583 58.889 414.904 56.956 417.112 55.916 C 418.954 55.049 420.461 54.59 420.461 54.898 C 420.461 55.205 419.233 57.748 417.732 60.548 C 416.231 63.349 415.002 66.417 415.002 67.366 C 415.002 68.316 416.384 69.101 418.073 69.111 C 419.761 69.121 422.525 69.5 424.213 69.952 C 425.902 70.405 427.332 71.778 427.391 73.004 C 427.46 74.419 427.751 74.61 428.187 73.527 C 428.566 72.589 430.206 71.812 431.832 71.801 C 433.458 71.789 435.608 71.261 436.609 70.626 C 438.039 69.72 437.893 69.254 435.927 68.453 C 433.553 67.487 433.564 67.373 436.153 66.228 C 438.883 65.022 438.883 65.022 436.153 65.401 C 434.54 65.625 433.571 66.66 433.783 67.932 C 434.052 69.551 433.29 69.922 430.712 69.43 C 428.827 69.069 427.284 68.232 427.284 67.569 C 427.284 66.906 427.934 66.363 428.729 66.363 C 429.524 66.363 429.794 65.749 429.331 64.999 C 428.867 64.248 427.909 63.634 427.203 63.634 C 426.497 63.634 425.919 64.555 425.919 65.681 C 425.919 66.807 425.346 67.728 424.645 67.728 C 423.944 67.728 423.666 66.098 424.028 64.105 C 424.389 62.113 425.271 59.387 425.988 58.047 C 426.846 56.443 426.799 55.308 425.849 54.721 C 424.891 54.129 425.143 52.705 426.6 50.481 C 428.677 47.311 428.626 46.993 425.651 44.512 C 423.922 43.071 422.033 41.871 421.453 41.846 C 420.873 41.821 421.416 43.355 422.661 45.255 C 423.906 47.155 424.687 48.947 424.396 49.237 C 424.106 49.528 422.828 49.005 421.558 48.076 C 420.065 46.984 419.131 44.13 418.917 40.01 C 418.587 33.633 418.587 33.633 415.259 35.814 C 413.291 37.103 411.582 37.462 411.078 36.691 C 410.61 35.973 408.885 34.681 407.246 33.818 C 405.607 32.955 403.34 32.249 402.209 32.249" stroke="none" stroke-width="1" style="fill: rgb(179, 154, 18);"/>
  <path d="M 449.88 36.343 C 447.959 36.343 446.388 36.834 446.388 37.434 C 446.388 38.035 447.125 39.263 448.025 40.163 C 449.22 41.358 449.239 41.801 448.093 41.801 C 447.23 41.801 445.856 40.726 445.041 39.413 C 443.66 37.19 443.585 37.202 443.949 39.591 C 444.165 41.002 445.845 43.152 447.684 44.367 C 450.813 46.435 450.969 46.423 450.115 44.189 C 449.459 42.471 449.879 41.801 451.616 41.801 C 452.943 41.801 454.756 42.527 455.644 43.416 C 456.532 44.304 457.712 44.577 458.265 44.024 C 458.819 43.47 458.369 42.446 457.265 41.748 C 455.596 40.692 455.673 40.475 457.726 40.457 C 459.097 40.446 459.801 39.8 459.31 39.005 C 458.702 38.022 457.843 38.059 456.56 39.123 C 455.534 39.974 454.044 40.269 453.248 39.777 C 452.452 39.285 452.155 38.311 452.587 37.613 C 453.018 36.914 451.8 36.343 449.88 36.343" stroke="none" stroke-width="1" style="fill: rgb(179, 154, 18);"/>
  <path d="M 410.559 60.46 C 410.175 58.234 409.777 58.767 408.964 62.599 C 408.368 65.407 407.398 67.406 406.807 67.041 C 406.217 66.676 403.982 67.292 401.84 68.409 C 399.698 69.526 398.523 70.444 399.23 70.449 C 399.936 70.453 399.322 71.366 397.865 72.478 C 395.572 74.227 395.491 74.683 397.263 75.868 C 398.389 76.622 398.608 77.247 397.75 77.259 C 396.892 77.27 395.804 78.288 395.331 79.52 C 394.622 81.366 394.826 81.465 396.49 80.084 C 397.6 79.163 399.1 78.775 399.822 79.222 C 400.545 79.669 401.875 77.726 402.776 74.904 C 403.678 72.083 405.046 69.161 405.816 68.41 C 406.767 67.484 406.931 67.854 406.328 69.56 C 405.839 70.943 405.131 73.707 404.754 75.701 C 404.378 77.695 404.46 78.406 404.937 77.28 C 405.413 76.154 406.989 72.577 408.438 69.33 C 409.886 66.083 410.841 62.092 410.559 60.46" stroke="none" stroke-width="1" style="fill: rgb(179, 154, 18);"/>
  <path d="M 328.269 65.838 C 327.111 65.393 326.462 65.513 326.826 66.103 C 327.191 66.693 326.935 68.068 326.257 69.158 C 325.251 70.774 324.523 70.829 322.303 69.453 C 319.938 67.988 319.693 68.077 320.422 70.136 C 320.884 71.438 322.185 73.578 323.313 74.892 C 324.441 76.205 324.838 77.28 324.197 77.28 C 323.555 77.28 323.767 78.017 324.668 78.917 C 325.568 79.818 326.296 81.507 326.284 82.67 C 326.266 84.534 326.106 84.542 324.941 82.738 C 324.213 81.612 323.628 81.305 323.64 82.056 C 323.653 82.806 324.478 84.495 325.475 85.808 C 326.473 87.122 327.681 88.196 328.161 88.196 C 328.641 88.196 329.034 85.776 329.034 82.819 C 329.034 79.861 329.673 77.046 330.454 76.564 C 331.362 76.002 331.576 76.87 331.048 78.972 C 330.553 80.945 330.942 82.855 332.021 83.75 C 333.339 84.844 334.507 84.738 336.405 83.35 C 338.462 81.846 338.659 81.058 337.367 79.502 C 336.117 77.996 336.116 77.421 337.36 77.006 C 338.593 76.595 338.571 75.708 337.271 73.278 C 336.096 71.083 335.248 70.599 334.552 71.725 C 333.995 72.626 333.812 74.786 334.145 76.526 C 334.477 78.266 334.127 80.074 333.365 80.545 C 332.486 81.088 332.132 79.153 332.396 75.246 C 332.624 71.862 332.303 69.092 331.682 69.092 C 331.061 69.092 329.612 70.437 328.461 72.08 C 327.31 73.724 326.038 74.739 325.635 74.336 C 325.232 73.932 326.134 72.037 327.638 70.124 C 330.003 67.118 330.089 66.536 328.269 65.838" stroke="none" stroke-width="1" style="fill: rgb(179, 154, 18);"/>
  <path d="M 421.11 71.559 C 418.612 71.267 415.65 71.7 414.526 72.522 C 412.731 73.834 412.76 74.204 414.767 75.577 C 416.207 76.562 416.546 77.542 415.685 78.233 C 414.934 78.834 414.132 80.198 413.902 81.263 C 413.568 82.812 413.883 82.869 415.475 81.548 C 416.57 80.639 417.732 80.381 418.058 80.975 C 418.383 81.57 418.462 81.288 418.233 80.35 C 418.004 79.412 418.371 78.644 419.047 78.644 C 419.723 78.644 420.684 79.926 421.181 81.492 C 422.072 84.3 422.118 84.303 424.536 81.708 C 426.096 80.033 426.745 77.806 426.32 75.583 C 425.791 72.816 424.707 71.979 421.11 71.559" stroke="none" stroke-width="1" style="fill: rgb(179, 154, 18);"/>
  <path d="M 35.26 85.467 C 34.957 85.467 33.772 86.542 32.626 87.855 C 31.48 89.169 29.85 91.585 29.003 93.224 C 28.156 94.863 27.463 98.043 27.463 100.29 C 27.463 102.538 28.401 105.314 29.548 106.461 C 30.694 107.607 31.364 109.954 31.038 111.675 C 30.711 113.397 29.773 116.534 28.953 118.647 C 28.134 120.76 27.463 124.634 27.463 127.256 C 27.463 130.492 26.961 131.713 25.9 131.058 C 24.799 130.377 24.605 131.162 25.243 133.706 C 25.78 135.845 25.583 137.321 24.76 137.321 C 23.995 137.321 23.369 136.773 23.369 136.103 C 23.369 135.432 22.295 134.475 20.981 133.975 C 19.067 133.246 18.931 133.406 20.299 134.784 C 21.237 135.729 22.005 137.069 22.005 137.761 C 22.005 138.453 20.93 138.177 19.617 137.147 C 17.452 135.45 17.404 135.498 19.102 137.662 C 20.132 138.976 21.862 140.05 22.946 140.05 C 24.167 140.05 24.665 140.96 24.255 142.438 C 23.891 143.752 23.18 148.445 22.676 152.868 C 21.76 160.909 21.76 160.909 25.833 160.094 C 29.085 159.444 30.043 159.801 30.583 161.867 C 30.956 163.29 30.974 164.741 30.623 165.091 C 30.273 165.441 28.078 165.18 25.745 164.511 C 23.412 163.842 21.251 163.547 20.943 163.855 C 20.635 164.163 23.05 166.093 26.311 168.143 C 29.571 170.192 33.16 173.133 34.286 174.677 C 35.412 176.221 36.75 178.426 37.26 179.577 C 38.039 181.334 38.203 181.29 38.284 179.298 C 38.349 177.673 39.347 177.028 41.45 177.251 C 43.769 177.497 44.414 176.958 44.088 175.051 C 43.786 173.287 44.197 172.839 45.452 173.564 C 46.441 174.135 46.794 174.1 46.238 173.486 C 45.681 172.871 45.91 171.545 46.746 170.538 C 47.864 169.191 47.861 168.706 46.734 168.706 C 45.892 168.706 44.026 169.883 42.587 171.322 C 41.149 172.76 39.614 173.579 39.176 173.141 C 38.738 172.703 38.38 169.026 38.38 164.97 C 38.38 160.234 37.647 156.862 36.333 155.548 C 35.207 154.422 34.37 151.856 34.472 149.846 C 34.635 146.63 34.729 146.56 35.249 149.261 C 35.574 150.95 36.755 152.331 37.873 152.331 C 38.991 152.331 39.526 152.946 39.062 153.696 C 38.598 154.447 39.304 155.061 40.63 155.061 C 41.956 155.061 45.326 152.829 48.119 150.102 C 53.198 145.143 53.198 145.143 53.936 149.76 C 54.342 152.3 54.962 158.677 55.314 163.93 C 55.665 169.184 56.396 176.246 56.939 179.623 C 57.703 184.383 59.179 186.929 63.504 190.945 C 67.674 194.818 68.335 195.924 66.121 195.322 C 63.184 194.525 63.175 194.58 65.081 201.74 C 66.138 205.712 67.011 213.126 67.02 218.215 C 67.03 224.002 68.115 230.648 69.916 235.955 C 71.5 240.622 72.988 245.361 73.223 246.487 C 73.458 247.613 73.697 249.424 73.754 250.513 C 73.835 252.044 74.226 252.124 75.485 250.865 C 76.38 249.97 77.315 247.237 77.562 244.792 C 77.809 242.347 78.071 238.811 78.144 236.935 C 78.217 235.059 78.971 233.063 79.82 232.5 C 80.93 231.765 80.843 231.141 79.512 230.283 C 78.148 229.403 78.08 228.83 79.251 228.106 C 80.248 227.49 80.502 225.58 79.933 222.989 C 79.32 220.196 79.501 219.148 80.491 219.76 C 81.494 220.38 81.842 217.629 81.595 211.035 C 81.397 205.739 81.698 200.654 82.266 199.736 C 83.043 198.479 83.684 198.454 84.866 199.636 C 86.005 200.775 86.043 202.453 85.006 205.765 C 84.221 208.274 83.549 215.545 83.513 221.925 C 83.478 228.304 83.07 236.689 82.607 240.557 C 82.072 245.021 82.352 248.511 83.373 250.109 C 84.513 251.895 84.787 251.99 84.314 250.435 C 83.946 249.229 84.817 246.465 86.249 244.294 C 88.851 240.347 88.851 240.347 88.86 244.18 C 88.865 246.288 88.324 247.676 87.657 247.264 C 86.991 246.852 86.182 248.308 85.861 250.5 C 85.276 254.486 85.276 254.486 89.246 252.433 C 91.43 251.304 92.919 250.083 92.556 249.719 C 92.193 249.356 92.992 245.44 94.331 241.016 C 96.078 235.247 96.325 232.791 95.206 232.332 C 94.347 231.98 94.661 231.644 95.903 231.585 C 97.8 231.494 98.127 229.949 97.95 221.924 C 97.834 216.67 98.199 212.371 98.762 212.372 C 99.325 212.372 99.838 214.675 99.903 217.49 C 100.02 222.607 100.02 222.607 101.372 218.513 C 102.116 216.262 102.779 213.652 102.847 212.714 C 102.914 211.776 104.084 211.008 105.445 211.008 C 107.05 211.008 108.192 212.329 108.692 214.761 C 109.116 216.825 110.393 222.238 111.531 226.791 C 112.668 231.344 114.205 238.713 114.946 243.166 C 115.687 247.62 116.646 253.327 117.076 255.85 C 117.661 259.275 118.192 259.966 119.175 258.579 C 120.133 257.226 120.308 257.556 119.818 259.792 C 119.448 261.48 119.713 262.862 120.408 262.862 C 121.103 262.862 121.302 264.33 120.852 266.125 C 120.402 267.919 120.697 269.797 121.508 270.299 C 122.32 270.8 122.983 270.273 122.983 269.126 C 122.983 267.829 123.761 267.34 125.041 267.831 C 126.52 268.399 127.886 266.758 129.905 261.989 C 131.449 258.341 133.368 254.016 134.171 252.376 C 134.973 250.737 135.283 248.281 134.859 246.918 C 134.435 245.555 133.201 241.677 132.115 238.3 C 130.142 232.159 130.142 232.159 137.479 232.159 C 142.439 232.159 144.817 232.712 144.817 233.865 C 144.817 234.803 145.694 235.571 146.766 235.571 C 147.838 235.571 149.68 236.535 150.86 237.715 C 152.039 238.894 152.984 240.583 152.961 241.467 C 152.937 242.352 152.101 242.001 151.104 240.688 C 150.107 239.374 148.877 238.3 148.371 238.3 C 147.864 238.3 148.107 239.528 148.91 241.029 C 149.714 242.53 151.286 243.758 152.404 243.758 C 153.521 243.758 155.137 242.069 155.994 240.005 C 156.85 237.941 157.642 231.187 157.753 224.995 C 157.863 218.803 157.558 213.737 157.074 213.737 C 156.59 213.737 155.519 215.119 154.694 216.808 C 153.869 218.496 152.476 222.223 151.598 225.089 C 150.463 228.794 149.417 230.075 147.98 229.523 C 146.868 229.097 145.701 228.748 145.387 228.748 C 145.073 228.748 144.807 227.673 144.796 226.36 C 144.784 225.046 144.247 223.139 143.603 222.122 C 142.637 220.598 141.799 220.686 138.848 222.62 C 136.877 223.911 135.265 225.492 135.265 226.133 C 135.265 226.773 136.186 226.944 137.311 226.512 C 138.608 226.015 139.358 226.531 139.358 227.919 C 139.358 229.203 138.226 230.112 136.629 230.112 C 135.128 230.112 133.9 229.498 133.9 228.748 C 133.9 227.997 132.407 227.383 130.581 227.383 C 128.476 227.383 126.231 225.934 124.441 223.42 C 122.889 221.24 121.619 218.501 121.619 217.332 C 121.619 216.164 122.79 214.11 124.222 212.767 C 125.712 211.369 127.243 207.41 127.805 203.503 C 128.345 199.75 129.398 195.913 130.145 194.974 C 130.893 194.036 132.658 193.269 134.067 193.269 C 135.906 193.269 136.629 192.283 136.629 189.777 C 136.629 187.856 136.085 186.621 135.42 187.032 C 134.754 187.443 133.891 186.559 133.501 185.066 C 133.11 183.573 133.304 182.352 133.93 182.352 C 134.557 182.352 136.035 183.317 137.214 184.496 C 138.393 185.676 139.368 187.364 139.379 188.249 C 139.392 189.219 139.98 189.045 140.862 187.81 C 142.03 186.175 142.185 186.396 141.631 188.912 C 141.058 191.511 141.276 191.779 142.877 190.45 C 144.418 189.172 144.817 189.296 144.817 191.055 C 144.817 192.272 145.738 193.269 146.863 193.269 C 147.989 193.269 148.91 193.006 148.91 192.684 C 148.91 192.362 147.842 191.031 146.536 189.725 C 144.28 187.468 144.342 187.395 147.787 188.26 C 149.924 188.796 151.611 188.577 151.895 187.726 C 152.207 186.79 153.774 187.007 156.345 188.341 C 158.528 189.473 160.906 190.034 161.63 189.587 C 162.353 189.139 161.305 187.913 159.299 186.862 C 157.293 185.811 155.974 184.431 156.367 183.795 C 156.76 183.159 156.126 182.271 154.957 181.822 C 153.788 181.374 153.219 180.378 153.694 179.61 C 154.169 178.842 154.826 176.535 155.154 174.483 C 155.724 170.92 155.658 170.872 153.688 173.412 C 151.686 175.992 151.626 175.972 151.665 172.729 C 151.688 170.892 151.508 168.15 151.267 166.636 C 151.025 165.121 150.354 163.116 149.775 162.178 C 149.196 161.241 148.118 160.848 147.379 161.304 C 146.641 161.761 144.77 160.696 143.222 158.938 C 140.407 155.743 140.407 155.743 141.356 160.178 C 141.965 163.028 141.778 164.613 140.831 164.613 C 140.021 164.613 139.358 163.421 139.358 161.964 C 139.358 160.507 138.809 158.976 138.137 158.56 C 137.465 158.145 136.571 158.701 136.151 159.796 C 135.529 161.417 134.769 161.235 132.051 158.815 C 129.009 156.105 128.914 155.689 130.967 154.087 C 132.9 152.579 132.736 152.5 129.806 153.53 C 127.316 154.406 126.409 155.696 126.449 158.307 C 126.478 160.274 126.103 161.883 125.614 161.883 C 125.126 161.883 125.019 163.572 125.377 165.636 C 125.989 169.168 125.91 169.236 124.03 166.792 C 122.932 165.364 121.396 164.589 120.619 165.07 C 119.841 165.55 118.929 167.821 118.592 170.114 C 118.256 172.408 118.492 174.601 119.117 174.988 C 119.743 175.374 120.254 176.304 120.254 177.055 C 120.254 177.805 119.647 178.044 118.905 177.586 C 118.158 177.124 117.889 177.618 118.301 178.694 C 118.711 179.762 117.979 181.703 116.675 183.007 C 114.462 185.22 114.457 185.465 116.596 186.663 C 117.858 187.368 118.89 188.551 118.89 189.291 C 118.89 190.167 118.001 190.16 116.34 189.271 C 114.938 188.52 113.448 188.248 113.031 188.666 C 112.613 189.083 111.854 186.638 111.343 183.231 C 110.566 178.055 110.923 176.322 113.518 172.679 C 116.233 168.866 116.445 167.662 115.216 163.055 C 114.443 160.159 114.216 157.79 114.713 157.79 C 115.209 157.79 116.352 158.527 117.252 159.427 C 118.526 160.701 118.89 160.524 118.89 158.631 C 118.89 157.293 119.577 156.427 120.417 156.707 C 121.257 156.987 123.776 155.505 126.014 153.414 C 128.252 151.323 130.732 150.013 131.524 150.503 C 132.317 150.993 136.553 151.451 140.938 151.521 C 145.323 151.592 148.911 151.189 148.911 150.626 C 148.91 150.063 148.26 149.602 147.465 149.602 C 146.67 149.602 146.403 148.984 146.87 148.227 C 147.337 147.471 146.764 145.897 145.596 144.729 C 144.428 143.561 142.854 142.988 142.098 143.455 C 141.342 143.923 140.723 143.674 140.723 142.903 C 140.723 142.132 139.795 141.857 138.661 142.292 C 137.118 142.884 136.825 142.444 137.497 140.543 C 138.246 138.427 137.894 138.521 135.384 141.104 C 133.728 142.809 131.795 143.848 131.089 143.411 C 130.384 142.975 129.806 143.576 129.806 144.746 C 129.806 145.963 128.639 146.873 127.077 146.873 C 125.576 146.873 124.348 147.487 124.348 148.238 C 124.348 148.988 123.668 149.602 122.837 149.602 C 122.007 149.602 121.68 148.681 122.112 147.555 C 122.544 146.43 122.149 145.415 121.235 145.301 C 120.32 145.186 118.958 144.974 118.207 144.828 C 117.457 144.682 115.615 144.068 114.114 143.464 C 112.613 142.859 110.305 141.438 108.986 140.305 C 106.767 138.398 106.627 138.541 107.105 142.218 C 107.388 144.403 107.339 145.379 106.996 144.387 C 106.529 143.039 105.894 143.212 104.486 145.069 C 102.681 147.45 102.595 147.44 102.447 144.826 C 102.325 142.653 101.911 142.931 100.419 146.191 C 98.759 149.814 98.537 149.932 98.483 147.214 C 98.449 145.526 97.873 144.144 97.202 144.144 C 96.532 144.144 95.63 145.065 95.198 146.191 C 94.766 147.317 93.524 148.238 92.437 148.238 C 91.35 148.238 90.151 149.005 89.773 149.943 C 89.336 151.026 89.045 150.835 88.977 149.42 C 88.917 148.194 90.097 146.87 91.598 146.478 C 93.099 146.085 94.327 145.164 94.327 144.431 C 94.327 143.698 92.787 142.803 90.904 142.443 C 88.396 141.964 87.835 142.216 88.808 143.388 C 89.708 144.472 89.361 145.649 87.731 147.045 C 86.408 148.177 84.64 148.875 83.802 148.596 C 82.964 148.316 81.877 149.349 81.388 150.892 C 80.898 152.434 79.859 153.696 79.079 153.696 C 78.299 153.696 78.035 152.621 78.492 151.308 C 79.245 149.147 79.14 149.156 77.392 151.406 C 75.524 153.811 75.442 153.811 74.875 151.406 C 74.403 149.406 73.968 149.7 72.653 152.908 C 71.754 155.101 71.331 157.711 71.713 158.707 C 72.096 159.704 71.856 160.519 71.182 160.519 C 70.507 160.519 69.689 161.901 69.363 163.589 C 69.038 165.278 68.692 162.361 68.594 157.107 C 68.497 151.854 68.809 142.517 69.288 136.36 C 69.964 127.674 70.651 125.051 72.35 124.661 C 73.555 124.384 76.383 125.041 78.635 126.121 C 82.728 128.084 82.728 128.084 79.624 125.113 C 77.917 123.478 75.32 121.91 73.853 121.627 C 72.387 121.345 70.823 121.703 70.377 122.424 C 69.932 123.145 68.404 122.339 66.983 120.634 C 64.397 117.535 64.397 117.535 64.248 121.629 C 64.099 125.722 64.099 125.722 62.26 120.946 C 60.618 116.683 60.407 116.537 60.296 119.582 C 60.227 121.458 59.521 123.914 58.725 125.04 C 57.647 126.567 57.467 125.7 58.019 121.629 C 58.426 118.626 58.389 117.091 57.937 118.217 C 57.485 119.343 56.602 121.265 55.974 122.489 C 55.211 123.977 55.664 125.671 57.342 127.606 C 58.722 129.197 60.22 130.498 60.671 130.498 C 61.123 130.498 61.114 129.424 60.652 128.11 C 59.983 126.21 60.172 126.056 61.577 127.355 C 63.014 128.685 62.842 130.207 60.649 135.543 C 59.018 139.509 57.09 142.104 55.764 142.114 C 54.559 142.124 52.077 143.537 50.248 145.256 C 46.994 148.312 46.907 148.321 46.206 145.64 C 45.572 143.213 45.085 143.088 41.945 144.546 C 39.996 145.451 38.387 146.805 38.369 147.555 C 38.352 148.306 37.743 147.999 37.015 146.873 C 36.288 145.747 35.683 142.811 35.671 140.349 C 35.659 137.62 36.447 135.565 37.69 135.088 C 38.811 134.658 39.446 133.849 39.101 133.29 C 38.755 132.731 40.035 131.438 41.943 130.417 C 43.852 129.395 46.002 127.46 46.721 126.117 C 47.44 124.774 49.185 123.675 50.6 123.675 C 52.321 123.675 53.457 122.384 54.029 119.777 C 54.5 117.633 56.359 115.091 58.159 114.127 C 59.96 113.163 61.768 111.502 62.178 110.434 C 62.675 109.139 61.607 109.43 58.969 111.308 C 56.795 112.857 54.595 114.123 54.082 114.123 C 53.568 114.123 54.737 112.234 56.68 109.925 C 58.623 107.616 60.213 104.853 60.213 103.784 C 60.213 102.716 59.599 101.842 58.848 101.842 C 58.098 101.842 57.484 102.456 57.484 103.207 C 57.484 103.957 56.638 104.571 55.604 104.571 C 54.57 104.571 52.96 103.65 52.025 102.524 C 51.091 101.399 49.461 100.478 48.403 100.478 C 47.345 100.478 45.924 101.859 45.245 103.548 C 44.566 105.237 43.879 106.004 43.717 105.254 C 43.555 104.503 43.33 103.275 43.217 102.524 C 43.104 101.774 41.875 99.011 40.486 96.384 C 39.097 93.757 37.04 90.933 35.915 90.109 C 34.79 89.285 34.306 87.903 34.84 87.039 C 35.375 86.174 35.564 85.467 35.26 85.467" stroke="none" stroke-width="1" style="fill: rgb(179, 154, 18);"/>
  <path d="M 96.454 103.368 C 94.909 103.457 91.973 103.918 89.93 104.392 C 87.023 105.066 86.504 105.699 87.542 107.3 C 88.42 108.655 89.215 108.86 89.892 107.908 C 90.564 106.963 91.737 107.315 93.304 108.931 C 95.589 111.288 95.522 111.394 91.744 111.394 C 89.451 111.394 87.459 112.274 86.991 113.493 C 86.532 114.689 87.06 115.927 88.22 116.372 C 89.424 116.834 92.478 115.142 95.706 112.226 C 98.704 109.517 101.924 107.281 102.86 107.257 C 103.814 107.233 103.398 106.333 101.913 105.21 C 100.456 104.108 98 103.279 96.454 103.368" stroke="none" stroke-width="1" style="fill: rgb(179, 154, 18);"/>
  <path d="M 141.926 113.16 C 138.916 112.937 137.206 114.07 133.684 118.618 C 130.982 122.109 130.421 123.339 132.253 121.758 C 133.909 120.328 135.265 119.818 135.265 120.623 C 135.265 121.429 134.892 123.059 134.436 124.246 C 133.981 125.433 132.547 126.405 131.25 126.405 C 129.954 126.405 127.375 128.108 125.52 130.19 C 123.665 132.272 121.763 134.977 121.293 136.202 C 120.788 137.517 121.468 139.361 122.951 140.704 C 125.309 142.838 125.871 142.761 132.059 139.467 C 135.687 137.536 139.887 135.947 141.394 135.936 C 142.901 135.924 144.981 135.379 146.015 134.724 C 147.053 134.066 147.439 132.795 146.878 131.886 C 146.304 130.957 147.2 128.426 148.934 126.081 C 152.008 121.922 152.008 121.922 148.298 122.854 C 145.871 123.463 144.891 123.294 145.465 122.365 C 145.947 121.585 145.617 120.946 144.73 120.946 C 143.632 120.946 143.547 120.402 144.463 119.24 C 145.204 118.302 145.79 116.614 145.766 115.488 C 145.74 114.239 144.244 113.332 141.926 113.16" stroke="none" stroke-width="1" style="fill: rgb(179, 154, 18);"/>
  <path d="M 193.6 148.243 C 192.662 148.246 189.884 149.474 187.427 150.972 C 184.969 152.47 182.052 153.696 180.945 153.696 C 179.837 153.696 178.931 154.542 178.931 155.576 C 178.931 156.61 178.01 158.22 176.884 159.154 C 175.208 160.546 174.837 160.452 174.837 158.639 C 174.837 157.421 174.04 156.425 173.064 156.425 C 172.089 156.425 170.554 158.464 169.653 160.957 C 168.752 163.449 168.014 167.405 168.014 169.746 C 168.014 172.088 168.628 174.383 169.379 174.847 C 170.176 175.34 170.744 173.94 170.744 171.482 C 170.744 168.19 171.527 166.976 174.346 165.905 C 177.146 164.84 178.486 165.022 180.363 166.72 C 181.691 167.922 184.675 169.205 186.995 169.57 C 189.314 169.936 191.212 169.629 191.212 168.888 C 191.212 168.148 192.287 167.261 193.6 166.918 C 195.444 166.436 195.307 166.258 192.998 166.135 C 191.354 166.048 189.565 165.259 189.022 164.381 C 188.359 163.307 188.779 163.07 190.306 163.656 C 191.978 164.297 192.577 163.774 192.577 161.674 C 192.577 159.181 192.86 159.055 194.82 160.682 C 196.823 162.344 196.954 162.197 196.039 159.314 C 195.333 157.091 195.485 156.375 196.524 157.017 C 197.355 157.531 198.035 159.143 198.035 160.599 C 198.035 162.056 198.368 163.248 198.774 163.248 C 199.181 163.248 200.581 162.173 201.886 160.86 C 203.19 159.547 205.028 157.462 205.969 156.229 C 207.372 154.391 207.272 153.576 205.418 151.722 C 203.844 150.147 201.963 149.722 199.231 150.322 C 196.799 150.856 195.306 150.623 195.306 149.711 C 195.306 148.901 194.538 148.24 193.6 148.243" stroke="none" stroke-width="1" style="fill: rgb(179, 154, 18);"/>
  <path d="M 5.804 165.325 C 0.816 159.914 0.156 159.563 0.033 162.255 C -0.043 163.927 0.016 167.444 0.163 170.071 C 0.311 172.698 2.559 180.066 5.16 186.446 C 7.761 192.825 12 204.152 14.582 211.617 C 17.164 219.082 19.276 226.298 19.276 227.651 C 19.276 229.005 20.043 230.122 20.981 230.133 C 22.24 230.149 22.203 230.461 20.84 231.324 C 19.428 232.219 19.345 233.151 20.488 235.287 C 21.522 237.218 21.54 238.227 20.548 238.558 C 19.759 238.821 18.847 241.787 18.521 245.15 C 18.195 248.512 17.616 253.529 17.235 256.298 C 16.846 259.117 17.172 261.723 17.974 262.219 C 18.97 262.834 18.955 263.651 17.925 264.892 C 17.034 265.966 16.554 272.015 16.721 280.056 C 16.997 293.27 17.023 293.367 18.885 288.04 C 19.922 285.075 20.685 280.192 20.579 277.19 C 20.473 274.188 20.486 271.425 20.608 271.05 C 20.729 270.674 21.05 268.688 21.321 266.636 C 21.592 264.584 21.243 262.552 20.545 262.121 C 19.847 261.689 19.276 260.334 19.276 259.109 C 19.276 257.241 19.598 257.309 21.279 259.531 C 22.381 260.988 23.363 263.715 23.462 265.591 C 23.641 269.003 23.641 269.003 24.734 265.591 C 25.699 262.578 25.859 262.817 26.102 267.638 C 26.374 273.042 26.388 273.056 27.524 269.003 C 28.154 266.751 29.557 261.077 30.64 256.393 C 32.61 247.878 32.61 247.878 29.013 248.633 C 25.953 249.276 25.777 249.16 27.833 247.854 C 29.162 247.01 29.893 245.743 29.458 245.039 C 29.023 244.334 30.392 243.738 32.5 243.715 C 36.12 243.674 36.19 243.563 33.751 241.717 C 32.331 240.642 30.489 239.518 29.658 239.218 C 28.826 238.918 28.591 238.195 29.136 237.61 C 29.681 237.025 31.042 237.306 32.16 238.234 C 33.279 239.163 34.982 239.606 35.946 239.219 C 37.047 238.776 36.811 238.475 35.309 238.407 C 33.996 238.348 32.921 237.686 32.921 236.935 C 32.921 236.185 32.069 235.571 31.026 235.571 C 29.984 235.571 29.216 234.496 29.32 233.183 C 29.425 231.869 30.109 230.366 30.842 229.841 C 31.574 229.317 30.653 228.281 28.795 227.54 C 26.937 226.798 26.171 226.153 27.093 226.105 C 28.385 226.038 28.413 225.236 27.215 222.607 C 26.36 220.731 25.23 219.196 24.704 219.196 C 24.178 219.196 24.041 217.66 24.4 215.784 C 24.906 213.135 24.483 212.368 22.505 212.352 C 20.787 212.338 20.497 211.989 21.612 211.28 C 22.544 210.688 22.921 208.907 22.477 207.207 C 22.042 205.545 20.942 204.185 20.032 204.185 C 18.935 204.185 18.409 201.775 18.47 197.021 C 18.52 193.081 18.105 188.597 17.548 187.057 C 16.919 185.321 17.274 183.245 18.48 181.598 C 20.405 178.97 20.469 178.972 24.181 181.738 C 26.25 183.281 28.157 186.196 28.43 188.236 C 28.702 190.271 30.514 197.301 32.455 203.86 C 34.396 210.418 36.483 218.24 37.092 221.243 C 37.702 224.245 38.568 228.962 39.017 231.727 C 39.526 234.858 40.717 236.984 42.177 237.368 C 43.842 237.805 43.609 238.029 41.369 238.141 C 39.637 238.228 38.554 238.842 38.963 239.504 C 39.372 240.166 38.538 242.195 37.109 244.011 C 35.68 245.828 34.106 249.738 33.613 252.7 C 33.119 255.662 32.15 259.621 31.459 261.497 C 30.768 263.374 29.392 270.896 28.403 278.214 C 27.413 285.531 26.951 291.569 27.375 291.632 C 27.799 291.694 30.401 291.982 33.158 292.271 C 38.172 292.797 38.172 292.797 38.829 284.311 C 39.191 279.644 39.475 274.29 39.46 272.414 C 39.445 270.538 40.181 264.09 41.094 258.086 C 42.007 252.082 43.276 246.189 43.915 244.99 C 44.625 243.657 44.464 242.201 43.501 241.238 C 42.313 240.049 42.364 239.664 43.711 239.664 C 44.7 239.664 45.16 238.792 44.743 237.706 C 44.33 236.628 44.652 235.527 45.46 235.257 C 46.33 234.967 46.534 233.521 45.959 231.711 C 45.426 230.031 43.656 227.396 42.026 225.856 C 39.964 223.908 39.685 223.141 41.109 223.335 C 42.235 223.488 43.923 223.54 44.861 223.451 C 45.8 223.362 46.567 222.419 46.567 221.356 C 46.567 220.293 45.8 219.113 44.861 218.735 C 43.837 218.321 44.103 218.004 45.528 217.939 C 47.202 217.863 47.818 216.826 47.619 214.42 C 47.455 212.446 46.455 210.963 45.246 210.9 C 43.843 210.828 43.716 210.567 44.861 210.104 C 45.8 209.726 46.567 208.546 46.567 207.483 C 46.567 206.42 45.8 205.54 44.861 205.529 C 43.574 205.513 43.599 205.227 44.962 204.363 C 46.421 203.438 46.337 202.786 44.524 200.972 C 43.289 199.737 42.936 198.727 43.741 198.727 C 44.545 198.727 45.203 197.806 45.203 196.68 C 45.203 195.554 44.128 194.59 42.815 194.537 C 40.78 194.456 40.827 194.285 43.134 193.384 C 45.636 192.407 45.531 192.158 41.77 190.123 C 38.389 188.294 38.173 187.91 40.495 187.865 C 42.033 187.835 44.029 188.547 44.93 189.448 C 46.073 190.591 46.567 190.624 46.567 189.558 C 46.567 188.717 43.492 187.008 39.734 185.76 C 35.975 184.512 33.226 182.963 33.625 182.318 C 34.024 181.673 29.883 178.565 24.425 175.412 C 18.966 172.259 13.944 169.365 13.265 168.982 C 12.587 168.598 12.469 168.994 13.005 169.86 C 13.54 170.727 13.406 171.436 12.707 171.436 C 12.008 171.436 8.901 168.686 5.804 165.325" stroke="none" stroke-width="1" style="fill: rgb(179, 154, 18);"/>
  <path d="M 175.158 175.529 C 173.765 169.389 173.765 169.389 173.585 174.847 C 173.487 177.849 172.822 182.833 172.109 185.922 C 171.395 189.012 168.335 195.91 165.308 201.252 C 160.344 210.012 159.839 211.771 160.157 219.188 C 160.41 225.101 160.988 227.228 162.215 226.758 C 163.33 226.331 163.921 227.432 163.921 229.938 C 163.921 232.047 163.006 236.787 161.889 240.471 C 160.771 244.155 159.853 248.705 159.849 250.581 C 159.845 252.457 160.448 256.175 161.19 258.843 C 162.104 262.136 163.745 264.21 166.299 265.301 C 169.506 266.672 169.588 266.826 166.856 266.343 C 164.127 265.86 163.769 266.219 164.449 268.754 C 164.889 270.392 165.256 272.192 165.267 272.755 C 165.277 273.318 166.206 273.779 167.332 273.779 C 168.458 273.779 169.225 273.306 169.038 272.728 C 168.85 272.15 169.618 270.585 170.744 269.251 C 171.869 267.916 173.917 265.686 175.294 264.293 C 177.722 261.838 177.722 261.718 175.294 260.307 C 173.917 259.506 173.322 258.833 173.971 258.81 C 174.62 258.787 174.145 257.233 172.916 255.357 C 171.686 253.481 171.186 251.945 171.804 251.945 C 172.421 251.945 173.739 252.713 174.731 253.651 C 176.221 255.06 176.257 254.815 174.936 252.248 C 174.056 250.539 172.817 249.461 172.183 249.853 C 171.548 250.244 170.685 249.667 170.264 248.57 C 169.843 247.472 170.085 246.212 170.803 245.768 C 171.521 245.324 172.108 243.426 172.108 241.55 C 172.108 239.293 172.648 238.472 173.705 239.125 C 174.781 239.791 175.015 239.365 174.422 237.821 C 173.93 236.539 174.794 233.284 176.382 230.433 C 177.944 227.63 179.858 224.554 180.635 223.598 C 181.413 222.641 181.654 221.464 181.172 220.982 C 180.69 220.5 180.296 220.822 180.296 221.697 C 180.296 222.573 179.754 223.289 179.092 223.289 C 178.43 223.289 178.71 220.987 179.714 218.172 C 180.719 215.358 181.519 211.213 181.492 208.961 C 181.466 206.71 181.111 205.789 180.704 206.914 C 180.297 208.04 179.047 210.957 177.927 213.396 C 176.807 215.835 175.311 217.831 174.601 217.831 C 173.892 217.831 173.691 217.217 174.155 216.466 C 174.649 215.668 173.126 215.062 170.483 215.006 C 167.999 214.953 164.739 214.404 163.238 213.785 C 160.642 212.714 160.675 212.594 163.921 211.321 C 166.575 210.281 167.501 210.437 168.091 212.028 C 168.753 213.812 169.131 213.79 171.062 211.86 C 173.101 209.82 173.318 209.834 173.847 212.034 C 174.317 213.987 174.677 213.801 175.828 211.008 C 176.602 209.132 176.695 207.392 176.036 207.142 C 175.377 206.892 174.847 205.664 174.858 204.413 C 174.876 202.446 175.058 202.415 176.202 204.185 C 177.206 205.739 177.53 205.163 177.545 201.797 C 177.557 199.358 178.129 197.362 178.817 197.362 C 179.505 197.362 180.429 198.13 180.87 199.068 C 181.312 200.006 181.454 199.116 181.186 197.09 C 180.894 194.877 181.437 193.123 182.545 192.698 C 183.559 192.308 184.432 190.589 184.485 188.877 C 184.573 186.014 184.665 185.977 185.622 188.424 C 186.49 190.642 187.268 189.805 190.302 183.391 C 192.304 179.16 193.941 174.622 193.941 173.306 C 193.941 171.143 193.75 171.167 191.938 173.563 C 190.836 175.02 189.915 175.516 189.891 174.665 C 189.867 173.814 188.619 172.797 187.118 172.405 C 185.588 172.004 184.318 172.384 184.228 173.269 C 184.139 174.137 184.133 175.289 184.214 175.83 C 184.295 176.37 183.14 177.466 181.647 178.266 C 179.594 179.364 178.908 179.291 178.835 177.965 C 178.782 177.001 178.247 177.44 177.645 178.941 C 176.744 181.187 176.305 180.585 175.158 175.529" stroke="none" stroke-width="1" style="fill: rgb(179, 154, 18);"/>
  <path d="M 24.276 273.446 C 23.896 272.503 23.457 272.039 23.301 272.414 C 23.145 272.789 22.9 274.632 22.756 276.508 C 22.612 278.384 22.039 282.836 21.484 286.401 C 20.591 292.124 20.762 292.88 22.945 292.862 C 25.04 292.844 25.104 292.639 23.369 291.518 C 22.06 290.672 21.925 290.188 22.994 290.174 C 24.106 290.161 24.44 288.67 23.991 285.719 C 23.458 282.211 23.588 281.854 24.612 284.013 C 25.623 286.144 25.928 286.256 26.003 284.525 C 26.055 283.305 26.501 280.293 26.994 277.831 C 27.599 274.803 27.416 273.647 26.428 274.257 C 25.625 274.754 24.656 274.389 24.276 273.446" stroke="none" stroke-width="1" style="fill: rgb(179, 154, 18);"/>
</svg>