<?xml version="1.0" encoding="utf-8"?>
<svg viewBox="-1.113 -2.903 263.044 101.221" xmlns="http://www.w3.org/2000/svg" xmlns:bx="https://boxy-svg.com">
  <polyline style="stroke: rgb(1, 153, 52); stroke-width: 4px; fill: none;" points="227.754 96.344 0 96.344 0 55.626 57.843 3.688 96.405 29.932 191.993 29.932"/>
  <path transform="matrix(1, 0, 0, 1, -103.1725082397461, -156.50982666015625)" style="fill: rgb(51, 51, 51); white-space: pre;"/>
  <text style="fill: rgb(51, 51, 51); font-family: Inter; font-size: 18px; font-weight: 800; white-space: pre;" x="19.837" y="62.498">Naturhof-Chemnitz</text>
  <text style="fill: rgb(51, 51, 51); font-family: Inter; font-size: 9px; font-weight: 600; white-space: pre;" transform="matrix(1, 0, 0, 1, -4, 7)"><tspan x="24.916" y="67.624">Verein zur Förderung von Landschaftspflege</tspan><tspan x="24.916" dy="1.2em">​</tspan><tspan>und Naturschutz e.V.</tspan></text>
  <g>
    <title>Tree</title>
    <path d="M 239.109 4.658 C 241.981 8.153 242.577 12.216 242.807 16.61 C 249.979 17.096 256.446 20.27 259.656 26.948 C 263.537 34.598 260.858 44.338 253.822 49.127 C 249.97 51.952 245.843 52.062 241.266 52.603 C 239.606 55.474 238.229 58.171 235.477 60.18 C 232.808 62.243 229.846 62.931 226.662 63.803 C 226.543 60.813 225.571 57.29 227.075 54.585 C 228.745 51.292 230.754 48.163 232.57 44.954 C 230.497 47.201 228.35 49.356 226.113 51.438 C 225.341 46.458 224.975 41.569 224.947 36.533 C 224.406 39.899 223.865 43.265 223.287 46.632 C 220.141 44.422 217.179 41.99 214.161 39.624 C 216.793 43.238 219.976 46.21 223.397 49.053 C 223.342 53.328 223.141 57.593 222.81 61.859 C 221.921 62.179 221.031 62.491 220.141 62.821 C 219.04 59.822 217.866 56.859 216.637 53.915 C 217.197 56.785 217.756 59.721 218.591 62.528 C 216.408 61.418 214.197 60.528 212.482 58.722 C 210.785 56.923 209.418 54.649 208.116 52.548 C 203.099 51.768 198.53 50.732 194.925 46.871 C 188.312 40.377 188.376 28.938 194.834 22.361 C 198.246 18.646 202.603 17.509 207.373 16.564 C 207.813 11.777 208.611 7.391 212.088 3.814 C 218.738 -4.23 232.946 -3.772 239.109 4.658 Z" style="fill: rgb(1, 153, 52);"/>
    <path d="M 224.947 36.533 C 224.975 41.569 225.341 46.458 226.113 51.438 C 228.35 49.356 230.497 47.201 232.57 44.954 C 230.754 48.163 228.745 51.292 227.075 54.585 C 225.571 57.29 226.543 60.813 226.662 63.803 C 227.342 75.37 228.204 86.936 228.846 98.502 C 226.021 98.512 223.196 98.512 220.361 98.484 C 220.645 90.183 221.865 81.478 221.627 73.168 C 221.434 69.306 219.848 66.087 218.591 62.528 C 217.756 59.721 217.197 56.785 216.637 53.915 C 217.866 56.859 219.04 59.822 220.141 62.821 C 221.031 62.491 221.921 62.179 222.81 61.859 C 223.141 57.593 223.342 53.328 223.397 49.053 C 219.976 46.21 216.793 43.238 214.161 39.624 C 217.179 41.99 220.141 44.422 223.287 46.632 C 223.865 43.265 224.406 39.899 224.947 36.533 Z" fill="#7f7064" style=""/>
    <path d="M 222.36 62.785 C 222.939 64.051 222.847 65.271 222.196 66.49 C 221.553 65.931 221.012 65.307 220.572 64.62 C 220.866 63.675 221.462 63.069 222.36 62.785 Z" fill="#c4bba6" style=""/>
  </g>
</svg>
