<svg viewBox="0 0 512 512" xmlns="http://www.w3.org/2000/svg"><g id="FILLED_OUTLINE" data-name="FILLED OUTLINE"><path d="m176 185.7v6.3a64.017 64.017 0 0 1 -56 63.51 65.55245 65.55245 0 0 1 -16 0 64.00348 64.00348 0 0 1 -56-63.51v-6.3a63.98182 63.98182 0 0 1 9.09009-32.87988l4.6499-7.76 5.2-8.68018a39.4212 39.4212 0 0 0 2.89009-5.86994 40.04455 40.04455 0 0 0 -.68994-31l-.97022-2.17017a48.01138 48.01138 0 0 1 -4.16992-19.56983v-5.77a48.00884 48.00884 0 0 1 94.90991-10.23 48.56339 48.56339 0 0 1 1.09009 10.23v5.77a46.81437 46.81437 0 0 1 -.37012 5.91992 47.9183 47.9183 0 0 1 -3.7998 13.6499l-.97022 2.17018a40.02222 40.02222 0 0 0 2.2002 36.86987l8.71 14.53 1.13989 1.91016a64.15979 64.15979 0 0 1 9.09005 32.87997z" fill="#028c4a"/><circle cx="408" cy="104" fill="#fab542" r="32"/><g fill="#fcc16b"><path d="m400 16h16v32h-16z"/><path d="m464 96h32v16h-32z"/><path d="m443.029 43.999h33.941v16.001h-33.941z" transform="matrix(.707 -.707 .707 .707 97.961 340.5)"/><path d="m320 96h32v16h-32z"/><path d="m347.999 35.029h16.001v33.941h-16.001z" transform="matrix(.707 -.707 .707 .707 67.5 266.96)"/><path d="m400 160h16v32h-16z"/><path d="m339.029 147.999h33.941v16.001h-33.941z" transform="matrix(.707 -.707 .707 .707 -6.039 297.421)"/><path d="m451.999 139.029h16.001v33.941h-16.001z" transform="matrix(.707 -.707 .707 .707 24.422 370.96)"/></g><path d="m288 163.64014v4.35986a56 56 0 1 1 -112 0v-4.35986a55.98906 55.98906 0 0 1 12.14014-34.81006c.03979-.06006.08984-.11011.12988-.17017l9.28-11.58984a22.90137 22.90137 0 0 0 1.16992-26.99 40.00432 40.00432 0 0 1 -6.71994-22.18993v-3.89014a40 40 0 0 1 80 0v3.89014a40.08124 40.08124 0 0 1 -6.72 22.18994 21.88242 21.88242 0 0 0 -1.68994 3.02 22.8755 22.8755 0 0 0 1.12994 21.48976 24.03323 24.03323 0 0 0 1.73 2.48023l9.28 11.58984a56.026 56.026 0 0 1 12.27 34.98023z" fill="#89c462"/><path d="m264.72 114.58984-24.72 24.72022v124.68994h-16v-76.68994l-44.12988-44.12012a55.49911 55.49911 0 0 1 8.27-14.35986l35.85988 35.85986v-84.68994h16v36.68994l23.59009-23.58984a22.8755 22.8755 0 0 0 1.12991 21.48974z" fill="#855435"/><path d="m424 256h-104a24 24 0 0 1 0-48h24v16h-24a8 8 0 0 0 0 16h104z" fill="#dfdfdf"/><path d="m440 240h16v16h-16z" fill="#dfdfdf"/><path d="m172.99 166.32007-52.99 52.99v108.68993h-16v-140.68994l-42.26-42.25 5.2-8.68018a39.4212 39.4212 0 0 0 2.89008-5.86988l34.16992 34.17994v-100.68994h16v36.68994l38.90991-38.91994a48.56339 48.56339 0 0 1 1.09009 10.23v5.77a46.81437 46.81437 0 0 1 -.37012 5.91992l-39.62988 39.62014v73.37988l45.77-45.78 1.13989 1.91016a63.91034 63.91034 0 0 1 6.08011 13.49997z" fill="#855435"/><path d="m490.62988 496h-122.62988l-30.3999-72.96a31.52854 31.52854 0 0 0 -3.4001-6.1401 32.0007 32.0007 0 0 0 -30.88994-13.1999l-101.06006 15.15986a80.01824 80.01824 0 0 1 -61.43994-16.31986l-107.98-85.26a24.36658 24.36658 0 0 1 28.33986-39.58l82.10008 53.12007a72.037 72.037 0 0 0 68.35986 5.34985l33.87014-15.06006-38.52-20.73974a24.91508 24.91508 0 0 1 20.33006-45.35012l68.68994 24.98h56.1001a90.0102 90.0102 0 0 1 44.6499 11.85986l4.78 2.73a90.02958 90.02958 0 0 1 41.11011 50.8501l4.73974 14.87012z" fill="#f9caca"/><path d="m490.63 496h-122.63l-10-24-2.16-5.18 110.13-48.18 2.22 6.96z" fill="#0053a5"/><path d="m368 496h-40l-14.05-32.78-.98-2.28a31.99152 31.99152 0 0 0 -31.69-19.31988l-71.87009 5.13988a32.02534 32.02534 0 0 1 -27.87991-12.72l-13.03-17.37008a79.933 79.933 0 0 0 33.75 2.18994l101.06006-15.15986a32.01144 32.01144 0 0 1 34.29 19.34009l10.97 26.33008z" fill="#f9b7b7"/><path d="m368 496h-40l-14.05-32.78 34.62-13.85z" fill="#0f3163"/><path d="m468.18994 425.6001-110.18994 46.3999-20.3999-48.96a31.52854 31.52854 0 0 0 -3.4001-6.1401l113.17993-56.58984z" fill="#033a89"/><path d="m27.86914 323.5625 107.98828 85.25488a87.93107 87.93107 0 0 0 27.81543 14.74662l11.45508 15.27393a39.79821 39.79821 0 0 0 34.85059 15.89844l71.87207-5.13379a24.02416 24.02416 0 0 1 23.76855 14.48535l15.02734 35.06348 14.707-6.30274-10.81983-25.24609 19.686-7.87451 16.3955 39.34912 14.76954-6.1543-6.65088-15.96191 94.47558-40.4895 17.16761 53.9543 15.2461-4.85156-45.35943-142.55762a97.74394 97.74394 0 0 0 -44.76465-55.374l-4.77734-2.72949a98.14649 98.14649 0 0 0 -48.62207-12.91311h-54.69043l-57.40918-20.87622v-19.6416a64.08124 64.08124 0 0 0 56-63.48218v-4.35645a64.22878 64.22878 0 0 0 -14.02441-39.97949l-9.27539-11.5957a14.82955 14.82955 0 0 1 -.76075-17.55469 47.85466 47.85466 0 0 0 8.06055-26.625v-3.88867a48 48 0 0 0 -96 0v3.88867a47.85341 47.85341 0 0 0 8.06152 26.626 14.83125 14.83125 0 0 1 -.76172 17.55469l-9.27539 11.59472a64.07388 64.07388 0 0 0 -10.96484 20.51416l-7.13281-11.91357a32.02639 32.02639 0 0 1 -1.76465-29.48731l.9707-2.17382a55.64793 55.64793 0 0 0 4.86719-22.83499v-5.76855a56 56 0 0 0 -112 0v5.76855a55.65574 55.65574 0 0 0 4.86719 22.83594l.9707 2.17188a32.02761 32.02761 0 0 1 -1.76562 29.48925l-9.84375 16.44238a72.018 72.018 0 0 0 -10.22852 36.98829v6.30371a72.095 72.095 0 0 0 64 71.54492v32.33789l-38.48828-24.90429a32.37274 32.37274 0 0 0 -45.34272 10.52248 32.44346 32.44346 0 0 0 7.70014 42.0615zm290.02271 129.46484a40.006 40.006 0 0 0 -37.18185-19.38379l-71.87109 5.13379a23.91258 23.91258 0 0 1 -20.91016-9.53906l-1.19043-1.58716a87.3931 87.3931 0 0 0 16.70117-.87768l101.06251-15.15918a23.98067 23.98067 0 0 1 25.71387 14.5039l7.84985 18.8396zm44.68774 9.16309-17.426-41.82275 97.43165-48.71582 15.75 49.50048zm-178.57959-298.54688a47.97434 47.97434 0 0 1 2.15527-14.17382l37.84473 37.84472v28.00611a48.07 48.07 0 0 1 -40-47.32056zm96 0v4.35645a48.07 48.07 0 0 1 -40 47.32056v-76.00611l18.95264-18.95263c.40039.57592.81006 1.14746 1.25341 1.70166l9.2754 11.59472a48.17445 48.17445 0 0 1 10.51855 29.98535zm-76.206-41.5791a30.77581 30.77581 0 0 0 1.581-36.42383 31.90449 31.90449 0 0 1 -5.375-17.75195v-3.88867a32 32 0 0 1 64 0v3.88867a31.90587 31.90587 0 0 1 -5.374 17.751 30.818 30.818 0 0 0 -5.188 17.60791l-13.438 13.43797v-36.68555h-16v84.68555l-30.15161-30.15161c.2229-.29224.44018-.58838.67016-.87574zm-35.794 63.63184v6.30371a56.07868 56.07868 0 0 1 -48 55.41943v-28.105l46.49512-46.49511a55.986 55.986 0 0 1 1.50488 12.87697zm-8.06226-28.94849-39.93774 39.93775v-73.3711l27.949-27.949-.39624.88745a48.04039 48.04039 0 0 0 2.64649 44.23145zm-87.93774-84.7478a39.9941 39.9941 0 0 1 79.8623-3.17676l-31.8623 31.86231v-36.68555h-16v100.68555l-28.11865-28.11866a48.03261 48.03261 0 0 0 .56592-40.31494l-.97071-2.17187a39.75654 39.75654 0 0 1 -3.47656-16.31153zm-16 120v-6.30371a56.02331 56.02331 0 0 1 7.95508-28.76953l3.6167-6.04053 36.42822 36.42822v60.105a56.07868 56.07868 0 0 1 -48-55.41945zm64 71.54492a72.15352 72.15352 0 0 0 62.16455-55.45361 63.96925 63.96925 0 0 0 41.83545 23.39087v14.46045a32.98373 32.98373 0 0 0 -33.43164 15.55937 32.91655 32.91655 0 0 0 12.62012 45.917l24.156 13.00683-18.9685 8.43067a63.78959 63.78959 0 0 1 -60.76075-4.752l-27.61523-17.86866zm-86.11133 26.18848a16.37235 16.37235 0 0 1 22.93164-5.32129l82.10352 53.126a79.7429 79.7429 0 0 0 75.95019 5.93945l30.28394-13.46 39.04904 21.02644 7.58594-14.0879-81.01856-43.625a16.91731 16.91731 0 0 1 -6.48632-23.59667 16.94124 16.94124 0 0 1 20.28616-7.19443l70.0166 25.46h57.50879a82.12691 82.12691 0 0 1 40.68359 10.80469l4.77832 2.73047a81.782 81.782 0 0 1 37.45606 46.333l2.657 8.35035-101.44629 50.7229a39.92942 39.92942 0 0 0 -34.09938-11.14941l-101.0625 15.15918a72.27822 72.27822 0 0 1 -55.29493-14.69238l-107.98828-85.25489a16.40738 16.40738 0 0 1 -3.89453-21.27051z"/><path d="m448 104a40 40 0 1 0 -40 40 40.04584 40.04584 0 0 0 40-40zm-40 24a24 24 0 1 1 24-24 24.0275 24.0275 0 0 1 -24 24z"/><path d="m400 16h16v32h-16z"/><path d="m464 96h32v16h-32z"/><path d="m443.029 43.999h33.941v16.001h-33.941z" transform="matrix(.707 -.707 .707 .707 97.961 340.5)"/><path d="m320 96h32v16h-32z"/><path d="m347.999 35.029h16.001v33.941h-16.001z" transform="matrix(.707 -.707 .707 .707 67.5 266.96)"/><path d="m400 160h16v32h-16z"/><path d="m339.029 147.999h33.941v16.001h-33.941z" transform="matrix(.707 -.707 .707 .707 -6.039 297.421)"/><path d="m451.999 139.029h16.001v33.941h-16.001z" transform="matrix(.707 -.707 .707 .707 24.422 370.96)"/><path d="m320 256h104v-16h-104a8 8 0 0 1 0-16h24v-16h-24a24 24 0 0 0 0 48z"/><path d="m440 240h16v16h-16z"/></g></svg>
