<svg xmlns="http://www.w3.org/2000/svg" id="Capa_1" enable-background="new 0 0 512 512"  viewBox="0 0 512 512"><g><g><g clip-rule="evenodd" fill-rule="evenodd"><path d="m295.486 484.147-287.974-12.785v-111.487c0-5.839.766-8.504 4.734-12.812 30.559-32.995 80.335-54.936 136.972-54.936 92.411 0 167.359 57.855 167.359 129.203 0 22.791-7.681 44.221-21.091 62.817z" fill="#95d6a4"/><path d="m295.486 484.147-287.974-12.785v-47.226c52.329-38.522 144.087-64.062 248.488-64.062 14.088 0 27.949.482 41.527 1.36 12.162 17.915 19.05 38.267 19.05 59.896 0 22.791-7.681 44.221-21.091 62.817z" fill="#78c2a4"/><path d="m504.517 354.943v114.661c-6.832 5.329-14.542 10.205-22.961 14.542h-196.217c-34.838-17.858-57.118-45.071-57.118-75.515 0-53.801 69.506-97.427 155.227-97.427 45.666 0 86.797 12.444 115.201 32.145 5.215 3.629 5.868 7.541 5.868 11.594z" fill="#b3e59f"/><path d="m504.517 424.137v45.468c-6.832 5.329-14.542 10.205-22.961 14.542h-196.217c-34.838-17.858-57.118-45.071-57.118-75.515 0-17.66 7.483-34.214 20.579-48.5 2.409-.028 4.791-.057 7.2-.057 104.43-.001 196.159 25.539 248.517 64.062z" fill="#95d6a4"/><path d="m504.517 448.401v22.961c-.737 6.718-6.066 12.047-12.785 12.784h-471.464c-6.689-.737-12.019-6.066-12.756-12.784v-22.961c52.329-38.522 144.087-64.063 248.488-64.063 104.43 0 196.159 25.541 248.517 64.063z" fill="#d6f6b2"/><path d="m504.517 461.526v9.836c-.737 6.718-6.066 12.047-12.785 12.784h-471.464c-6.689-.737-12.019-6.066-12.756-12.784v-9.836z" fill="#b3e59f"/><path d="m237.632 93.532c-.624 0-1.247 0-1.843.057-5.584-17.773-22.168-30.671-41.784-30.671-3.061 0-6.065.312-8.957.936-7.965-21.033-28.262-35.972-52.072-35.972-26.392 0-48.502 18.369-54.228 43.002-17.094 3.345-29.991 18.369-29.991 36.425 0 11.707 3.459 24.435 16.47 24.435h195.763c3.26 0 8.021-.453 8.021-6.832 0-17.32-14.031-31.38-31.379-31.38z" fill="#d2f6ff"/></g><path d="m90.568 255.221 29.48 107.461c1.389 5.131-2.58 10.29-7.824 10.29h-58.988c-4.508 0-8.164-3.657-8.164-8.164 0-.992.198-1.955.538-2.863l29.282-106.838c1.162-4.309 5.641-6.86 9.949-5.698 2.921.794 5.047 3.09 5.727 5.812z" fill="#66b394"/><path d="m444.676 257.885 29.481 107.462c1.389 5.13-2.58 10.289-7.853 10.289h-58.961c-4.507 0-8.164-3.657-8.164-8.164 0-.992.199-1.956.511-2.863l29.31-106.837c1.162-4.309 5.642-6.86 9.95-5.697 2.919.793 5.017 3.089 5.726 5.81z" fill="#66b394"/><path d="m209.227 172.704 23.896 87.165c1.134 4.167-2.069 8.334-6.35 8.334h-47.821c-3.656 0-6.633-2.948-6.633-6.604 0-.822.17-1.616.425-2.325l23.755-86.655c.964-3.487 4.592-5.556 8.079-4.621 2.382.652 4.082 2.495 4.649 4.706z" fill="#66b394"/><path d="m355.044 96.735 41.216 150.293c1.956 7.172-3.571 14.372-10.941 14.4h-82.489c-6.294 0-11.396-5.102-11.396-11.423 0-1.389.255-2.75.708-3.997l40.962-149.414c1.644-6.067 7.908-9.638 13.946-7.965 4.082 1.105 7.03 4.28 7.994 8.106z" fill="#66b394"/><path clip-rule="evenodd" d="m331.941 100.902 40.054 146.126c1.955 7.172-3.572 14.372-10.942 14.4h24.266c7.37-.028 12.897-7.228 10.941-14.4l-41.216-150.293c-.964-3.827-3.912-7.001-7.994-8.107-6.038-1.672-12.303 1.899-13.946 7.965z" fill="#5aa687" fill-rule="evenodd"/><path clip-rule="evenodd" d="m424.691 273.476 11.963 43.625 13.209 48.246c1.219 4.45-1.588 8.9-5.754 10.006-.652.199-1.361.284-2.069.284h2.069 22.195c5.272 0 9.241-5.159 7.853-10.289l-11.085-40.337-18.396-67.125c-.709-2.721-2.807-5.017-5.726-5.811-4.309-1.163-8.788 1.389-9.95 5.697z" fill="#5aa687" fill-rule="evenodd"/><path clip-rule="evenodd" d="m233.124 259.869-23.896-87.165c-.567-2.211-2.267-4.054-4.648-4.706-3.487-.936-7.115 1.134-8.079 4.621l-5.783 21.118 18.142 66.132c.369 1.361.284 2.75-.17 3.969-.936 2.494-3.316 4.365-6.18 4.365h7.626 16.64c4.279 0 7.482-4.167 6.348-8.334z" fill="#5aa687" fill-rule="evenodd"/><path clip-rule="evenodd" d="m102.134 297.343-11.565-42.123c-.681-2.722-2.807-5.018-5.727-5.812-4.309-1.162-8.787 1.389-9.949 5.698l-4.309 15.704 9.07 33.081 16.13 58.79c1.19 4.451-1.588 8.901-5.783 10.006-.651.199-1.332.284-2.069.284h2.069 22.224c5.244 0 9.213-5.159 7.824-10.29z" fill="#5aa687" fill-rule="evenodd"/><path clip-rule="evenodd" d="m65.227 131.743h195.763c3.26 0 8.021-.453 8.021-6.832 0-6.52-1.983-12.585-5.386-17.603-.907.142-1.815.17-2.636.17h-195.762c-8.136 0-12.529-4.96-14.684-11.537-1.162 3.571-1.786 7.398-1.786 11.367 0 11.708 3.459 24.435 16.47 24.435z" fill="#b8f0ff" fill-rule="evenodd"/></g><path d="m0 448.401v-95.811c0-2.013.794-3.855 2.098-5.216 6.889-8.362 14.882-16.073 23.783-22.989 8.192-6.378 17.235-12.132 26.986-17.178l14.825-54.057c2.268-8.306 10.8-13.238 19.134-10.97 5.386 1.474 9.581 5.754 10.999 11.168l9.638 35.206c2.834-.538 5.669-1.021 8.447-1.445 5.131-.766 10.402-1.389 15.762-1.786 4.138-.311 7.738 2.778 8.05 6.917.283 4.11-2.807 7.71-6.916 8.022-4.933.368-9.81.935-14.656 1.672-2.296.34-4.536.709-6.718 1.105l15.816 57.685c1.277 4.677.285 9.694-2.664 13.578-2.948 3.827-7.568 6.151-12.359 6.151h-21.996v20.041c7.284-2.268 14.768-4.422 22.479-6.406 34.867-8.986 73.872-14.797 115.258-16.64 7.314-15.335 19.9-29.112 36.398-40.507-11.594-9.213-25.087-17.036-39.997-23.103-18.539-7.54-38.835-12.075-58.734-13.606-4.139-.283-7.229-3.883-6.917-8.022.312-4.11 3.912-7.2 8.022-6.917 9.808.766 19.36 2.154 28.63 4.11v-13.691h-16.413c-9.836 0-16.525-9.751-13.294-18.85l23.641-86.202c1.02-3.742 3.43-6.747 6.576-8.532 5.557-3.175 12.529-2.183 17.009 2.352 1.73 1.758 2.977 3.969 3.572 6.35l23.867 87.081c2.41 8.815-4.28 17.801-13.55 17.801h-16.413v17.433c6.747 1.956 13.295 4.252 19.617 6.803 18 7.313 34.157 17.064 47.849 28.715 2.296-1.275 4.648-2.494 7.058-3.657 15.309-7.483 32.77-13.266 51.677-16.923v-39.175h-33.732c-5.216 0-9.95-2.098-13.38-5.527-5.216-5.244-6.86-12.926-4.365-19.814l40.819-148.933c2.75-10.063 13.039-15.987 23.103-13.266 6.548 1.786 11.707 7.058 13.323 13.663l16.044 58.507c1.077 3.968-1.276 8.079-5.244 9.156-3.969 1.077-8.079-1.248-9.156-5.244l-16.044-58.451c-.511-1.587-1.077-2.664-2.835-3.146-2.041-.566-4.224.624-4.762 2.693l-40.848 148.989c-.426 2.013-1.332 3.316.567 5.244.708.708 1.7 1.134 2.777 1.134h41.244 41.245c1.19 0 2.296-.595 3.005-1.531.766-.992 1.049-2.183.737-3.401l-16.102-58.762c-1.105-3.969 1.248-8.079 5.216-9.156 3.997-1.078 8.108 1.247 9.186 5.244l16.101 58.762c.454 1.645.681 3.288.681 4.904 0 4.252-1.445 8.277-3.912 11.48-3.571 4.677-9.042 7.455-14.91 7.455h-33.762v36.794c10.318-1.304 20.977-2.013 31.891-2.013 5.131 0 10.375.17 15.732.51 3.118.198 6.18.425 9.156.708l13.436-49.096c2.268-8.306 10.829-13.238 19.135-10.97 5.414 1.474 9.609 5.754 10.998 11.168l17.377 63.355c6.889 2.749 13.493 5.839 19.673 9.241 7.314 3.997 14.06 8.391 20.154 13.153 1.815 1.417 2.892 3.6 2.892 5.896v100.743 35.745c0 4.139-3.345 7.483-7.483 7.483h-497.009c-4.138 0-7.512-3.345-7.512-7.483zm291.461-109.983c-20.551 10.035-36.651 23.329-46.147 38.523 3.543-.057 7.115-.085 10.686-.085 9.836 0 19.815.227 29.99.709 9.95.482 19.815 1.162 29.566 2.097 4.11.397 7.115 4.054 6.747 8.164-.397 4.11-4.054 7.115-8.164 6.718-9.383-.879-19.021-1.587-28.857-2.041-9.326-.425-19.105-.652-29.282-.652-50.685 0-98.25 6.066-139.608 16.724-35.008 9.014-72.028 22.96-101.396 43.654v24.406h482.01v-24.406c-41.728-29.395-100.065-45.836-149.587-53.518-4.081-.652-6.859-4.45-6.235-8.532.623-4.082 4.45-6.859 8.531-6.236 28.716 4.45 55.504 10.913 79.599 18.992v-19.786h-21.969c-4.337 0-8.249-1.757-11.084-4.592-4.309-4.337-5.669-10.63-3.628-16.355l11.679-42.605c-2.013-.17-4.025-.34-6.01-.454-4.705-.283-9.666-.454-14.854-.454-31.182-.001-63.951 6.009-91.987 19.729zm152.875 44.73v25.144c19.729 7.54 37.446 16.271 52.669 25.937v-82.885c-4.678-3.43-9.752-6.633-15.194-9.609-2.409-1.332-4.875-2.608-7.455-3.827l7.002 25.483c1.247 4.62.227 9.751-2.693 13.578-2.976 3.883-7.427 6.179-12.359 6.179zm-369.104-2.693h-21.996c-4.338 0-8.249-1.729-11.057-4.564-4.337-4.337-5.697-10.659-3.656-16.356l8.732-31.89c-4.252 2.693-8.307 5.556-12.19 8.561-7.512 5.868-14.258 12.246-20.069 19.049v78.974c17.122-10.857 37.419-20.523 60.237-28.686v-25.088zm150.38-119.764-22.763-82.97-22.734 82.97h22.734zm181.164 106.356c-.198.539-.085 1.077.567 1.077h29.48 29.48c.397 0 .708-.482.623-.851-9.836-35.83-19.643-71.631-29.451-107.433-.256-.793-1.135-.652-1.276-.085-9.806 35.774-19.614 71.519-29.423 107.292zm-354.107-2.664c-.17.482-.028 1.077.567 1.077h58.988c.482 0 .737-.34.596-.822-9.809-35.83-19.616-71.631-29.452-107.461-.255-.793-1.134-.652-1.275-.085-9.808 35.744-19.616 71.517-29.424 107.291zm100.064-225.156c-4.139 0-7.513-3.345-7.513-7.483 0-4.139 3.374-7.512 7.513-7.512h108.794c-.198-6.321-2.834-12.047-7.001-16.214-4.848-4.848-11.48-7.342-18.341-6.974-3.401.199-6.548-1.984-7.54-5.244-2.352-7.455-7.03-13.861-13.181-18.396-5.982-4.394-13.409-6.974-21.46-6.974-2.551 0-4.932.227-7.455.737-3.656.765-7.228-1.304-8.504-4.677-3.486-9.241-9.751-17.121-17.744-22.649-7.739-5.329-17.15-8.476-27.326-8.476-11.34 0-21.715 3.884-29.935 10.403-8.39 6.662-14.513 16.044-17.007 26.788-.681 3.005-3.062 5.159-5.868 5.698-6.888 1.332-12.897 5.046-17.178 10.233-4.195 5.103-6.719 11.65-6.719 18.822 0 3.742.652 7.229 1.843 10.432.879 2.324 2.041 4.507 3.43 6.491h57.203c4.167 0 7.512 3.373 7.512 7.512s-3.345 7.483-7.512 7.483h-60.803c-2.098 0-4.167-.878-5.641-2.579-3.487-3.969-6.265-8.618-8.192-13.691-1.843-4.904-2.836-10.177-2.836-15.647 0-10.715 3.8-20.58 10.178-28.29 5.471-6.662 12.813-11.679 21.231-14.315 3.826-12.246 11.254-22.876 21.062-30.643 10.771-8.561 24.406-13.691 39.232-13.691 13.266 0 25.625 4.139 35.83 11.169 8.815 6.094 16.016 14.4 20.806 24.094 1.531-.142 3.005-.227 4.394-.227 11.339 0 21.8 3.685 30.304 9.95 7.257 5.301 13.039 12.472 16.696 20.806 9.383.822 17.83 4.961 24.123 11.254 7.029 7.03 11.395 16.753 11.395 27.496 0 2.58-.283 5.216-.793 7.739-.454 3.713-3.629 6.576-7.455 6.576h-115.542z"/></g></svg>
