<svg viewBox="0 0 512 512" xmlns="http://www.w3.org/2000/svg" xmlns:xlink="http://www.w3.org/1999/xlink"><linearGradient id="New_Gradient_Swatch_3" gradientUnits="userSpaceOnUse" x1="58" x2="138" y1="394" y2="314"><stop offset=".011" stop-color="#606082"/><stop offset="1" stop-color="#83839e"/></linearGradient><linearGradient id="New_Gradient_Swatch_22" gradientUnits="userSpaceOnUse" x1="122.544" x2="419.515" y1="404.485" y2="107.515"><stop offset=".011" stop-color="#dcdce3"/><stop offset="1" stop-color="#ededf1"/></linearGradient><linearGradient id="New_Gradient_Swatch_8" gradientUnits="userSpaceOnUse" x1="28.544" x2="137.515" y1="310.485" y2="201.515"><stop offset=".011" stop-color="#fad46a"/><stop offset="1" stop-color="#fce6aa"/></linearGradient><linearGradient id="New_Gradient_Swatch_13" gradientUnits="userSpaceOnUse" x1="273.858" x2="478.142" y1="358.142" y2="153.858"><stop offset="0" stop-color="#d46669"/><stop offset="1" stop-color="#dd888a"/></linearGradient><linearGradient id="New_Gradient_Swatch_13-2" x1="12.544" x2="474.368" xlink:href="#New_Gradient_Swatch_13" y1="294.485" y2="-167.338"/><g id="_10-awareness" data-name="10-awareness"><g id="linear_color" data-name="linear color"><path d="m72 408h40l24-96h-64z" fill="url(#New_Gradient_Swatch_3)"/><path d="m136 200h-96a24 24 0 0 0 -24 24v64a24 24 0 0 0 24 24h96c40 0 184 48 240 136v-384c-56 88-200 136-240 136z" fill="url(#New_Gradient_Swatch_22)"/><path d="m136 312v-112h-96a24 24 0 0 0 -24 24v64a24 24 0 0 0 24 24z" fill="url(#New_Gradient_Swatch_8)"/><path d="m376 60a20 20 0 0 0 -20 20v352a20 20 0 0 0 40 0v-352a20 20 0 0 0 -20-20z" fill="url(#New_Gradient_Swatch_13)"/><path d="m40 200a24 24 0 0 0 -24 24v64a24 24 0 0 0 24 24h32v-112z" fill="url(#New_Gradient_Swatch_13-2)"/><path d="m376 48a32.036 32.036 0 0 0 -32 32v5.327c-34.164 36.161-80.389 60.922-113.622 75.466-40.815 17.861-78.373 27.207-94.378 27.207h-96a36.04 36.04 0 0 0 -36 36v64a36.04 36.04 0 0 0 36 36h20v84a12 12 0 0 0 12 12h40a12 12 0 0 0 11.642-9.089l21.551-86.2c18.834 2.48 50.855 11.477 85.185 26.5 33.233 14.544 79.458 39.305 113.622 75.466v5.323a32 32 0 0 0 64 0v-352a32.036 32.036 0 0 0 -32-32zm-252 252h-40v-88h40zm-96-12v-64a12.013 12.013 0 0 1 12-12h20v88h-20a12.013 12.013 0 0 1 -12-12zm74.631 108h-18.631v-72h36.631zm45.369-95.072v-89.856c42.179-5.617 132.935-36.86 196-92.459v274.774c-63.065-55.599-153.821-86.842-196-92.459zm236 131.072a8 8 0 0 1 -16 0v-352a8 8 0 0 1 16 0z"/><path d="m496 244h-40a12 12 0 0 0 0 24h40a12 12 0 0 0 0-24z"/><path d="m436.256 181.336a11.939 11.939 0 0 0 5.191-1.188l36.053-17.333a12 12 0 0 0 -10.4-21.63l-36.049 17.334a12 12 0 0 0 5.209 22.817z"/><path d="m477.5 349.185-36.049-17.333a12 12 0 0 0 -10.4 21.629l36.049 17.334a12 12 0 0 0 10.4-21.63z"/></g></g></svg>
