<?xml version="1.0" encoding="utf-8"?>
<svg viewBox="0 23 101.514 45.227" xmlns="http://www.w3.org/2000/svg">
  <path class="cls-3" d="M 99.734 20.832 L 101.514 26.362 L 100.134 20.712 C 99.915 19.759 99.648 18.818 99.334 17.892 C 99.015 16.942 98.567 16.041 98.004 15.212 C 97.71 14.781 97.353 14.397 96.944 14.072 C 96.85 13.987 96.75 13.911 96.644 13.842 C 97.318 12.437 97.766 10.936 97.974 9.392 C 98.361 6.59 97.908 3.737 96.674 1.192 C 96.455 0.791 95.948 0.651 95.554 0.882 C 95.177 1.126 95.054 1.62 95.274 2.012 C 96.489 4.232 97.018 6.762 96.794 9.282 C 96.672 10.682 96.334 12.055 95.794 13.352 L 95.654 13.282 C 94.761 12.887 93.842 12.553 92.904 12.282 C 92.374 12.102 91.844 11.912 91.344 11.702 C 90.804 11.332 90.274 11.002 89.794 10.642 C 89.463 10.398 89.155 10.123 88.874 9.822 C 88.846 9.764 88.823 9.704 88.804 9.642 L 88.804 9.562 C 88.751 9.446 88.676 9.34 88.584 9.252 L 88.914 9.032 C 89.12 8.881 89.308 8.706 89.474 8.512 C 89.662 8.297 89.802 8.045 89.884 7.772 C 90.021 7.277 90.051 6.759 89.974 6.252 C 89.835 4.858 89.438 3.501 88.804 2.252 C 88.702 1.842 88.522 1.455 88.274 1.112 C 88.189 1.001 88.08 0.912 87.954 0.852 C 87.866 0.807 87.772 0.777 87.674 0.762 C 87.222 0.691 86.801 1.008 86.744 1.462 C 86.729 1.573 86.688 1.68 86.624 1.772 C 86.531 1.903 86.42 2.021 86.294 2.122 C 85.956 2.378 85.602 2.612 85.234 2.822 C 84.388 3.337 83.632 3.985 82.994 4.742 L 82.874 4.892 C 82.664 4.722 82.464 4.562 82.284 4.402 C 81.984 4.172 81.758 3.859 81.634 3.502 C 81.534 2.705 81.688 1.897 82.074 1.192 C 82.08 1.152 82.08 1.112 82.074 1.072 C 82.182 0.634 81.92 0.189 81.484 0.072 C 81.042 -0.041 80.592 0.229 80.484 0.672 C 80.347 1.184 80.25 1.705 80.194 2.232 C 80.124 2.831 80.214 3.438 80.454 3.992 C 80.591 4.265 80.77 4.515 80.984 4.732 C 81.18 4.923 81.394 5.094 81.624 5.242 L 82.274 5.652 C 81.388 6.986 80.861 8.525 80.744 10.122 C 80.673 11.169 80.795 12.22 81.104 13.222 C 80.754 13.521 80.421 13.838 80.104 14.172 C 79.914 14.372 79.744 14.572 79.564 14.782 C 79.501 14.768 79.437 14.768 79.374 14.782 C 79.082 14.86 78.911 15.162 78.994 15.452 C 78.988 15.472 78.988 15.492 78.994 15.512 C 78.824 15.752 78.664 16.002 78.524 16.242 C 78.147 16.886 77.813 17.554 77.524 18.242 C 77.192 17.019 77.147 15.735 77.394 14.492 C 77.744 12.672 78.764 11.052 79.214 9.102 C 79.453 8.116 79.453 7.088 79.214 6.102 C 79.076 5.575 78.838 5.08 78.514 4.642 C 78.17 4.204 77.75 3.832 77.274 3.542 C 76.434 3.064 75.554 2.659 74.644 2.332 C 73.886 2.058 73.202 1.613 72.644 1.032 C 72.459 0.844 72.194 0.759 71.934 0.802 C 71.858 0.787 71.78 0.787 71.704 0.802 C 71.434 0.763 71.162 0.865 70.984 1.072 C 70.733 1.331 70.438 1.544 70.114 1.702 C 69.754 1.892 69.354 2.072 68.944 2.252 C 68.507 2.432 68.08 2.636 67.664 2.862 L 67.274 3.012 C 67.17 3.08 67.07 3.153 66.974 3.232 C 66.774 3.372 66.594 3.532 66.404 3.692 C 65.047 5.014 63.981 6.604 63.274 8.362 C 62.576 9.97 61.968 11.616 61.454 13.292 L 60.124 12.902 C 59.849 12.821 59.589 12.696 59.354 12.532 C 59.166 12.402 59.028 12.211 58.964 11.992 C 58.891 11.425 58.981 10.849 59.224 10.332 C 59.334 10.012 59.464 9.692 59.554 9.332 C 59.655 8.966 59.722 8.591 59.754 8.212 C 59.803 7.514 59.745 6.813 59.584 6.132 C 59.974 5.682 60.374 5.252 60.794 4.852 C 61.445 4.24 62.171 3.713 62.954 3.282 C 63.869 2.837 64.715 2.261 65.464 1.572 C 65.486 1.555 65.507 1.534 65.524 1.512 C 65.806 1.155 65.758 0.64 65.414 0.342 C 65.072 0.042 64.549 0.088 64.264 0.442 C 63.676 1.064 63.003 1.6 62.264 2.032 C 61.432 2.581 60.67 3.229 59.994 3.962 C 59.714 4.262 59.454 4.572 59.204 4.882 C 59.045 4.536 58.861 4.202 58.654 3.882 C 58.435 3.566 58.188 3.272 57.914 3.002 C 57.652 2.742 57.371 2.501 57.074 2.282 C 56.627 1.97 56.214 1.612 55.844 1.212 L 55.844 1.152 C 55.746 0.997 55.598 0.881 55.424 0.822 L 55.334 0.822 C 55.208 0.798 55.08 0.798 54.954 0.822 C 54.767 0.789 54.574 0.828 54.414 0.932 C 53.499 1.48 52.632 2.106 51.824 2.802 C 51.684 2.922 51.544 3.062 51.404 3.202 C 50.734 3.863 50.221 4.666 49.904 5.552 C 49.174 7.652 49.764 9.732 49.904 11.552 C 49.724 11.252 49.544 10.962 49.354 10.672 C 48.767 9.83 48.063 9.076 47.264 8.432 L 47.194 8.372 C 47.083 7.727 47.11 7.066 47.274 6.432 C 47.635 5.589 48.143 4.817 48.774 4.152 C 49.106 3.728 49.391 3.268 49.624 2.782 C 49.891 2.214 50.004 1.587 49.954 0.962 L 49.954 0.902 C 49.959 0.859 49.959 0.815 49.954 0.772 C 49.846 0.329 49.394 0.062 48.954 0.182 C 48.526 0.308 48.271 0.747 48.374 1.182 C 48.459 1.51 48.459 1.854 48.374 2.182 C 48.246 2.599 48.068 2.998 47.844 3.372 C 47.614 3.782 47.344 4.202 47.104 4.652 C 46.748 5.111 46.468 5.624 46.274 6.172 C 46.198 6.701 46.218 7.24 46.334 7.762 C 46.334 7.762 46.334 7.762 46.334 7.822 C 45.799 7.453 45.297 7.038 44.834 6.582 C 44.256 6.05 43.951 5.285 44.004 4.502 C 44.11 4.097 44.275 3.709 44.494 3.352 C 44.63 3.081 44.737 2.796 44.814 2.502 C 44.919 2.119 44.919 1.715 44.814 1.332 C 44.814 1.332 44.814 1.332 44.814 1.262 C 44.648 0.838 44.164 0.634 43.744 0.812 C 43.34 0.983 43.135 1.436 43.274 1.852 C 43.301 1.95 43.301 2.054 43.274 2.152 C 43.24 2.338 43.183 2.52 43.104 2.692 C 43.014 2.902 42.914 3.142 42.814 3.402 C 42.696 3.697 42.619 4.006 42.584 4.322 C 42.539 4.951 42.667 5.581 42.954 6.142 C 43.063 6.356 43.19 6.56 43.334 6.752 L 43.204 6.932 C 43.084 7.115 42.99 7.313 42.924 7.522 C 42.842 7.851 42.785 8.185 42.754 8.522 C 42.759 8.569 42.759 8.615 42.754 8.662 L 42.514 8.522 C 41.834 8.162 41.134 7.972 40.574 7.672 C 40.048 7.446 39.644 7.006 39.464 6.462 C 39.468 6.422 39.468 6.382 39.464 6.342 C 39.412 5.815 39.281 5.299 39.074 4.812 C 38.502 3.426 37.708 2.143 36.724 1.012 L 36.674 1.012 C 36.362 0.681 35.836 0.681 35.524 1.012 C 35.327 1.22 35.252 1.515 35.324 1.792 C 35.165 2.034 35.041 2.296 34.954 2.572 C 34.836 3.114 34.871 3.678 35.054 4.202 C 35.204 4.692 35.384 5.202 35.544 5.642 L 36.044 7.062 L 35.744 5.582 C 35.644 5.092 35.534 4.582 35.454 4.112 C 35.352 3.667 35.38 3.202 35.534 2.772 C 35.597 2.641 35.674 2.517 35.764 2.402 C 36.295 2.939 36.773 3.525 37.194 4.152 C 37.673 4.81 38.013 5.558 38.194 6.352 C 38.277 7.119 38.046 7.887 37.554 8.482 C 37.011 9.155 36.374 9.748 35.664 10.242 C 34.894 10.778 34.195 11.41 33.584 12.122 L 33.474 12.272 C 33.204 12.122 32.934 11.992 32.664 11.862 C 32.054 11.582 31.434 11.342 30.814 11.122 C 30.814 10.782 30.924 10.442 30.984 10.122 C 31.104 9.502 31.214 8.842 31.284 8.182 L 31.474 7.762 C 31.948 6.909 32.263 5.977 32.404 5.012 C 32.462 4.506 32.394 3.994 32.204 3.522 C 31.998 3.066 31.714 2.649 31.364 2.292 C 30.994 1.912 30.604 1.572 30.224 1.292 C 30.041 0.943 29.83 0.608 29.594 0.292 C 29.306 -0.059 28.783 -0.1 28.444 0.202 C 28.213 0.398 28.109 0.706 28.174 1.002 C 28.142 1.027 28.115 1.057 28.094 1.092 C 27.158 2.112 26.367 3.256 25.744 4.492 C 25.595 4.816 25.468 5.151 25.364 5.492 C 25.054 6.587 25.075 7.749 25.424 8.832 C 25.674 9.57 26.137 10.217 26.754 10.692 C 26.919 10.811 27.093 10.918 27.274 11.012 C 27.254 11.101 27.254 11.193 27.274 11.282 C 27.291 11.356 27.325 11.424 27.374 11.482 L 27.444 11.632 L 27.564 11.952 C 27.654 12.172 27.724 12.402 27.804 12.632 C 27.944 13.082 28.074 13.542 28.184 14.012 C 28.417 14.936 28.558 15.88 28.604 16.832 C 28.66 17.759 28.527 18.688 28.214 19.562 C 27.984 20.092 27.764 20.642 27.554 21.192 C 27.244 20.832 26.924 20.492 26.614 20.192 C 26.118 19.625 25.534 19.143 24.884 18.762 C 24.204 18.402 23.504 18.212 22.944 17.912 C 22.807 17.844 22.677 17.764 22.554 17.672 C 22.194 17.092 21.824 16.522 21.454 15.952 C 21.45 15.912 21.45 15.872 21.454 15.832 C 21.414 15.733 21.344 15.65 21.254 15.592 L 19.754 13.262 C 19.219 12.475 18.725 11.66 18.274 10.822 C 17.852 10.08 17.621 9.245 17.604 8.392 L 17.824 8.072 C 18.104 7.656 18.27 7.173 18.304 6.672 C 18.419 6.81 18.55 6.935 18.694 7.042 C 19.116 7.345 19.561 7.616 20.024 7.852 C 20.432 8.043 20.756 8.378 20.934 8.792 C 21.051 9.276 21.134 9.767 21.184 10.262 C 21.533 12.312 22.472 14.216 23.884 15.742 C 22.594 14.159 21.795 12.233 21.584 10.202 C 21.584 9.955 21.564 9.705 21.524 9.452 C 21.517 9.175 21.477 8.9 21.404 8.632 C 21.321 8.349 21.174 8.089 20.974 7.872 C 20.789 7.665 20.577 7.484 20.344 7.332 C 19.922 7.079 19.518 6.799 19.134 6.492 C 18.974 6.357 18.845 6.19 18.754 6.002 C 18.754 5.912 18.684 5.822 18.574 5.622 C 18.977 5.044 19.432 4.505 19.934 4.012 C 20.6 3.389 21.301 2.805 22.034 2.262 C 22.381 1.967 22.434 1.451 22.154 1.092 C 21.878 0.735 21.363 0.676 21.014 0.962 C 20.251 1.588 19.523 2.255 18.834 2.962 C 18.114 3.683 17.498 4.501 17.004 5.392 C 16.75 5.861 16.552 6.357 16.414 6.872 C 16.353 7.129 16.306 7.39 16.274 7.652 C 16.139 7.838 15.992 8.015 15.834 8.182 C 15.552 8.471 15.255 8.744 14.944 9.002 C 14.634 9.272 14.294 9.552 13.944 9.862 L 13.714 10.082 C 13.753 9.981 13.787 9.877 13.814 9.772 C 14.108 8.797 14.279 7.789 14.324 6.772 C 14.629 6.56 14.922 6.333 15.204 6.092 C 15.509 5.811 15.781 5.496 16.014 5.152 C 16.257 4.788 16.436 4.386 16.544 3.962 C 16.672 3.521 16.709 3.058 16.654 2.602 C 16.6 2.104 16.417 1.628 16.124 1.222 C 15.938 0.981 15.631 0.869 15.334 0.932 C 15.15 0.862 14.948 0.862 14.764 0.932 C 14.351 1.126 14.169 1.615 14.354 2.032 C 14.514 2.345 14.641 2.673 14.734 3.012 C 14.807 3.258 14.782 3.523 14.664 3.752 C 14.609 3.847 14.529 3.927 14.434 3.982 L 14.164 4.102 C 14.164 3.942 14.094 3.782 14.054 3.612 C 13.788 2.578 13.334 1.602 12.714 0.732 C 12.435 0.374 11.916 0.315 11.564 0.602 C 11.214 0.894 11.157 1.41 11.434 1.772 C 12.071 2.604 12.515 3.567 12.734 4.592 L 7.734 6.112 L 6.594 6.452 C 6.594 6.402 6.594 6.352 6.644 6.292 C 6.794 5.762 6.994 5.202 7.124 4.582 C 7.277 3.924 7.277 3.24 7.124 2.582 C 7.031 2.222 6.871 1.883 6.654 1.582 C 6.416 1.239 6.096 0.961 5.724 0.772 L 5.674 0.772 L 5.574 0.772 C 5.15 0.654 4.708 0.893 4.574 1.312 C 4.434 1.745 4.665 2.211 5.094 2.362 C 5.243 2.411 5.377 2.497 5.484 2.612 C 5.62 2.762 5.728 2.934 5.804 3.122 C 5.889 3.333 5.943 3.555 5.964 3.782 C 5.989 4.028 5.989 4.276 5.964 4.522 C 5.914 5.042 5.794 5.602 5.694 6.192 C 5.694 6.422 5.634 6.662 5.604 6.902 L 5.274 7.002 C 4.838 7.127 4.413 7.287 4.004 7.482 C 3.585 7.695 3.217 7.995 2.924 8.362 C 2.642 8.716 2.391 9.095 2.174 9.492 C 1.944 9.872 1.724 10.252 1.504 10.642 C 1.074 11.412 0.654 12.192 0.254 12.982 C 0.714 12.232 1.184 11.482 1.674 10.752 L 2.424 9.662 C 2.667 9.311 2.935 8.976 3.224 8.662 C 3.834 8.099 4.609 7.748 5.434 7.662 L 5.574 7.662 C 5.574 7.812 5.574 7.962 5.574 8.112 C 5.594 8.614 5.661 9.113 5.774 9.602 L 5.364 9.762 C 4.658 10.043 4.013 10.457 3.464 10.982 C 2.939 11.516 2.504 12.13 2.174 12.802 C 2.014 13.122 1.844 13.452 1.704 13.802 C 1.54 14.17 1.458 14.569 1.464 14.972 C 1.48 15.236 1.548 15.494 1.664 15.732 C 1.509 15.691 1.345 15.751 1.254 15.882 C 1.111 16.061 1.143 16.322 1.324 16.462 C 1.831 16.869 2.183 17.437 2.324 18.072 C 2.397 18.4 2.417 18.738 2.384 19.072 C 2.343 19.418 2.248 19.755 2.104 20.072 C 1.824 20.712 1.404 21.312 1.104 21.992 C 0.936 22.317 0.786 22.651 0.654 22.992 C 0.534 23.352 0.414 23.702 0.324 24.072 C -0.035 25.525 -0.096 27.035 0.144 28.512 C 0.258 29.243 0.45 29.961 0.714 30.652 C 0.978 31.351 0.407 29.742 0.274 28.152 C 0.109 26.708 0.238 25.245 0.654 23.852 C 0.744 23.502 0.884 23.172 1.004 22.852 C 1.124 22.532 1.304 22.192 1.484 21.852 C 1.814 21.222 2.274 20.652 2.614 19.952 C 2.794 19.595 2.922 19.215 2.994 18.822 C 3.059 18.418 3.059 18.006 2.994 17.602 C 2.941 17.309 2.854 17.024 2.734 16.752 L 4.134 18.092 L 5.654 19.562 C 6.184 20.018 6.675 20.516 7.124 21.052 C 7.275 21.245 7.405 21.453 7.514 21.672 C 7.514 21.982 7.514 22.292 7.514 22.612 C 7.505 23.637 7.688 24.654 8.054 25.612 C 8.144 25.822 8.234 26.012 8.324 26.202 C 8.186 26.363 8.186 26.601 8.324 26.762 C 8.741 27.508 8.741 28.416 8.324 29.162 C 7.871 30 7.346 30.796 6.754 31.542 C 6.196 32.383 5.778 33.308 5.514 34.282 C 5.244 35.282 5.044 36.202 4.824 37.162 C 4.346 39.08 4.582 39.126 5.124 37.252 C 5.634 35.382 6.014 33.412 7.124 31.902 C 7.77 31.146 8.346 30.333 8.844 29.472 C 9.047 29.058 9.176 28.611 9.224 28.152 C 9.411 28.555 9.571 28.969 9.704 29.392 C 9.599 29.587 9.475 29.772 9.334 29.942 C 8.977 30.29 8.643 30.661 8.334 31.052 C 7.838 31.924 7.55 32.9 7.494 33.902 C 7.591 32.917 7.916 31.969 8.444 31.132 C 8.758 30.78 9.092 30.446 9.444 30.132 C 9.559 30.005 9.665 29.872 9.764 29.732 C 10.106 31.088 10.523 32.423 11.014 33.732 C 11.794 35.532 12.924 37.102 13.604 38.902 C 14.236 40.725 14.364 40.679 13.794 38.822 C 13.164 36.972 12.074 35.342 11.384 33.572 C 10.814 32.142 10.604 30.572 10.114 29.052 C 10.142 28.99 10.165 28.927 10.184 28.862 C 10.311 28.394 10.482 27.939 10.694 27.502 C 10.94 27.097 11.239 26.727 11.584 26.402 C 11.936 26.071 12.307 25.761 12.694 25.472 C 13.074 25.172 13.464 24.882 13.854 24.592 C 14.244 24.302 14.704 23.982 15.134 23.692 C 15.452 25.4 15.506 27.147 15.294 28.872 C 15.604 27.104 15.634 25.299 15.384 23.522 C 16.474 22.772 17.594 22.072 18.744 21.412 C 19.212 21.167 19.646 20.861 20.034 20.502 C 20.136 20.4 20.23 20.289 20.314 20.172 L 20.534 19.842 C 20.679 19.619 20.813 19.389 20.934 19.152 C 21.101 18.833 21.235 18.498 21.334 18.152 C 21.487 18.285 21.647 18.408 21.814 18.522 C 22.124 18.972 22.434 19.442 22.734 19.902 C 22.709 19.994 22.709 20.09 22.734 20.182 C 22.87 20.682 22.834 21.214 22.634 21.692 C 22.536 21.948 22.405 22.19 22.244 22.412 L 22.114 22.562 L 21.994 22.692 C 21.891 22.793 21.781 22.887 21.664 22.972 C 21.214 23.312 20.664 23.582 20.104 23.972 C 19.816 24.145 19.547 24.35 19.304 24.582 C 19.044 24.833 18.851 25.146 18.744 25.492 C 18.559 26.142 18.505 26.821 18.584 27.492 C 18.647 28.131 18.748 28.765 18.884 29.392 C 19.156 30.625 19.49 31.843 19.884 33.042 C 19.594 31.812 19.314 30.582 19.134 29.342 C 19.05 28.725 19 28.104 18.984 27.482 C 18.954 26.884 19.042 26.286 19.244 25.722 C 19.483 25.217 19.905 24.82 20.424 24.612 C 20.874 24.372 21.364 24.172 21.844 23.892 C 21.84 24.038 21.817 24.183 21.774 24.322 C 21.61 24.791 21.416 25.248 21.194 25.692 C 21.078 25.947 20.994 26.216 20.944 26.492 C 20.879 26.782 20.879 27.082 20.944 27.372 C 21.026 27.633 21.136 27.885 21.274 28.122 C 21.404 28.352 21.514 28.562 21.624 28.792 C 22.514 30.633 22.861 32.69 22.624 34.722 C 23.011 32.673 22.803 30.556 22.024 28.622 C 21.808 28.178 21.621 27.72 21.464 27.252 C 21.406 26.799 21.505 26.341 21.744 25.952 C 22.013 25.499 22.25 25.028 22.454 24.542 C 22.554 24.256 22.601 23.955 22.594 23.652 C 22.594 23.562 22.594 23.472 22.594 23.402 C 22.987 23.06 23.3 22.637 23.514 22.162 C 23.604 21.979 23.677 21.788 23.734 21.592 C 24.571 22.993 25.242 24.486 25.734 26.042 L 25.274 28.012 C 25.128 28.505 25.067 29.019 25.094 29.532 C 25.132 30.039 25.253 30.535 25.454 31.002 C 25.675 31.49 25.943 31.955 26.254 32.392 C 25.851 33.918 25.228 35.376 24.404 36.722 C 23.404 38.352 23.564 38.442 24.584 36.832 C 25.406 35.568 26.062 34.204 26.534 32.772 C 26.704 33.012 26.894 33.252 27.084 33.482 L 26.544 32.712 C 26.665 32.331 26.765 31.944 26.844 31.552 C 26.914 31.182 26.954 30.802 26.994 30.412 C 27.104 30.632 27.224 30.832 27.344 31.042 C 27.824 31.882 28.344 32.692 28.874 33.492 C 29.972 35.046 30.973 36.666 31.874 38.342 C 32.094 38.762 32.284 39.202 32.474 39.632 C 32.664 40.062 32.814 40.522 32.934 40.982 C 33.208 41.892 33.37 42.832 33.414 43.782 C 33.51 45.7 33.646 45.716 33.614 43.782 C 33.6 42.81 33.469 41.843 33.224 40.902 C 33.114 40.422 32.954 39.962 32.804 39.502 C 32.654 39.042 32.454 38.602 32.244 38.162 C 32.034 37.722 31.774 37.162 31.514 36.722 C 31.964 37.122 32.414 37.512 32.874 37.892 C 33.694 38.582 34.574 39.192 35.414 39.822 C 36.266 40.432 37.001 41.191 37.584 42.062 C 38.167 42.946 38.306 42.87 37.754 41.922 C 37.21 40.986 36.502 40.156 35.664 39.472 C 34.854 38.762 34.034 38.112 33.264 37.392 C 32.494 36.672 31.764 35.912 31.074 35.122 C 30.944 35 30.75 34.975 30.594 35.062 L 29.424 33.142 C 28.924 32.322 28.424 31.512 27.994 30.672 C 27.643 30.022 27.326 29.355 27.044 28.672 C 26.98 27.689 26.819 26.714 26.564 25.762 C 26.568 25.739 26.568 25.715 26.564 25.692 C 26.971 24.652 27.391 23.622 27.824 22.602 C 27.824 22.532 27.884 22.472 27.904 22.412 C 28.26 22.867 28.547 23.373 28.754 23.912 C 28.994 24.568 29.201 25.235 29.374 25.912 L 29.924 28.002 L 30.204 29.002 L 30.344 29.522 C 30.359 29.608 30.359 29.696 30.344 29.782 C 30.344 29.862 30.244 29.952 30.154 29.912 C 30.244 29.912 30.334 29.912 30.354 29.792 C 30.374 29.7 30.374 29.604 30.354 29.512 L 30.254 28.982 L 30.014 28.012 L 29.584 25.902 C 29.46 25.183 29.293 24.471 29.084 23.772 C 28.863 23.083 28.525 22.436 28.084 21.862 C 28.374 21.212 28.674 20.572 28.984 19.932 C 29.41 18.958 29.628 17.905 29.624 16.842 C 29.635 15.812 29.545 14.784 29.354 13.772 C 29.261 13.265 29.151 12.765 29.024 12.272 C 28.964 12.032 28.894 11.792 28.824 11.552 L 29.684 11.772 L 29.684 11.862 C 29.684 12.197 29.71 12.531 29.764 12.862 C 29.792 13.036 29.835 13.206 29.894 13.372 C 29.94 13.542 29.997 13.709 30.064 13.872 C 30.326 14.503 30.683 15.09 31.124 15.612 C 31.394 15.952 31.684 16.262 31.984 16.612 C 31.984 16.872 31.984 17.122 31.984 17.382 C 32.056 18.304 32.304 19.203 32.714 20.032 C 32.399 19.188 32.25 18.292 32.274 17.392 C 32.274 17.222 32.274 17.052 32.274 16.882 C 32.784 17.412 33.274 17.882 33.744 18.472 C 33.848 18.585 33.945 18.706 34.034 18.832 C 34.124 18.952 34.204 19.082 34.284 19.212 C 34.364 19.342 34.454 19.472 34.524 19.602 L 34.734 20.012 C 35.002 20.571 35.207 21.158 35.344 21.762 C 35.489 22.376 35.579 23.002 35.614 23.632 C 35.654 24.265 35.654 24.899 35.614 25.532 C 35.526 26.806 35.352 28.072 35.094 29.322 C 35.419 28.083 35.66 26.824 35.814 25.552 C 35.887 24.911 35.921 24.267 35.914 23.622 C 35.917 22.971 35.861 22.322 35.744 21.682 C 35.635 21.034 35.453 20.4 35.204 19.792 L 34.994 19.342 C 34.924 19.192 34.844 19.052 34.764 18.912 C 34.687 18.763 34.6 18.619 34.504 18.482 C 34.42 18.342 34.326 18.209 34.224 18.082 C 33.654 17.302 33.004 16.612 32.404 15.912 C 32.483 15.517 32.594 15.129 32.734 14.752 C 32.946 14.185 33.236 13.65 33.594 13.162 C 34.333 13.534 35.025 13.994 35.654 14.532 C 36.627 15.341 37.395 16.369 37.894 17.532 C 38.142 18.125 38.297 18.752 38.354 19.392 C 38.402 20.041 38.365 20.693 38.244 21.332 C 37.97 22.62 37.564 23.877 37.034 25.082 C 37.626 23.895 38.098 22.652 38.444 21.372 C 38.599 20.717 38.67 20.045 38.654 19.372 C 38.629 18.69 38.501 18.016 38.274 17.372 C 37.816 16.089 37.058 14.934 36.064 14.002 C 35.456 13.429 34.785 12.926 34.064 12.502 C 34.685 11.88 35.384 11.342 36.144 10.902 C 36.524 10.652 36.914 10.402 37.284 10.112 C 37.676 9.819 38.035 9.483 38.354 9.112 C 38.692 8.729 38.966 8.293 39.164 7.822 C 39.461 8.093 39.798 8.316 40.164 8.482 C 40.874 8.802 41.564 8.942 42.164 9.212 C 42.344 9.291 42.518 9.385 42.684 9.492 C 42.684 9.692 42.684 9.872 42.604 10.062 C 42.526 10.546 42.381 11.017 42.174 11.462 C 42.06 11.676 41.933 11.883 41.794 12.082 C 41.616 12.332 41.452 12.593 41.304 12.862 C 40.796 13.912 40.459 15.036 40.304 16.192 L 40.134 17.192 C 40.063 17.419 40.026 17.655 40.024 17.892 L 39.784 19.422 L 38.784 25.992 C 38.704 26.532 38.604 27.082 38.574 27.652 C 38.472 29.404 39.652 30.974 41.364 31.362 C 40.303 31.064 39.447 30.281 39.054 29.252 C 38.868 28.748 38.799 28.207 38.854 27.672 C 38.914 27.142 39.044 26.602 39.154 26.062 L 40.534 19.682 C 40.861 20.305 41.239 20.901 41.664 21.462 C 42.186 22.143 42.768 22.776 43.404 23.352 C 43.447 23.457 43.474 23.569 43.484 23.682 C 43.526 24.042 43.489 24.408 43.374 24.752 C 43.04 25.471 42.613 26.144 42.104 26.752 C 41.58 27.436 41.236 28.241 41.104 29.092 C 40.967 29.933 41.126 30.795 41.554 31.532 C 41.194 30.785 41.105 29.937 41.304 29.132 C 41.489 28.347 41.863 27.619 42.394 27.012 C 43.005 26.424 43.528 25.751 43.944 25.012 C 44.069 24.729 44.15 24.429 44.184 24.122 C 44.374 24.302 44.554 24.472 44.724 24.662 C 46.728 26.785 48.16 29.383 48.884 32.212 C 48.284 29.316 46.956 26.621 45.024 24.382 C 44.754 24.062 44.474 23.762 44.194 23.472 C 44.148 23.015 43.86 22.936 43.537 22.61 C 43.384 22.47 43.237 22.122 43.084 22.262 C 42.767 21.904 42.474 21.527 42.204 21.132 C 41.822 20.543 41.488 19.924 41.204 19.282 C 41.066 18.964 40.975 18.627 40.934 18.282 L 41.274 16.402 C 41.449 15.356 41.786 14.344 42.274 13.402 C 42.402 13.192 42.546 12.991 42.704 12.802 C 42.902 12.568 43.079 12.317 43.234 12.052 C 43.527 11.563 43.746 11.034 43.884 10.482 C 44.373 10.929 44.837 11.403 45.274 11.902 C 45.729 12.425 46.088 13.024 46.334 13.672 C 46.434 13.922 46.524 14.192 46.604 14.452 C 46.177 14.673 45.766 14.924 45.374 15.202 C 44.949 15.509 44.578 15.884 44.274 16.312 C 43.962 16.749 43.753 17.252 43.664 17.782 C 43.585 18.827 43.728 19.876 44.084 20.862 C 43.803 19.888 43.729 18.866 43.864 17.862 C 43.976 17.378 44.198 16.926 44.514 16.542 C 44.832 16.165 45.211 15.844 45.634 15.592 C 46.003 15.366 46.388 15.166 46.784 14.992 L 46.994 15.752 L 47.554 17.832 L 47.824 18.832 L 47.964 19.352 C 47.979 19.438 47.979 19.526 47.964 19.612 C 47.964 19.692 47.864 19.782 47.774 19.742 C 47.864 19.792 47.954 19.742 47.974 19.612 C 47.999 19.524 47.999 19.43 47.974 19.342 L 47.874 18.812 L 47.664 17.752 L 47.274 15.642 C 47.224 15.372 47.164 15.092 47.104 14.812 L 48.384 14.282 C 48.895 14.098 49.376 13.842 49.814 13.522 C 49.882 13.471 49.945 13.414 50.004 13.352 C 50.478 14.285 50.856 15.263 51.134 16.272 C 51.648 18.18 51.983 20.132 52.134 22.102 C 52.137 20.112 51.949 18.126 51.574 16.172 C 51.327 14.989 50.955 13.836 50.464 12.732 C 50.577 12.472 50.645 12.195 50.664 11.912 C 50.684 11.629 50.684 11.345 50.664 11.062 L 50.604 10.282 C 50.604 9.772 50.534 9.282 50.514 8.762 C 50.459 7.81 50.602 6.856 50.934 5.962 C 51.147 5.476 51.441 5.029 51.804 4.642 C 52.045 4.831 52.254 5.057 52.424 5.312 C 52.547 5.489 52.648 5.68 52.724 5.882 C 52.799 6.099 52.85 6.324 52.874 6.552 C 52.944 7.042 52.974 7.612 53.024 8.142 L 53.154 9.772 L 53.344 13.012 C 53.404 13.546 53.424 14.085 53.404 14.622 C 53.402 15.157 53.199 15.671 52.834 16.062 C 53.258 15.705 53.533 15.202 53.604 14.652 C 53.689 14.109 53.736 13.561 53.744 13.012 L 53.874 9.752 L 53.934 8.122 C 53.934 7.572 53.994 7.052 53.934 6.462 C 53.939 6.146 53.905 5.83 53.834 5.522 C 53.762 5.203 53.651 4.894 53.504 4.602 C 53.366 4.312 53.198 4.038 53.004 3.782 L 52.854 3.612 C 53.41 3.218 53.992 2.861 54.594 2.542 C 55.194 3.611 55.696 4.733 56.094 5.892 L 56.474 6.892 C 56.604 7.252 56.714 7.562 56.814 7.892 C 56.809 7.942 56.809 7.992 56.814 8.042 L 56.454 8.632 C 55.918 9.446 55.463 10.31 55.094 11.212 C 54.913 11.676 54.785 12.159 54.714 12.652 C 54.639 13.132 54.599 13.616 54.594 14.102 C 54.594 15.002 54.594 15.892 54.594 16.792 C 54.414 17.122 54.234 17.462 54.074 17.792 C 53.439 19.16 52.898 20.57 52.454 22.012 C 52.214 22.715 52.02 23.433 51.874 24.162 C 51.841 24.154 51.807 24.154 51.774 24.162 C 51.558 24.233 51.442 24.467 51.514 24.682 C 51.521 24.708 51.521 24.736 51.514 24.762 C 51.505 24.807 51.484 24.848 51.454 24.882 C 51.349 25.008 51.224 25.116 51.084 25.202 C 50.924 25.312 50.764 25.392 50.564 25.522 C 50.372 25.642 50.195 25.783 50.034 25.942 C 49.411 26.57 48.993 27.372 48.834 28.242 C 48.674 29.078 48.674 29.936 48.834 30.772 C 48.99 31.591 49.197 32.399 49.454 33.192 C 49.261 32.389 49.12 31.574 49.034 30.752 C 48.945 29.944 49.01 29.126 49.224 28.342 C 49.427 27.593 49.844 26.918 50.424 26.402 C 50.569 26.289 50.723 26.189 50.884 26.102 L 51.434 25.832 L 51.684 25.682 C 51.669 25.942 51.669 26.202 51.684 26.462 C 51.758 27.236 52.034 27.978 52.484 28.612 C 52.945 29.201 53.479 29.729 54.074 30.182 C 54.659 30.616 55.19 31.12 55.654 31.682 C 56.134 32.24 56.406 32.946 56.424 33.682 C 56.444 32.929 56.2 32.193 55.734 31.602 C 55.311 31.017 54.821 30.483 54.274 30.012 C 53.718 29.547 53.224 29.013 52.804 28.422 C 52.604 28.112 52.449 27.776 52.344 27.422 C 52.244 27.097 52.18 26.761 52.154 26.422 C 52.126 26.011 52.142 25.599 52.204 25.192 C 52.231 25.134 52.255 25.073 52.274 25.012 C 52.314 24.861 52.314 24.703 52.274 24.552 C 52.274 24.472 52.274 24.392 52.274 24.312 C 52.447 23.605 52.667 22.91 52.934 22.232 C 53.064 21.902 53.204 21.562 53.344 21.232 C 53.561 22.047 53.942 22.809 54.464 23.472 C 54.823 23.927 55.236 24.337 55.694 24.692 C 56.124 25.042 56.574 25.362 56.964 25.692 C 57.749 26.423 58.423 27.266 58.964 28.192 C 59.517 29.151 59.989 30.154 60.374 31.192 C 61.948 35.35 62.296 35.26 60.884 31.012 C 60.516 29.948 60.058 28.918 59.514 27.932 C 58.987 26.937 58.313 26.026 57.514 25.232 C 56.646 24.569 55.842 23.826 55.114 23.012 C 54.5 22.164 54.13 21.165 54.044 20.122 C 54.057 20.069 54.057 20.015 54.044 19.962 C 54.274 19.492 54.504 19.032 54.754 18.572 C 54.754 19.012 54.754 19.452 54.754 19.902 C 54.754 19.392 54.814 18.902 54.854 18.372 C 54.873 18.327 54.897 18.283 54.924 18.242 C 55.274 17.602 55.654 16.972 56.054 16.362 C 56.454 15.752 56.874 15.152 57.264 14.482 C 57.619 13.894 57.904 13.266 58.114 12.612 C 58.279 12.912 58.516 13.167 58.804 13.352 C 59.132 13.556 59.489 13.708 59.864 13.802 L 61.194 14.122 C 60.734 15.702 60.334 17.292 60.024 18.892 C 60.464 17.312 61.024 15.742 61.564 14.212 L 61.824 14.272 L 63.774 14.742 L 64.294 14.862 C 64.266 16.592 63.928 18.302 63.294 19.912 C 62.941 20.729 62.45 21.48 61.844 22.132 C 61.238 22.792 60.484 23.299 59.644 23.612 C 60.506 23.341 61.291 22.868 61.934 22.232 C 62.593 21.598 63.134 20.854 63.534 20.032 C 64.254 18.455 64.684 16.761 64.804 15.032 L 65.054 15.102 C 64.894 16.124 64.864 17.162 64.964 18.192 C 65.092 19.446 65.322 20.686 65.654 21.902 C 65.744 22.232 65.854 22.562 65.964 22.902 L 65.824 23.002 C 65.302 23.444 64.897 24.007 64.644 24.642 C 64.912 24.007 65.33 23.448 65.864 23.012 L 65.974 22.942 C 66.054 23.172 66.134 23.402 66.234 23.632 C 66.479 24.207 66.763 24.765 67.084 25.302 C 67.239 25.564 67.373 25.838 67.484 26.122 C 67.595 26.407 67.666 26.707 67.694 27.012 C 67.749 27.631 67.749 28.253 67.694 28.872 C 67.782 28.253 67.816 27.627 67.794 27.002 C 67.77 26.686 67.709 26.374 67.614 26.072 C 67.521 25.772 67.4 25.48 67.254 25.202 C 66.967 24.656 66.716 24.091 66.504 23.512 C 66.414 23.262 66.334 23.002 66.264 22.742 C 66.405 22.656 66.552 22.579 66.704 22.512 C 67.004 22.382 67.324 22.312 67.704 22.182 C 67.873 22.114 68.026 22.012 68.154 21.882 C 68.29 21.745 68.384 21.571 68.424 21.382 C 68.489 21.028 68.489 20.666 68.424 20.312 C 68.324 19.638 68.183 18.97 68.004 18.312 C 67.826 17.634 67.613 16.967 67.364 16.312 C 67.232 15.957 67.054 15.621 66.834 15.312 C 66.601 15.032 66.311 14.803 65.984 14.642 L 65.984 14.482 C 66.352 13.358 66.944 12.321 67.724 11.432 C 68.484 10.512 69.374 9.662 70.214 8.722 C 71.084 7.774 71.782 6.681 72.274 5.492 C 72.532 4.853 72.69 4.179 72.744 3.492 C 74.011 4.787 74.888 6.412 75.274 8.182 C 75.41 8.783 75.487 9.396 75.504 10.012 C 75.507 10.648 75.46 11.283 75.364 11.912 C 75.204 13.002 74.944 14.092 74.694 15.212 C 73.802 16.124 73.089 17.196 72.594 18.372 C 72.069 19.641 71.79 20.999 71.774 22.372 C 71.871 25.072 72.256 27.754 72.924 30.372 C 73.187 31.67 73.341 32.988 73.384 34.312 C 73.402 34.98 73.368 35.649 73.284 36.312 C 73.199 36.966 73.049 37.609 72.834 38.232 C 72.33 39.463 71.657 40.617 70.834 41.662 C 70.457 42.209 72.47 39.534 72.994 38.302 C 73.236 37.655 73.41 36.985 73.514 36.302 C 73.608 35.639 73.658 34.971 73.664 34.302 C 73.65 32.961 73.526 31.623 73.294 30.302 C 72.706 27.715 72.391 25.074 72.354 22.422 C 72.395 21.128 72.687 19.855 73.214 18.672 C 73.518 17.996 73.9 17.358 74.354 16.772 C 74.163 17.76 74.099 18.768 74.164 19.772 C 74.192 20.108 74.238 20.442 74.304 20.772 C 74.376 21.112 74.473 21.446 74.594 21.772 C 74.707 22.094 74.84 22.408 74.994 22.712 C 75.154 23.002 75.314 23.302 75.494 23.582 L 75.794 24.032 C 75.694 24.672 75.624 25.312 75.574 25.952 C 75.297 29.365 75.736 32.799 76.864 36.032 C 75.841 32.804 75.5 29.399 75.864 26.032 C 75.864 25.532 75.984 25.032 76.074 24.552 C 76.614 25.332 77.194 26.072 77.704 26.862 C 78.076 27.4 78.387 27.977 78.634 28.582 C 78.872 29.196 79.007 29.844 79.034 30.502 C 79.047 29.822 78.942 29.146 78.724 28.502 C 78.506 27.872 78.224 27.266 77.884 26.692 C 77.344 25.762 76.714 24.892 76.164 23.982 C 76.367 22.941 76.641 21.915 76.984 20.912 C 77.247 21.932 77.676 22.901 78.254 23.782 C 78.596 24.29 78.981 24.769 79.404 25.212 C 79.808 25.631 80.185 26.076 80.534 26.542 C 81.165 27.51 81.584 28.601 81.764 29.742 C 81.884 30.322 81.964 30.902 82.034 31.492 C 82.104 32.082 82.174 32.682 82.224 33.272 C 82.623 38.041 82.895 38.044 82.634 33.242 C 82.634 32.642 82.554 32.042 82.494 31.442 C 82.434 30.842 82.374 30.242 82.274 29.642 C 82.109 28.414 81.687 27.235 81.034 26.182 C 80.686 25.684 80.305 25.209 79.894 24.762 C 79.523 24.33 79.189 23.869 78.894 23.382 C 78.293 22.409 77.886 21.329 77.694 20.202 C 77.669 20.045 77.556 19.917 77.404 19.872 C 77.494 19.622 77.594 19.382 77.704 19.142 C 77.825 19.4 77.962 19.651 78.114 19.892 C 77.968 19.626 77.844 19.348 77.744 19.062 C 78.122 18.183 78.56 17.331 79.054 16.512 C 79.124 16.392 79.204 16.282 79.274 16.172 C 79.492 16.521 79.762 16.834 80.074 17.102 C 80.544 17.532 81.074 17.862 81.474 18.242 C 81.905 18.591 82.262 19.023 82.524 19.512 C 82.786 20.022 82.971 20.568 83.074 21.132 C 83.262 22.315 83.329 23.515 83.274 24.712 L 83.274 28.342 L 83.584 24.722 C 83.728 23.501 83.751 22.268 83.654 21.042 C 83.581 20.409 83.42 19.79 83.174 19.202 C 82.906 18.611 82.53 18.075 82.064 17.622 C 81.614 17.182 81.144 16.802 80.764 16.392 C 80.422 16.071 80.174 15.663 80.044 15.212 C 80.224 15.002 80.414 14.802 80.614 14.612 C 80.864 14.362 81.134 14.132 81.414 13.902 C 81.674 14.456 82.011 14.971 82.414 15.432 C 83.033 16.12 83.702 16.761 84.414 17.352 C 85.133 17.93 85.722 18.652 86.144 19.472 C 85.775 18.614 85.234 17.842 84.554 17.202 C 83.898 16.579 83.286 15.911 82.724 15.202 C 82.373 14.709 82.096 14.166 81.904 13.592 L 82.564 13.112 C 83.244 12.652 83.954 12.202 84.654 11.742 L 86.774 10.382 L 87.264 10.062 C 87.26 10.099 87.26 10.135 87.264 10.172 C 87.504 10.734 87.878 11.228 88.354 11.612 C 88.771 11.958 89.231 12.247 89.724 12.472 C 90.409 12.795 91.122 13.056 91.854 13.252 L 92.124 13.472 C 92.124 13.592 92.124 13.702 92.124 13.802 C 92.124 14.082 92.194 14.312 92.214 14.522 C 92.259 14.923 92.204 15.328 92.054 15.702 C 91.664 16.525 91.181 17.3 90.614 18.012 C 90.054 18.809 89.66 19.71 89.454 20.662 C 89.259 21.602 89.259 22.572 89.454 23.512 C 89.286 21.642 89.877 19.782 91.094 18.352 C 91.384 18.002 91.704 17.652 92.014 17.282 C 92.34 16.902 92.622 16.486 92.854 16.042 C 92.977 15.801 93.067 15.546 93.124 15.282 C 93.184 15.026 93.214 14.765 93.214 14.502 C 93.424 14.742 93.624 14.992 93.824 15.252 C 94.024 15.512 94.164 15.742 94.314 15.992 L 94.114 16.262 L 93.504 17.002 C 93.284 17.232 93.054 17.452 92.824 17.672 C 92.309 18.112 91.824 18.586 91.374 19.092 C 91.143 19.39 90.97 19.73 90.864 20.092 C 90.77 20.444 90.73 20.808 90.744 21.172 C 90.744 21.522 90.744 21.852 90.824 22.172 L 90.944 23.172 C 91.264 25.839 91.641 28.475 92.074 31.082 C 91.774 28.415 91.531 25.749 91.344 23.082 C 91.344 22.422 91.244 21.742 91.254 21.082 C 91.258 20.777 91.305 20.474 91.394 20.182 C 91.501 19.909 91.653 19.655 91.844 19.432 C 92.294 18.975 92.778 18.553 93.294 18.172 C 93.544 17.942 93.804 17.722 94.044 17.492 L 94.744 16.742 C 95.097 17.408 95.397 18.1 95.644 18.812 C 96.095 20.107 96.397 21.449 96.544 22.812 C 96.789 25.578 96.769 28.36 96.484 31.122 C 96.901 28.363 97.058 25.571 96.954 22.782 C 96.833 20.496 96.262 18.257 95.274 16.192 C 95.638 15.72 95.972 15.226 96.274 14.712 L 96.474 14.842 C 96.848 15.09 97.185 15.389 97.474 15.732 C 98.044 16.467 98.515 17.274 98.874 18.132 C 99.208 19.016 99.495 19.918 99.734 20.832 Z M 9.984 12.922 C 9.726 12.633 9.531 12.292 9.414 11.922 C 9.214 11.169 9.143 10.388 9.204 9.612 C 9.381 9.563 9.554 9.502 9.724 9.432 C 10.403 9.135 11.049 8.77 11.654 8.342 L 12.524 7.762 L 12.894 7.532 C 12.729 9.06 12.303 10.548 11.634 11.932 C 11.364 12.522 11.054 13.102 10.724 13.672 C 10.464 13.412 10.194 13.172 9.984 12.922 Z M 6.274 7.832 C 6.274 7.612 6.274 7.392 6.354 7.172 L 7.864 6.842 L 12.864 5.752 C 12.859 5.815 12.859 5.879 12.864 5.942 L 12.644 6.082 C 12.364 6.272 12.044 6.482 11.754 6.692 L 10.904 7.322 C 10.397 7.731 9.851 8.089 9.274 8.392 C 8.991 8.52 8.696 8.621 8.394 8.692 L 8.164 8.692 L 7.904 8.692 L 7.374 8.792 C 7.013 8.852 6.656 8.932 6.304 9.032 C 6.259 8.634 6.249 8.232 6.274 7.832 Z M 7.274 21.012 C 6.84 20.442 6.362 19.907 5.844 19.412 L 4.394 17.882 L 2.944 16.342 C 2.459 15.922 2.137 15.345 2.034 14.712 C 2.05 14.405 2.132 14.105 2.274 13.832 C 2.414 13.522 2.584 13.222 2.754 12.922 C 3.08 12.34 3.491 11.811 3.974 11.352 C 4.557 10.86 5.239 10.498 5.974 10.292 C 6.085 10.632 6.215 10.966 6.364 11.292 C 6.822 12.348 7.389 13.353 8.054 14.292 C 7.51 13.279 7.071 12.214 6.744 11.112 C 6.644 10.762 6.564 10.412 6.494 10.112 C 6.853 10.022 7.217 9.952 7.584 9.902 L 8.084 9.842 L 8.164 9.842 C 8.149 10.675 8.281 11.505 8.554 12.292 C 8.739 12.761 9.014 13.189 9.364 13.552 C 9.684 13.892 10.024 14.152 10.364 14.442 C 9.874 15.242 9.364 16.032 8.794 16.822 C 8.494 17.239 8.236 17.685 8.024 18.152 C 7.818 18.643 7.687 19.162 7.634 19.692 C 7.574 20.202 7.564 20.692 7.544 21.182 L 7.544 21.362 C 7.394 21.212 7.274 21.082 7.274 21.012 Z M 13.714 24.142 C 13.324 24.452 12.944 24.772 12.574 25.142 C 12.189 25.454 11.821 25.788 11.474 26.142 C 11.121 26.514 10.819 26.931 10.574 27.382 C 10.388 27.785 10.247 28.208 10.154 28.642 C 10.081 28.442 10.001 28.242 9.914 28.042 C 9.524 27.122 9.014 26.302 8.704 25.432 C 8.553 25.031 8.446 24.616 8.384 24.192 C 8.513 24.48 8.671 24.755 8.854 25.012 C 8.648 24.701 8.484 24.365 8.364 24.012 C 8.319 23.59 8.299 23.166 8.304 22.742 C 8.304 22.272 8.304 21.742 8.374 21.312 C 8.444 20.882 8.424 20.312 8.494 19.912 C 8.553 19.48 8.674 19.059 8.854 18.662 C 9.059 18.261 9.3 17.879 9.574 17.522 C 10.104 16.812 10.634 16.092 11.134 15.342 L 11.274 15.482 L 11.334 15.562 C 11.334 15.722 11.334 15.892 11.334 16.062 C 11.348 16.517 11.409 16.969 11.514 17.412 C 11.704 18.272 11.964 19.072 12.094 19.912 C 12.381 21.605 12.357 23.337 12.024 25.022 C 12.489 23.344 12.651 21.597 12.504 19.862 C 12.434 18.982 12.234 18.122 12.114 17.292 C 12.071 16.987 12.048 16.68 12.044 16.372 L 12.124 16.482 C 12.656 17.172 13.131 17.905 13.544 18.672 C 14.295 20.055 14.85 21.536 15.194 23.072 L 13.714 24.142 Z M 20.254 18.732 C 20.164 18.942 20.054 19.142 19.944 19.342 C 19.833 19.53 19.709 19.71 19.574 19.882 C 19.253 20.197 18.894 20.469 18.504 20.692 C 17.504 21.362 16.444 22.072 15.444 22.812 C 15.166 21.267 14.682 19.767 14.004 18.352 C 13.615 17.535 13.164 16.75 12.654 16.002 C 12.484 15.772 12.324 15.542 12.154 15.322 C 12.184 15.177 12.231 15.036 12.294 14.902 C 12.471 14.525 12.668 14.158 12.884 13.802 C 13.104 13.412 13.284 12.982 13.454 12.602 C 13.607 12.251 13.795 11.916 14.014 11.602 C 14.251 11.31 14.523 11.048 14.824 10.822 C 15.134 10.572 15.474 10.342 15.824 10.082 C 16.034 9.932 16.244 9.762 16.464 9.592 C 16.633 10.256 16.888 10.895 17.224 11.492 C 17.714 12.372 18.284 13.142 18.824 13.922 L 20.434 16.242 C 20.692 17.052 20.612 17.931 20.214 18.682 L 20.254 18.732 Z M 26.434 27.912 C 26.384 27.903 26.334 27.903 26.284 27.912 C 26.076 28.007 25.982 28.252 26.074 28.462 C 26.234 28.842 26.414 29.222 26.594 29.602 C 26.614 30.241 26.574 30.881 26.474 31.512 C 26.474 31.782 26.384 32.052 26.324 32.312 C 26.053 31.887 25.829 31.435 25.654 30.962 C 25.491 30.509 25.4 30.033 25.384 29.552 C 25.396 29.071 25.484 28.595 25.644 28.142 L 26.184 26.692 C 26.274 27.062 26.324 27.462 26.394 27.862 L 26.434 27.912 Z M 26.314 24.912 C 25.792 23.374 25.122 21.891 24.314 20.482 L 24.044 20.032 L 24.044 19.882 C 24.004 19.739 23.906 19.619 23.774 19.552 C 23.704 19.432 23.634 19.312 23.554 19.192 C 23.915 19.296 24.269 19.423 24.614 19.572 C 25.212 19.874 25.756 20.273 26.224 20.752 C 26.634 21.132 27.044 21.512 27.414 21.912 C 27.344 22.082 27.274 22.262 27.214 22.442 C 26.867 23.229 26.554 24.042 26.274 24.882 L 26.314 24.912 Z M 30.984 2.792 C 31.305 3.076 31.572 3.414 31.774 3.792 C 31.953 4.173 32.032 4.592 32.004 5.012 C 31.918 5.876 31.692 6.721 31.334 7.512 C 31.422 6.384 31.375 5.249 31.194 4.132 C 31.113 3.64 30.993 3.155 30.834 2.682 L 30.984 2.792 Z M 27.474 11.562 C 27.49 11.566 27.508 11.566 27.524 11.562 C 27.492 11.561 27.461 11.55 27.434 11.532 L 27.474 11.562 Z M 27.544 11.642 L 27.744 11.752 L 27.544 11.642 Z M 27.904 11.772 C 27.99 11.787 28.078 11.787 28.164 11.772 C 28.065 11.798 27.961 11.794 27.864 11.762 L 27.904 11.772 Z M 29.014 10.542 C 28.452 10.382 27.923 10.121 27.454 9.772 C 27.045 9.419 26.749 8.953 26.604 8.432 C 26.452 7.882 26.415 7.307 26.494 6.742 C 26.533 6.459 26.6 6.181 26.694 5.912 C 26.79 5.634 26.907 5.363 27.044 5.102 C 27.605 4.115 28.294 3.207 29.094 2.402 C 29.436 3.03 29.689 3.704 29.844 4.402 C 30.08 5.59 30.15 6.805 30.054 8.012 C 30.054 8.632 29.954 9.242 29.874 9.872 C 29.874 10.162 29.794 10.452 29.764 10.752 L 29.014 10.542 Z M 32.274 14.622 C 32.181 14.95 32.111 15.284 32.064 15.622 C 31.954 15.482 31.844 15.342 31.744 15.192 C 31.386 14.72 31.099 14.198 30.894 13.642 C 30.734 13.114 30.673 12.562 30.714 12.012 C 31.278 12.17 31.832 12.361 32.374 12.582 L 33.064 12.872 C 32.728 13.42 32.463 14.008 32.274 14.622 Z M 49.274 13.012 C 48.901 13.311 48.491 13.559 48.054 13.752 L 46.904 14.322 C 46.844 14.072 46.774 13.822 46.694 13.562 C 46.483 12.841 46.144 12.163 45.694 11.562 C 45.25 10.987 44.776 10.436 44.274 9.912 L 44.104 9.732 C 44.164 9.372 44.224 9.022 44.284 8.732 C 44.316 8.507 44.37 8.286 44.444 8.072 C 44.463 8.021 44.49 7.974 44.524 7.932 C 45.194 8.432 45.884 8.812 46.524 9.232 L 46.804 9.442 L 47.474 12.012 L 47.194 9.722 C 47.684 10.142 48.135 10.603 48.544 11.102 C 48.912 11.585 49.246 12.093 49.544 12.622 C 49.477 12.766 49.386 12.898 49.274 13.012 Z M 57.774 6.522 L 57.444 5.452 L 57.144 4.522 L 57.364 4.792 C 57.682 5.219 57.935 5.691 58.114 6.192 L 57.814 6.642 C 57.814 6.642 57.824 6.522 57.814 6.482 L 57.774 6.522 Z M 57.084 12.012 C 56.938 12.71 56.692 13.384 56.354 14.012 C 56.014 14.642 55.624 15.262 55.244 15.912 C 55.134 16.082 55.044 16.262 54.944 16.442 L 55.094 14.222 C 55.149 13.297 55.369 12.389 55.744 11.542 C 56.141 10.747 56.609 9.991 57.144 9.282 C 57.201 9.523 57.245 9.766 57.274 10.012 C 57.307 10.684 57.243 11.358 57.084 12.012 Z M 58.374 9.012 C 58.333 8.615 58.266 8.221 58.174 7.832 L 58.454 7.462 C 58.454 7.692 58.454 7.912 58.454 8.142 C 58.453 8.434 58.426 8.725 58.374 9.012 Z M 66.374 15.762 C 66.576 16.003 66.741 16.273 66.864 16.562 C 67.145 17.172 67.386 17.8 67.584 18.442 C 67.796 19.097 67.966 19.765 68.094 20.442 C 68.184 20.767 68.211 21.107 68.174 21.442 C 68.119 21.746 67.911 21.999 67.624 22.112 C 67.334 22.242 66.994 22.332 66.694 22.492 C 66.547 22.56 66.407 22.64 66.274 22.732 C 66.194 22.439 66.124 22.149 66.064 21.862 C 65.8 20.661 65.639 19.44 65.584 18.212 C 65.547 17.277 65.62 16.34 65.804 15.422 C 65.998 15.501 66.177 15.613 66.334 15.752 L 66.374 15.762 Z M 66.934 10.862 C 66.561 11.383 66.226 11.931 65.934 12.502 C 65.635 13.084 65.404 13.698 65.244 14.332 C 65.244 14.332 65.244 14.392 65.244 14.412 L 64.974 14.332 C 65.044 13.552 65.084 12.772 65.184 12.022 C 65.266 11.175 65.547 10.36 66.004 9.642 C 66.822 8.519 68.125 7.851 69.514 7.842 L 69.274 8.012 C 68.504 8.922 67.664 9.832 66.894 10.852 L 66.934 10.862 Z M 70.974 5.012 C 70.794 5.542 70.56 6.051 70.274 6.532 L 70.124 6.772 C 69.184 6.689 68.239 6.854 67.384 7.252 C 66.483 7.661 65.722 8.325 65.194 9.162 C 64.711 10.006 64.434 10.951 64.384 11.922 C 64.274 12.682 64.274 13.412 64.274 14.142 L 63.914 14.012 L 61.994 13.452 L 61.834 13.452 C 62.462 11.857 63.176 10.298 63.974 8.782 C 64.754 7.217 65.851 5.831 67.194 4.712 C 67.531 4.445 67.893 4.211 68.274 4.012 C 68.634 3.842 69.054 3.702 69.474 3.542 C 69.894 3.382 70.334 3.232 70.784 3.032 C 70.956 2.959 71.122 2.875 71.284 2.782 C 71.357 3.539 71.251 4.303 70.974 5.012 Z M 77.384 18.562 C 77.054 19.352 76.774 20.162 76.524 20.982 C 76.274 21.802 76.084 22.672 75.924 23.532 L 75.874 23.442 C 75.714 23.162 75.574 22.872 75.434 22.582 C 75.305 22.289 75.195 21.989 75.104 21.682 C 74.91 21.077 74.809 20.447 74.804 19.812 C 74.813 18.525 75.001 17.246 75.364 16.012 C 75.364 15.892 75.434 15.772 75.464 15.652 C 75.583 15.539 75.629 15.37 75.584 15.212 C 75.864 14.212 76.154 13.212 76.364 12.142 C 76.505 11.44 76.592 10.728 76.624 10.012 C 76.65 9.309 76.607 8.606 76.494 7.912 C 76.259 6.495 75.753 5.137 75.004 3.912 C 75.586 4.077 76.152 4.294 76.694 4.562 C 77.065 4.749 77.403 4.996 77.694 5.292 C 77.949 5.587 78.149 5.926 78.284 6.292 C 78.543 7.176 78.581 8.11 78.394 9.012 C 78.124 10.792 77.214 12.542 76.964 14.482 C 76.8 15.833 76.958 17.203 77.424 18.482 L 77.384 18.562 Z M 88.744 7.412 C 88.706 7.542 88.645 7.664 88.564 7.772 C 88.454 7.899 88.334 8.016 88.204 8.122 L 88.114 8.182 C 88.104 8.025 88.104 7.869 88.114 7.712 C 88.17 7.064 88.281 6.422 88.444 5.792 C 88.444 5.652 88.514 5.502 88.544 5.362 C 88.634 5.69 88.701 6.024 88.744 6.362 C 88.813 6.709 88.813 7.065 88.744 7.412 Z M 84.104 11.012 C 83.424 11.492 82.724 12.012 82.044 12.462 L 81.634 12.772 C 81.466 11.915 81.442 11.037 81.564 10.172 C 81.783 8.745 82.373 7.4 83.274 6.272 C 84.405 7.24 85.226 8.52 85.634 9.952 L 84.104 11.012 Z M 86.174 9.572 L 85.664 9.922 C 85.418 8.358 84.723 6.899 83.664 5.722 L 83.804 5.572 C 84.386 4.968 85.061 4.461 85.804 4.072 C 86.249 3.865 86.676 3.624 87.084 3.352 L 87.224 3.252 C 87.224 3.352 87.224 3.462 87.224 3.572 C 87.186 4.224 87.099 4.873 86.964 5.512 C 86.808 6.235 86.72 6.972 86.704 7.712 C 86.701 8.12 86.751 8.527 86.854 8.922 L 86.854 9.012 L 86.174 9.572 Z M 94.754 15.362 L 94.444 14.862 C 94.201 14.488 93.934 14.131 93.644 13.792 C 94.179 13.919 94.707 14.076 95.224 14.262 L 95.344 14.262 C 95.168 14.629 94.971 14.987 94.754 15.332 L 94.754 15.362 Z"/>
</svg>
