<svg id="Layer_5" enable-background="new 0 0 64 64" height="512" viewBox="0 0 64 64" width="512" xmlns="http://www.w3.org/2000/svg"><g><g><g><path d="m21 27.9c.41.07.83.1 1.26.1 2.14 0 4.07-.87 5.47-2.27s2.27-3.33 2.27-5.47v11.22c-.64.23-1.31.39-2.01.46-.33.04-.66.06-.99.06h-4c-1.1 0-2-.9-2-2z" fill="#656d78"/></g><g><path d="m14 30.5v.5l-1.04.09c-1.8.15-3.49.69-4.96 1.54v-19.63c0-6.08 4.92-11 11-11 3.04 0 5.79 1.23 7.78 3.22s3.22 4.74 3.22 7.78v2c0-2.76-2.24-5-5-5h-5c-2.76 0-5 2.24-5 5v2h-.17c-1.56 0-2.83 1.27-2.83 2.83 0 .75.3 1.47.83 2l1.17 1.17v7z" fill="#656d78"/></g><g><path d="m26 56.5v5.5h-18v-7c2.5 1.88 5.62 3 9 3h3.38c.73 0 1.41-.22 1.98-.59z" fill="#ff826e"/></g><g><path d="m28 32v6h-2v4.5l-6 1.5-8-2v8.48c-.49-.33-.95-.7-1.36-1.12-1.41-1.4-2.36-3.28-2.58-5.37l-.06.01h-5.96c-.03-.33-.04-.66-.04-1 0-4.41 2.4-8.3 6-10.37 1.47-.85 3.16-1.39 4.96-1.54l1.04-.09v-.5c0 1.93 1.57 3.5 3.5 3.5.96 0 1.84-.39 2.47-1.03.64-.63 1.03-1.51 1.03-2.47v-.5c0 1.1.9 2 2 2h4c.33 0 .66-.02.99-.06z" fill="#ff826e"/></g><g><path d="m20 50.01v.01c-1.28.07-2.43.82-3 1.98-1.85 0-3.57-.56-5-1.52v-8.48l8 2z" fill="#ffeaa7"/></g><g><path d="m22.36 57.41c.99-.65 1.64-1.76 1.64-3.03v-.76c0-2-1.62-3.62-3.62-3.62h-.14c-.08 0-.16 0-.24.02v-.01-6.01l6-1.5 2-.5v14l-2 .5z" fill="#ffeaa7"/></g><g><path d="m62 62h-24c0-5.18 3.95-9.45 9-9.95.33-.03.66-.05 1-.05h4c.34 0 .67.02 1 .05 2.36.23 4.48 1.29 6.07 2.88 1.81 1.81 2.93 4.31 2.93 7.07z" fill="#5cd6b3"/></g><g><path d="m47 32h-1-.82c-1.08 0-2.16-.19-3.18-.56-.32-.12-.64-.26-.95-.42l-.68-.45c-.86-.68-1.37-1.73-1.37-2.86 0-1.81 1.29-3.31 3-3.64.23-.05.47-.07.71-.07h5.93c3.42 0 6.5 1.38 8.74 3.62s3.62 5.32 3.62 8.74c0 4.68-2.65 8.96-6.83 11.06l-1.17.58v-4l1.15-1.15c.54-.54.85-1.28.85-2.05 0-1.1-.62-2.11-1.61-2.6l-.39-.2v-2c0-1.1-.45-2.1-1.17-2.83-.73-.72-1.73-1.17-2.83-1.17z" fill="#b27946"/></g><g><path d="m57 20v1c0 1.66-1.34 3-3 3-.83 0-1.58-.34-2.12-.88s-.88-1.29-.88-2.12v-1h3z" fill="#aab2bd"/></g><g><path d="m54 20h-3v-.75c0-1-.46-1.97-1.3-2.51-2.5-1.59-4.05-4.53-3.63-7.79.45-3.59 3.4-6.49 7-6.9 4.83-.54 8.93 3.22 8.93 7.95 0 2.83-1.47 5.31-3.68 6.73-.84.54-1.32 1.48-1.32 2.48v.79z" fill="#ffeaa7"/></g><g><circle cx="54" cy="10" fill="#fcd770" r="2"/></g><g><path d="m52 52h-4c-.34 0-.67.02-1 .05v-4.05h-1c-1.66 0-3-1.34-3-3v-2h-1.46c-.85 0-1.54-.69-1.54-1.54 0-.3.09-.59.26-.85l1.24-1.85c.32-.5.5-1.08.5-1.67v-5.65c1.02.37 2.1.56 3.18.56h.82 1 2c1.1 0 2.1.45 2.83 1.17.72.73 1.17 1.73 1.17 2.83v2l.39.2c.99.49 1.61 1.5 1.61 2.6 0 .77-.31 1.51-.85 2.05l-1.15 1.15v4 4.05c-.33-.03-.66-.05-1-.05z" fill="#f0d0b4"/></g><g><path d="m20.38 50c2 0 3.62 1.62 3.62 3.62v.76c0 1.27-.65 2.38-1.64 3.03-.57.37-1.25.59-1.98.59h-3.38c-3.38 0-6.5-1.12-9-3-.57-.43-1.1-.9-1.6-1.4-2.5-2.49-4.12-5.86-4.36-9.6h5.96l.06-.01c.22 2.09 1.17 3.97 2.58 5.37.41.42.87.79 1.36 1.12 1.43.96 3.15 1.52 5 1.52.57-1.16 1.72-1.91 3-1.98.08-.02.16-.02.24-.02z" fill="#f0d0b4"/></g><g><path d="m30 31.48c1.28-.45 2.43-1.18 3.36-2.12 1.63-1.62 2.64-3.88 2.64-6.36l-.96-.96c-.67-.67-1.04-1.57-1.04-2.5 0-1.96 1.58-3.54 3.54-3.54h.92c1.96 0 3.54 1.58 3.54 3.54v4.46.07c-1.71.33-3 1.83-3 3.64 0 1.13.51 2.18 1.37 2.86l-.01.01c-2.35 4.41-7.01 7.42-12.36 7.42v-6l-.01-.06c.7-.07 1.37-.23 2.01-.46z" fill="#f0d0b4"/></g><g><path d="m21 27.9v2.1.5c0 .96-.39 1.84-1.03 2.47-.63.64-1.51 1.03-2.47 1.03-1.93 0-3.5-1.57-3.5-3.5v-.5-7l-1.17-1.17c-.53-.53-.83-1.25-.83-2 0-1.56 1.27-2.83 2.83-2.83h.17v-2c0-2.76 2.24-5 5-5h5c2.76 0 5 2.24 5 5v5.26c0 2.14-.87 4.07-2.27 5.47s-3.33 2.27-5.47 2.27c-.43 0-.85-.03-1.26-.1z" fill="#f0d0b4"/></g><g><path d="m26 20v1c0 .83-.34 1.58-.88 2.12s-1.29.88-2.12.88c-1.66 0-3-1.34-3-3v-1z" fill="#ff826e"/></g></g><g><path d="m54 51.191v-2.572l.614-.307c4.556-2.279 7.386-6.858 7.386-11.951 0-4.955-2.717-9.279-6.734-11.586 1.583-.533 2.734-2.014 2.734-3.775v-1.791c0-.68.322-1.293.862-1.64 2.591-1.666 4.138-4.496 4.138-7.569 0-2.561-1.096-5.008-3.006-6.714-1.909-1.706-4.478-2.516-7.039-2.228-4.051.458-7.365 3.723-7.88 7.763-.447 3.51 1.118 6.867 4.084 8.762.518.331.84.97.84 1.667v1.75c0 .8.242 1.542.647 2.168-.655-.1-1.323-.168-2.007-.168h-5.639v-3.465c0-2.501-2.035-4.535-4.536-4.535h-.929c-2.5 0-4.535 2.034-4.535 4.535 0 1.211.472 2.351 1.328 3.207l.662.662c-.139 2.783-1.712 5.19-3.99 6.512v-9.659-5.257-2c0-6.617-5.383-12-12-12s-12 5.383-12 12v19.102c-3.607 2.324-6 6.376-6 10.898 0 5.039 2.347 9.535 6 12.47v7.53h20v-5.719l2-.5v-16.062l-2 .5v-2.219h1c5.198 0 9.976-2.669 12.712-7.033.094.046.193.081.288.123v5.002c0 .396-.116.779-.336 1.109l-1.238 1.857c-.279.419-.426.905-.426 1.407 0 1.398 1.138 2.536 2.536 2.536h.464v.999c0 1.068.416 2.073 1.172 2.829.755.755 1.759 1.171 2.826 1.171h.002v2.191c-5.112.944-9 5.427-9 10.809v1h26v-1c0-5.382-3.888-9.865-9-10.809zm0-28.191c-1.103 0-2-.897-2-2h4c0 1.103-.897 2-2 2zm-1-13c0-.552.449-1 1-1s1 .448 1 1-.449 1-1 1-1-.448-1-1zm-5.94-.926c.4-3.137 2.974-5.672 6.12-6.027.278-.032.555-.048.829-.048 1.725 0 3.353.617 4.652 1.778 1.486 1.328 2.339 3.232 2.339 5.223 0 2.39-1.204 4.591-3.22 5.888-1.057.679-1.703 1.833-1.768 3.112h-1.012v-6.184c1.161-.414 2-1.514 2-2.816 0-1.654-1.346-3-3-3s-3 1.346-3 3c0 1.302.839 2.402 2 2.816v6.184h-1.015c-.074-1.291-.711-2.439-1.749-3.103-2.308-1.474-3.525-4.088-3.176-6.823zm12.94 27.287c0 4.221-2.297 8.012-6 9.996v-1.943l.856-.855c.738-.738 1.144-1.719 1.144-2.763 0-1.428-.761-2.718-2-3.41v-1.386c0-2.486-1.829-4.538-4.209-4.92.13-.336.209-.698.209-1.08 0-1.654-1.346-3-3-3h-1v2h1c.551 0 1 .448 1 1s-.449 1-1 1h-1-.82c-1.271 0-2.545-.301-3.683-.869-.923-.462-1.497-1.391-1.497-2.423 0-1.493 1.215-2.708 2.708-2.708h5.931c6.264 0 11.361 5.097 11.361 11.361zm-31-5.623c-.64.165-1.308.262-2 .262h-4c-.551 0-1-.448-1-1v-1.021c.086.003.17.021.257.021 2.711 0 5.138-1.24 6.743-3.184zm-14-.738v-7.414l-1.465-1.465c-.34-.341-.535-.811-.535-1.293 0-1.008.82-1.828 1.829-1.828h1.171v-3c0-2.206 1.794-4 4-4h5c2.206 0 4 1.794 4 4v5.257c0 3.718-3.025 6.743-6.743 6.743-.727 0-1.444-.116-2.133-.346l-1.808-.603-.632 1.896 1.807.603c.166.056.34.08.509.125v1.325.5c0 1.379-1.122 2.5-2.5 2.5s-2.5-1.121-2.5-2.5zm-6-17c0-5.514 4.486-10 10-10 4.544 0 8.383 3.05 9.596 7.208-1.004-.755-2.246-1.208-3.596-1.208h-5c-3.309 0-6 2.691-6 6v1.09c-1.714.38-3 1.912-3 3.738 0 1.023.398 1.984 1.122 2.707l.878.879v6.586.08l-.121.011c-1.366.114-2.667.452-3.879.961zm-5.84 32h4.042c.929 4.559 4.969 8 9.798 8h.618l.276-.553c.447-.892 1.344-1.447 2.342-1.447h.146c1.444 0 2.618 1.175 2.618 2.618v.764c0 1.443-1.174 2.618-2.618 2.618h-3.382c-7.039 0-12.865-5.227-13.84-12zm15.84 4.172c-1.033.284-1.938.916-2.556 1.809-1.249-.086-2.417-.464-3.444-1.06v-6.639l6 1.5zm6 11.828h-16v-4.165c2.357 1.368 5.084 2.165 8 2.165h3.382c.845 0 1.628-.245 2.31-.643l2.308-.576zm2-5.781-2.239.56c.142-.444.239-.907.239-1.397v-.764c0-2.335-1.748-4.25-4-4.556v-4.281l6-1.5zm-2-13.5-5 1.25-9-2.25v7.556c-1.241-1.41-2-3.254-2-5.275v-4h-2v4h-4c0-5.652 4.412-10.448 10.045-10.917l.25-.021c.639 1.711 2.275 2.938 4.205 2.938 1.732 0 3.221-.994 3.973-2.432.449.268.967.432 1.527.432h4v4h-6v2h4zm4-4.76v-4.16c4.559-.929 8-4.969 8-9.798v-.414l-1.257-1.258c-.479-.48-.743-1.117-.743-1.794 0-1.397 1.138-2.535 2.536-2.535h.929c1.397 0 2.535 1.138 2.535 2.535v3.797c-1.752.686-3 2.384-3 4.376 0 1.14.405 2.205 1.11 3.038-2.181 3.589-5.938 5.893-10.11 6.213zm19 12.041h2v-2h-4-.001c-.534 0-1.035-.208-1.413-.585-.378-.378-.586-.881-.586-1.415v-2.999h-2.464c-.295 0-.536-.24-.536-.536 0-.106.031-.209.09-.297l1.238-1.857c.44-.661.672-1.427.672-2.219v-4.337c.717.156 1.448.245 2.18.245h.82 1 2c1.654 0 3 1.346 3 3v2.619l.946.472c.65.325 1.054.978 1.054 1.705 0 .51-.198.988-.558 1.349l-1.442 1.441v7.414h-4zm-8.945 12c.499-4.494 4.32-8 8.945-8h4c4.625 0 8.446 3.506 8.945 8z"/><circle cx="26" cy="16" r="1"/><circle cx="20" cy="16" r="1"/><path d="m23 25c2.206 0 4-1.794 4-4v-2h-8v2c0 2.206 1.794 4 4 4zm2-4c0 1.103-.897 2-2 2s-2-.897-2-2z"/></g></g></svg>