<?xml version="1.0" encoding="utf-8"?>
<svg viewBox="0 0 121.624 121.38" xmlns="http://www.w3.org/2000/svg">
  <path d="M 22.78 0 C 27.4 1.02 30.6 5.22 33.83 8.44 C 37.67 11.04 40.21 5.44 43.78 9.06 C 45.47 8.29 47.14 4.61 49.16 6.03 L 49.42 7.88 C 51.72 7.53 53.89 8.32 55.71 6.96 C 57.53 6.71 59.17 7.11 60.77 6.03 C 63.03 5.89 64.64 5.92 66.71 4.86 C 69.09 4.96 72.26 4.36 74.27 5.81 C 76.01 5.98 77.64 5.36 79.35 6.01 C 79.56 9.18 76.95 9.38 74.48 9 L 74.26 11.01 L 72.39 10.98 C 72.84 11.59 73.24 12.23 73.61 12.88 C 75.76 11.57 76.99 9.61 80 9.59 C 79.99 8.19 80.57 7.5 81.75 7.51 C 83.96 7.9 84.02 10.15 85.74 11.31 C 85.61 11.82 85.49 12.34 85.36 12.85 C 86.37 12.51 87.31 12.53 88.17 12.91 C 88.89 15.67 89.94 17.12 89.16 20.14 C 89.53 19.09 89.84 18.03 90.06 16.96 C 89.01 15.06 88.34 13.62 90 11.79 C 89.05 10.33 87.35 9.9 87.19 8.03 L 88.63 7.61 C 93.49 8.98 97.46 11.53 101.09 14.9 C 102.06 16.97 104.01 18.15 104.56 20.39 C 106.67 24.03 108.49 27.82 110.75 31.37 C 111.57 32.55 110.93 34.2 111.71 35.49 C 115.26 35.99 118.52 36.22 121.35 38.78 C 122.14 41.64 121.22 42.51 118.63 43.35 C 119.21 42.36 119.83 41.39 120.48 40.45 C 119.69 37.8 117.23 39.11 115.23 38.85 C 114.05 38.4 112.94 37.81 111.72 37.44 C 109.6 38 107.82 39.54 105.7 40.18 C 104.57 39.81 104.45 38.52 103.52 39.7 C 104.77 40.87 104.96 42 104.07 43.1 C 102.28 42.98 101.3 41.67 99.39 41.77 C 98.88 44.21 97.8 46.83 97.77 49.34 C 98.05 50.93 98.32 52.49 98.38 54.11 C 99.94 52.3 98.24 49.08 99.93 47.58 C 102.83 46.01 106.42 46.52 108.62 49.02 C 109.84 49.06 110.96 48.86 111.99 48.4 C 111.81 47.71 111.18 47.2 110.1 46.88 C 109.93 45.46 111.05 44.46 110.46 42.91 C 113.14 43.8 113.35 40.83 115.5 42.58 C 115.55 43.84 115.96 44.71 116.74 45.19 C 113.76 47.9 114.11 51.37 112.44 54.6 C 111.31 53.12 110.94 52.73 109.13 52.61 C 108.88 53.45 108.63 54.3 108.39 55.14 C 107.83 54.99 107.26 54.83 106.7 54.67 C 106.13 55.7 105.39 56.27 104.49 56.36 C 104.26 55.51 104.23 54.61 104.4 53.65 C 103.98 54.68 103.38 55.24 102.6 55.34 C 102.37 54.37 101.94 53.79 101.31 53.62 C 101.34 55.56 100.07 60.13 103.3 59.99 C 104.29 60.86 104.73 62.49 106.26 62.16 C 106.7 60.98 107.16 59.81 107.66 58.66 C 108.25 59.1 108.85 59.55 109.46 59.98 C 110.1 58.71 110.72 57.44 111.43 56.21 C 110.75 59.91 111.46 63.56 111.19 67.26 C 109.71 70.22 110.45 73.51 109.05 76.53 C 107.88 81.19 106.1 85.81 104.42 90.33 C 104.7 95.41 105.19 101.79 102.51 106.31 C 102.27 109.52 102.34 112.73 102.16 115.94 C 101.51 116.93 100.73 117.7 99.81 118.24 C 97.61 117.55 97.97 115.59 98.38 113.81 C 97.86 114.01 97.35 114.22 96.84 114.43 C 96.8 113 96.94 111.58 97.26 110.16 C 97.49 111.46 97.93 112.21 98.58 112.39 C 98.37 111.32 98.18 110.23 98 109.15 C 99.28 107.37 101.74 105.44 102.58 103.53 C 101.12 101.86 100.46 99.81 99.76 97.7 C 100.38 97.36 101 97.01 101.61 96.64 C 98.89 95.87 97.59 99.26 94.59 99.29 C 94.27 97.81 93.92 95.43 95.15 94.27 L 96.39 95.21 C 96.29 93.88 96.61 92.75 97.35 91.82 C 98.57 91.32 98.72 92.56 99.38 93.27 C 99.03 90.94 100.19 89.14 100.42 86.88 C 101.65 85.1 102.94 83.35 104.04 81.49 C 103.94 77.44 106.19 74.6 105.34 70.57 C 104.42 73.7 104.2 76.4 100.99 78.05 L 100.31 76.74 C 98.06 77.23 94.7 74.05 93.15 76.62 C 93.44 78.69 94.02 80.65 93.99 82.77 C 93.35 83.64 92.73 84.53 92.15 85.44 C 91.71 82.02 91.64 78.82 91.74 75.39 C 90.46 75.8 89.8 77.65 88.91 78.62 C 88.72 80.42 88.9 82.69 87.46 84.04 C 85.91 85.55 84.71 84.33 83.03 83.87 C 83 82.22 84.42 80.1 82.42 79.18 C 81.15 79.9 79.8 81.13 78.81 82.21 C 80.06 82.22 81.02 82.55 81.68 83.22 C 80.21 86.79 77.63 83.16 74.75 83.62 C 72.67 83.99 72.05 80.27 71.06 78.99 L 72.72 78.23 C 74.22 78.24 74.83 79.1 74.55 80.81 C 77.73 81.4 78.65 78.81 80.61 76.87 C 80.08 77.36 79.55 77.84 79.02 78.32 C 77.24 77.13 73.22 78.13 73.22 75.47 C 72.76 71.03 75.42 66.41 75.16 61.82 C 75.69 61.94 76.22 62.08 76.75 62.21 C 77.6 60.23 77.31 58.93 76.03 57.23 C 78.09 55.26 78.25 57.01 80.05 58.07 C 80.97 57.03 81.32 55.78 82.93 55.69 C 84.92 57.83 84.09 58.25 82.92 60.4 C 84.06 61.72 84.35 63.74 86.47 63.18 C 85.86 62.21 85.16 61.31 84.65 60.28 C 85.44 59.52 86.28 59.7 87.18 60.82 C 87.71 60.33 88.24 59.85 88.79 59.38 C 90.39 59.77 91.76 61.03 93.25 61.75 C 93.91 61.37 94.2 60.81 94.39 60.09 C 92.41 59.78 89.84 59.85 91.47 56.99 L 93.26 56.87 C 93.63 55.7 93.83 54.54 93.84 53.39 C 91.32 52.4 91.71 55.25 89.55 54.86 C 89.91 53.49 90.24 52.12 90.49 50.73 C 89.93 51.27 89.36 51.81 88.79 52.35 C 87.81 52.13 87.62 51.14 88.23 49.36 C 86.95 47.75 87.61 46.05 86.51 44.58 C 85.41 44.42 84.4 45.59 83.5 46.11 C 82.24 47.27 80.86 46.87 79.28 47 C 77.81 44.19 81.65 45.93 80.55 42.69 C 79.94 43.24 79.32 43.79 78.69 44.32 C 76.78 43.81 74.99 42.5 74.25 40.58 C 72.33 41.98 73.12 42.28 74.32 43.79 C 74.42 45.62 74.28 47.42 76.25 48.29 C 76.54 46.96 76.95 46.45 77.47 46.78 C 78.36 49.28 79.74 49.14 81.49 50.51 C 81.68 52.6 80.47 53.44 79.34 54.94 C 78.35 56.59 76.6 55.86 75.38 54.9 C 75.19 53.59 74.62 52.56 74.1 51.37 C 75.01 50.03 75.85 47.49 73.21 48.92 C 72.97 51.41 73.37 53.76 73.45 56.24 C 72.12 55.01 71.12 53.54 70.23 51.97 C 69.97 51.11 70.68 48.27 69.27 48.45 C 69.14 49.62 68.89 50.74 68.52 51.84 C 68.92 52.28 69.33 52.72 69.74 53.16 C 69.51 54.58 69.1 55.96 68.51 57.3 C 69.4 57.84 70.33 57.66 71.3 56.77 C 71.44 58.35 72.21 58.82 73.21 59.88 C 73.36 61.98 73.45 64.09 73.57 66.2 C 72.24 64.23 72.63 59.91 70.96 57.95 C 69.63 57.89 68.3 57.88 66.96 57.95 C 67.14 60.11 69.53 59.99 69.58 62.2 C 68.43 62.05 67.56 61.02 66.62 60.38 C 66.04 60.63 65.45 60.89 64.87 61.15 C 65.11 58.88 64.63 57.42 63.77 55.39 C 63.34 53.02 66.25 50.81 67.53 49.05 C 67.77 46.83 65.1 44.81 66.68 42.63 C 67.27 43.38 67.81 44.06 68.31 44.69 C 68.42 43.91 68.43 43.08 68.33 42.19 L 69.91 42.41 C 68.88 44.4 71.28 44.88 70.82 42.54 C 71.05 41.84 71.32 41.17 71.65 40.52 C 73.9 38.82 76.13 36.83 78.69 35.62 C 79.04 36.49 79.39 37.37 79.73 38.24 C 81.49 37.74 85.44 39.05 85.36 36.3 C 83.84 33.93 81.1 34.53 79.09 32.63 C 77.06 34.31 74.92 35.9 72.77 37.43 C 71.73 38.33 70.63 38.11 69.36 38.07 C 68.21 35.33 64.98 33.69 62.49 32.35 C 62.31 33.75 63.34 35.01 63.59 36.4 C 62.1 38.88 61.61 41.63 60.98 44.42 C 59.82 46.76 59.02 43.48 59.45 42.35 C 59.95 41.31 60.13 40.34 59.97 39.43 C 58.75 39.53 58.18 40.15 57.36 40.93 C 56.41 38.46 55.41 40.02 54.16 41.13 C 54.26 40.19 54.21 39.3 54 38.44 L 53 38.73 C 51.56 41.18 49.27 42.65 47.38 44.74 C 46.85 44.76 46.31 44.76 45.78 44.75 C 44.9 46.53 44.1 45.95 42.4 45.88 C 42.03 45.24 41.56 44.77 41.01 44.46 C 41.31 48.64 40.96 52.46 42.4 56.5 C 43.26 59.87 45 63.13 46.43 66.35 L 48.58 66.25 C 48.74 63.98 46.72 63.29 46.71 61.29 C 48.11 61.11 48.61 63.88 49.39 64.8 C 48.57 67.13 48.77 66.32 50.01 68.34 C 48.94 71.72 47.5 73.61 48.76 77.36 C 48.09 81.85 48.22 86.27 48.63 90.71 L 50.06 91.04 C 51.23 89.46 50.27 87.32 50.45 85.39 C 50.61 83.07 50.23 80.84 49.89 78.55 L 50.52 78.61 C 50.5 80.12 50.53 81.5 50.99 82.95 C 51.64 86.54 50.31 92.03 51.96 95.16 L 52.93 95.3 C 53.32 92.05 53.65 89.27 54.71 86.14 C 58.59 86.45 55.66 89.2 55.43 91.37 C 55.06 95.19 55.38 99.1 52.64 102.24 C 51.64 102.07 50.65 101.89 49.66 101.72 C 48.36 102.71 47.1 103.65 47.02 105.41 C 46.76 107.38 45.94 109.22 43.8 107.49 C 42.8 104.11 42.49 100.9 42.53 97.38 C 41.75 94.8 41.56 92.79 41.65 90.12 C 42.52 88.94 43.29 87.7 44.05 86.45 C 43.13 85.4 42.82 84.57 43.11 83.95 C 44.95 83.94 46.08 83.45 46.5 82.49 C 46.12 81.43 45.72 80.37 45.3 79.32 C 46.36 78.69 46.99 77.91 47.19 76.97 L 45.4 76.79 C 47.41 75.45 47.13 72.51 45.09 71.27 C 45.83 70.33 46.3 69.34 46.51 68.29 C 44.31 66.76 39.95 64.31 37.25 64.86 L 37.02 66.19 C 36.84 65.61 36.5 65.33 36 65.36 L 36.28 67.74 C 33.89 67.23 32.34 66.31 29.76 66.57 C 28.83 65.59 27.96 64.52 26.97 63.6 C 27.18 64.57 27.67 65.48 28.43 66.31 C 28.77 72.57 27.36 78.23 26.28 84.36 C 26.06 85.89 26.97 87.23 25.44 88.14 C 27.55 85.74 24.18 83.64 23.61 81.41 C 24.5 80.62 25.44 79.88 26.29 79.05 C 26.58 76.74 24.9 75.52 25.19 73.21 C 25.45 71.39 24.7 69.76 25.3 68 C 24.94 67.64 24.58 67.29 24.2 66.94 C 24.29 66.2 24.4 65.46 24.52 64.72 C 24.05 64.41 23.58 64.1 23.12 63.79 C 23.92 63.45 24.68 63.02 25.38 62.53 C 24.92 61.63 23.98 61.19 22.55 61.23 C 22.32 60.55 22.6 59.75 23.37 58.83 C 17.06 57.4 11.12 53.9 5.92 50.15 C 4.38 49.18 3.33 46.88 1.54 46.39 C 0.66 48.33 1.32 49.91 3.64 49.81 C 2.44 50.06 1.68 50.57 1.37 51.34 C 2.93 53.32 4.47 52.53 6.64 52.71 C 5.26 53.69 3.43 52.41 2.31 54.45 C 2.69 55.61 4 54.69 4.9 55.15 C 7.5 56.93 9.89 55.09 12.49 55.79 C 11.99 58.05 13.95 58.68 13.21 61.19 C 14.09 62.63 15.33 63.62 15.62 65.38 C 16.96 70.66 18.7 75.79 20.24 81.01 C 20.8 83.03 19.48 86.54 21.07 87.99 C 21.59 88.22 21.96 87.75 22.17 86.57 C 22.62 88.3 22.54 88.29 24.33 88.84 C 24.45 89.69 24.61 90.53 24.81 91.37 C 24.13 90.92 23.45 90.47 22.77 90.03 C 21.84 91.78 21.36 93.34 19.72 94.64 C 18.57 98.01 18.6 101.37 18.25 104.87 C 16.54 106.29 16.56 109.35 16.06 111.41 C 15.55 110.5 14.1 109.24 14.3 108.13 L 15.69 107.55 C 15.67 105.2 16.14 102.96 16.42 100.65 C 15.85 99.89 15.27 99.13 14.69 98.38 C 15.06 97.75 15.72 97.29 16.69 97 L 17.19 95.93 C 16.04 96.1 14.9 96.32 13.77 96.6 C 14.12 95.91 14.35 95.22 14.45 94.53 C 13.27 94.53 12.38 94.87 11.8 95.55 C 11.65 96.41 12.31 96.76 13.77 96.6 C 14.06 98.14 11.77 97.98 11.12 99.17 L 11.19 101.46 C 10.96 98.2 10.37 95.04 10.63 91.75 C 13.45 91.33 16.15 91.73 18.79 92.77 L 19.71 92.46 C 18.76 89.96 13.3 89.87 10.97 90.07 C 10.67 83.93 10.35 77.06 7.59 71.45 C 5.5 65.08 2.83 58.79 1.28 52.28 C 1.19 50.36 0.87 49.09 0 47.38 C 0.66 45.57 1.73 44.57 1.44 42.47 C 1.35 41.04 2.39 40.74 3.22 39.8 C 3.85 34.52 7.23 29.45 8.52 24.19 C 9.72 23.77 11.71 23.11 12.14 21.78 C 13.33 18.29 16.74 17.46 17.07 13.45 C 18.39 15.12 20.19 15.19 21.92 16.18 C 23.02 17.07 24.05 18 25.23 18.78 C 25.06 19.39 24.9 20 24.74 20.6 C 26.47 21.78 29.72 20.57 31.32 19.43 L 31.77 19.38 C 32.12 21.25 29.5 22.94 30.64 24.75 C 31.56 26.14 31.43 28.05 33.53 27.89 C 32.57 26.48 31.33 25.11 30.83 23.49 C 31.54 21.04 32.55 18.31 34.94 17.08 C 35.61 17.42 36.27 17.81 36.9 18.24 C 37.05 17.31 37.16 16.37 37.23 15.43 C 38.18 16.22 38.15 17.25 38.6 18.33 C 39.41 18.34 39.97 17.72 40.28 16.49 C 40.52 17.64 39.98 19.59 41.87 19.14 L 42.17 17.71 C 42.38 18.13 42.59 18.55 42.82 18.96 C 43.26 18.97 43.7 19 44.13 19.02 C 45.25 20.71 46.29 20.72 48.15 20.98 C 48.8 25.01 51.75 23.82 54.33 25.89 C 55.87 27.26 57.56 27.04 59.49 27.09 C 60.68 26.56 61.7 25.05 63.05 26 C 64.37 27.9 64.99 29.93 67.55 30.38 C 66.19 25.93 62.4 24.57 58.82 22.22 L 58.83 21.39 C 61.18 20.41 61.53 17.89 64.29 18.57 C 65.33 17.59 66.35 16.6 67.37 15.61 C 65.88 16.11 65.43 17.69 63.97 18.2 C 60.96 17.81 60.24 21.73 56.86 21.44 C 55.25 20.57 53.65 19.7 51.9 19.11 C 49.02 18.19 47.14 15.89 44.41 14.79 C 41.69 13.76 39.42 11.97 36.64 11.08 C 35.87 11.2 35.18 11.59 34.58 12.25 C 32.16 10.94 31.88 12.27 30.41 13.71 C 29.3 13.95 28.54 12.87 27.82 14.51 C 27.83 16.47 29.07 16.6 30.73 16.46 L 31.3 16.98 C 29.58 16.93 27.86 16.94 26.14 16.94 C 26.32 16.11 26.49 15.28 26.65 14.45 C 25.42 13.61 23.57 12.09 24.1 10.4 C 24.76 8.42 22.46 7.32 21.99 5.32 C 21.29 3.53 20.67 3.33 18.84 3 C 19.71 1.56 21 0.15 22.78 0 Z" style="fill: rgb(191, 161, 142);"/>
  <path d="M 17.96 115.61 C 20.14 115.54 17.89 118.41 16.91 117.35 C 16.48 116.4 16.83 115.82 17.96 115.61 Z M 12.93 109.61 C 13.8 109.96 14.63 110.43 15.4 111.01 C 15.01 112.86 15.84 117.15 13.47 117.75 C 13.42 118.95 13.81 120.09 13.45 121.38 L 11.35 121.38 C 11.43 119.76 11.48 118.13 11.58 116.51 L 10.73 116.58 C 10.82 117.85 10.56 118.46 9.93 118.41 C 10.37 117.02 10.28 115.77 9.66 114.65 C 10.67 114.47 11.51 114.63 12.48 114.89 C 12.57 113.54 11.56 110.2 12.93 109.61 Z M 11.04 109.36 C 11.21 110.68 11.47 111.96 11.8 113.2 C 11.11 113.39 10.46 113.39 9.86 113.21 L 10.11 111.7 C 9.76 109.96 10.07 109.18 11.04 109.36 Z M 13.57 104.39 L 14.65 104.18 L 14.79 105.22 L 13.77 105.42 L 13.57 104.39 Z M 17.79 108.53 L 18.53 108.53 C 19.01 109.92 18.74 110.52 17.75 110.33 L 17.36 109.43 L 17.79 108.53 Z M 101.61 96.64 C 101 97.01 100.38 97.36 99.76 97.7 C 100.46 99.81 101.12 101.86 102.58 103.53 C 101.74 105.44 99.28 107.37 98 109.15 C 98.18 110.23 98.37 111.32 98.58 112.39 C 97.93 112.21 97.49 111.46 97.26 110.16 C 96.53 108.88 96.17 107.44 96.2 105.84 C 97.43 106.1 98.65 106.21 99.86 106.14 C 98.38 105.09 96.79 106.2 95.5 104.35 C 95.37 102.58 95.39 100.93 94.59 99.29 C 97.59 99.26 98.89 95.87 101.61 96.64 Z M 13.77 96.6 C 14.9 96.32 16.04 96.1 17.19 95.93 L 16.69 97 C 15.72 97.29 15.06 97.75 14.69 98.38 C 15.27 99.13 15.85 99.89 16.42 100.65 C 16.14 102.96 15.67 105.2 15.69 107.55 L 14.3 108.13 L 14.54 106.44 C 14.06 106.69 13.57 106.94 13.08 107.18 C 12.97 106 12.56 105.24 11.86 104.93 C 11.93 106.19 12.01 107.46 12.09 108.72 L 10.09 109.26 C 10.38 107.16 10.31 105.02 10.68 102.93 C 11.34 103.45 12.02 103.93 12.72 104.38 C 12.83 103.12 12.32 102.14 11.19 101.46 L 11.12 99.17 C 11.77 97.98 14.06 98.14 13.77 96.6 Z M 12.81 92.57 C 14.09 91.98 14.68 92.21 14.57 93.26 L 13.74 93.77 L 12.82 93.42 L 12.81 92.57 Z M 14.45 94.53 C 14.35 95.22 14.12 95.91 13.77 96.6 C 12.31 96.76 11.65 96.41 11.8 95.55 C 12.38 94.87 13.27 94.53 14.45 94.53 Z M 10.97 90.07 C 13.3 89.87 18.76 89.96 19.71 92.46 L 18.79 92.77 C 16.15 91.73 13.45 91.33 10.63 91.75 L 10.97 90.07 Z M 14.12 85.6 C 14.99 84.43 17.89 85.93 15.79 86.74 C 14.48 86.8 13.92 86.41 14.12 85.6 Z M 68.92 84.21 C 71.37 83.06 69.76 88.75 69.08 89 C 69.44 87.3 68.35 85.64 68.92 84.21 Z M 51.95 80.46 C 52.6 80.39 55.77 82.93 54.85 83.57 C 53.93 84.5 51.45 81.2 51.95 80.46 Z M 72.59 74.64 C 73.04 75.6 73.22 76.54 73.14 77.46 C 72.39 78.22 71.69 78.44 71.04 78.12 C 70.13 77.23 71.45 74.31 72.59 74.64 Z M 53.1 72.5 L 53.86 72.08 L 54.75 72.42 L 54.76 73.25 C 53.52 73.66 52.96 73.41 53.1 72.5 Z M 105.34 70.57 C 106.19 74.6 103.94 77.44 104.04 81.49 C 102.94 83.35 101.65 85.1 100.42 86.88 C 100.19 89.14 99.03 90.94 99.38 93.27 C 98.72 92.56 98.57 91.32 97.35 91.82 C 96.61 92.75 96.29 93.88 96.39 95.21 L 95.15 94.27 C 95.85 90.66 95.33 86.46 95.53 82.72 L 93.99 82.77 C 94.02 80.65 93.44 78.69 93.15 76.62 C 94.7 74.05 98.06 77.23 100.31 76.74 L 100.99 78.05 C 104.2 76.4 104.42 73.7 105.34 70.57 Z M 69.47 71.09 C 68.26 71.23 66.94 72.25 65.82 72.08 C 65.15 70.32 69.76 69.33 69.47 71.09 Z M 85.98 68.49 L 86.68 68.5 L 86.67 69.19 L 85.97 69.18 L 85.98 68.49 Z M 37.25 64.86 C 39.95 64.31 44.31 66.76 46.51 68.29 C 46.3 69.34 45.83 70.33 45.09 71.27 C 47.13 72.51 47.41 75.45 45.4 76.79 L 47.19 76.97 C 46.99 77.91 46.36 78.69 45.3 79.32 C 45.72 80.37 46.12 81.43 46.5 82.49 C 46.08 83.45 44.95 83.94 43.11 83.95 C 42.82 84.57 43.13 85.4 44.05 86.45 C 43.29 87.7 42.52 88.94 41.65 90.12 C 40.71 87.78 41.94 85.64 40.26 83.53 C 40.47 81.4 40.47 80.42 39.39 78.54 C 39.83 74.46 37.39 70.1 37.02 66.19 L 37.25 64.86 Z M 100.63 61.52 C 100.99 62.52 101.48 63.33 102.1 63.93 C 102.89 63.89 103.69 63.87 104.49 63.84 C 104.92 64.04 105.26 64.39 105.48 64.9 C 102.11 65.42 103.87 67.87 103.57 70.24 C 102.51 69.3 101.6 68.97 100.84 69.24 C 101.58 71.17 103.12 71.59 102.37 73.98 C 100.29 73.67 98.58 74.32 96.88 72.8 C 95.22 72.55 94.46 73.93 92.96 74.48 C 93.64 71.48 96.25 68.93 97.35 65.97 C 98.1 64.79 99.23 61.74 100.63 61.52 Z M 23.8 53.58 L 24.69 53.49 L 24.61 54.37 L 23.63 54.55 L 23.8 53.58 Z M 109.13 52.61 C 110.94 52.73 111.31 53.12 112.44 54.6 L 111.43 56.21 C 110.72 57.44 110.1 58.71 109.46 59.98 C 108.85 59.55 108.25 59.1 107.66 58.66 C 107.16 59.81 106.7 60.98 106.26 62.16 C 104.73 62.49 104.29 60.86 103.3 59.99 C 100.07 60.13 101.34 55.56 101.31 53.62 C 101.94 53.79 102.37 54.37 102.6 55.34 C 103.38 55.24 103.98 54.68 104.4 53.65 C 104.23 54.61 104.26 55.51 104.49 56.36 C 105.39 56.27 106.13 55.7 106.7 54.67 C 107.26 54.83 107.83 54.99 108.39 55.14 C 108.63 54.3 108.88 53.45 109.13 52.61 Z M 26.68 49.3 C 27.21 49.81 24.49 52.37 23.96 51.95 C 22.75 50.53 25.44 48.82 26.68 49.3 Z M 1.54 46.39 C 3.33 46.88 4.38 49.18 5.92 50.15 C 11.12 53.9 17.06 57.4 23.37 58.83 C 22.6 59.75 22.32 60.55 22.55 61.23 C 23.98 61.19 24.92 61.63 25.38 62.53 C 24.68 63.02 23.92 63.45 23.12 63.79 C 23.58 64.1 24.05 64.41 24.52 64.72 C 24.4 65.46 24.29 66.2 24.2 66.94 C 24.58 67.29 24.94 67.64 25.3 68 C 24.7 69.76 25.45 71.39 25.19 73.21 C 24.9 75.52 26.58 76.74 26.29 79.05 C 25.44 79.88 24.5 80.62 23.61 81.41 C 24.18 83.64 27.55 85.74 25.44 88.14 C 25.03 89.7 25.08 91.22 25 92.79 C 23.04 97.14 23.62 102 22.28 106.47 C 21.51 109.95 23.32 112.93 22.05 116.42 C 21.11 117.82 21.82 119.74 21.49 121.38 L 17.02 121.38 C 17.16 120.42 17.29 119.46 17.42 118.5 C 16.83 119.7 16.06 120.63 15.11 121.3 C 14.21 118.15 16.54 114.44 16.06 111.41 C 16.56 109.35 16.54 106.29 18.25 104.87 C 18.6 101.37 18.57 98.01 19.72 94.64 C 21.36 93.34 21.84 91.78 22.77 90.03 C 23.45 90.47 24.13 90.92 24.81 91.37 C 24.61 90.53 24.45 89.69 24.33 88.84 C 22.54 88.29 22.62 88.3 22.17 86.57 C 21.68 77.89 17.12 69.48 16.29 60.89 C 15.44 60.32 15.22 59.53 15.63 58.52 C 14.7 57.5 13.57 56.64 12.49 55.79 C 9.89 55.09 7.5 56.93 4.9 55.15 C 4 54.69 2.69 55.61 2.31 54.45 C 3.43 52.41 5.26 53.69 6.64 52.71 C 4.47 52.53 2.93 53.32 1.37 51.34 C 1.68 50.57 2.44 50.06 3.64 49.81 C 1.32 49.91 0.6599999999999999 48.33 1.54 46.39 Z M 16.09 39.39 C 15.3 40.63 13.01 41.68 12.9 39.36 C 13.03 36.88 15.26 37.89 16.09 39.39 Z M 111.72 37.44 C 112.94 37.81 114.05 38.4 115.23 38.85 C 117.23 39.11 119.69 37.8 120.48 40.45 C 119.83 41.39 119.21 42.36 118.63 43.35 C 117.85 43.85 117.22 44.46 116.74 45.19 C 115.96 44.71 115.55 43.84 115.5 42.58 C 113.35 40.83 113.14 43.8 110.46 42.91 C 111.05 44.46 109.93 45.46 110.1 46.88 C 111.18 47.2 111.81 47.71 111.99 48.4 C 110.96 48.86 109.84 49.06 108.62 49.02 C 106.42 46.52 102.83 46.01 99.93 47.58 C 98.24 49.08 99.94 52.3 98.38 54.11 C 98.32 52.49 98.05 50.93 97.77 49.34 C 97.8 46.83 98.88 44.21 99.39 41.77 C 101.3 41.67 102.28 42.98 104.07 43.1 C 104.96 42 104.77 40.87 103.52 39.7 C 104.45 38.52 104.57 39.81 105.7 40.18 C 107.82 39.54 109.6 38 111.72 37.44 Z M 7.08 37.65 C 8.12 37.4 9.23 37.42 10.43 37.69 C 11.08 39.12 6.29 39.28 7.08 37.65 Z M 90.29 35.05 L 90.34 35.16 C 90.77 36.55 91.09 38 91.57 39.38 C 92.41 40.23 94.94 40.93 94.69 42.32 C 94 42.26 93.4 41.9 92.9 41.26 C 90.8 38.71 87.49 39.67 86.72 35.45 C 88.01 36.02 88.6 37.25 90.09 37.28 L 90.19 35.16 L 90.29 35.05 Z M 87.78 33.89 C 89.28 33.83 86.4 33.92 87.78 33.89 Z M 62.49 32.35 C 64.98 33.69 68.21 35.33 69.36 38.07 C 70.63 38.11 71.73 38.33 72.77 37.43 C 74.92 35.9 77.06 34.31 79.09 32.63 C 81.1 34.53 83.84 33.93 85.36 36.3 C 85.44 39.05 81.49 37.74 79.73 38.24 C 79.39 37.37 79.04 36.49 78.69 35.62 C 76.13 36.83 73.9 38.82 71.65 40.52 C 71.32 41.17 71.05 41.84 70.82 42.54 L 69.91 42.41 L 68.33 42.19 C 68.43 43.08 68.42 43.91 68.31 44.69 C 67.81 44.06 67.27 43.38 66.68 42.63 C 65.1 44.81 67.77 46.83 67.53 49.05 C 66.25 50.81 63.34 53.02 63.77 55.39 C 64.63 57.42 65.11 58.88 64.87 61.15 C 65.45 60.89 66.04 60.63 66.62 60.38 C 67.56 61.02 68.43 62.05 69.58 62.2 C 69.53 59.99 67.14 60.11 66.96 57.95 C 68.3 57.88 69.63 57.89 70.96 57.95 C 72.63 59.91 72.24 64.23 73.57 66.2 C 73.45 64.09 73.36 61.98 73.21 59.88 C 72.21 58.82 71.44 58.35 71.3 56.77 C 70.33 57.66 69.4 57.84 68.51 57.3 C 69.1 55.96 69.51 54.58 69.74 53.16 C 69.33 52.72 68.92 52.28 68.52 51.84 C 68.89 50.74 69.14 49.62 69.27 48.45 C 70.68 48.27 69.97 51.11 70.23 51.97 C 71.12 53.54 72.12 55.01 73.45 56.24 C 73.37 53.76 72.97 51.41 73.21 48.92 C 75.85 47.49 75.01 50.03 74.1 51.37 C 74.62 52.56 75.19 53.59 75.38 54.9 C 76.6 55.86 78.35 56.59 79.34 54.94 C 80.47 53.44 81.68 52.6 81.49 50.51 C 79.74 49.14 78.36 49.28 77.47 46.78 C 76.95 46.45 76.54 46.96 76.25 48.29 C 74.28 47.42 74.42 45.62 74.32 43.79 C 73.12 42.28 72.33 41.98 74.25 40.58 C 74.99 42.5 76.78 43.81 78.69 44.32 C 79.32 43.79 79.94 43.24 80.55 42.69 C 81.65 45.93 77.81 44.19 79.28 47 C 80.86 46.87 82.24 47.27 83.5 46.11 C 84.4 45.59 85.41 44.42 86.51 44.58 C 87.61 46.05 86.95 47.75 88.23 49.36 C 87.62 51.14 87.81 52.13 88.79 52.35 C 89.36 51.81 89.93 51.27 90.49 50.73 C 90.24 52.12 89.91 53.49 89.55 54.86 C 91.71 55.25 91.32 52.4 93.84 53.39 C 93.83 54.54 93.63 55.7 93.26 56.87 L 91.47 56.99 C 89.84 59.85 92.41 59.78 94.39 60.09 C 94.2 60.81 93.91 61.37 93.25 61.75 C 91.76 61.03 90.39 59.77 88.79 59.38 C 88.24 59.85 87.71 60.33 87.18 60.82 C 86.28 59.7 85.44 59.52 84.65 60.28 C 85.16 61.31 85.86 62.21 86.47 63.18 C 84.35 63.74 84.06 61.72 82.92 60.4 C 84.09 58.25 84.92 57.83 82.93 55.69 C 81.32 55.78 80.97 57.03 80.05 58.07 C 78.25 57.01 78.09 55.26 76.03 57.23 C 77.31 58.93 77.6 60.23 76.75 62.21 C 76.22 62.08 75.69 61.94 75.16 61.82 C 75.42 66.41 72.76 71.03 73.22 75.47 C 73.22 78.13 77.24 77.13 79.02 78.32 C 79.55 77.84 80.08 77.36 80.61 76.87 C 78.65 78.81 77.73 81.4 74.55 80.81 C 74.83 79.1 74.22 78.24 72.72 78.23 L 71.06 78.99 C 72.05 80.27 72.67 83.99 74.75 83.62 C 77.63 83.16 80.21 86.79 81.68 83.22 C 81.02 82.55 80.06 82.22 78.81 82.21 C 79.8 81.13 81.15 79.9 82.42 79.18 C 84.42 80.1 83 82.22 83.03 83.87 C 84.71 84.33 85.91 85.55 87.46 84.04 C 88.9 82.69 88.72 80.42 88.91 78.62 C 89.8 77.65 90.46 75.8 91.74 75.39 C 91.64 78.82 91.71 82.02 92.15 85.44 C 90.6 87.18 91.99 91.44 89.09 91.13 C 87.87 89.2 87.01 87.99 84.64 87.55 L 83.93 85.87 C 81.17 86.15 78.61 86.36 75.88 85.53 C 75.83 88.71 77.08 90.59 77.63 93.46 C 76.61 94.02 75.36 94.08 73.87 93.64 L 74.38 91.53 C 73.94 92.12 73.6 92.74 73.35 93.4 C 74.43 94.09 75.31 94.92 76.01 95.91 C 75.43 96.77 74.78 97.57 74.04 98.3 C 74.76 98.08 75.42 97.67 76.01 97.08 C 76.06 94.58 75.52 94.67 78.26 93.68 C 78.7 95.82 78.44 97.33 77.47 98.22 C 77.04 100.96 75.65 103.17 72.58 103.31 C 73.76 103.53 74.63 103.33 75.73 104.13 C 74.07 105.63 73.74 106.85 71.44 105.86 C 70.6 104.24 69.91 103.09 70.17 101.18 C 68.27 98.77 68.91 94.78 67.45 92.4 C 67.15 88.38 65.52 84.35 64.78 80.36 C 63.29 78.12 63.39 76.01 62.47 73.67 C 61.74 73.61 61.01 73.57 60.27 73.55 L 59.98 75.36 C 58.29 78.08 58.12 80.77 58.07 83.93 C 57.44 84.8 56.3 86.36 55.08 85.77 L 54.71 86.14 C 53.65 89.27 53.32 92.05 52.93 95.3 L 51.96 95.16 C 50.31 92.03 51.64 86.54 50.99 82.95 C 50.53 81.5 50.5 80.12 50.52 78.61 L 49.89 78.55 C 50.23 80.84 50.61 83.07 50.45 85.39 C 50.27 87.32 51.23 89.46 50.06 91.04 L 48.63 90.71 C 48.22 86.27 48.09 81.85 48.76 77.36 C 47.5 73.61 48.94 71.72 50.01 68.34 C 48.77 66.32 48.57 67.13 49.39 64.8 C 48.61 63.88 48.11 61.11 46.71 61.29 C 46.72 63.29 48.74 63.98 48.58 66.25 L 46.43 66.35 C 45 63.13 43.26 59.87 42.4 56.5 C 40.96 52.46 41.31 48.64 41.01 44.46 C 41.56 44.77 42.03 45.24 42.4 45.88 C 44.1 45.95 44.9 46.53 45.78 44.75 C 46.31 44.76 46.85 44.76 47.38 44.74 C 49.27 42.65 51.56 41.18 53 38.73 L 54 38.44 C 54.21 39.3 54.26 40.19 54.16 41.13 C 55.41 40.02 56.41 38.46 57.36 40.93 C 58.18 40.15 58.75 39.53 59.97 39.43 C 60.13 40.34 59.95 41.31 59.45 42.35 C 59.02 43.48 59.82 46.76 60.98 44.42 C 61.61 41.63 62.1 38.88 63.59 36.4 C 63.34 35.01 62.31 33.75 62.49 32.35 Z M 39.51 26.55 C 39.45 33.36 38.64 40.84 40.14 47.37 C 39.88 51.87 41.57 55.52 42.75 59.69 C 43.91 61.34 44.8 63.11 45.61 64.95 C 42.93 66.35 41.92 63.35 39.03 64.14 C 36.58 62.19 35 60.06 32.39 58.34 C 32.63 57.24 33.3 56.64 34.41 56.54 C 32.01 55.99 33.65 52.18 33.08 50.24 C 32.2 48.99 32.55 47.48 31.67 46.35 C 32.25 43.25 32.86 39.15 31.1 36.35 C 31.41 33.98 34.42 32.56 34.99 30.41 C 35.41 29.18 35.06 27.71 36.72 27.45 C 36.77 28.45 35.19 30.7 36.72 30.94 C 39.9 31.24 37.21 27.06 39.51 26.55 Z M 88.52 21.59 C 87.71 22.67 86.54 23.37 85.48 24.26 C 84.86 25.82 84.35 27.26 84.39 28.98 C 81.42 29.43 78.73 30.75 75.8 31.25 C 76.05 29.94 78.11 29.36 79.08 28.56 C 79.42 27.51 78.92 26.21 79.59 25.3 C 80.43 23.44 82.11 22.95 83.77 22.02 C 86.13 23.72 86.34 22 88.52 21.59 Z M 17.8 15.33 C 19.49 16.34 21.21 16.06 22.11 18.04 C 23.02 19.58 24.79 20.83 24.82 22.64 C 23.37 22.73 21.81 22.51 20.39 22.82 C 20.16 23.66 19.95 24.49 19.76 25.34 C 20.12 26.13 20.49 26.92 20.88 27.71 C 23.01 26.89 24.44 22.68 26.83 21.46 L 28.07 22.07 C 26.78 24.44 24.49 26.35 22.18 27.69 C 22.48 28.09 22.79 28.47 23.1 28.85 C 21.68 28.5 20.45 29 20.03 30.46 C 19.78 32.13 20.23 34.42 19.28 35.86 C 18.09 37.34 18.26 38.74 18.28 40.53 C 19.33 41.53 20.42 41.98 21.74 42.51 C 21.74 44.12 21.9 45.78 21.65 47.37 C 20.96 46.28 20.25 45.58 19.52 45.28 C 19.23 46.27 19.31 47.34 19.78 48.48 C 21.93 48.87 22.89 52.75 22.07 54.53 L 22.01 55.28 L 21.28 56.06 C 21.86 53.45 19.67 52.67 18.37 50.78 C 16.73 48.52 14.36 48.27 12.02 47.05 C 11.69 46.57 11.38 46.07 11.09 45.57 C 13.01 46.1 14.88 46.78 16.74 47.49 C 17.62 47.17 17.9 46.51 17.57 45.51 C 16.75 42.67 17.17 40 17.32 37.09 C 18.08 35.8 19.15 35.08 18.67 33.39 C 18.02 31.84 17.72 31.02 18.12 29.34 C 17.53 26.6 17.33 23.94 15.79 21.55 C 15.86 19.4 17.35 17.46 17.8 15.33 Z M 36.52 13.48 C 36.07 15.07 33.3 18.86 31.58 17.69 L 31.43 16.61 C 33.14 15.71 34.68 13.97 36.52 13.48 Z M 34.58 12.25 C 33.44 13.86 32.27 15.22 30.73 16.46 C 29.07 16.6 27.83 16.47 27.82 14.51 C 28.54 12.870000000000001 29.3 13.95 30.41 13.71 C 31.88 12.27 32.16 10.94 34.58 12.25 Z M 33.64 10.53 L 34.6 10.44 L 34.71 11.36 L 33.76 11.47 L 33.64 10.53 Z M 26.69 9.86 C 27.5 10.23 29.04 13.8 27.03 13.23 C 26.4 12.58 25.29 10.24 26.69 9.86 Z M 18.84 3 C 20.67 3.33 21.29 3.5300000000000002 21.99 5.32 C 22.46 7.32 24.76 8.42 24.1 10.4 C 23.57 12.09 25.42 13.61 26.65 14.45 C 26.49 15.28 26.32 16.11 26.14 16.94 C 27.86 16.94 29.58 16.93 31.3 16.98 L 31.32 19.43 C 29.72 20.57 26.47 21.78 24.74 20.6 C 24.9 20 25.06 19.39 25.23 18.78 C 24.05 18 23.02 17.07 21.92 16.18 C 20.19 15.19 18.39 15.12 17.07 13.45 L 16.14 12.59 C 16.14 11.22 16.45 9.97 17.06 8.85 C 16.89 6.45 17.9 5.06 18.84 3 Z" style="fill: rgb(87, 35, 0);"/>
</svg>