<?xml version="1.0" encoding="utf-8"?>
<svg viewBox="0 -235.945 4000 1235.945" xmlns="http://www.w3.org/2000/svg">
  <path d="M 824.4229921875 -28.09700004577637 L 765.8629921875 -102.94400004577636 Q 763.4839921875 -106.05500004577637 760.9219921875 -109.53200004577637 Q 758.3599921875 -113.00900004577636 755.7979921875 -116.66900004577637 L 755.6149921875 -116.66900004577637 L 755.9809921875 -59.93900004577637 Q 755.9809921875 -54.998000045776365 755.7979921875 -50.42300004577636 Q 755.6149921875 -45.84800004577637 755.2489921875 -43.46900004577637 Q 758.1769921875 -43.83500004577637 762.6604921875 -43.926500045776365 Q 767.1439921875 -44.01800004577637 768.9739921875 -44.01800004577637 L 768.9739921875 -29.927000045776367 L 727.2499921875 -29.927000045776367 L 727.2499921875 -42.00500004577637 Q 731.4589921875 -42.18800004577636 734.2954921875 -43.10300004577637 Q 737.1319921875 -44.01800004577637 738.6874921875 -47.312000045776365 Q 740.2429921875 -50.60600004577637 740.2429921875 -57.92600004577636 L 739.8769921875 -128.01500004577636 Q 739.8769921875 -132.95600004577636 740.0599921875 -137.53100004577635 Q 740.2429921875 -142.10600004577637 740.6089921875 -144.48500004577636 Q 737.6809921875 -144.30200004577637 733.1974921875 -144.21050004577637 Q 728.7139921875 -144.11900004577637 726.7009921875 -143.93600004577638 L 726.7009921875 -158.02700004577636 L 755.4319921875 -158.02700004577636 L 811.4299921875 -87.38900004577636 Q 816.0049921875 -81.53300004577636 819.0244921875 -77.32400004577636 Q 822.0439921875 -73.11500004577637 824.2399921875 -70.00400004577637 L 824.4229921875 -70.00400004577637 L 824.4229921875 -128.01500004577636 Q 824.4229921875 -132.95600004577636 824.6059921875 -137.53100004577635 Q 824.7889921875 -142.10600004577637 824.9719921875 -144.48500004577636 Q 822.0439921875 -144.30200004577637 817.6519921875 -144.21050004577637 Q 813.2599921875 -144.11900004577637 811.2469921875 -143.93600004577638 L 811.2469921875 -158.02700004577636 L 852.9709921875 -158.02700004577636 L 852.9709921875 -145.94900004577636 Q 848.9449921875 -145.76600004577637 846.0169921875 -144.85100004577635 Q 843.0889921875 -143.93600004577638 841.5334921875 -140.73350004577637 Q 839.9779921875 -137.53100004577635 839.9779921875 -130.02800004577637 L 839.9779921875 -28.09700004577637 Z M 912.800583984375 -29.927000045776367 Q 912.434583984375 -32.489000045776365 912.343083984375 -34.22750004577637 Q 912.251583984375 -35.96600004577637 912.068583984375 -38.34500004577637 Q 905.846583984375 -32.123000045776365 898.892583984375 -29.561000045776368 Q 891.938583984375 -26.999000045776366 884.801583984375 -26.999000045776366 Q 873.089583984375 -26.999000045776366 866.501583984375 -33.95300004577636 Q 859.913583984375 -40.90700004577637 859.913583984375 -51.33800004577637 Q 859.913583984375 -60.12200004577637 864.397083984375 -66.34400004577637 Q 868.880583984375 -72.56600004577636 876.292083984375 -76.50050004577636 Q 883.703583984375 -80.43500004577636 892.762083984375 -82.53950004577636 Q 901.820583984375 -84.64400004577637 910.970583984375 -85.01000004577637 L 910.970583984375 -94.52600004577637 Q 910.970583984375 -99.28400004577637 909.781083984375 -103.12700004577637 Q 908.591583984375 -106.97000004577636 905.755083984375 -109.16600004577637 Q 902.918583984375 -111.36200004577637 897.794583984375 -111.17900004577636 Q 894.317583984375 -110.99600004577637 891.023583984375 -109.71500004577636 Q 887.729583984375 -108.43400004577637 885.350583984375 -106.05500004577637 Q 886.814583984375 -104.40800004577636 887.180583984375 -102.48650004577637 Q 887.546583984375 -100.56500004577637 887.546583984375 -99.10100004577636 Q 887.546583984375 -95.44100004577636 884.618583984375 -91.50650004577636 Q 881.690583984375 -87.57200004577636 875.285583984375 -87.75500004577637 Q 869.795583984375 -87.93800004577636 866.867583984375 -91.59800004577636 Q 863.939583984375 -95.25800004577637 863.939583984375 -100.19900004577636 Q 863.939583984375 -107.51900004577637 869.155083984375 -112.91750004577636 Q 874.370583984375 -118.31600004577636 883.154583984375 -121.33550004577637 Q 891.938583984375 -124.35500004577636 902.552583984375 -124.35500004577636 Q 918.656583984375 -124.35500004577636 927.532083984375 -116.02850004577637 Q 936.407583984375 -107.70200004577636 936.407583984375 -89.40200004577636 Q 936.407583984375 -83.18000004577637 936.407583984375 -78.78800004577636 Q 936.407583984375 -74.39600004577636 936.316083984375 -70.00400004577637 Q 936.224583984375 -65.61200004577637 936.224583984375 -59.39000004577637 Q 936.224583984375 -56.82800004577636 936.0415839843749 -52.161500045776364 Q 935.858583984375 -47.495000045776365 935.492583984375 -43.28600004577637 Q 938.603583984375 -43.65200004577637 942.080583984375 -43.743500045776365 Q 945.557583984375 -43.83500004577637 947.3875839843749 -43.83500004577637 L 947.3875839843749 -29.927000045776367 Z M 910.787583984375 -72.01700004577637 Q 905.663583984375 -71.46800004577636 901.088583984375 -70.18700004577636 Q 896.513583984375 -68.90600004577637 893.128083984375 -66.71000004577637 Q 889.742583984375 -64.51400004577636 887.821083984375 -61.403000045776366 Q 885.899583984375 -58.29200004577636 885.899583984375 -54.449000045776366 Q 886.082583984375 -49.32500004577636 889.193583984375 -47.129000045776365 Q 892.304583984375 -44.93300004577637 896.330583984375 -44.93300004577637 Q 900.539583984375 -44.93300004577637 904.199583984375 -46.763000045776366 Q 907.859583984375 -48.593000045776364 910.787583984375 -51.52100004577637 Q 910.787583984375 -53.35100004577637 910.787583984375 -55.08950004577636 Q 910.787583984375 -56.82800004577636 910.787583984375 -58.65800004577636 Q 910.787583984375 -61.952000045776366 910.787583984375 -65.33750004577637 Q 910.787583984375 -68.72300004577636 910.787583984375 -72.01700004577637 Z M 993.3128056640625 -26.999000045776366 Q 987.8228056640625 -26.999000045776366 982.7903056640625 -28.28000004577637 Q 977.7578056640625 -29.561000045776368 973.6403056640625 -33.12950004577637 Q 969.5228056640625 -36.69800004577637 967.1438056640625 -43.65200004577637 Q 964.7648056640625 -50.60600004577637 964.7648056640625 -62.135000045776366 L 965.1308056640624 -106.23800004577636 L 952.6868056640625 -106.23800004577636 L 952.6868056640625 -121.42700004577637 Q 958.3598056640625 -121.61000004577636 963.6668056640625 -125.27000004577637 Q 968.9738056640625 -128.93000004577635 972.7253056640625 -134.78600004577635 Q 976.4768056640625 -140.64200004577637 977.7578056640625 -147.04700004577637 L 991.2998056640625 -147.04700004577637 L 991.1168056640624 -121.42700004577637 L 1014.3578056640625 -121.42700004577637 L 1014.3578056640625 -107.33600004577636 L 991.1168056640624 -106.78700004577637 L 990.9338056640624 -61.769000045776366 Q 990.9338056640624 -57.56000004577636 991.7573056640625 -53.44250004577637 Q 992.5808056640625 -49.32500004577636 994.9598056640625 -46.67150004577637 Q 997.3388056640625 -44.01800004577637 1001.9138056640625 -44.01800004577637 Q 1004.4758056640625 -44.01800004577637 1008.9593056640625 -45.84800004577637 Q 1013.4428056640625 -47.67800004577637 1018.5668056640625 -54.998000045776365 L 1027.3508056640626 -46.763000045776366 Q 1022.4098056640626 -39.443000045776365 1017.1028056640625 -35.41700004577637 Q 1011.7958056640625 -31.391000045776366 1006.9463056640625 -29.561000045776368 Q 1002.0968056640625 -27.73100004577637 998.4368056640625 -27.365000045776366 Q 994.7768056640625 -26.999000045776366 993.3128056640625 -26.999000045776366 Z M 1070.532681640625 -26.999000045776366 Q 1059.552681640625 -26.999000045776366 1052.873181640625 -31.208000045776366 Q 1046.193681640625 -35.41700004577637 1043.174181640625 -44.38400004577637 Q 1040.154681640625 -53.35100004577637 1040.154681640625 -67.44200004577637 L 1040.154681640625 -88.48700004577637 Q 1040.154681640625 -91.78100004577637 1040.337681640625 -96.08150004577637 Q 1040.520681640625 -100.38200004577637 1040.703681640625 -104.40800004577636 Q 1037.775681640625 -104.22500004577637 1033.841181640625 -104.13350004577637 Q 1029.906681640625 -104.04200004577636 1027.893681640625 -103.85900004577637 L 1027.893681640625 -117.76700004577637 L 1029.723681640625 -117.76700004577637 Q 1041.069681640625 -117.76700004577637 1047.657681640625 -119.59700004577637 Q 1054.245681640625 -121.42700004577637 1056.075681640625 -123.25700004577637 L 1066.140681640625 -123.25700004577637 L 1066.140681640625 -67.25900004577636 Q 1066.140681640625 -55.364000045776365 1069.251681640625 -49.59950004577637 Q 1072.362681640625 -43.83500004577637 1079.133681640625 -43.83500004577637 Q 1083.891681640625 -43.83500004577637 1088.741181640625 -46.48850004577636 Q 1093.590681640625 -49.14200004577637 1096.7016816406249 -52.61900004577637 L 1096.7016816406249 -88.48700004577637 Q 1096.7016816406249 -91.78100004577637 1096.884681640625 -96.08150004577637 Q 1097.067681640625 -100.38200004577637 1097.433681640625 -104.40800004577636 Q 1094.505681640625 -104.22500004577637 1090.571181640625 -104.13350004577637 Q 1086.636681640625 -104.04200004577636 1084.623681640625 -103.85900004577637 L 1084.623681640625 -117.76700004577637 L 1089.015681640625 -117.76700004577637 Q 1097.616681640625 -117.76700004577637 1104.204681640625 -119.68850004577637 Q 1110.792681640625 -121.61000004577636 1112.622681640625 -123.25700004577637 L 1122.687681640625 -123.25700004577637 L 1122.687681640625 -59.39000004577637 Q 1122.687681640625 -56.82800004577636 1122.504681640625 -52.161500045776364 Q 1122.321681640625 -47.495000045776365 1121.955681640625 -43.28600004577637 Q 1124.883681640625 -43.65200004577637 1128.452181640625 -43.743500045776365 Q 1132.020681640625 -43.83500004577637 1133.850681640625 -43.83500004577637 L 1133.850681640625 -29.927000045776367 L 1099.080681640625 -29.927000045776367 Q 1098.897681640625 -32.306000045776365 1098.623181640625 -34.68500004577637 Q 1098.348681640625 -37.06400004577637 1097.982681640625 -39.443000045776365 Q 1092.309681640625 -34.68500004577637 1085.813181640625 -30.842000045776366 Q 1079.316681640625 -26.999000045776366 1070.532681640625 -26.999000045776366 Z M 1145.7365205078124 -41.82200004577636 Q 1150.8605205078125 -41.82200004577636 1153.0565205078126 -43.83500004577637 Q 1155.2525205078125 -45.84800004577637 1155.8930205078125 -49.59950004577637 Q 1156.5335205078125 -53.35100004577637 1156.5335205078125 -58.10900004577637 L 1156.5335205078125 -88.85300004577637 Q 1156.5335205078125 -92.14700004577637 1156.7165205078124 -96.26450004577636 Q 1156.8995205078124 -100.38200004577637 1157.2655205078124 -104.40800004577636 Q 1154.3375205078125 -104.22500004577637 1150.4030205078125 -104.13350004577637 Q 1146.4685205078124 -104.04200004577636 1144.4555205078125 -103.85900004577637 L 1144.4555205078125 -117.76700004577637 L 1151.7755205078124 -117.76700004577637 Q 1158.9125205078126 -117.76700004577637 1164.8600205078126 -119.59700004577637 Q 1170.8075205078126 -121.42700004577637 1172.6375205078125 -123.25700004577637 L 1181.6045205078126 -123.25700004577637 Q 1181.9705205078126 -121.42700004577637 1182.1535205078126 -116.39450004577637 Q 1182.3365205078126 -111.36200004577637 1182.3365205078126 -107.51900004577637 Q 1187.2775205078126 -113.55800004577637 1191.6695205078124 -117.21800004577636 Q 1196.0615205078125 -120.87800004577636 1200.3620205078125 -122.61650004577636 Q 1204.6625205078126 -124.35500004577636 1209.0545205078124 -124.35500004577636 Q 1215.4595205078126 -124.35500004577636 1220.2175205078124 -120.78650004577636 Q 1224.9755205078125 -117.21800004577636 1224.9755205078125 -109.16600004577637 Q 1224.9755205078125 -106.42100004577637 1223.6945205078125 -103.40150004577636 Q 1222.4135205078126 -100.38200004577637 1219.6685205078124 -98.36900004577636 Q 1216.9235205078126 -96.35600004577637 1212.1655205078125 -96.35600004577637 Q 1208.5055205078124 -96.35600004577637 1204.6625205078126 -98.55200004577637 Q 1200.8195205078125 -100.74800004577637 1200.2705205078125 -106.97000004577636 Q 1196.6105205078125 -106.97000004577636 1192.9505205078126 -103.95050004577637 Q 1189.2905205078125 -100.93100004577637 1186.4540205078124 -96.81350004577637 Q 1183.6175205078125 -92.69600004577637 1182.5195205078126 -89.21900004577637 L 1182.5195205078126 -59.39000004577637 Q 1182.5195205078126 -56.82800004577636 1182.3365205078126 -52.161500045776364 Q 1182.1535205078126 -47.495000045776365 1181.7875205078126 -43.28600004577637 Q 1184.7155205078125 -43.65200004577637 1188.2840205078126 -43.743500045776365 Q 1191.8525205078124 -43.83500004577637 1193.6825205078126 -43.83500004577637 L 1193.6825205078126 -29.927000045776367 L 1145.7365205078124 -29.927000045776367 Z M 1235.39940625 -77.50700004577637 L 1235.39940625 -97.27100004577636 L 1302.74340625 -97.27100004577636 L 1302.74340625 -78.05600004577636 Z M 1317.19345703125 -29.927000045776367 L 1317.19345703125 -42.00500004577637 Q 1321.40245703125 -42.18800004577636 1324.23895703125 -43.10300004577637 Q 1327.07545703125 -44.01800004577637 1328.63095703125 -47.312000045776365 Q 1330.18645703125 -50.60600004577637 1330.18645703125 -57.92600004577636 L 1330.18645703125 -128.01500004577636 Q 1330.18645703125 -132.95600004577636 1330.46095703125 -137.53100004577635 Q 1330.73545703125 -142.10600004577637 1330.91845703125 -144.48500004577636 Q 1327.99045703125 -144.30200004577637 1323.59845703125 -144.21050004577637 Q 1319.20645703125 -144.11900004577637 1317.19345703125 -143.93600004577638 L 1317.19345703125 -158.02700004577636 L 1369.71445703125 -158.02700004577636 L 1369.71445703125 -145.94900004577636 Q 1365.68845703125 -145.76600004577637 1362.76045703125 -144.85100004577635 Q 1359.83245703125 -143.93600004577638 1358.27695703125 -140.73350004577637 Q 1356.7214570312499 -137.53100004577635 1356.7214570312499 -130.02800004577637 L 1356.7214570312499 -101.48000004577636 L 1407.04645703125 -101.48000004577636 L 1407.04645703125 -128.01500004577636 Q 1407.04645703125 -132.95600004577636 1407.22945703125 -137.53100004577635 Q 1407.41245703125 -142.10600004577637 1407.77845703125 -144.48500004577636 Q 1404.85045703125 -144.30200004577637 1400.45845703125 -144.21050004577637 Q 1396.06645703125 -144.11900004577637 1394.05345703125 -143.93600004577638 L 1394.05345703125 -158.02700004577636 L 1446.57445703125 -158.02700004577636 L 1446.57445703125 -145.94900004577636 Q 1442.54845703125 -145.76600004577637 1439.62045703125 -144.85100004577635 Q 1436.69245703125 -143.93600004577638 1435.13695703125 -140.73350004577637 Q 1433.58145703125 -137.53100004577635 1433.58145703125 -130.02800004577637 L 1433.58145703125 -59.93900004577637 Q 1433.58145703125 -54.998000045776365 1433.39845703125 -50.42300004577636 Q 1433.21545703125 -45.84800004577637 1432.84945703125 -43.46900004577637 Q 1435.77745703125 -43.83500004577637 1440.26095703125 -43.926500045776365 Q 1444.74445703125 -44.01800004577637 1446.57445703125 -44.01800004577637 L 1446.57445703125 -29.927000045776367 L 1394.05345703125 -29.927000045776367 L 1394.05345703125 -42.00500004577637 Q 1398.26245703125 -42.18800004577636 1401.09895703125 -43.10300004577637 Q 1403.93545703125 -44.01800004577637 1405.49095703125 -47.312000045776365 Q 1407.04645703125 -50.60600004577637 1407.04645703125 -57.92600004577636 L 1407.04645703125 -87.57200004577636 L 1356.7214570312499 -87.02300004577637 L 1356.7214570312499 -59.93900004577637 Q 1356.7214570312499 -54.998000045776365 1356.53845703125 -50.42300004577636 Q 1356.35545703125 -45.84800004577637 1355.98945703125 -43.46900004577637 Q 1358.91745703125 -43.83500004577637 1363.40095703125 -43.926500045776365 Q 1367.88445703125 -44.01800004577637 1369.71445703125 -44.01800004577637 L 1369.71445703125 -29.927000045776367 Z M 1503.29258984375 -26.999000045776366 Q 1490.11658984375 -26.999000045776366 1479.50258984375 -32.672000045776365 Q 1468.88858984375 -38.34500004577637 1462.75808984375 -48.86750004577637 Q 1456.62758984375 -59.39000004577637 1456.62758984375 -73.66400004577636 Q 1456.62758984375 -88.85300004577637 1462.94108984375 -100.29050004577637 Q 1469.25458984375 -111.72800004577637 1479.77708984375 -118.04150004577636 Q 1490.29958984375 -124.35500004577636 1502.74358984375 -124.35500004577636 Q 1515.91958984375 -124.35500004577636 1526.35058984375 -118.68200004577636 Q 1536.78158984375 -113.00900004577636 1542.82058984375 -102.48650004577637 Q 1548.85958984375 -91.96400004577637 1548.85958984375 -77.32400004577636 Q 1548.85958984375 -61.952000045776366 1543.00358984375 -50.60600004577637 Q 1537.14758984375 -39.260000045776366 1526.89958984375 -33.12950004577637 Q 1516.6515898437501 -26.999000045776366 1503.29258984375 -26.999000045776366 Z M 1504.02458984375 -39.992000045776365 Q 1511.34458984375 -40.175000045776365 1515.09608984375 -45.11600004577637 Q 1518.84758984375 -50.05700004577636 1520.31158984375 -57.56000004577636 Q 1521.77558984375 -65.06300004577636 1521.77558984375 -72.74900004577637 Q 1521.77558984375 -79.52000004577636 1520.76908984375 -86.47400004577636 Q 1519.76258984375 -93.42800004577637 1517.56658984375 -99.10100004577636 Q 1515.37058984375 -104.77400004577636 1511.61908984375 -108.25100004577637 Q 1507.86758984375 -111.72800004577637 1502.37758984375 -111.54500004577636 Q 1495.24058984375 -111.36200004577637 1491.12308984375 -106.42100004577637 Q 1487.00558984375 -101.48000004577636 1485.26708984375 -94.06850004577636 Q 1483.52858984375 -86.65700004577636 1483.52858984375 -78.60500004577636 Q 1483.52858984375 -69.27200004577637 1485.54158984375 -60.30500004577637 Q 1487.55458984375 -51.33800004577637 1492.03808984375 -45.57350004577637 Q 1496.52158984375 -39.809000045776365 1504.02458984375 -39.992000045776365 Z M 1572.6411142578124 -126.73400004577637 Q 1572.6411142578124 -148.87700004577636 1582.3401142578125 -158.48450004577637 Q 1592.0391142578126 -168.09200004577636 1608.5091142578126 -168.09200004577636 Q 1617.1101142578125 -168.09200004577636 1622.2341142578125 -165.62150004577637 Q 1627.3581142578125 -163.15100004577636 1629.5541142578124 -159.49100004577636 Q 1631.7501142578126 -155.83100004577636 1631.7501142578126 -151.98800004577635 Q 1631.7501142578126 -147.23000004577636 1628.8221142578125 -143.57000004577637 Q 1625.8941142578126 -139.91000004577637 1620.4041142578126 -139.72700004577638 Q 1615.0971142578126 -139.5440000457764 1612.1691142578125 -142.56350004577638 Q 1609.2411142578126 -145.58300004577637 1609.2411142578126 -150.15800004577636 Q 1609.2411142578126 -151.07300004577638 1609.3326142578126 -151.98800004577635 Q 1609.4241142578126 -152.90300004577637 1609.6071142578126 -153.81800004577636 Q 1608.6921142578126 -154.73300004577635 1607.5026142578124 -155.00750004577637 Q 1606.3131142578125 -155.28200004577639 1605.3981142578125 -155.28200004577639 Q 1602.4701142578124 -155.28200004577639 1600.8231142578124 -153.54350004577637 Q 1599.1761142578125 -151.80500004577635 1598.6271142578125 -149.24300004577637 Q 1598.0781142578126 -146.68100004577636 1598.0781142578126 -143.93600004577638 L 1598.0781142578126 -121.42700004577637 L 1618.5741142578124 -121.42700004577637 L 1618.5741142578124 -107.33600004577636 L 1598.2611142578126 -106.78700004577637 L 1598.4441142578125 -59.75600004577637 Q 1598.4441142578125 -57.19400004577636 1598.2611142578126 -52.34450004577637 Q 1598.0781142578126 -47.495000045776365 1597.7121142578126 -43.28600004577637 Q 1600.8231142578124 -43.65200004577637 1604.7576142578125 -43.743500045776365 Q 1608.6921142578126 -43.83500004577637 1610.5221142578125 -43.83500004577637 L 1610.5221142578125 -29.927000045776367 L 1561.6611142578124 -29.927000045776367 L 1561.6611142578124 -41.82200004577636 Q 1566.7851142578124 -41.82200004577636 1569.0726142578126 -43.83500004577637 Q 1571.3601142578125 -45.84800004577637 1572.0006142578125 -49.59950004577637 Q 1572.6411142578124 -53.35100004577637 1572.6411142578124 -58.10900004577637 L 1572.6411142578124 -106.42100004577637 L 1559.2821142578125 -106.23800004577636 L 1559.2821142578125 -121.42700004577637 L 1572.6411142578124 -121.42700004577637 Z M 1773.016720703125 -117.03500004577637 Q 1770.637720703125 -132.22400004577636 1762.860220703125 -139.91000004577637 Q 1755.082720703125 -147.59600004577635 1742.272720703125 -147.77900004577637 Q 1732.756720703125 -147.77900004577637 1725.619720703125 -143.38700004577635 Q 1718.482720703125 -138.99500004577635 1713.816220703125 -131.67500004577636 Q 1709.149720703125 -124.35500004577636 1706.862220703125 -115.02200004577637 Q 1704.574720703125 -105.68900004577637 1704.574720703125 -95.80700004577636 Q 1704.574720703125 -80.06900004577636 1709.058220703125 -67.89950004577636 Q 1713.541720703125 -55.730000045776364 1722.142720703125 -48.77600004577637 Q 1730.743720703125 -41.82200004577636 1743.004720703125 -41.82200004577636 Q 1754.533720703125 -41.82200004577636 1765.879720703125 -47.76950004577637 Q 1777.225720703125 -53.717000045776366 1784.911720703125 -64.33100004577636 L 1793.695720703125 -56.27900004577637 Q 1784.728720703125 -44.01800004577637 1774.846720703125 -37.70450004577637 Q 1764.964720703125 -31.391000045776366 1755.540220703125 -29.195000045776368 Q 1746.115720703125 -26.999000045776366 1738.612720703125 -26.999000045776366 Q 1724.521720703125 -26.999000045776366 1712.992720703125 -32.03150004577637 Q 1701.463720703125 -37.06400004577637 1693.137220703125 -45.93950004577637 Q 1684.810720703125 -54.815000045776365 1680.327220703125 -66.61850004577636 Q 1675.843720703125 -78.42200004577637 1675.843720703125 -92.14700004577637 Q 1675.843720703125 -104.59100004577637 1679.869720703125 -116.85200004577636 Q 1683.895720703125 -129.11300004577635 1691.856220703125 -139.08650004577635 Q 1699.816720703125 -149.06000004577635 1711.894720703125 -155.00750004577637 Q 1723.972720703125 -160.95500004577636 1739.893720703125 -160.95500004577636 Q 1747.030720703125 -160.95500004577636 1755.540220703125 -158.66750004577636 Q 1764.049720703125 -156.38000004577637 1771.552720703125 -151.98800004577635 L 1770.820720703125 -159.67400004577635 L 1784.911720703125 -159.67400004577635 L 1784.911720703125 -117.03500004577637 Z M 1857.3696416015625 -41.82200004577636 Q 1862.4936416015626 -41.82200004577636 1864.7811416015625 -43.83500004577637 Q 1867.0686416015626 -45.84800004577637 1867.7091416015626 -49.59950004577637 Q 1868.3496416015626 -53.35100004577637 1868.3496416015626 -58.10900004577637 L 1868.1666416015626 -84.09500004577637 Q 1868.1666416015626 -95.99000004577637 1864.5981416015625 -101.75450004577637 Q 1861.0296416015626 -107.51900004577637 1853.3436416015625 -107.51900004577637 Q 1848.7686416015624 -107.51900004577637 1844.2851416015626 -105.50600004577636 Q 1839.8016416015626 -103.49300004577637 1836.6906416015624 -100.74800004577637 L 1836.6906416015624 -59.39000004577637 Q 1836.6906416015624 -56.82800004577636 1836.5076416015625 -52.161500045776364 Q 1836.3246416015625 -47.495000045776365 1835.9586416015625 -43.28600004577637 Q 1839.0696416015626 -43.65200004577637 1842.5466416015624 -43.743500045776365 Q 1846.0236416015625 -43.83500004577637 1847.8536416015625 -43.83500004577637 L 1847.8536416015625 -29.927000045776367 L 1799.9076416015625 -29.927000045776367 L 1799.9076416015625 -41.82200004577636 Q 1805.0316416015626 -41.82200004577636 1807.3191416015625 -43.83500004577637 Q 1809.6066416015624 -45.84800004577637 1810.1556416015626 -49.59950004577637 Q 1810.7046416015626 -53.35100004577637 1810.7046416015626 -58.10900004577637 L 1810.7046416015626 -133.32200004577635 Q 1810.7046416015626 -136.61600004577636 1810.8876416015626 -140.91650004577636 Q 1811.0706416015626 -145.21700004577636 1811.4366416015625 -149.24300004577637 Q 1808.5086416015624 -149.06000004577635 1804.5741416015626 -148.96850004577635 Q 1800.6396416015625 -148.87700004577636 1798.6266416015626 -148.69400004577636 L 1798.6266416015626 -162.60200004577635 Q 1807.2276416015625 -162.60200004577635 1812.9921416015625 -163.51700004577637 Q 1818.7566416015625 -164.43200004577636 1822.1421416015626 -165.71300004577637 Q 1825.5276416015624 -166.99400004577637 1826.8086416015626 -168.09200004577636 L 1836.6906416015624 -168.09200004577636 L 1836.6906416015624 -114.10700004577636 Q 1840.3506416015625 -117.03500004577637 1845.1086416015626 -119.32250004577637 Q 1849.8666416015626 -121.61000004577636 1854.8076416015624 -122.98250004577636 Q 1859.7486416015624 -124.35500004577636 1863.4086416015625 -124.35500004577636 Q 1880.2446416015625 -124.35500004577636 1887.1986416015625 -114.74750004577636 Q 1894.1526416015624 -105.14000004577636 1894.3356416015624 -83.91200004577637 L 1894.3356416015624 -59.39000004577637 Q 1894.3356416015624 -56.82800004577636 1894.1526416015624 -52.161500045776364 Q 1893.9696416015624 -47.495000045776365 1893.6036416015625 -43.28600004577637 Q 1896.5316416015626 -43.65200004577637 1900.0086416015624 -43.743500045776365 Q 1903.4856416015625 -43.83500004577637 1905.4986416015624 -43.83500004577637 L 1905.4986416015624 -29.927000045776367 L 1857.3696416015625 -29.927000045776367 Z M 1959.8404306640625 -26.999000045776366 Q 1946.4814306640626 -26.999000045776366 1936.2334306640626 -32.94650004577637 Q 1925.9854306640625 -38.894000045776366 1920.3124306640625 -49.78250004577637 Q 1914.6394306640625 -60.67100004577637 1914.6394306640625 -75.49400004577637 Q 1914.6394306640625 -88.30400004577636 1920.3124306640625 -99.46700004577636 Q 1925.9854306640625 -110.63000004577637 1936.3249306640625 -117.49250004577637 Q 1946.6644306640626 -124.35500004577636 1960.3894306640625 -124.35500004577636 Q 1968.0754306640624 -124.35500004577636 1975.3954306640626 -122.25050004577636 Q 1982.7154306640625 -120.14600004577636 1988.6629306640625 -115.02200004577637 Q 1994.6104306640625 -109.89800004577637 1998.1789306640626 -101.11400004577636 Q 2001.7474306640624 -92.33000004577636 2001.5644306640625 -79.15400004577637 L 1941.5404306640626 -78.05600004577636 Q 1941.5404306640626 -68.17400004577637 1944.0109306640625 -60.30500004577637 Q 1946.4814306640626 -52.43600004577637 1952.1544306640626 -47.861000045776365 Q 1957.8274306640626 -43.28600004577637 1967.3434306640625 -43.28600004577637 Q 1971.0034306640625 -43.28600004577637 1975.6699306640626 -44.56700004577637 Q 1980.3364306640624 -45.84800004577637 1985.1859306640624 -48.86750004577637 Q 1990.0354306640625 -51.88700004577637 1994.2444306640625 -57.01100004577637 L 2002.4794306640624 -49.32500004577636 Q 1995.8914306640625 -39.992000045776365 1988.3884306640625 -35.142500045776366 Q 1980.8854306640626 -30.293000045776367 1973.4739306640624 -28.64600004577637 Q 1966.0624306640625 -26.999000045776366 1959.8404306640625 -26.999000045776366 Z M 1942.6384306640625 -90.86600004577636 L 1976.3104306640626 -90.86600004577636 Q 1976.1274306640626 -98.55200004577637 1974.2059306640624 -103.03550004577636 Q 1972.2844306640625 -107.51900004577637 1968.9904306640624 -109.53200004577637 Q 1965.6964306640625 -111.54500004577636 1961.3044306640625 -111.54500004577636 Q 1953.2524306640626 -111.54500004577636 1948.6774306640625 -105.78050004577636 Q 1944.1024306640625 -100.01600004577637 1942.6384306640625 -90.86600004577636 Z M 2014.9154755859374 -29.927000045776367 L 2014.9154755859374 -41.82200004577636 Q 2020.0394755859375 -41.82200004577636 2022.2354755859376 -43.83500004577637 Q 2024.4314755859375 -45.84800004577637 2025.0719755859375 -49.59950004577637 Q 2025.7124755859375 -53.35100004577637 2025.7124755859375 -58.10900004577637 L 2025.7124755859375 -88.85300004577637 Q 2025.7124755859375 -92.14700004577637 2025.8954755859374 -96.26450004577636 Q 2026.0784755859374 -100.38200004577637 2026.4444755859374 -104.40800004577636 Q 2023.5164755859375 -104.22500004577637 2019.5819755859375 -104.13350004577637 Q 2015.6474755859374 -104.04200004577636 2013.6344755859375 -103.85900004577637 L 2013.6344755859375 -117.76700004577637 Q 2022.0524755859376 -117.76700004577637 2027.9084755859376 -118.68200004577636 Q 2033.7644755859376 -119.59700004577637 2037.1499755859375 -120.87800004577636 Q 2040.5354755859375 -122.15900004577637 2041.8164755859375 -123.25700004577637 L 2050.7834755859376 -123.25700004577637 Q 2051.1494755859376 -121.42700004577637 2051.2409755859376 -118.68200004577636 Q 2051.3324755859376 -115.93700004577637 2051.5154755859376 -114.10700004577636 Q 2057.7374755859373 -118.86500004577637 2064.9659755859375 -121.61000004577636 Q 2072.1944755859377 -124.35500004577636 2078.5994755859374 -124.35500004577636 Q 2087.0174755859375 -124.35500004577636 2092.5074755859373 -121.33550004577637 Q 2097.9974755859375 -118.31600004577636 2101.2914755859374 -112.27700004577636 Q 2107.8794755859376 -117.76700004577637 2115.8399755859373 -121.06100004577637 Q 2123.8004755859374 -124.35500004577636 2131.1204755859376 -124.35500004577636 Q 2145.9434755859374 -124.35500004577636 2153.5379755859376 -115.84550004577636 Q 2161.1324755859373 -107.33600004577636 2161.1324755859373 -86.29100004577637 L 2161.1324755859373 -59.39000004577637 Q 2161.1324755859373 -56.82800004577636 2160.9494755859373 -52.161500045776364 Q 2160.7664755859373 -47.495000045776365 2160.4004755859373 -43.28600004577637 Q 2163.3284755859377 -43.65200004577637 2166.8969755859375 -43.743500045776365 Q 2170.4654755859374 -43.83500004577637 2172.2954755859373 -43.83500004577637 L 2172.2954755859373 -29.927000045776367 L 2125.9964755859373 -29.927000045776367 L 2125.9964755859373 -41.82200004577636 Q 2130.2054755859376 -41.82200004577636 2132.1269755859375 -43.83500004577637 Q 2134.0484755859375 -45.84800004577637 2134.5974755859374 -49.59950004577637 Q 2135.1464755859374 -53.35100004577637 2135.1464755859374 -58.10900004577637 L 2135.1464755859374 -86.10800004577636 Q 2134.9634755859374 -98.00300004577636 2131.2119755859376 -102.57800004577636 Q 2127.4604755859373 -107.15300004577637 2121.2384755859375 -107.33600004577636 Q 2116.4804755859377 -107.51900004577637 2112.3629755859374 -105.68900004577637 Q 2108.2454755859376 -103.85900004577637 2104.9514755859377 -101.29700004577637 Q 2105.8664755859377 -97.63700004577636 2106.2324755859377 -93.24500004577637 Q 2106.5984755859376 -88.85300004577637 2106.5984755859376 -83.91200004577637 Q 2106.5984755859376 -77.69000004577637 2106.5984755859376 -71.65100004577636 Q 2106.5984755859376 -65.61200004577637 2106.5984755859376 -59.39000004577637 Q 2106.5984755859376 -56.82800004577636 2106.4154755859377 -52.161500045776364 Q 2106.2324755859377 -47.495000045776365 2105.8664755859377 -43.28600004577637 Q 2108.7944755859376 -43.65200004577637 2112.2714755859374 -43.743500045776365 Q 2115.7484755859373 -43.83500004577637 2117.7614755859377 -43.83500004577637 L 2117.7614755859377 -29.927000045776367 L 2070.5474755859377 -29.927000045776367 L 2070.5474755859377 -41.82200004577636 Q 2075.3054755859375 -41.82200004577636 2077.4099755859374 -43.83500004577637 Q 2079.5144755859374 -45.84800004577637 2080.0634755859373 -49.59950004577637 Q 2080.6124755859373 -53.35100004577637 2080.6124755859373 -58.10900004577637 L 2080.4294755859373 -86.65700004577636 Q 2080.4294755859373 -98.55200004577637 2076.9524755859375 -102.94400004577636 Q 2073.4754755859376 -107.33600004577636 2067.2534755859374 -107.51900004577637 Q 2062.6784755859376 -107.51900004577637 2058.7439755859373 -105.50600004577636 Q 2054.8094755859374 -103.49300004577637 2051.6984755859376 -100.74800004577637 Q 2051.6984755859376 -98.36900004577636 2051.6984755859376 -96.17300004577636 Q 2051.6984755859376 -93.97700004577636 2051.6984755859376 -91.59800004577636 L 2051.6984755859376 -59.39000004577637 Q 2051.6984755859376 -56.82800004577636 2051.5154755859376 -52.161500045776364 Q 2051.3324755859376 -47.495000045776365 2050.9664755859376 -43.28600004577637 Q 2053.8944755859375 -43.65200004577637 2057.0054755859373 -43.743500045776365 Q 2060.1164755859377 -43.83500004577637 2061.9464755859376 -43.83500004577637 L 2061.9464755859376 -29.927000045776367 Z M 2183.2617890625 -29.927000045776367 L 2183.2617890625 -41.82200004577636 Q 2188.3857890625 -41.82200004577636 2190.5817890625 -43.83500004577637 Q 2192.7777890625 -45.84800004577637 2193.4182890625 -49.59950004577637 Q 2194.0587890625 -53.35100004577637 2194.0587890625 -58.10900004577637 L 2194.0587890625 -88.85300004577637 Q 2194.0587890625 -92.14700004577637 2194.2417890625 -96.26450004577636 Q 2194.4247890625 -100.38200004577637 2194.7907890625 -104.40800004577636 Q 2191.8627890625 -104.22500004577637 2187.9282890625 -104.13350004577637 Q 2183.9937890625 -104.04200004577636 2181.9807890625 -103.85900004577637 L 2181.9807890625 -117.76700004577637 Q 2190.3987890625 -117.76700004577637 2196.2547890625 -118.68200004577636 Q 2202.1107890625 -119.59700004577637 2205.4962890625 -120.87800004577636 Q 2208.8817890625 -122.15900004577637 2210.1627890625 -123.25700004577637 L 2219.1297890625 -123.25700004577637 Q 2219.4957890625 -120.87800004577636 2219.4957890625 -119.78000004577636 Q 2219.4957890625 -118.68200004577636 2219.5872890625 -117.67550004577636 Q 2219.6787890625 -116.66900004577637 2220.2277890625 -114.10700004577636 Q 2223.8877890625 -117.03500004577637 2228.6457890625 -119.32250004577637 Q 2233.4037890625 -121.61000004577636 2238.1617890625 -122.98250004577636 Q 2242.9197890625 -124.35500004577636 2246.5797890625 -124.35500004577636 Q 2263.4157890625 -124.35500004577636 2270.4612890625 -114.74750004577636 Q 2277.5067890625 -105.14000004577636 2277.5067890625 -83.91200004577637 L 2277.5067890625 -59.39000004577637 Q 2277.5067890625 -56.82800004577636 2277.3237890625 -52.161500045776364 Q 2277.1407890625 -47.495000045776365 2276.7747890625 -43.28600004577637 Q 2279.8857890625 -43.65200004577637 2283.3627890625 -43.743500045776365 Q 2286.8397890625 -43.83500004577637 2288.6697890625 -43.83500004577637 L 2288.6697890625 -29.927000045776367 L 2240.7237890625 -29.927000045776367 L 2240.7237890625 -41.82200004577636 Q 2245.8477890625 -41.82200004577636 2248.1352890625 -43.83500004577637 Q 2250.4227890625 -45.84800004577637 2251.0632890625 -49.59950004577637 Q 2251.7037890625 -53.35100004577637 2251.7037890625 -58.10900004577637 L 2251.5207890625 -84.09500004577637 Q 2251.5207890625 -95.99000004577637 2248.1352890625 -101.75450004577637 Q 2244.7497890625 -107.51900004577637 2236.6977890625 -107.51900004577637 Q 2232.1227890625 -107.51900004577637 2227.6392890625 -105.50600004577636 Q 2223.1557890625 -103.49300004577637 2220.0447890625 -100.74800004577637 Q 2220.0447890625 -98.18600004577637 2220.0447890625 -95.53250004577636 Q 2220.0447890625 -92.87900004577637 2220.0447890625 -90.31700004577637 L 2220.0447890625 -59.39000004577637 Q 2220.0447890625 -56.82800004577636 2219.8617890625 -52.161500045776364 Q 2219.6787890625 -47.495000045776365 2219.3127890625 -43.28600004577637 Q 2222.2407890625 -43.65200004577637 2225.8092890625 -43.743500045776365 Q 2229.3777890625 -43.83500004577637 2231.2077890625 -43.83500004577637 L 2231.2077890625 -29.927000045776367 Z M 2299.64020703125 -41.82200004577636 Q 2304.76420703125 -41.82200004577636 2306.96020703125 -43.83500004577637 Q 2309.15620703125 -45.84800004577637 2309.79670703125 -49.59950004577637 Q 2310.43720703125 -53.35100004577637 2310.43720703125 -58.10900004577637 L 2310.43720703125 -88.48700004577637 Q 2310.43720703125 -91.78100004577637 2310.62020703125 -96.08150004577637 Q 2310.80320703125 -100.38200004577637 2311.16920703125 -104.40800004577636 Q 2308.24120703125 -104.22500004577637 2304.30670703125 -104.13350004577637 Q 2300.37220703125 -104.04200004577636 2298.35920703125 -103.85900004577637 L 2298.35920703125 -117.76700004577637 Q 2306.77720703125 -117.76700004577637 2312.63320703125 -118.68200004577636 Q 2318.48920703125 -119.59700004577637 2321.87470703125 -120.87800004577636 Q 2325.26020703125 -122.15900004577637 2326.54120703125 -123.25700004577637 L 2336.42320703125 -123.25700004577637 L 2336.42320703125 -59.39000004577637 Q 2336.42320703125 -56.82800004577636 2336.24020703125 -52.161500045776364 Q 2336.05720703125 -47.495000045776365 2335.69120703125 -43.28600004577637 Q 2338.61920703125 -43.65200004577637 2342.18770703125 -43.743500045776365 Q 2345.75620703125 -43.83500004577637 2347.58620703125 -43.83500004577637 L 2347.58620703125 -29.927000045776367 L 2299.64020703125 -29.927000045776367 Z M 2322.51520703125 -137.71400004577634 Q 2316.29320703125 -137.71400004577634 2312.26720703125 -142.10600004577637 Q 2308.24120703125 -146.49800004577637 2308.24120703125 -152.72000004577637 Q 2308.24120703125 -158.94200004577635 2312.45020703125 -163.33400004577638 Q 2316.65920703125 -167.72600004577637 2322.33220703125 -167.72600004577637 Q 2328.18820703125 -167.72600004577637 2332.12270703125 -163.33400004577638 Q 2336.05720703125 -158.94200004577635 2336.05720703125 -152.72000004577637 Q 2336.05720703125 -146.49800004577637 2332.39720703125 -142.10600004577637 Q 2328.73720703125 -137.71400004577634 2322.51520703125 -137.71400004577634 Z M 2394.978455078125 -26.999000045776366 Q 2389.488455078125 -26.999000045776366 2384.455955078125 -28.28000004577637 Q 2379.423455078125 -29.561000045776368 2375.305955078125 -33.12950004577637 Q 2371.188455078125 -36.69800004577637 2368.809455078125 -43.65200004577637 Q 2366.430455078125 -50.60600004577637 2366.430455078125 -62.135000045776366 L 2366.796455078125 -106.23800004577636 L 2354.352455078125 -106.23800004577636 L 2354.352455078125 -121.42700004577637 Q 2360.025455078125 -121.61000004577636 2365.332455078125 -125.27000004577637 Q 2370.639455078125 -128.93000004577635 2374.390955078125 -134.78600004577635 Q 2378.142455078125 -140.64200004577637 2379.423455078125 -147.04700004577637 L 2392.965455078125 -147.04700004577637 L 2392.782455078125 -121.42700004577637 L 2416.023455078125 -121.42700004577637 L 2416.023455078125 -107.33600004577636 L 2392.782455078125 -106.78700004577637 L 2392.599455078125 -61.769000045776366 Q 2392.599455078125 -57.56000004577636 2393.422955078125 -53.44250004577637 Q 2394.246455078125 -49.32500004577636 2396.625455078125 -46.67150004577637 Q 2399.004455078125 -44.01800004577637 2403.579455078125 -44.01800004577637 Q 2406.141455078125 -44.01800004577637 2410.624955078125 -45.84800004577637 Q 2415.108455078125 -47.67800004577637 2420.232455078125 -54.998000045776365 L 2429.016455078125 -46.763000045776366 Q 2424.075455078125 -39.443000045776365 2418.768455078125 -35.41700004577637 Q 2413.461455078125 -31.391000045776366 2408.611955078125 -29.561000045776368 Q 2403.762455078125 -27.73100004577637 2400.102455078125 -27.365000045776366 Q 2396.442455078125 -26.999000045776366 2394.978455078125 -26.999000045776366 Z M 2433.219453125 -29.927000045776367 L 2433.219453125 -43.10300004577637 L 2475.309453125 -98.55200004577637 Q 2478.420453125 -102.57800004577636 2481.165453125 -105.68900004577637 Q 2483.910453125 -108.80000004577637 2484.642453125 -109.53200004577637 L 2459.937453125 -109.16600004577637 Q 2455.728453125 -109.16600004577637 2453.074953125 -105.96350004577637 Q 2450.421453125 -102.76100004577637 2448.774453125 -97.63700004577636 Q 2447.127453125 -92.51300004577637 2446.212453125 -86.10800004577636 L 2434.866453125 -86.10800004577636 L 2437.428453125 -121.42700004577637 L 2511.543453125 -121.42700004577637 L 2511.543453125 -109.89800004577637 L 2470.734453125 -54.449000045776366 Q 2468.172453125 -50.97200004577637 2465.610453125 -48.227000045776364 Q 2463.048453125 -45.48200004577637 2460.486453125 -43.28600004577637 L 2486.289453125 -42.55400004577636 Q 2492.145453125 -42.37100004577637 2495.530953125 -45.48200004577637 Q 2498.916453125 -48.593000045776364 2500.746453125 -53.99150004577636 Q 2502.576453125 -59.39000004577637 2503.491453125 -65.79500004577636 L 2514.837453125 -65.79500004577636 L 2512.092453125 -29.927000045776367 Z M 2619.86765234375 -26.999000045776366 Q 2606.50865234375 -26.999000045776366 2596.26065234375 -32.94650004577637 Q 2586.01265234375 -38.894000045776366 2580.33965234375 -49.78250004577637 Q 2574.66665234375 -60.67100004577637 2574.66665234375 -75.49400004577637 Q 2574.66665234375 -88.30400004577636 2580.33965234375 -99.46700004577636 Q 2586.01265234375 -110.63000004577637 2596.35215234375 -117.49250004577637 Q 2606.69165234375 -124.35500004577636 2620.41665234375 -124.35500004577636 Q 2628.10265234375 -124.35500004577636 2635.42265234375 -122.25050004577636 Q 2642.74265234375 -120.14600004577636 2648.69015234375 -115.02200004577637 Q 2654.63765234375 -109.89800004577637 2658.20615234375 -101.11400004577636 Q 2661.77465234375 -92.33000004577636 2661.59165234375 -79.15400004577637 L 2601.56765234375 -78.05600004577636 Q 2601.56765234375 -68.17400004577637 2604.03815234375 -60.30500004577637 Q 2606.50865234375 -52.43600004577637 2612.18165234375 -47.861000045776365 Q 2617.85465234375 -43.28600004577637 2627.37065234375 -43.28600004577637 Q 2631.03065234375 -43.28600004577637 2635.69715234375 -44.56700004577637 Q 2640.36365234375 -45.84800004577637 2645.21315234375 -48.86750004577637 Q 2650.06265234375 -51.88700004577637 2654.27165234375 -57.01100004577637 L 2662.50665234375 -49.32500004577636 Q 2655.91865234375 -39.992000045776365 2648.41565234375 -35.142500045776366 Q 2640.91265234375 -30.293000045776367 2633.50115234375 -28.64600004577637 Q 2626.08965234375 -26.999000045776366 2619.86765234375 -26.999000045776366 Z M 2602.66565234375 -90.86600004577636 L 2636.33765234375 -90.86600004577636 Q 2636.15465234375 -98.55200004577637 2634.23315234375 -103.03550004577636 Q 2632.31165234375 -107.51900004577637 2629.01765234375 -109.53200004577637 Q 2625.72365234375 -111.54500004577636 2621.33165234375 -111.54500004577636 Q 2613.27965234375 -111.54500004577636 2608.70465234375 -105.78050004577636 Q 2604.12965234375 -100.01600004577637 2602.66565234375 -90.86600004577636 Z M 2689.03394140625 -26.999000045776366 Q 2682.99494140625 -26.999000045776366 2679.24344140625 -31.208000045776366 Q 2675.49194140625 -35.41700004577637 2675.49194140625 -41.27300004577637 Q 2675.49194140625 -47.129000045776365 2679.51794140625 -51.33800004577637 Q 2683.54394140625 -55.54700004577637 2688.85094140625 -55.54700004577637 Q 2694.52394140625 -55.54700004577637 2698.27544140625 -51.33800004577637 Q 2702.02694140625 -47.129000045776365 2702.02694140625 -41.27300004577637 Q 2702.02694140625 -35.41700004577637 2698.45844140625 -31.208000045776366 Q 2694.88994140625 -26.999000045776366 2689.03394140625 -26.999000045776366 Z M 2748.139345703125 -28.829000045776368 L 2706.049345703125 -127.10000004577637 Q 2704.219345703125 -131.67500004577636 2702.572345703125 -136.61600004577636 Q 2700.925345703125 -141.55700004577636 2700.925345703125 -144.48500004577636 Q 2697.997345703125 -144.30200004577637 2695.526845703125 -144.21050004577637 Q 2693.056345703125 -144.11900004577637 2691.043345703125 -143.93600004577638 L 2691.043345703125 -158.02700004577636 L 2745.028345703125 -158.02700004577636 L 2745.028345703125 -145.94900004577636 Q 2738.257345703125 -146.13200004577635 2734.688845703125 -143.02100004577636 Q 2731.120345703125 -139.91000004577637 2734.414345703125 -131.85800004577635 Q 2738.623345703125 -121.61000004577636 2742.832345703125 -111.17900004577636 Q 2747.041345703125 -100.74800004577637 2751.250345703125 -90.50000004577637 Q 2754.361345703125 -82.81400004577637 2756.557345703125 -77.04950004577637 Q 2758.753345703125 -71.28500004577637 2761.681345703125 -64.33100004577636 L 2761.864345703125 -64.33100004577636 Q 2763.877345703125 -69.82100004577637 2766.164845703125 -76.59200004577636 Q 2768.452345703125 -83.36300004577637 2770.648345703125 -89.58500004577637 Q 2773.027345703125 -95.99000004577637 2775.314845703125 -102.39500004577637 Q 2777.602345703125 -108.80000004577637 2779.981345703125 -115.11350004577636 Q 2782.360345703125 -121.42700004577637 2784.556345703125 -127.83200004577637 Q 2785.471345703125 -130.94300004577636 2787.575845703125 -136.25000004577635 Q 2789.680345703125 -141.55700004577636 2792.059345703125 -144.48500004577636 Q 2789.131345703125 -144.30200004577637 2784.556345703125 -144.21050004577637 Q 2779.981345703125 -144.11900004577637 2777.968345703125 -143.93600004577638 L 2777.968345703125 -158.02700004577636 L 2819.143345703125 -158.02700004577636 L 2819.143345703125 -145.94900004577636 Q 2812.921345703125 -145.76600004577637 2808.346345703125 -141.37400004577637 Q 2803.771345703125 -136.98200004577637 2799.745345703125 -126.36800004577637 Q 2796.634345703125 -118.31600004577636 2793.614845703125 -110.17250004577636 Q 2790.595345703125 -102.02900004577637 2787.575845703125 -93.88550004577637 Q 2784.556345703125 -85.74200004577636 2781.445345703125 -77.59850004577638 Q 2778.334345703125 -69.45500004577636 2775.314845703125 -61.31150004577637 Q 2772.295345703125 -53.16800004577637 2769.275845703125 -45.11600004577637 Q 2766.256345703125 -37.06400004577637 2763.145345703125 -28.829000045776368 Z M 2820.230962890625 -26.999000045776366 Q 2814.191962890625 -26.999000045776366 2810.440462890625 -31.208000045776366 Q 2806.688962890625 -35.41700004577637 2806.688962890625 -41.27300004577637 Q 2806.688962890625 -47.129000045776365 2810.714962890625 -51.33800004577637 Q 2814.740962890625 -55.54700004577637 2820.047962890625 -55.54700004577637 Q 2825.720962890625 -55.54700004577637 2829.472462890625 -51.33800004577637 Q 2833.223962890625 -47.129000045776365 2833.223962890625 -41.27300004577637 Q 2833.223962890625 -35.41700004577637 2829.655462890625 -31.208000045776366 Q 2826.086962890625 -26.999000045776366 2820.230962890625 -26.999000045776366 Z" transform="matrix(1, 0, 0, 1, 0, 0)" style="white-space: pre;"/>
  <text style="fill: #111111; font-family: Inter; font-size: 54px; font-weight: 600; white-space: pre;" x="723.395" y="135.462">Verein zur Förderung von Landschaftspflege und Naturschutz</text>
  <rect x="719.874" y="26.589" width="2162.04" height="13.421" style="fill: var(--c9);"/>
</svg>
